M48
; DRILL file {KiCad 9.0.6} date 2026-03-25T12:33:22-0400
; FORMAT={-:-/ absolute / metric / decimal}
; #@! TF.CreationDate,2026-03-25T12:33:22-04:00
; #@! TF.GenerationSoftware,Kicad,Pcbnew,9.0.6
; #@! TF.FileFunction,Plated,1,4,PTH
FMAT,2
METRIC
; #@! TA.AperFunction,Plated,PTH,ViaDrill
T1C0.300
; #@! TA.AperFunction,Plated,PTH,ComponentDrill
T2C0.500
; #@! TA.AperFunction,Plated,PTH,ComponentDrill
T3C0.750
; #@! TA.AperFunction,Plated,PTH,ComponentDrill
T4C0.850
%
G90
G05
T1
X76.4Y-62.3
X76.6Y-67.1
X78.4Y-69.8
X79.0Y-71.0
X79.5Y-60.6
X79.6Y-67.9
X79.601Y-65.5
X79.7Y-62.7
X79.8Y-64.1
X81.212Y-59.863
X81.8Y-62.2
X81.9Y-63.311
X81.9Y-68.4
X82.087Y-66.017
X82.1Y-64.481
X82.1Y-67.24
X83.5Y-71.0
X84.875Y-69.501
X86.5Y-62.7
X86.566Y-67.375
X86.604Y-66.626
X86.7Y-63.923
X87.145Y-70.855
X87.322Y-64.978
X87.328Y-60.5
X88.127Y-69.0
X88.2Y-59.5
X89.4Y-70.6
X91.4Y-56.4
X93.2Y-61.8
X93.8Y-78.996
X93.8Y-79.746
X94.3Y-60.7
X94.325Y-80.487
X94.595Y-78.305
X94.7Y-88.5
X95.637Y-76.1
X97.2Y-43.2
X97.2Y-45.2
X97.237Y-77.6
X97.363Y-76.1
X97.4Y-87.1
X97.6Y-80.2
X98.8Y-81.249
X98.9Y-82.3
X98.9Y-84.2
X98.938Y-76.1
X98.963Y-77.6
X99.1Y-42.7
X99.65Y-82.412
X100.38Y-80.625
X100.6Y-77.6
X100.663Y-76.1
X101.1Y-42.8
X101.79Y-86.604
X102.1Y-80.5
X102.1Y-85.4
X102.237Y-76.1
X102.3Y-67.9
X102.325Y-77.6
X102.524Y-86.024
X102.84Y-80.623
X102.9Y-70.9
X103.0Y-67.2
X103.5Y-85.7
X103.59Y-80.608
X103.8Y-66.8
X103.956Y-86.581
X103.963Y-76.1
X104.2Y-78.1
X104.525Y-81.38
X104.574Y-82.65
X104.6Y-83.4
X105.1Y-74.5
X105.55Y-79.5
X106.2Y-78.9
X106.2Y-79.9
X106.3Y-70.1
X107.105Y-73.795
X108.9Y-70.7
X110.1Y-72.5
X110.3Y-69.4
X110.6Y-56.6
X114.0Y-58.8
X114.25Y-65.2
X115.55Y-64.675
X120.0Y-69.5
X120.354Y-67.846
X120.4Y-63.9
X120.7Y-63.0
X121.5Y-60.4
X122.8Y-65.399
X123.5Y-69.4
X124.1Y-64.8
T2
X94.579Y-62.321
X95.286Y-61.614
X95.993Y-60.907
X96.7Y-60.2
X97.407Y-59.493
T3
X99.1Y-44.25
X101.1Y-44.25
T4
X95.5Y-48.05
X95.5Y-51.4
X98.5Y-48.05
X98.5Y-51.4
X101.5Y-48.05
X101.5Y-51.4
X104.5Y-48.05
X104.5Y-51.4
X113.3Y-63.2
X113.3Y-69.8
X116.65Y-63.2
X116.65Y-69.8
M30
