%TF.GenerationSoftware,KiCad,Pcbnew,9.0.6*%
%TF.CreationDate,2026-03-25T12:31:12-04:00*%
%TF.ProjectId,newschematic,6e657773-6368-4656-9d61-7469632e6b69,0*%
%TF.SameCoordinates,Original*%
%TF.FileFunction,Legend,Top*%
%TF.FilePolarity,Positive*%
%FSLAX46Y46*%
G04 Gerber Fmt 4.6, Leading zero omitted, Abs format (unit mm)*
G04 Created by KiCad (PCBNEW 9.0.6) date 2026-03-25 12:31:12*
%MOMM*%
%LPD*%
G01*
G04 APERTURE LIST*
%ADD10C,0.100000*%
%ADD11C,0.160000*%
%ADD12C,0.150000*%
%ADD13C,0.120000*%
G04 APERTURE END LIST*
D10*
X96000000Y-58600001D02*
X96000000Y-60000000D01*
X89600001Y-60000000D01*
X89600000Y-58600000D01*
X96000000Y-58600001D01*
X101700000Y-52650000D02*
X106100000Y-52650000D01*
X106100000Y-53949999D01*
X101700000Y-53949999D01*
X101700000Y-52650000D01*
X92300000Y-52650000D02*
X98100000Y-52650000D01*
X98100000Y-56750000D01*
X92300000Y-56750000D01*
X92300000Y-52650000D01*
X89600000Y-56950000D02*
X96000000Y-56950000D01*
X96000000Y-58450000D01*
X89600000Y-58450000D01*
X89600000Y-56950000D01*
X101699999Y-54100000D02*
X109000000Y-54100000D01*
X109000000Y-55600000D01*
X101699999Y-55600000D01*
X101699999Y-54100000D01*
D11*
X89957643Y-59465202D02*
X90338596Y-59465202D01*
X89881453Y-59693774D02*
X90148120Y-58893774D01*
X90148120Y-58893774D02*
X90414786Y-59693774D01*
X90681453Y-59160440D02*
X90681453Y-59693774D01*
X90681453Y-59236631D02*
X90719548Y-59198536D01*
X90719548Y-59198536D02*
X90795738Y-59160440D01*
X90795738Y-59160440D02*
X90910024Y-59160440D01*
X90910024Y-59160440D02*
X90986215Y-59198536D01*
X90986215Y-59198536D02*
X91024310Y-59274726D01*
X91024310Y-59274726D02*
X91024310Y-59693774D01*
X91748120Y-59693774D02*
X91748120Y-59274726D01*
X91748120Y-59274726D02*
X91710025Y-59198536D01*
X91710025Y-59198536D02*
X91633834Y-59160440D01*
X91633834Y-59160440D02*
X91481453Y-59160440D01*
X91481453Y-59160440D02*
X91405263Y-59198536D01*
X91748120Y-59655679D02*
X91671929Y-59693774D01*
X91671929Y-59693774D02*
X91481453Y-59693774D01*
X91481453Y-59693774D02*
X91405263Y-59655679D01*
X91405263Y-59655679D02*
X91367167Y-59579488D01*
X91367167Y-59579488D02*
X91367167Y-59503298D01*
X91367167Y-59503298D02*
X91405263Y-59427107D01*
X91405263Y-59427107D02*
X91481453Y-59389012D01*
X91481453Y-59389012D02*
X91671929Y-59389012D01*
X91671929Y-59389012D02*
X91748120Y-59350917D01*
X92243358Y-59693774D02*
X92167168Y-59655679D01*
X92167168Y-59655679D02*
X92129073Y-59579488D01*
X92129073Y-59579488D02*
X92129073Y-58893774D01*
X92548121Y-59693774D02*
X92548121Y-59160440D01*
X92548121Y-58893774D02*
X92510025Y-58931869D01*
X92510025Y-58931869D02*
X92548121Y-58969964D01*
X92548121Y-58969964D02*
X92586216Y-58931869D01*
X92586216Y-58931869D02*
X92548121Y-58893774D01*
X92548121Y-58893774D02*
X92548121Y-58969964D01*
X92890977Y-59655679D02*
X92967168Y-59693774D01*
X92967168Y-59693774D02*
X93119549Y-59693774D01*
X93119549Y-59693774D02*
X93195739Y-59655679D01*
X93195739Y-59655679D02*
X93233835Y-59579488D01*
X93233835Y-59579488D02*
X93233835Y-59541393D01*
X93233835Y-59541393D02*
X93195739Y-59465202D01*
X93195739Y-59465202D02*
X93119549Y-59427107D01*
X93119549Y-59427107D02*
X93005263Y-59427107D01*
X93005263Y-59427107D02*
X92929073Y-59389012D01*
X92929073Y-59389012D02*
X92890977Y-59312821D01*
X92890977Y-59312821D02*
X92890977Y-59274726D01*
X92890977Y-59274726D02*
X92929073Y-59198536D01*
X92929073Y-59198536D02*
X93005263Y-59160440D01*
X93005263Y-59160440D02*
X93119549Y-59160440D01*
X93119549Y-59160440D02*
X93195739Y-59198536D01*
X93919549Y-59693774D02*
X93919549Y-59274726D01*
X93919549Y-59274726D02*
X93881454Y-59198536D01*
X93881454Y-59198536D02*
X93805263Y-59160440D01*
X93805263Y-59160440D02*
X93652882Y-59160440D01*
X93652882Y-59160440D02*
X93576692Y-59198536D01*
X93919549Y-59655679D02*
X93843358Y-59693774D01*
X93843358Y-59693774D02*
X93652882Y-59693774D01*
X93652882Y-59693774D02*
X93576692Y-59655679D01*
X93576692Y-59655679D02*
X93538596Y-59579488D01*
X93538596Y-59579488D02*
X93538596Y-59503298D01*
X93538596Y-59503298D02*
X93576692Y-59427107D01*
X93576692Y-59427107D02*
X93652882Y-59389012D01*
X93652882Y-59389012D02*
X93843358Y-59389012D01*
X93843358Y-59389012D02*
X93919549Y-59350917D01*
X95367169Y-59693774D02*
X95100502Y-59312821D01*
X94910026Y-59693774D02*
X94910026Y-58893774D01*
X94910026Y-58893774D02*
X95214788Y-58893774D01*
X95214788Y-58893774D02*
X95290978Y-58931869D01*
X95290978Y-58931869D02*
X95329073Y-58969964D01*
X95329073Y-58969964D02*
X95367169Y-59046155D01*
X95367169Y-59046155D02*
X95367169Y-59160440D01*
X95367169Y-59160440D02*
X95329073Y-59236631D01*
X95329073Y-59236631D02*
X95290978Y-59274726D01*
X95290978Y-59274726D02*
X95214788Y-59312821D01*
X95214788Y-59312821D02*
X94910026Y-59312821D01*
X95710026Y-59617583D02*
X95748121Y-59655679D01*
X95748121Y-59655679D02*
X95710026Y-59693774D01*
X95710026Y-59693774D02*
X95671930Y-59655679D01*
X95671930Y-59655679D02*
X95710026Y-59617583D01*
X95710026Y-59617583D02*
X95710026Y-59693774D01*
X90262405Y-57724727D02*
X90376691Y-57762822D01*
X90376691Y-57762822D02*
X90414786Y-57800918D01*
X90414786Y-57800918D02*
X90452882Y-57877108D01*
X90452882Y-57877108D02*
X90452882Y-57991394D01*
X90452882Y-57991394D02*
X90414786Y-58067584D01*
X90414786Y-58067584D02*
X90376691Y-58105680D01*
X90376691Y-58105680D02*
X90300501Y-58143775D01*
X90300501Y-58143775D02*
X89995739Y-58143775D01*
X89995739Y-58143775D02*
X89995739Y-57343775D01*
X89995739Y-57343775D02*
X90262405Y-57343775D01*
X90262405Y-57343775D02*
X90338596Y-57381870D01*
X90338596Y-57381870D02*
X90376691Y-57419965D01*
X90376691Y-57419965D02*
X90414786Y-57496156D01*
X90414786Y-57496156D02*
X90414786Y-57572346D01*
X90414786Y-57572346D02*
X90376691Y-57648537D01*
X90376691Y-57648537D02*
X90338596Y-57686632D01*
X90338596Y-57686632D02*
X90262405Y-57724727D01*
X90262405Y-57724727D02*
X89995739Y-57724727D01*
X91100501Y-58105680D02*
X91024310Y-58143775D01*
X91024310Y-58143775D02*
X90871929Y-58143775D01*
X90871929Y-58143775D02*
X90795739Y-58105680D01*
X90795739Y-58105680D02*
X90757643Y-58029489D01*
X90757643Y-58029489D02*
X90757643Y-57724727D01*
X90757643Y-57724727D02*
X90795739Y-57648537D01*
X90795739Y-57648537D02*
X90871929Y-57610441D01*
X90871929Y-57610441D02*
X91024310Y-57610441D01*
X91024310Y-57610441D02*
X91100501Y-57648537D01*
X91100501Y-57648537D02*
X91138596Y-57724727D01*
X91138596Y-57724727D02*
X91138596Y-57800918D01*
X91138596Y-57800918D02*
X90757643Y-57877108D01*
X91481453Y-57610441D02*
X91481453Y-58143775D01*
X91481453Y-57686632D02*
X91519548Y-57648537D01*
X91519548Y-57648537D02*
X91595738Y-57610441D01*
X91595738Y-57610441D02*
X91710024Y-57610441D01*
X91710024Y-57610441D02*
X91786215Y-57648537D01*
X91786215Y-57648537D02*
X91824310Y-57724727D01*
X91824310Y-57724727D02*
X91824310Y-58143775D01*
X92167167Y-58105680D02*
X92243358Y-58143775D01*
X92243358Y-58143775D02*
X92395739Y-58143775D01*
X92395739Y-58143775D02*
X92471929Y-58105680D01*
X92471929Y-58105680D02*
X92510025Y-58029489D01*
X92510025Y-58029489D02*
X92510025Y-57991394D01*
X92510025Y-57991394D02*
X92471929Y-57915203D01*
X92471929Y-57915203D02*
X92395739Y-57877108D01*
X92395739Y-57877108D02*
X92281453Y-57877108D01*
X92281453Y-57877108D02*
X92205263Y-57839013D01*
X92205263Y-57839013D02*
X92167167Y-57762822D01*
X92167167Y-57762822D02*
X92167167Y-57724727D01*
X92167167Y-57724727D02*
X92205263Y-57648537D01*
X92205263Y-57648537D02*
X92281453Y-57610441D01*
X92281453Y-57610441D02*
X92395739Y-57610441D01*
X92395739Y-57610441D02*
X92471929Y-57648537D01*
X92967167Y-58143775D02*
X92890977Y-58105680D01*
X92890977Y-58105680D02*
X92852882Y-58067584D01*
X92852882Y-58067584D02*
X92814786Y-57991394D01*
X92814786Y-57991394D02*
X92814786Y-57762822D01*
X92814786Y-57762822D02*
X92852882Y-57686632D01*
X92852882Y-57686632D02*
X92890977Y-57648537D01*
X92890977Y-57648537D02*
X92967167Y-57610441D01*
X92967167Y-57610441D02*
X93081453Y-57610441D01*
X93081453Y-57610441D02*
X93157644Y-57648537D01*
X93157644Y-57648537D02*
X93195739Y-57686632D01*
X93195739Y-57686632D02*
X93233834Y-57762822D01*
X93233834Y-57762822D02*
X93233834Y-57991394D01*
X93233834Y-57991394D02*
X93195739Y-58067584D01*
X93195739Y-58067584D02*
X93157644Y-58105680D01*
X93157644Y-58105680D02*
X93081453Y-58143775D01*
X93081453Y-58143775D02*
X92967167Y-58143775D01*
X93576692Y-57610441D02*
X93576692Y-58143775D01*
X93576692Y-57686632D02*
X93614787Y-57648537D01*
X93614787Y-57648537D02*
X93690977Y-57610441D01*
X93690977Y-57610441D02*
X93805263Y-57610441D01*
X93805263Y-57610441D02*
X93881454Y-57648537D01*
X93881454Y-57648537D02*
X93919549Y-57724727D01*
X93919549Y-57724727D02*
X93919549Y-58143775D01*
X95367169Y-58067584D02*
X95329073Y-58105680D01*
X95329073Y-58105680D02*
X95214788Y-58143775D01*
X95214788Y-58143775D02*
X95138597Y-58143775D01*
X95138597Y-58143775D02*
X95024311Y-58105680D01*
X95024311Y-58105680D02*
X94948121Y-58029489D01*
X94948121Y-58029489D02*
X94910026Y-57953299D01*
X94910026Y-57953299D02*
X94871930Y-57800918D01*
X94871930Y-57800918D02*
X94871930Y-57686632D01*
X94871930Y-57686632D02*
X94910026Y-57534251D01*
X94910026Y-57534251D02*
X94948121Y-57458060D01*
X94948121Y-57458060D02*
X95024311Y-57381870D01*
X95024311Y-57381870D02*
X95138597Y-57343775D01*
X95138597Y-57343775D02*
X95214788Y-57343775D01*
X95214788Y-57343775D02*
X95329073Y-57381870D01*
X95329073Y-57381870D02*
X95367169Y-57419965D01*
X95710026Y-58067584D02*
X95748121Y-58105680D01*
X95748121Y-58105680D02*
X95710026Y-58143775D01*
X95710026Y-58143775D02*
X95671930Y-58105680D01*
X95671930Y-58105680D02*
X95710026Y-58067584D01*
X95710026Y-58067584D02*
X95710026Y-58143775D01*
X101981453Y-52943774D02*
X102438596Y-52943774D01*
X102210024Y-53743774D02*
X102210024Y-52943774D01*
X103048120Y-53743774D02*
X103048120Y-53324726D01*
X103048120Y-53324726D02*
X103010025Y-53248536D01*
X103010025Y-53248536D02*
X102933834Y-53210440D01*
X102933834Y-53210440D02*
X102781453Y-53210440D01*
X102781453Y-53210440D02*
X102705263Y-53248536D01*
X103048120Y-53705679D02*
X102971929Y-53743774D01*
X102971929Y-53743774D02*
X102781453Y-53743774D01*
X102781453Y-53743774D02*
X102705263Y-53705679D01*
X102705263Y-53705679D02*
X102667167Y-53629488D01*
X102667167Y-53629488D02*
X102667167Y-53553298D01*
X102667167Y-53553298D02*
X102705263Y-53477107D01*
X102705263Y-53477107D02*
X102781453Y-53439012D01*
X102781453Y-53439012D02*
X102971929Y-53439012D01*
X102971929Y-53439012D02*
X103048120Y-53400917D01*
X103314787Y-53210440D02*
X103619549Y-53210440D01*
X103429073Y-52943774D02*
X103429073Y-53629488D01*
X103429073Y-53629488D02*
X103467168Y-53705679D01*
X103467168Y-53705679D02*
X103543358Y-53743774D01*
X103543358Y-53743774D02*
X103619549Y-53743774D01*
X104190978Y-53705679D02*
X104114787Y-53743774D01*
X104114787Y-53743774D02*
X103962406Y-53743774D01*
X103962406Y-53743774D02*
X103886216Y-53705679D01*
X103886216Y-53705679D02*
X103848120Y-53629488D01*
X103848120Y-53629488D02*
X103848120Y-53324726D01*
X103848120Y-53324726D02*
X103886216Y-53248536D01*
X103886216Y-53248536D02*
X103962406Y-53210440D01*
X103962406Y-53210440D02*
X104114787Y-53210440D01*
X104114787Y-53210440D02*
X104190978Y-53248536D01*
X104190978Y-53248536D02*
X104229073Y-53324726D01*
X104229073Y-53324726D02*
X104229073Y-53400917D01*
X104229073Y-53400917D02*
X103848120Y-53477107D01*
X105143358Y-53515202D02*
X105524311Y-53515202D01*
X105067168Y-53743774D02*
X105333835Y-52943774D01*
X105333835Y-52943774D02*
X105600501Y-53743774D01*
X105867168Y-53667583D02*
X105905263Y-53705679D01*
X105905263Y-53705679D02*
X105867168Y-53743774D01*
X105867168Y-53743774D02*
X105829072Y-53705679D01*
X105829072Y-53705679D02*
X105867168Y-53667583D01*
X105867168Y-53667583D02*
X105867168Y-53743774D01*
X102262404Y-54774727D02*
X102376690Y-54812822D01*
X102376690Y-54812822D02*
X102414785Y-54850918D01*
X102414785Y-54850918D02*
X102452881Y-54927108D01*
X102452881Y-54927108D02*
X102452881Y-55041394D01*
X102452881Y-55041394D02*
X102414785Y-55117584D01*
X102414785Y-55117584D02*
X102376690Y-55155680D01*
X102376690Y-55155680D02*
X102300500Y-55193775D01*
X102300500Y-55193775D02*
X101995738Y-55193775D01*
X101995738Y-55193775D02*
X101995738Y-54393775D01*
X101995738Y-54393775D02*
X102262404Y-54393775D01*
X102262404Y-54393775D02*
X102338595Y-54431870D01*
X102338595Y-54431870D02*
X102376690Y-54469965D01*
X102376690Y-54469965D02*
X102414785Y-54546156D01*
X102414785Y-54546156D02*
X102414785Y-54622346D01*
X102414785Y-54622346D02*
X102376690Y-54698537D01*
X102376690Y-54698537D02*
X102338595Y-54736632D01*
X102338595Y-54736632D02*
X102262404Y-54774727D01*
X102262404Y-54774727D02*
X101995738Y-54774727D01*
X103100500Y-55155680D02*
X103024309Y-55193775D01*
X103024309Y-55193775D02*
X102871928Y-55193775D01*
X102871928Y-55193775D02*
X102795738Y-55155680D01*
X102795738Y-55155680D02*
X102757642Y-55079489D01*
X102757642Y-55079489D02*
X102757642Y-54774727D01*
X102757642Y-54774727D02*
X102795738Y-54698537D01*
X102795738Y-54698537D02*
X102871928Y-54660441D01*
X102871928Y-54660441D02*
X103024309Y-54660441D01*
X103024309Y-54660441D02*
X103100500Y-54698537D01*
X103100500Y-54698537D02*
X103138595Y-54774727D01*
X103138595Y-54774727D02*
X103138595Y-54850918D01*
X103138595Y-54850918D02*
X102757642Y-54927108D01*
X103481452Y-54660441D02*
X103481452Y-55193775D01*
X103481452Y-54736632D02*
X103519547Y-54698537D01*
X103519547Y-54698537D02*
X103595737Y-54660441D01*
X103595737Y-54660441D02*
X103710023Y-54660441D01*
X103710023Y-54660441D02*
X103786214Y-54698537D01*
X103786214Y-54698537D02*
X103824309Y-54774727D01*
X103824309Y-54774727D02*
X103824309Y-55193775D01*
X104205262Y-54660441D02*
X104205262Y-55346156D01*
X104205262Y-55346156D02*
X104167166Y-55422346D01*
X104167166Y-55422346D02*
X104090976Y-55460441D01*
X104090976Y-55460441D02*
X104052881Y-55460441D01*
X104205262Y-54393775D02*
X104167166Y-54431870D01*
X104167166Y-54431870D02*
X104205262Y-54469965D01*
X104205262Y-54469965D02*
X104243357Y-54431870D01*
X104243357Y-54431870D02*
X104205262Y-54393775D01*
X104205262Y-54393775D02*
X104205262Y-54469965D01*
X104929071Y-55193775D02*
X104929071Y-54774727D01*
X104929071Y-54774727D02*
X104890976Y-54698537D01*
X104890976Y-54698537D02*
X104814785Y-54660441D01*
X104814785Y-54660441D02*
X104662404Y-54660441D01*
X104662404Y-54660441D02*
X104586214Y-54698537D01*
X104929071Y-55155680D02*
X104852880Y-55193775D01*
X104852880Y-55193775D02*
X104662404Y-55193775D01*
X104662404Y-55193775D02*
X104586214Y-55155680D01*
X104586214Y-55155680D02*
X104548118Y-55079489D01*
X104548118Y-55079489D02*
X104548118Y-55003299D01*
X104548118Y-55003299D02*
X104586214Y-54927108D01*
X104586214Y-54927108D02*
X104662404Y-54889013D01*
X104662404Y-54889013D02*
X104852880Y-54889013D01*
X104852880Y-54889013D02*
X104929071Y-54850918D01*
X105310024Y-55193775D02*
X105310024Y-54660441D01*
X105310024Y-54736632D02*
X105348119Y-54698537D01*
X105348119Y-54698537D02*
X105424309Y-54660441D01*
X105424309Y-54660441D02*
X105538595Y-54660441D01*
X105538595Y-54660441D02*
X105614786Y-54698537D01*
X105614786Y-54698537D02*
X105652881Y-54774727D01*
X105652881Y-54774727D02*
X105652881Y-55193775D01*
X105652881Y-54774727D02*
X105690976Y-54698537D01*
X105690976Y-54698537D02*
X105767167Y-54660441D01*
X105767167Y-54660441D02*
X105881452Y-54660441D01*
X105881452Y-54660441D02*
X105957643Y-54698537D01*
X105957643Y-54698537D02*
X105995738Y-54774727D01*
X105995738Y-54774727D02*
X105995738Y-55193775D01*
X106376691Y-55193775D02*
X106376691Y-54660441D01*
X106376691Y-54393775D02*
X106338595Y-54431870D01*
X106338595Y-54431870D02*
X106376691Y-54469965D01*
X106376691Y-54469965D02*
X106414786Y-54431870D01*
X106414786Y-54431870D02*
X106376691Y-54393775D01*
X106376691Y-54393775D02*
X106376691Y-54469965D01*
X106757643Y-54660441D02*
X106757643Y-55193775D01*
X106757643Y-54736632D02*
X106795738Y-54698537D01*
X106795738Y-54698537D02*
X106871928Y-54660441D01*
X106871928Y-54660441D02*
X106986214Y-54660441D01*
X106986214Y-54660441D02*
X107062405Y-54698537D01*
X107062405Y-54698537D02*
X107100500Y-54774727D01*
X107100500Y-54774727D02*
X107100500Y-55193775D01*
X108471929Y-55193775D02*
X108090977Y-55193775D01*
X108090977Y-55193775D02*
X108090977Y-54393775D01*
X108738596Y-55117584D02*
X108776691Y-55155680D01*
X108776691Y-55155680D02*
X108738596Y-55193775D01*
X108738596Y-55193775D02*
X108700500Y-55155680D01*
X108700500Y-55155680D02*
X108738596Y-55117584D01*
X108738596Y-55117584D02*
X108738596Y-55193775D01*
X92800000Y-53767865D02*
X92800000Y-52967865D01*
X92800000Y-52967865D02*
X93066666Y-53539293D01*
X93066666Y-53539293D02*
X93333333Y-52967865D01*
X93333333Y-52967865D02*
X93333333Y-53767865D01*
X93714286Y-53767865D02*
X93714286Y-53234531D01*
X93714286Y-52967865D02*
X93676190Y-53005960D01*
X93676190Y-53005960D02*
X93714286Y-53044055D01*
X93714286Y-53044055D02*
X93752381Y-53005960D01*
X93752381Y-53005960D02*
X93714286Y-52967865D01*
X93714286Y-52967865D02*
X93714286Y-53044055D01*
X94095238Y-53234531D02*
X94095238Y-53767865D01*
X94095238Y-53310722D02*
X94133333Y-53272627D01*
X94133333Y-53272627D02*
X94209523Y-53234531D01*
X94209523Y-53234531D02*
X94323809Y-53234531D01*
X94323809Y-53234531D02*
X94400000Y-53272627D01*
X94400000Y-53272627D02*
X94438095Y-53348817D01*
X94438095Y-53348817D02*
X94438095Y-53767865D01*
X94819048Y-53767865D02*
X94819048Y-53234531D01*
X94819048Y-52967865D02*
X94780952Y-53005960D01*
X94780952Y-53005960D02*
X94819048Y-53044055D01*
X94819048Y-53044055D02*
X94857143Y-53005960D01*
X94857143Y-53005960D02*
X94819048Y-52967865D01*
X94819048Y-52967865D02*
X94819048Y-53044055D01*
X95085714Y-52967865D02*
X95352381Y-53767865D01*
X95352381Y-53767865D02*
X95619047Y-52967865D01*
X95771428Y-52967865D02*
X96228571Y-52967865D01*
X95999999Y-53767865D02*
X95999999Y-52967865D01*
X96647619Y-52967865D02*
X96800000Y-52967865D01*
X96800000Y-52967865D02*
X96876190Y-53005960D01*
X96876190Y-53005960D02*
X96952381Y-53082150D01*
X96952381Y-53082150D02*
X96990476Y-53234531D01*
X96990476Y-53234531D02*
X96990476Y-53501198D01*
X96990476Y-53501198D02*
X96952381Y-53653579D01*
X96952381Y-53653579D02*
X96876190Y-53729770D01*
X96876190Y-53729770D02*
X96800000Y-53767865D01*
X96800000Y-53767865D02*
X96647619Y-53767865D01*
X96647619Y-53767865D02*
X96571428Y-53729770D01*
X96571428Y-53729770D02*
X96495238Y-53653579D01*
X96495238Y-53653579D02*
X96457142Y-53501198D01*
X96457142Y-53501198D02*
X96457142Y-53234531D01*
X96457142Y-53234531D02*
X96495238Y-53082150D01*
X96495238Y-53082150D02*
X96571428Y-53005960D01*
X96571428Y-53005960D02*
X96647619Y-52967865D01*
X97714285Y-53767865D02*
X97333333Y-53767865D01*
X97333333Y-53767865D02*
X97333333Y-52967865D01*
X94552381Y-54255820D02*
X94819048Y-55055820D01*
X94819048Y-55055820D02*
X95085714Y-54255820D01*
X95771428Y-55055820D02*
X95314285Y-55055820D01*
X95542857Y-55055820D02*
X95542857Y-54255820D01*
X95542857Y-54255820D02*
X95466666Y-54370105D01*
X95466666Y-54370105D02*
X95390476Y-54446296D01*
X95390476Y-54446296D02*
X95314285Y-54484391D01*
X92571428Y-55543775D02*
X93066666Y-55543775D01*
X93066666Y-55543775D02*
X92800000Y-55848537D01*
X92800000Y-55848537D02*
X92914285Y-55848537D01*
X92914285Y-55848537D02*
X92990476Y-55886632D01*
X92990476Y-55886632D02*
X93028571Y-55924727D01*
X93028571Y-55924727D02*
X93066666Y-56000918D01*
X93066666Y-56000918D02*
X93066666Y-56191394D01*
X93066666Y-56191394D02*
X93028571Y-56267584D01*
X93028571Y-56267584D02*
X92990476Y-56305680D01*
X92990476Y-56305680D02*
X92914285Y-56343775D01*
X92914285Y-56343775D02*
X92685714Y-56343775D01*
X92685714Y-56343775D02*
X92609523Y-56305680D01*
X92609523Y-56305680D02*
X92571428Y-56267584D01*
X93980952Y-55505680D02*
X93295238Y-56534251D01*
X94209523Y-55619965D02*
X94247619Y-55581870D01*
X94247619Y-55581870D02*
X94323809Y-55543775D01*
X94323809Y-55543775D02*
X94514285Y-55543775D01*
X94514285Y-55543775D02*
X94590476Y-55581870D01*
X94590476Y-55581870D02*
X94628571Y-55619965D01*
X94628571Y-55619965D02*
X94666666Y-55696156D01*
X94666666Y-55696156D02*
X94666666Y-55772346D01*
X94666666Y-55772346D02*
X94628571Y-55886632D01*
X94628571Y-55886632D02*
X94171428Y-56343775D01*
X94171428Y-56343775D02*
X94666666Y-56343775D01*
X95352381Y-55810441D02*
X95352381Y-56343775D01*
X95161905Y-55505680D02*
X94971428Y-56077108D01*
X94971428Y-56077108D02*
X95466667Y-56077108D01*
X96342857Y-55505680D02*
X95657143Y-56534251D01*
X96571428Y-55619965D02*
X96609524Y-55581870D01*
X96609524Y-55581870D02*
X96685714Y-55543775D01*
X96685714Y-55543775D02*
X96876190Y-55543775D01*
X96876190Y-55543775D02*
X96952381Y-55581870D01*
X96952381Y-55581870D02*
X96990476Y-55619965D01*
X96990476Y-55619965D02*
X97028571Y-55696156D01*
X97028571Y-55696156D02*
X97028571Y-55772346D01*
X97028571Y-55772346D02*
X96990476Y-55886632D01*
X96990476Y-55886632D02*
X96533333Y-56343775D01*
X96533333Y-56343775D02*
X97028571Y-56343775D01*
X97714286Y-55543775D02*
X97561905Y-55543775D01*
X97561905Y-55543775D02*
X97485714Y-55581870D01*
X97485714Y-55581870D02*
X97447619Y-55619965D01*
X97447619Y-55619965D02*
X97371429Y-55734251D01*
X97371429Y-55734251D02*
X97333333Y-55886632D01*
X97333333Y-55886632D02*
X97333333Y-56191394D01*
X97333333Y-56191394D02*
X97371429Y-56267584D01*
X97371429Y-56267584D02*
X97409524Y-56305680D01*
X97409524Y-56305680D02*
X97485714Y-56343775D01*
X97485714Y-56343775D02*
X97638095Y-56343775D01*
X97638095Y-56343775D02*
X97714286Y-56305680D01*
X97714286Y-56305680D02*
X97752381Y-56267584D01*
X97752381Y-56267584D02*
X97790476Y-56191394D01*
X97790476Y-56191394D02*
X97790476Y-56000918D01*
X97790476Y-56000918D02*
X97752381Y-55924727D01*
X97752381Y-55924727D02*
X97714286Y-55886632D01*
X97714286Y-55886632D02*
X97638095Y-55848537D01*
X97638095Y-55848537D02*
X97485714Y-55848537D01*
X97485714Y-55848537D02*
X97409524Y-55886632D01*
X97409524Y-55886632D02*
X97371429Y-55924727D01*
X97371429Y-55924727D02*
X97333333Y-56000918D01*
D12*
X79157142Y-59359580D02*
X79109523Y-59407200D01*
X79109523Y-59407200D02*
X78966666Y-59454819D01*
X78966666Y-59454819D02*
X78871428Y-59454819D01*
X78871428Y-59454819D02*
X78728571Y-59407200D01*
X78728571Y-59407200D02*
X78633333Y-59311961D01*
X78633333Y-59311961D02*
X78585714Y-59216723D01*
X78585714Y-59216723D02*
X78538095Y-59026247D01*
X78538095Y-59026247D02*
X78538095Y-58883390D01*
X78538095Y-58883390D02*
X78585714Y-58692914D01*
X78585714Y-58692914D02*
X78633333Y-58597676D01*
X78633333Y-58597676D02*
X78728571Y-58502438D01*
X78728571Y-58502438D02*
X78871428Y-58454819D01*
X78871428Y-58454819D02*
X78966666Y-58454819D01*
X78966666Y-58454819D02*
X79109523Y-58502438D01*
X79109523Y-58502438D02*
X79157142Y-58550057D01*
X80109523Y-59454819D02*
X79538095Y-59454819D01*
X79823809Y-59454819D02*
X79823809Y-58454819D01*
X79823809Y-58454819D02*
X79728571Y-58597676D01*
X79728571Y-58597676D02*
X79633333Y-58692914D01*
X79633333Y-58692914D02*
X79538095Y-58740533D01*
X80680952Y-58883390D02*
X80585714Y-58835771D01*
X80585714Y-58835771D02*
X80538095Y-58788152D01*
X80538095Y-58788152D02*
X80490476Y-58692914D01*
X80490476Y-58692914D02*
X80490476Y-58645295D01*
X80490476Y-58645295D02*
X80538095Y-58550057D01*
X80538095Y-58550057D02*
X80585714Y-58502438D01*
X80585714Y-58502438D02*
X80680952Y-58454819D01*
X80680952Y-58454819D02*
X80871428Y-58454819D01*
X80871428Y-58454819D02*
X80966666Y-58502438D01*
X80966666Y-58502438D02*
X81014285Y-58550057D01*
X81014285Y-58550057D02*
X81061904Y-58645295D01*
X81061904Y-58645295D02*
X81061904Y-58692914D01*
X81061904Y-58692914D02*
X81014285Y-58788152D01*
X81014285Y-58788152D02*
X80966666Y-58835771D01*
X80966666Y-58835771D02*
X80871428Y-58883390D01*
X80871428Y-58883390D02*
X80680952Y-58883390D01*
X80680952Y-58883390D02*
X80585714Y-58931009D01*
X80585714Y-58931009D02*
X80538095Y-58978628D01*
X80538095Y-58978628D02*
X80490476Y-59073866D01*
X80490476Y-59073866D02*
X80490476Y-59264342D01*
X80490476Y-59264342D02*
X80538095Y-59359580D01*
X80538095Y-59359580D02*
X80585714Y-59407200D01*
X80585714Y-59407200D02*
X80680952Y-59454819D01*
X80680952Y-59454819D02*
X80871428Y-59454819D01*
X80871428Y-59454819D02*
X80966666Y-59407200D01*
X80966666Y-59407200D02*
X81014285Y-59359580D01*
X81014285Y-59359580D02*
X81061904Y-59264342D01*
X81061904Y-59264342D02*
X81061904Y-59073866D01*
X81061904Y-59073866D02*
X81014285Y-58978628D01*
X81014285Y-58978628D02*
X80966666Y-58931009D01*
X80966666Y-58931009D02*
X80871428Y-58883390D01*
X108433333Y-74359579D02*
X108385714Y-74407199D01*
X108385714Y-74407199D02*
X108242857Y-74454818D01*
X108242857Y-74454818D02*
X108147619Y-74454818D01*
X108147619Y-74454818D02*
X108004762Y-74407199D01*
X108004762Y-74407199D02*
X107909524Y-74311960D01*
X107909524Y-74311960D02*
X107861905Y-74216722D01*
X107861905Y-74216722D02*
X107814286Y-74026246D01*
X107814286Y-74026246D02*
X107814286Y-73883389D01*
X107814286Y-73883389D02*
X107861905Y-73692913D01*
X107861905Y-73692913D02*
X107909524Y-73597675D01*
X107909524Y-73597675D02*
X108004762Y-73502437D01*
X108004762Y-73502437D02*
X108147619Y-73454818D01*
X108147619Y-73454818D02*
X108242857Y-73454818D01*
X108242857Y-73454818D02*
X108385714Y-73502437D01*
X108385714Y-73502437D02*
X108433333Y-73550056D01*
X109433333Y-74454818D02*
X109100000Y-73978627D01*
X108861905Y-74454818D02*
X108861905Y-73454818D01*
X108861905Y-73454818D02*
X109242857Y-73454818D01*
X109242857Y-73454818D02*
X109338095Y-73502437D01*
X109338095Y-73502437D02*
X109385714Y-73550056D01*
X109385714Y-73550056D02*
X109433333Y-73645294D01*
X109433333Y-73645294D02*
X109433333Y-73788151D01*
X109433333Y-73788151D02*
X109385714Y-73883389D01*
X109385714Y-73883389D02*
X109338095Y-73931008D01*
X109338095Y-73931008D02*
X109242857Y-73978627D01*
X109242857Y-73978627D02*
X108861905Y-73978627D01*
X109814286Y-73550056D02*
X109861905Y-73502437D01*
X109861905Y-73502437D02*
X109957143Y-73454818D01*
X109957143Y-73454818D02*
X110195238Y-73454818D01*
X110195238Y-73454818D02*
X110290476Y-73502437D01*
X110290476Y-73502437D02*
X110338095Y-73550056D01*
X110338095Y-73550056D02*
X110385714Y-73645294D01*
X110385714Y-73645294D02*
X110385714Y-73740532D01*
X110385714Y-73740532D02*
X110338095Y-73883389D01*
X110338095Y-73883389D02*
X109766667Y-74454818D01*
X109766667Y-74454818D02*
X110385714Y-74454818D01*
X111933333Y-67159580D02*
X111885714Y-67207200D01*
X111885714Y-67207200D02*
X111742857Y-67254819D01*
X111742857Y-67254819D02*
X111647619Y-67254819D01*
X111647619Y-67254819D02*
X111504762Y-67207200D01*
X111504762Y-67207200D02*
X111409524Y-67111961D01*
X111409524Y-67111961D02*
X111361905Y-67016723D01*
X111361905Y-67016723D02*
X111314286Y-66826247D01*
X111314286Y-66826247D02*
X111314286Y-66683390D01*
X111314286Y-66683390D02*
X111361905Y-66492914D01*
X111361905Y-66492914D02*
X111409524Y-66397676D01*
X111409524Y-66397676D02*
X111504762Y-66302438D01*
X111504762Y-66302438D02*
X111647619Y-66254819D01*
X111647619Y-66254819D02*
X111742857Y-66254819D01*
X111742857Y-66254819D02*
X111885714Y-66302438D01*
X111885714Y-66302438D02*
X111933333Y-66350057D01*
X112933333Y-67254819D02*
X112600000Y-66778628D01*
X112361905Y-67254819D02*
X112361905Y-66254819D01*
X112361905Y-66254819D02*
X112742857Y-66254819D01*
X112742857Y-66254819D02*
X112838095Y-66302438D01*
X112838095Y-66302438D02*
X112885714Y-66350057D01*
X112885714Y-66350057D02*
X112933333Y-66445295D01*
X112933333Y-66445295D02*
X112933333Y-66588152D01*
X112933333Y-66588152D02*
X112885714Y-66683390D01*
X112885714Y-66683390D02*
X112838095Y-66731009D01*
X112838095Y-66731009D02*
X112742857Y-66778628D01*
X112742857Y-66778628D02*
X112361905Y-66778628D01*
X113266667Y-66254819D02*
X113885714Y-66254819D01*
X113885714Y-66254819D02*
X113552381Y-66635771D01*
X113552381Y-66635771D02*
X113695238Y-66635771D01*
X113695238Y-66635771D02*
X113790476Y-66683390D01*
X113790476Y-66683390D02*
X113838095Y-66731009D01*
X113838095Y-66731009D02*
X113885714Y-66826247D01*
X113885714Y-66826247D02*
X113885714Y-67064342D01*
X113885714Y-67064342D02*
X113838095Y-67159580D01*
X113838095Y-67159580D02*
X113790476Y-67207200D01*
X113790476Y-67207200D02*
X113695238Y-67254819D01*
X113695238Y-67254819D02*
X113409524Y-67254819D01*
X113409524Y-67254819D02*
X113314286Y-67207200D01*
X113314286Y-67207200D02*
X113266667Y-67159580D01*
X96966666Y-84254819D02*
X96966666Y-84969104D01*
X96966666Y-84969104D02*
X96919047Y-85111961D01*
X96919047Y-85111961D02*
X96823809Y-85207200D01*
X96823809Y-85207200D02*
X96680952Y-85254819D01*
X96680952Y-85254819D02*
X96585714Y-85254819D01*
X97395238Y-84350057D02*
X97442857Y-84302438D01*
X97442857Y-84302438D02*
X97538095Y-84254819D01*
X97538095Y-84254819D02*
X97776190Y-84254819D01*
X97776190Y-84254819D02*
X97871428Y-84302438D01*
X97871428Y-84302438D02*
X97919047Y-84350057D01*
X97919047Y-84350057D02*
X97966666Y-84445295D01*
X97966666Y-84445295D02*
X97966666Y-84540533D01*
X97966666Y-84540533D02*
X97919047Y-84683390D01*
X97919047Y-84683390D02*
X97347619Y-85254819D01*
X97347619Y-85254819D02*
X97966666Y-85254819D01*
X110390476Y-70254819D02*
X110390476Y-69254819D01*
X110390476Y-69254819D02*
X110723809Y-69969104D01*
X110723809Y-69969104D02*
X111057142Y-69254819D01*
X111057142Y-69254819D02*
X111057142Y-70254819D01*
X111485714Y-69350057D02*
X111533333Y-69302438D01*
X111533333Y-69302438D02*
X111628571Y-69254819D01*
X111628571Y-69254819D02*
X111866666Y-69254819D01*
X111866666Y-69254819D02*
X111961904Y-69302438D01*
X111961904Y-69302438D02*
X112009523Y-69350057D01*
X112009523Y-69350057D02*
X112057142Y-69445295D01*
X112057142Y-69445295D02*
X112057142Y-69540533D01*
X112057142Y-69540533D02*
X112009523Y-69683390D01*
X112009523Y-69683390D02*
X111438095Y-70254819D01*
X111438095Y-70254819D02*
X112057142Y-70254819D01*
X122904761Y-59350057D02*
X122809523Y-59302438D01*
X122809523Y-59302438D02*
X122714285Y-59207200D01*
X122714285Y-59207200D02*
X122571428Y-59064342D01*
X122571428Y-59064342D02*
X122476190Y-59016723D01*
X122476190Y-59016723D02*
X122380952Y-59016723D01*
X122428571Y-59254819D02*
X122333333Y-59207200D01*
X122333333Y-59207200D02*
X122238095Y-59111961D01*
X122238095Y-59111961D02*
X122190476Y-58921485D01*
X122190476Y-58921485D02*
X122190476Y-58588152D01*
X122190476Y-58588152D02*
X122238095Y-58397676D01*
X122238095Y-58397676D02*
X122333333Y-58302438D01*
X122333333Y-58302438D02*
X122428571Y-58254819D01*
X122428571Y-58254819D02*
X122619047Y-58254819D01*
X122619047Y-58254819D02*
X122714285Y-58302438D01*
X122714285Y-58302438D02*
X122809523Y-58397676D01*
X122809523Y-58397676D02*
X122857142Y-58588152D01*
X122857142Y-58588152D02*
X122857142Y-58921485D01*
X122857142Y-58921485D02*
X122809523Y-59111961D01*
X122809523Y-59111961D02*
X122714285Y-59207200D01*
X122714285Y-59207200D02*
X122619047Y-59254819D01*
X122619047Y-59254819D02*
X122428571Y-59254819D01*
X123809523Y-59254819D02*
X123238095Y-59254819D01*
X123523809Y-59254819D02*
X123523809Y-58254819D01*
X123523809Y-58254819D02*
X123428571Y-58397676D01*
X123428571Y-58397676D02*
X123333333Y-58492914D01*
X123333333Y-58492914D02*
X123238095Y-58540533D01*
X111833333Y-60659580D02*
X111785714Y-60707200D01*
X111785714Y-60707200D02*
X111642857Y-60754819D01*
X111642857Y-60754819D02*
X111547619Y-60754819D01*
X111547619Y-60754819D02*
X111404762Y-60707200D01*
X111404762Y-60707200D02*
X111309524Y-60611961D01*
X111309524Y-60611961D02*
X111261905Y-60516723D01*
X111261905Y-60516723D02*
X111214286Y-60326247D01*
X111214286Y-60326247D02*
X111214286Y-60183390D01*
X111214286Y-60183390D02*
X111261905Y-59992914D01*
X111261905Y-59992914D02*
X111309524Y-59897676D01*
X111309524Y-59897676D02*
X111404762Y-59802438D01*
X111404762Y-59802438D02*
X111547619Y-59754819D01*
X111547619Y-59754819D02*
X111642857Y-59754819D01*
X111642857Y-59754819D02*
X111785714Y-59802438D01*
X111785714Y-59802438D02*
X111833333Y-59850057D01*
X112833333Y-60754819D02*
X112500000Y-60278628D01*
X112261905Y-60754819D02*
X112261905Y-59754819D01*
X112261905Y-59754819D02*
X112642857Y-59754819D01*
X112642857Y-59754819D02*
X112738095Y-59802438D01*
X112738095Y-59802438D02*
X112785714Y-59850057D01*
X112785714Y-59850057D02*
X112833333Y-59945295D01*
X112833333Y-59945295D02*
X112833333Y-60088152D01*
X112833333Y-60088152D02*
X112785714Y-60183390D01*
X112785714Y-60183390D02*
X112738095Y-60231009D01*
X112738095Y-60231009D02*
X112642857Y-60278628D01*
X112642857Y-60278628D02*
X112261905Y-60278628D01*
X113785714Y-60754819D02*
X113214286Y-60754819D01*
X113500000Y-60754819D02*
X113500000Y-59754819D01*
X113500000Y-59754819D02*
X113404762Y-59897676D01*
X113404762Y-59897676D02*
X113309524Y-59992914D01*
X113309524Y-59992914D02*
X113214286Y-60040533D01*
X110590476Y-63654819D02*
X110590476Y-62654819D01*
X110590476Y-62654819D02*
X110923809Y-63369104D01*
X110923809Y-63369104D02*
X111257142Y-62654819D01*
X111257142Y-62654819D02*
X111257142Y-63654819D01*
X112257142Y-63654819D02*
X111685714Y-63654819D01*
X111971428Y-63654819D02*
X111971428Y-62654819D01*
X111971428Y-62654819D02*
X111876190Y-62797676D01*
X111876190Y-62797676D02*
X111780952Y-62892914D01*
X111780952Y-62892914D02*
X111685714Y-62940533D01*
X123704761Y-66950057D02*
X123609523Y-66902438D01*
X123609523Y-66902438D02*
X123514285Y-66807200D01*
X123514285Y-66807200D02*
X123371428Y-66664342D01*
X123371428Y-66664342D02*
X123276190Y-66616723D01*
X123276190Y-66616723D02*
X123180952Y-66616723D01*
X123228571Y-66854819D02*
X123133333Y-66807200D01*
X123133333Y-66807200D02*
X123038095Y-66711961D01*
X123038095Y-66711961D02*
X122990476Y-66521485D01*
X122990476Y-66521485D02*
X122990476Y-66188152D01*
X122990476Y-66188152D02*
X123038095Y-65997676D01*
X123038095Y-65997676D02*
X123133333Y-65902438D01*
X123133333Y-65902438D02*
X123228571Y-65854819D01*
X123228571Y-65854819D02*
X123419047Y-65854819D01*
X123419047Y-65854819D02*
X123514285Y-65902438D01*
X123514285Y-65902438D02*
X123609523Y-65997676D01*
X123609523Y-65997676D02*
X123657142Y-66188152D01*
X123657142Y-66188152D02*
X123657142Y-66521485D01*
X123657142Y-66521485D02*
X123609523Y-66711961D01*
X123609523Y-66711961D02*
X123514285Y-66807200D01*
X123514285Y-66807200D02*
X123419047Y-66854819D01*
X123419047Y-66854819D02*
X123228571Y-66854819D01*
X124038095Y-65950057D02*
X124085714Y-65902438D01*
X124085714Y-65902438D02*
X124180952Y-65854819D01*
X124180952Y-65854819D02*
X124419047Y-65854819D01*
X124419047Y-65854819D02*
X124514285Y-65902438D01*
X124514285Y-65902438D02*
X124561904Y-65950057D01*
X124561904Y-65950057D02*
X124609523Y-66045295D01*
X124609523Y-66045295D02*
X124609523Y-66140533D01*
X124609523Y-66140533D02*
X124561904Y-66283390D01*
X124561904Y-66283390D02*
X123990476Y-66854819D01*
X123990476Y-66854819D02*
X124609523Y-66854819D01*
X94690476Y-50254819D02*
X94690476Y-49254819D01*
X94690476Y-49254819D02*
X95023809Y-49969104D01*
X95023809Y-49969104D02*
X95357142Y-49254819D01*
X95357142Y-49254819D02*
X95357142Y-50254819D01*
X96309523Y-49254819D02*
X95833333Y-49254819D01*
X95833333Y-49254819D02*
X95785714Y-49731009D01*
X95785714Y-49731009D02*
X95833333Y-49683390D01*
X95833333Y-49683390D02*
X95928571Y-49635771D01*
X95928571Y-49635771D02*
X96166666Y-49635771D01*
X96166666Y-49635771D02*
X96261904Y-49683390D01*
X96261904Y-49683390D02*
X96309523Y-49731009D01*
X96309523Y-49731009D02*
X96357142Y-49826247D01*
X96357142Y-49826247D02*
X96357142Y-50064342D01*
X96357142Y-50064342D02*
X96309523Y-50159580D01*
X96309523Y-50159580D02*
X96261904Y-50207200D01*
X96261904Y-50207200D02*
X96166666Y-50254819D01*
X96166666Y-50254819D02*
X95928571Y-50254819D01*
X95928571Y-50254819D02*
X95833333Y-50207200D01*
X95833333Y-50207200D02*
X95785714Y-50159580D01*
X97690476Y-50254819D02*
X97690476Y-49254819D01*
X97690476Y-49254819D02*
X98023809Y-49969104D01*
X98023809Y-49969104D02*
X98357142Y-49254819D01*
X98357142Y-49254819D02*
X98357142Y-50254819D01*
X98738095Y-49254819D02*
X99357142Y-49254819D01*
X99357142Y-49254819D02*
X99023809Y-49635771D01*
X99023809Y-49635771D02*
X99166666Y-49635771D01*
X99166666Y-49635771D02*
X99261904Y-49683390D01*
X99261904Y-49683390D02*
X99309523Y-49731009D01*
X99309523Y-49731009D02*
X99357142Y-49826247D01*
X99357142Y-49826247D02*
X99357142Y-50064342D01*
X99357142Y-50064342D02*
X99309523Y-50159580D01*
X99309523Y-50159580D02*
X99261904Y-50207200D01*
X99261904Y-50207200D02*
X99166666Y-50254819D01*
X99166666Y-50254819D02*
X98880952Y-50254819D01*
X98880952Y-50254819D02*
X98785714Y-50207200D01*
X98785714Y-50207200D02*
X98738095Y-50159580D01*
X100233333Y-82354819D02*
X99900000Y-81878628D01*
X99661905Y-82354819D02*
X99661905Y-81354819D01*
X99661905Y-81354819D02*
X100042857Y-81354819D01*
X100042857Y-81354819D02*
X100138095Y-81402438D01*
X100138095Y-81402438D02*
X100185714Y-81450057D01*
X100185714Y-81450057D02*
X100233333Y-81545295D01*
X100233333Y-81545295D02*
X100233333Y-81688152D01*
X100233333Y-81688152D02*
X100185714Y-81783390D01*
X100185714Y-81783390D02*
X100138095Y-81831009D01*
X100138095Y-81831009D02*
X100042857Y-81878628D01*
X100042857Y-81878628D02*
X99661905Y-81878628D01*
X100804762Y-81783390D02*
X100709524Y-81735771D01*
X100709524Y-81735771D02*
X100661905Y-81688152D01*
X100661905Y-81688152D02*
X100614286Y-81592914D01*
X100614286Y-81592914D02*
X100614286Y-81545295D01*
X100614286Y-81545295D02*
X100661905Y-81450057D01*
X100661905Y-81450057D02*
X100709524Y-81402438D01*
X100709524Y-81402438D02*
X100804762Y-81354819D01*
X100804762Y-81354819D02*
X100995238Y-81354819D01*
X100995238Y-81354819D02*
X101090476Y-81402438D01*
X101090476Y-81402438D02*
X101138095Y-81450057D01*
X101138095Y-81450057D02*
X101185714Y-81545295D01*
X101185714Y-81545295D02*
X101185714Y-81592914D01*
X101185714Y-81592914D02*
X101138095Y-81688152D01*
X101138095Y-81688152D02*
X101090476Y-81735771D01*
X101090476Y-81735771D02*
X100995238Y-81783390D01*
X100995238Y-81783390D02*
X100804762Y-81783390D01*
X100804762Y-81783390D02*
X100709524Y-81831009D01*
X100709524Y-81831009D02*
X100661905Y-81878628D01*
X100661905Y-81878628D02*
X100614286Y-81973866D01*
X100614286Y-81973866D02*
X100614286Y-82164342D01*
X100614286Y-82164342D02*
X100661905Y-82259580D01*
X100661905Y-82259580D02*
X100709524Y-82307200D01*
X100709524Y-82307200D02*
X100804762Y-82354819D01*
X100804762Y-82354819D02*
X100995238Y-82354819D01*
X100995238Y-82354819D02*
X101090476Y-82307200D01*
X101090476Y-82307200D02*
X101138095Y-82259580D01*
X101138095Y-82259580D02*
X101185714Y-82164342D01*
X101185714Y-82164342D02*
X101185714Y-81973866D01*
X101185714Y-81973866D02*
X101138095Y-81878628D01*
X101138095Y-81878628D02*
X101090476Y-81831009D01*
X101090476Y-81831009D02*
X100995238Y-81783390D01*
X89757142Y-62359580D02*
X89709523Y-62407200D01*
X89709523Y-62407200D02*
X89566666Y-62454819D01*
X89566666Y-62454819D02*
X89471428Y-62454819D01*
X89471428Y-62454819D02*
X89328571Y-62407200D01*
X89328571Y-62407200D02*
X89233333Y-62311961D01*
X89233333Y-62311961D02*
X89185714Y-62216723D01*
X89185714Y-62216723D02*
X89138095Y-62026247D01*
X89138095Y-62026247D02*
X89138095Y-61883390D01*
X89138095Y-61883390D02*
X89185714Y-61692914D01*
X89185714Y-61692914D02*
X89233333Y-61597676D01*
X89233333Y-61597676D02*
X89328571Y-61502438D01*
X89328571Y-61502438D02*
X89471428Y-61454819D01*
X89471428Y-61454819D02*
X89566666Y-61454819D01*
X89566666Y-61454819D02*
X89709523Y-61502438D01*
X89709523Y-61502438D02*
X89757142Y-61550057D01*
X90709523Y-62454819D02*
X90138095Y-62454819D01*
X90423809Y-62454819D02*
X90423809Y-61454819D01*
X90423809Y-61454819D02*
X90328571Y-61597676D01*
X90328571Y-61597676D02*
X90233333Y-61692914D01*
X90233333Y-61692914D02*
X90138095Y-61740533D01*
X91566666Y-61788152D02*
X91566666Y-62454819D01*
X91328571Y-61407200D02*
X91090476Y-62121485D01*
X91090476Y-62121485D02*
X91709523Y-62121485D01*
X100690476Y-50254819D02*
X100690476Y-49254819D01*
X100690476Y-49254819D02*
X101023809Y-49969104D01*
X101023809Y-49969104D02*
X101357142Y-49254819D01*
X101357142Y-49254819D02*
X101357142Y-50254819D01*
X102261904Y-49254819D02*
X102071428Y-49254819D01*
X102071428Y-49254819D02*
X101976190Y-49302438D01*
X101976190Y-49302438D02*
X101928571Y-49350057D01*
X101928571Y-49350057D02*
X101833333Y-49492914D01*
X101833333Y-49492914D02*
X101785714Y-49683390D01*
X101785714Y-49683390D02*
X101785714Y-50064342D01*
X101785714Y-50064342D02*
X101833333Y-50159580D01*
X101833333Y-50159580D02*
X101880952Y-50207200D01*
X101880952Y-50207200D02*
X101976190Y-50254819D01*
X101976190Y-50254819D02*
X102166666Y-50254819D01*
X102166666Y-50254819D02*
X102261904Y-50207200D01*
X102261904Y-50207200D02*
X102309523Y-50159580D01*
X102309523Y-50159580D02*
X102357142Y-50064342D01*
X102357142Y-50064342D02*
X102357142Y-49826247D01*
X102357142Y-49826247D02*
X102309523Y-49731009D01*
X102309523Y-49731009D02*
X102261904Y-49683390D01*
X102261904Y-49683390D02*
X102166666Y-49635771D01*
X102166666Y-49635771D02*
X101976190Y-49635771D01*
X101976190Y-49635771D02*
X101880952Y-49683390D01*
X101880952Y-49683390D02*
X101833333Y-49731009D01*
X101833333Y-49731009D02*
X101785714Y-49826247D01*
X103790476Y-50254819D02*
X103790476Y-49254819D01*
X103790476Y-49254819D02*
X104123809Y-49969104D01*
X104123809Y-49969104D02*
X104457142Y-49254819D01*
X104457142Y-49254819D02*
X104457142Y-50254819D01*
X105361904Y-49588152D02*
X105361904Y-50254819D01*
X105123809Y-49207200D02*
X104885714Y-49921485D01*
X104885714Y-49921485D02*
X105504761Y-49921485D01*
X105533333Y-82354819D02*
X105200000Y-81878628D01*
X104961905Y-82354819D02*
X104961905Y-81354819D01*
X104961905Y-81354819D02*
X105342857Y-81354819D01*
X105342857Y-81354819D02*
X105438095Y-81402438D01*
X105438095Y-81402438D02*
X105485714Y-81450057D01*
X105485714Y-81450057D02*
X105533333Y-81545295D01*
X105533333Y-81545295D02*
X105533333Y-81688152D01*
X105533333Y-81688152D02*
X105485714Y-81783390D01*
X105485714Y-81783390D02*
X105438095Y-81831009D01*
X105438095Y-81831009D02*
X105342857Y-81878628D01*
X105342857Y-81878628D02*
X104961905Y-81878628D01*
X105866667Y-81354819D02*
X106533333Y-81354819D01*
X106533333Y-81354819D02*
X106104762Y-82354819D01*
X119733333Y-64354819D02*
X119400000Y-63878628D01*
X119161905Y-64354819D02*
X119161905Y-63354819D01*
X119161905Y-63354819D02*
X119542857Y-63354819D01*
X119542857Y-63354819D02*
X119638095Y-63402438D01*
X119638095Y-63402438D02*
X119685714Y-63450057D01*
X119685714Y-63450057D02*
X119733333Y-63545295D01*
X119733333Y-63545295D02*
X119733333Y-63688152D01*
X119733333Y-63688152D02*
X119685714Y-63783390D01*
X119685714Y-63783390D02*
X119638095Y-63831009D01*
X119638095Y-63831009D02*
X119542857Y-63878628D01*
X119542857Y-63878628D02*
X119161905Y-63878628D01*
X120685714Y-64354819D02*
X120114286Y-64354819D01*
X120400000Y-64354819D02*
X120400000Y-63354819D01*
X120400000Y-63354819D02*
X120304762Y-63497676D01*
X120304762Y-63497676D02*
X120209524Y-63592914D01*
X120209524Y-63592914D02*
X120114286Y-63640533D01*
X77633333Y-71554819D02*
X77300000Y-71078628D01*
X77061905Y-71554819D02*
X77061905Y-70554819D01*
X77061905Y-70554819D02*
X77442857Y-70554819D01*
X77442857Y-70554819D02*
X77538095Y-70602438D01*
X77538095Y-70602438D02*
X77585714Y-70650057D01*
X77585714Y-70650057D02*
X77633333Y-70745295D01*
X77633333Y-70745295D02*
X77633333Y-70888152D01*
X77633333Y-70888152D02*
X77585714Y-70983390D01*
X77585714Y-70983390D02*
X77538095Y-71031009D01*
X77538095Y-71031009D02*
X77442857Y-71078628D01*
X77442857Y-71078628D02*
X77061905Y-71078628D01*
X78490476Y-70888152D02*
X78490476Y-71554819D01*
X78252381Y-70507200D02*
X78014286Y-71221485D01*
X78014286Y-71221485D02*
X78633333Y-71221485D01*
X120033333Y-70854819D02*
X119700000Y-70378628D01*
X119461905Y-70854819D02*
X119461905Y-69854819D01*
X119461905Y-69854819D02*
X119842857Y-69854819D01*
X119842857Y-69854819D02*
X119938095Y-69902438D01*
X119938095Y-69902438D02*
X119985714Y-69950057D01*
X119985714Y-69950057D02*
X120033333Y-70045295D01*
X120033333Y-70045295D02*
X120033333Y-70188152D01*
X120033333Y-70188152D02*
X119985714Y-70283390D01*
X119985714Y-70283390D02*
X119938095Y-70331009D01*
X119938095Y-70331009D02*
X119842857Y-70378628D01*
X119842857Y-70378628D02*
X119461905Y-70378628D01*
X120414286Y-69950057D02*
X120461905Y-69902438D01*
X120461905Y-69902438D02*
X120557143Y-69854819D01*
X120557143Y-69854819D02*
X120795238Y-69854819D01*
X120795238Y-69854819D02*
X120890476Y-69902438D01*
X120890476Y-69902438D02*
X120938095Y-69950057D01*
X120938095Y-69950057D02*
X120985714Y-70045295D01*
X120985714Y-70045295D02*
X120985714Y-70140533D01*
X120985714Y-70140533D02*
X120938095Y-70283390D01*
X120938095Y-70283390D02*
X120366667Y-70854819D01*
X120366667Y-70854819D02*
X120985714Y-70854819D01*
X75938095Y-59854819D02*
X75938095Y-60664342D01*
X75938095Y-60664342D02*
X75985714Y-60759580D01*
X75985714Y-60759580D02*
X76033333Y-60807200D01*
X76033333Y-60807200D02*
X76128571Y-60854819D01*
X76128571Y-60854819D02*
X76319047Y-60854819D01*
X76319047Y-60854819D02*
X76414285Y-60807200D01*
X76414285Y-60807200D02*
X76461904Y-60759580D01*
X76461904Y-60759580D02*
X76509523Y-60664342D01*
X76509523Y-60664342D02*
X76509523Y-59854819D01*
X77128571Y-60283390D02*
X77033333Y-60235771D01*
X77033333Y-60235771D02*
X76985714Y-60188152D01*
X76985714Y-60188152D02*
X76938095Y-60092914D01*
X76938095Y-60092914D02*
X76938095Y-60045295D01*
X76938095Y-60045295D02*
X76985714Y-59950057D01*
X76985714Y-59950057D02*
X77033333Y-59902438D01*
X77033333Y-59902438D02*
X77128571Y-59854819D01*
X77128571Y-59854819D02*
X77319047Y-59854819D01*
X77319047Y-59854819D02*
X77414285Y-59902438D01*
X77414285Y-59902438D02*
X77461904Y-59950057D01*
X77461904Y-59950057D02*
X77509523Y-60045295D01*
X77509523Y-60045295D02*
X77509523Y-60092914D01*
X77509523Y-60092914D02*
X77461904Y-60188152D01*
X77461904Y-60188152D02*
X77414285Y-60235771D01*
X77414285Y-60235771D02*
X77319047Y-60283390D01*
X77319047Y-60283390D02*
X77128571Y-60283390D01*
X77128571Y-60283390D02*
X77033333Y-60331009D01*
X77033333Y-60331009D02*
X76985714Y-60378628D01*
X76985714Y-60378628D02*
X76938095Y-60473866D01*
X76938095Y-60473866D02*
X76938095Y-60664342D01*
X76938095Y-60664342D02*
X76985714Y-60759580D01*
X76985714Y-60759580D02*
X77033333Y-60807200D01*
X77033333Y-60807200D02*
X77128571Y-60854819D01*
X77128571Y-60854819D02*
X77319047Y-60854819D01*
X77319047Y-60854819D02*
X77414285Y-60807200D01*
X77414285Y-60807200D02*
X77461904Y-60759580D01*
X77461904Y-60759580D02*
X77509523Y-60664342D01*
X77509523Y-60664342D02*
X77509523Y-60473866D01*
X77509523Y-60473866D02*
X77461904Y-60378628D01*
X77461904Y-60378628D02*
X77414285Y-60331009D01*
X77414285Y-60331009D02*
X77319047Y-60283390D01*
D13*
%TO.C,C18*%
X83108767Y-58589999D02*
X82816233Y-58589999D01*
X83108767Y-59609999D02*
X82816233Y-59609999D01*
%TO.C,CR2*%
X107745548Y-70340238D02*
X105016116Y-73069670D01*
X109159762Y-71754452D02*
X106430330Y-74483884D01*
X109159762Y-71754452D02*
X107745548Y-70340238D01*
%TO.C,CR3*%
X118510000Y-65800000D02*
X114650000Y-65800000D01*
X118510000Y-67800000D02*
X114650000Y-67800000D01*
X118510000Y-67800000D02*
X118510000Y-65800000D01*
%TO.C,J2*%
X96189997Y-85540001D02*
X98249997Y-85540001D01*
X96189997Y-87250001D02*
X96189997Y-85540001D01*
X96189997Y-91360001D02*
X96189997Y-89750001D01*
X96189997Y-91360001D02*
X103909997Y-91360001D01*
X98249997Y-85540001D02*
X98249997Y-84950001D01*
X103909997Y-85540001D02*
X101849997Y-85540001D01*
X103909997Y-87250001D02*
X103909997Y-85540001D01*
X103909997Y-91360001D02*
X103909997Y-89750001D01*
%TO.C,Q1*%
X120625000Y-62710000D02*
X122775000Y-62710000D01*
X121175000Y-59490000D02*
X122775000Y-59490000D01*
X122775000Y-59500000D02*
X122775000Y-60400000D01*
X122775000Y-61800000D02*
X122775000Y-62710000D01*
X120675000Y-59540000D02*
X120435000Y-59210000D01*
X120915000Y-59210000D01*
X120675000Y-59540000D01*
G36*
X120675000Y-59540000D02*
G01*
X120435000Y-59210000D01*
X120915000Y-59210000D01*
X120675000Y-59540000D01*
G37*
%TO.C,CR1*%
X118510000Y-59200000D02*
X114650000Y-59200000D01*
X118510000Y-61200000D02*
X114650000Y-61200000D01*
X118510000Y-61200000D02*
X118510000Y-59200000D01*
%TO.C,Q2*%
X120625000Y-69310000D02*
X122775000Y-69310000D01*
X121175000Y-66090000D02*
X122775000Y-66090000D01*
X122775000Y-66100000D02*
X122775000Y-67000000D01*
X122775000Y-68400000D02*
X122775000Y-69310000D01*
X120675000Y-66140000D02*
X120435000Y-65810000D01*
X120915000Y-65810000D01*
X120675000Y-66140000D01*
G36*
X120675000Y-66140000D02*
G01*
X120435000Y-65810000D01*
X120915000Y-65810000D01*
X120675000Y-66140000D01*
G37*
%TO.C,R8*%
X101577500Y-83054724D02*
X101577500Y-82545276D01*
X102622500Y-83054724D02*
X102622500Y-82545276D01*
%TO.C,C14*%
X88035949Y-60842802D02*
X88242802Y-60635949D01*
X88757198Y-61564051D02*
X88964051Y-61357198D01*
%TO.C,R7*%
X103077500Y-83054724D02*
X103077500Y-82545276D01*
X104122500Y-83054724D02*
X104122500Y-82545276D01*
%TO.C,R1*%
X122232776Y-63327500D02*
X122742224Y-63327500D01*
X122232776Y-64372500D02*
X122742224Y-64372500D01*
%TO.C,R4*%
X80745276Y-70477500D02*
X81254724Y-70477500D01*
X80745276Y-71522500D02*
X81254724Y-71522500D01*
%TO.C,R2*%
X122345276Y-69877500D02*
X122854724Y-69877500D01*
X122345276Y-70922500D02*
X122854724Y-70922500D01*
%TO.C,U8*%
X78940001Y-60765001D02*
X84460001Y-60765001D01*
X78940001Y-60940001D02*
X78940001Y-60765001D01*
X78940001Y-69185001D02*
X78940001Y-69010001D01*
X84460001Y-60765001D02*
X84460001Y-60940001D01*
X84460001Y-69010001D02*
X84460001Y-69185001D01*
X84460001Y-69185001D02*
X78940001Y-69185001D01*
X78200001Y-60935001D02*
X77860001Y-60465001D01*
X78540001Y-60465001D01*
X78200001Y-60935001D01*
G36*
X78200001Y-60935001D02*
G01*
X77860001Y-60465001D01*
X78540001Y-60465001D01*
X78200001Y-60935001D01*
G37*
%TD*%
M02*
