%TF.GenerationSoftware,KiCad,Pcbnew,9.0.6*%
%TF.CreationDate,2026-03-25T12:33:22-04:00*%
%TF.ProjectId,newschematic,6e657773-6368-4656-9d61-7469632e6b69,0*%
%TF.SameCoordinates,Original*%
%TF.FileFunction,Drillmap*%
%TF.FilePolarity,Positive*%
%FSLAX45Y45*%
G04 Gerber Fmt 4.5, Leading zero omitted, Abs format (unit mm)*
G04 Created by KiCad (PCBNEW 9.0.6) date 2026-03-25 12:33:22*
%MOMM*%
%LPD*%
G01*
G04 APERTURE LIST*
%ADD10C,0.200000*%
G04 APERTURE END LIST*
D10*
X11326650Y-5800000D02*
X12500000Y-5800000D01*
X10700000Y-4000000D02*
X10700000Y-5173350D01*
X10160000Y-7350000D02*
G75*
G02*
X9840000Y-7350000I-160000J0D01*
G01*
X9840000Y-7350000D02*
G75*
G02*
X10160000Y-7350000I160000J0D01*
G01*
X8673350Y-7200000D02*
X7500000Y-7200000D01*
X9300000Y-9000000D02*
X9300000Y-7826650D01*
X10160000Y-5650000D02*
G75*
G02*
X9840000Y-5650000I-160000J0D01*
G01*
X9840000Y-5650000D02*
G75*
G02*
X10160000Y-5650000I160000J0D01*
G01*
X11326650Y-7200000D02*
X10700000Y-7826650D01*
X9300000Y-7826650D02*
X8673350Y-7200000D01*
X9310000Y-6500000D02*
G75*
G02*
X8990000Y-6500000I-160000J0D01*
G01*
X8990000Y-6500000D02*
G75*
G02*
X9310000Y-6500000I160000J0D01*
G01*
X9300000Y-4000000D02*
X10700000Y-4000000D01*
X11010000Y-6500000D02*
G75*
G02*
X10690000Y-6500000I-160000J0D01*
G01*
X10690000Y-6500000D02*
G75*
G02*
X11010000Y-6500000I160000J0D01*
G01*
X7500000Y-5800000D02*
X8673350Y-5800000D01*
X12500000Y-5800000D02*
X12500000Y-7200000D01*
X9300000Y-5173350D02*
X9300000Y-4000000D01*
X9849367Y-7035633D02*
G75*
G02*
X9079367Y-7035633I-385000J0D01*
G01*
X9079367Y-7035633D02*
G75*
G02*
X9849367Y-7035633I385000J0D01*
G01*
X8673350Y-5800000D02*
X9300000Y-5173350D01*
X10920633Y-5964367D02*
G75*
G02*
X10150633Y-5964367I-385000J0D01*
G01*
X10150633Y-5964367D02*
G75*
G02*
X10920633Y-5964367I385000J0D01*
G01*
X10700000Y-9000000D02*
X9300000Y-9000000D01*
X10700000Y-7826650D02*
X10700000Y-9000000D01*
X10700000Y-5173350D02*
X11326650Y-5800000D01*
X7500000Y-7200000D02*
X7500000Y-5800000D01*
X12500000Y-7200000D02*
X11326650Y-7200000D01*
X10215000Y-6500000D02*
G75*
G02*
X9785000Y-6500000I-215000J0D01*
G01*
X9785000Y-6500000D02*
G75*
G02*
X10215000Y-6500000I215000J0D01*
G01*
X7750777Y-9321484D02*
X7750777Y-9121484D01*
X7750777Y-9121484D02*
X7798396Y-9121484D01*
X7798396Y-9121484D02*
X7826967Y-9131008D01*
X7826967Y-9131008D02*
X7846015Y-9150055D01*
X7846015Y-9150055D02*
X7855539Y-9169103D01*
X7855539Y-9169103D02*
X7865062Y-9207198D01*
X7865062Y-9207198D02*
X7865062Y-9235770D01*
X7865062Y-9235770D02*
X7855539Y-9273865D01*
X7855539Y-9273865D02*
X7846015Y-9292912D01*
X7846015Y-9292912D02*
X7826967Y-9311960D01*
X7826967Y-9311960D02*
X7798396Y-9321484D01*
X7798396Y-9321484D02*
X7750777Y-9321484D01*
X7950777Y-9321484D02*
X7950777Y-9188150D01*
X7950777Y-9226246D02*
X7960301Y-9207198D01*
X7960301Y-9207198D02*
X7969824Y-9197674D01*
X7969824Y-9197674D02*
X7988872Y-9188150D01*
X7988872Y-9188150D02*
X8007920Y-9188150D01*
X8074586Y-9321484D02*
X8074586Y-9188150D01*
X8074586Y-9121484D02*
X8065062Y-9131008D01*
X8065062Y-9131008D02*
X8074586Y-9140531D01*
X8074586Y-9140531D02*
X8084110Y-9131008D01*
X8084110Y-9131008D02*
X8074586Y-9121484D01*
X8074586Y-9121484D02*
X8074586Y-9140531D01*
X8198396Y-9321484D02*
X8179348Y-9311960D01*
X8179348Y-9311960D02*
X8169824Y-9292912D01*
X8169824Y-9292912D02*
X8169824Y-9121484D01*
X8303158Y-9321484D02*
X8284110Y-9311960D01*
X8284110Y-9311960D02*
X8274586Y-9292912D01*
X8274586Y-9292912D02*
X8274586Y-9121484D01*
X8531729Y-9321484D02*
X8531729Y-9121484D01*
X8531729Y-9121484D02*
X8598396Y-9264341D01*
X8598396Y-9264341D02*
X8665063Y-9121484D01*
X8665063Y-9121484D02*
X8665063Y-9321484D01*
X8846015Y-9321484D02*
X8846015Y-9216722D01*
X8846015Y-9216722D02*
X8836491Y-9197674D01*
X8836491Y-9197674D02*
X8817444Y-9188150D01*
X8817444Y-9188150D02*
X8779348Y-9188150D01*
X8779348Y-9188150D02*
X8760301Y-9197674D01*
X8846015Y-9311960D02*
X8826967Y-9321484D01*
X8826967Y-9321484D02*
X8779348Y-9321484D01*
X8779348Y-9321484D02*
X8760301Y-9311960D01*
X8760301Y-9311960D02*
X8750777Y-9292912D01*
X8750777Y-9292912D02*
X8750777Y-9273865D01*
X8750777Y-9273865D02*
X8760301Y-9254817D01*
X8760301Y-9254817D02*
X8779348Y-9245293D01*
X8779348Y-9245293D02*
X8826967Y-9245293D01*
X8826967Y-9245293D02*
X8846015Y-9235770D01*
X8941253Y-9188150D02*
X8941253Y-9388150D01*
X8941253Y-9197674D02*
X8960301Y-9188150D01*
X8960301Y-9188150D02*
X8998396Y-9188150D01*
X8998396Y-9188150D02*
X9017444Y-9197674D01*
X9017444Y-9197674D02*
X9026967Y-9207198D01*
X9026967Y-9207198D02*
X9036491Y-9226246D01*
X9036491Y-9226246D02*
X9036491Y-9283389D01*
X9036491Y-9283389D02*
X9026967Y-9302436D01*
X9026967Y-9302436D02*
X9017444Y-9311960D01*
X9017444Y-9311960D02*
X8998396Y-9321484D01*
X8998396Y-9321484D02*
X8960301Y-9321484D01*
X8960301Y-9321484D02*
X8941253Y-9311960D01*
X9122205Y-9302436D02*
X9131729Y-9311960D01*
X9131729Y-9311960D02*
X9122205Y-9321484D01*
X9122205Y-9321484D02*
X9112682Y-9311960D01*
X9112682Y-9311960D02*
X9122205Y-9302436D01*
X9122205Y-9302436D02*
X9122205Y-9321484D01*
X9122205Y-9197674D02*
X9131729Y-9207198D01*
X9131729Y-9207198D02*
X9122205Y-9216722D01*
X9122205Y-9216722D02*
X9112682Y-9207198D01*
X9112682Y-9207198D02*
X9122205Y-9197674D01*
X9122205Y-9197674D02*
X9122205Y-9216722D01*
M02*
