%TF.GenerationSoftware,KiCad,Pcbnew,9.0.6*%
%TF.CreationDate,2026-03-25T11:26:29-04:00*%
%TF.ProjectId,newschematic,6e657773-6368-4656-9d61-7469632e6b69,0*%
%TF.SameCoordinates,Original*%
%TF.FileFunction,Copper,L3,Inr*%
%TF.FilePolarity,Positive*%
%FSLAX46Y46*%
G04 Gerber Fmt 4.6, Leading zero omitted, Abs format (unit mm)*
G04 Created by KiCad (PCBNEW 9.0.6) date 2026-03-25 11:26:29*
%MOMM*%
%LPD*%
G01*
G04 APERTURE LIST*
G04 Aperture macros list*
%AMRoundRect*
0 Rectangle with rounded corners*
0 $1 Rounding radius*
0 $2 $3 $4 $5 $6 $7 $8 $9 X,Y pos of 4 corners*
0 Add a 4 corners polygon primitive as box body*
4,1,4,$2,$3,$4,$5,$6,$7,$8,$9,$2,$3,0*
0 Add four circle primitives for the rounded corners*
1,1,$1+$1,$2,$3*
1,1,$1+$1,$4,$5*
1,1,$1+$1,$6,$7*
1,1,$1+$1,$8,$9*
0 Add four rect primitives between the rounded corners*
20,1,$1+$1,$2,$3,$4,$5,0*
20,1,$1+$1,$4,$5,$6,$7,0*
20,1,$1+$1,$6,$7,$8,$9,0*
20,1,$1+$1,$8,$9,$2,$3,0*%
%AMRotRect*
0 Rectangle, with rotation*
0 The origin of the aperture is its center*
0 $1 length*
0 $2 width*
0 $3 Rotation angle, in degrees counterclockwise*
0 Add horizontal line*
21,1,$1,$2,0,0,$3*%
G04 Aperture macros list end*
%TA.AperFunction,ComponentPad*%
%ADD10RoundRect,0.250000X-0.675000X-0.675000X0.675000X-0.675000X0.675000X0.675000X-0.675000X0.675000X0*%
%TD*%
%TA.AperFunction,ComponentPad*%
%ADD11C,1.850000*%
%TD*%
%TA.AperFunction,ComponentPad*%
%ADD12RoundRect,0.250000X-0.675000X0.675000X-0.675000X-0.675000X0.675000X-0.675000X0.675000X0.675000X0*%
%TD*%
%TA.AperFunction,ComponentPad*%
%ADD13RotRect,0.850000X0.850000X135.000000*%
%TD*%
%TA.AperFunction,ComponentPad*%
%ADD14C,0.850000*%
%TD*%
%TA.AperFunction,ComponentPad*%
%ADD15RoundRect,0.250000X-0.350000X-0.625000X0.350000X-0.625000X0.350000X0.625000X-0.350000X0.625000X0*%
%TD*%
%TA.AperFunction,ComponentPad*%
%ADD16O,1.200000X1.750000*%
%TD*%
%TA.AperFunction,ViaPad*%
%ADD17C,0.600000*%
%TD*%
%TA.AperFunction,Conductor*%
%ADD18C,0.150000*%
%TD*%
G04 APERTURE END LIST*
D10*
%TO.N,+BATT*%
%TO.C,M2*%
X113300000Y-69800000D03*
D11*
%TO.N,Net-(M2--)*%
X116650000Y-69800000D03*
%TD*%
D10*
%TO.N,+BATT*%
%TO.C,M1*%
X113300000Y-63200000D03*
D11*
%TO.N,Net-(M1--)*%
X116650000Y-63200000D03*
%TD*%
D12*
%TO.N,Net-(M3-+)*%
%TO.C,M5*%
X95500000Y-48050000D03*
D11*
%TO.N,Net-(M3--)*%
X95500000Y-51400000D03*
%TD*%
D12*
%TO.N,Net-(M3-+)*%
%TO.C,M3*%
X98500000Y-48050000D03*
D11*
%TO.N,Net-(M3--)*%
X98500000Y-51400000D03*
%TD*%
D12*
%TO.N,Net-(M4-+)*%
%TO.C,M6*%
X101500000Y-48050000D03*
D11*
%TO.N,Net-(M4--)*%
X101500000Y-51400000D03*
%TD*%
D12*
%TO.N,Net-(M4-+)*%
%TO.C,M4*%
X104500000Y-48050000D03*
D11*
%TO.N,Net-(M4--)*%
X104500000Y-51400000D03*
%TD*%
D13*
%TO.N,Net-(J3-Pin_1)*%
%TO.C,J3*%
X97407107Y-59492893D03*
D14*
%TO.N,Net-(J3-Pin_2)*%
X96700000Y-60200000D03*
%TO.N,Net-(J3-Pin_3)*%
X95992893Y-60907107D03*
%TO.N,GND*%
X95285787Y-61614213D03*
%TO.N,+3.3V*%
X94578680Y-62321320D03*
%TD*%
D15*
%TO.N,+BATT*%
%TO.C,J1*%
X99100000Y-44250000D03*
D16*
%TO.N,GND*%
X101100000Y-44250000D03*
%TD*%
D17*
%TO.N,+BATT*%
X91400000Y-56400000D03*
X99100000Y-42700000D03*
X97200000Y-43200000D03*
X81800000Y-62200000D03*
X82100000Y-67240000D03*
X110600000Y-56600000D03*
%TO.N,GND*%
X94700000Y-88500000D03*
X98800000Y-81249000D03*
X76400000Y-62300000D03*
X103000000Y-67200000D03*
X76600000Y-67100000D03*
X102100000Y-85400000D03*
X103962501Y-76100000D03*
X102900000Y-70900000D03*
X120700002Y-63000000D03*
X81212500Y-59863462D03*
X120353768Y-67846232D03*
X98962502Y-77600001D03*
X102325004Y-77600001D03*
X122800000Y-65399000D03*
X124100000Y-64800000D03*
X97200000Y-45200000D03*
X82100000Y-64481000D03*
X121500000Y-60400000D03*
X79700000Y-62700000D03*
X123500000Y-69400000D03*
X88127000Y-69000000D03*
X120000000Y-69500000D03*
X100662502Y-76100000D03*
X78400000Y-69800000D03*
X104574363Y-82650437D03*
X100379894Y-80625000D03*
X101790292Y-86603996D03*
X94300000Y-60700000D03*
X110300000Y-69400000D03*
X101100000Y-42800000D03*
X88200000Y-59500000D03*
X97362501Y-76100000D03*
%TO.N,+3.3V*%
X102300000Y-67900000D03*
X98937500Y-76100000D03*
X104600000Y-83400000D03*
X89400000Y-70600000D03*
X110100000Y-72500000D03*
X93200000Y-61800000D03*
X86700465Y-63923123D03*
X81900000Y-63311000D03*
X100600002Y-77600001D03*
X97237500Y-77600001D03*
X102100000Y-80500000D03*
X95637499Y-76100000D03*
X114000000Y-58800000D03*
X79000000Y-71000000D03*
X105100000Y-74500000D03*
X108900000Y-70700000D03*
X97600000Y-80200000D03*
X102237499Y-76100000D03*
X106300000Y-70100000D03*
X81900000Y-68400000D03*
X87328000Y-60500000D03*
X103500000Y-85700000D03*
X103800000Y-66800000D03*
%TO.N,Net-(J2-VBUS)*%
X104525000Y-81380090D03*
X98900000Y-84200000D03*
%TO.N,Net-(Q1-G)*%
X104200000Y-78100000D03*
X120400000Y-63900000D03*
X114250000Y-65200000D03*
%TO.N,Net-(U1-PA13)*%
X83500000Y-71000000D03*
X94325000Y-80487181D03*
%TO.N,Net-(U1-PA22)*%
X107105281Y-73794719D03*
X105550000Y-79500000D03*
%TO.N,Net-(U1-PA25)*%
X99650003Y-82412500D03*
%TO.N,Net-(U1-PA24)*%
X98900000Y-82300000D03*
%TO.N,Net-(U1-PA11)*%
X86500000Y-62700000D03*
X93800000Y-79745790D03*
X94595277Y-78304723D03*
%TO.N,Net-(U1-PA12)*%
X102524339Y-86024339D03*
X87321501Y-64978500D03*
%TO.N,Net-(U1-PA15)*%
X97400000Y-87100000D03*
X87145276Y-70854724D03*
X86603738Y-66625952D03*
%TO.N,Net-(J3-Pin_3)*%
X102839798Y-80623300D03*
%TO.N,Net-(J3-Pin_2)*%
X103589643Y-80607963D03*
%TO.N,Net-(U1-PA16)*%
X86565929Y-67375000D03*
%TO.N,Net-(U1-PA10)*%
X103956374Y-86581124D03*
%TO.N,Net-(U1-PA14)*%
X84875000Y-69501001D03*
X82087500Y-66016640D03*
X93800000Y-78995787D03*
%TO.N,Net-(M3-+)*%
X79500000Y-60600000D03*
%TO.N,Net-(M4-+)*%
X79601000Y-65500075D03*
%TO.N,Net-(M3--)*%
X79800000Y-64100000D03*
%TO.N,Net-(M4--)*%
X79600000Y-67900000D03*
%TO.N,Net-(Q2-G)*%
X106200000Y-78900000D03*
%TO.N,Net-(D1-A)*%
X115550000Y-64675000D03*
X106200000Y-79900000D03*
%TD*%
D18*
%TO.N,Net-(U1-PA12)*%
X95850700Y-86050700D02*
X95000000Y-85200000D01*
X86972088Y-71424000D02*
X86619276Y-71424000D01*
X87321501Y-67363305D02*
X87321501Y-64978500D01*
X86972088Y-71424000D02*
X95000000Y-79451912D01*
X86619276Y-71424000D02*
X86619276Y-68065530D01*
X102524339Y-86024339D02*
X102497978Y-86050700D01*
X95000000Y-85200000D02*
X95000000Y-79451912D01*
X86619276Y-68065530D02*
X87321501Y-67363305D01*
X102497978Y-86050700D02*
X95850700Y-86050700D01*
%TO.N,Net-(U1-PA14)*%
X84875000Y-69501001D02*
X84875000Y-68804140D01*
X84875000Y-68804140D02*
X82087500Y-66016640D01*
%TO.N,Net-(D1-A)*%
X115550000Y-64675000D02*
X115550000Y-69272240D01*
X106074000Y-80026000D02*
X106200000Y-79900000D01*
X115499000Y-70276760D02*
X115550000Y-70327760D01*
X115550000Y-70449000D02*
X115048000Y-70951000D01*
X115499000Y-69323240D02*
X115499000Y-70276760D01*
X113355123Y-70951000D02*
X105024000Y-79282123D01*
X105024000Y-79282123D02*
X105024000Y-79717877D01*
X105332123Y-80026000D02*
X106074000Y-80026000D01*
X115048000Y-70951000D02*
X113355123Y-70951000D01*
X115550000Y-69272240D02*
X115499000Y-69323240D01*
X105024000Y-79717877D02*
X105332123Y-80026000D01*
X115550000Y-70327760D02*
X115550000Y-70449000D01*
%TD*%
%TA.AperFunction,Conductor*%
%TO.N,+3.3V*%
G36*
X111661527Y-57115017D02*
G01*
X111699717Y-57141032D01*
X112959185Y-58400500D01*
X113073313Y-58466392D01*
X113200607Y-58500500D01*
X113332392Y-58500500D01*
X124375500Y-58500500D01*
X124442539Y-58520185D01*
X124488294Y-58572989D01*
X124499500Y-58624500D01*
X124499500Y-64180214D01*
X124479815Y-64247253D01*
X124427011Y-64293008D01*
X124357853Y-64302952D01*
X124320099Y-64289885D01*
X124319999Y-64290128D01*
X124315928Y-64288442D01*
X124313504Y-64287603D01*
X124312492Y-64287018D01*
X124312489Y-64287017D01*
X124301006Y-64283940D01*
X124172475Y-64249500D01*
X124027525Y-64249500D01*
X123898993Y-64283940D01*
X123887511Y-64287017D01*
X123761988Y-64359488D01*
X123761982Y-64359493D01*
X123659493Y-64461982D01*
X123659488Y-64461988D01*
X123587017Y-64587511D01*
X123582583Y-64604055D01*
X123549500Y-64727525D01*
X123549500Y-64872475D01*
X123582058Y-64993982D01*
X123587017Y-65012488D01*
X123659488Y-65138011D01*
X123659490Y-65138013D01*
X123659491Y-65138015D01*
X123761985Y-65240509D01*
X123761986Y-65240510D01*
X123761988Y-65240511D01*
X123887511Y-65312982D01*
X123887512Y-65312982D01*
X123887515Y-65312984D01*
X124027525Y-65350500D01*
X124027528Y-65350500D01*
X124172472Y-65350500D01*
X124172475Y-65350500D01*
X124312485Y-65312984D01*
X124313495Y-65312400D01*
X124314457Y-65312167D01*
X124319999Y-65309872D01*
X124320356Y-65310735D01*
X124381393Y-65295925D01*
X124447421Y-65318774D01*
X124490615Y-65373692D01*
X124499500Y-65419785D01*
X124499500Y-71375500D01*
X124479815Y-71442539D01*
X124427011Y-71488294D01*
X124375500Y-71499500D01*
X115200480Y-71499500D01*
X115133441Y-71479815D01*
X115087686Y-71427011D01*
X115077742Y-71357853D01*
X115106767Y-71294297D01*
X115165545Y-71256523D01*
X115168346Y-71255736D01*
X115173639Y-71254318D01*
X115247862Y-71211465D01*
X115738952Y-70720374D01*
X115800273Y-70686891D01*
X115869964Y-70691875D01*
X115899511Y-70707736D01*
X116033904Y-70805378D01*
X116087224Y-70832546D01*
X116198764Y-70889379D01*
X116198767Y-70889380D01*
X116286750Y-70917967D01*
X116374736Y-70946555D01*
X116557486Y-70975500D01*
X116557487Y-70975500D01*
X116742513Y-70975500D01*
X116742514Y-70975500D01*
X116925264Y-70946555D01*
X117101235Y-70889379D01*
X117266096Y-70805378D01*
X117415787Y-70696621D01*
X117546621Y-70565787D01*
X117655378Y-70416096D01*
X117739379Y-70251235D01*
X117796555Y-70075264D01*
X117825500Y-69892514D01*
X117825500Y-69707486D01*
X117796555Y-69524736D01*
X117764969Y-69427525D01*
X119449500Y-69427525D01*
X119449500Y-69572475D01*
X119460221Y-69612485D01*
X119487017Y-69712488D01*
X119559488Y-69838011D01*
X119559490Y-69838013D01*
X119559491Y-69838015D01*
X119661985Y-69940509D01*
X119661986Y-69940510D01*
X119661988Y-69940511D01*
X119787511Y-70012982D01*
X119787512Y-70012982D01*
X119787515Y-70012984D01*
X119927525Y-70050500D01*
X119927528Y-70050500D01*
X120072472Y-70050500D01*
X120072475Y-70050500D01*
X120212485Y-70012984D01*
X120338015Y-69940509D01*
X120440509Y-69838015D01*
X120512984Y-69712485D01*
X120550500Y-69572475D01*
X120550500Y-69427525D01*
X120523705Y-69327525D01*
X122949500Y-69327525D01*
X122949500Y-69472475D01*
X122987016Y-69612485D01*
X122987017Y-69612488D01*
X123059488Y-69738011D01*
X123059490Y-69738013D01*
X123059491Y-69738015D01*
X123161985Y-69840509D01*
X123161986Y-69840510D01*
X123161988Y-69840511D01*
X123287511Y-69912982D01*
X123287512Y-69912982D01*
X123287515Y-69912984D01*
X123427525Y-69950500D01*
X123427528Y-69950500D01*
X123572472Y-69950500D01*
X123572475Y-69950500D01*
X123712485Y-69912984D01*
X123838015Y-69840509D01*
X123940509Y-69738015D01*
X124012984Y-69612485D01*
X124050500Y-69472475D01*
X124050500Y-69327525D01*
X124012984Y-69187515D01*
X123998244Y-69161985D01*
X123940511Y-69061988D01*
X123940506Y-69061982D01*
X123838017Y-68959493D01*
X123838011Y-68959488D01*
X123712488Y-68887017D01*
X123712489Y-68887017D01*
X123696243Y-68882664D01*
X123572475Y-68849500D01*
X123427525Y-68849500D01*
X123303757Y-68882664D01*
X123287511Y-68887017D01*
X123161988Y-68959488D01*
X123161982Y-68959493D01*
X123059493Y-69061982D01*
X123059488Y-69061988D01*
X122987017Y-69187511D01*
X122987016Y-69187515D01*
X122949500Y-69327525D01*
X120523705Y-69327525D01*
X120512984Y-69287515D01*
X120512696Y-69287017D01*
X120440511Y-69161988D01*
X120440506Y-69161982D01*
X120338017Y-69059493D01*
X120338011Y-69059488D01*
X120212488Y-68987017D01*
X120212489Y-68987017D01*
X120201006Y-68983940D01*
X120072475Y-68949500D01*
X119927525Y-68949500D01*
X119798993Y-68983940D01*
X119787511Y-68987017D01*
X119661988Y-69059488D01*
X119661982Y-69059493D01*
X119559493Y-69161982D01*
X119559488Y-69161988D01*
X119487017Y-69287511D01*
X119487016Y-69287515D01*
X119449500Y-69427525D01*
X117764969Y-69427525D01*
X117739379Y-69348765D01*
X117739379Y-69348764D01*
X117669942Y-69212488D01*
X117655378Y-69183904D01*
X117546621Y-69034213D01*
X117415787Y-68903379D01*
X117266096Y-68794622D01*
X117244205Y-68783468D01*
X117101235Y-68710620D01*
X117101232Y-68710619D01*
X116925265Y-68653445D01*
X116782972Y-68630908D01*
X116742514Y-68624500D01*
X116557486Y-68624500D01*
X116517028Y-68630908D01*
X116374734Y-68653445D01*
X116198767Y-68710619D01*
X116198764Y-68710620D01*
X116055795Y-68783468D01*
X115987126Y-68796364D01*
X115922385Y-68770088D01*
X115882128Y-68712981D01*
X115875500Y-68672983D01*
X115875500Y-67773757D01*
X119803268Y-67773757D01*
X119803268Y-67918707D01*
X119831127Y-68022677D01*
X119840785Y-68058720D01*
X119913256Y-68184243D01*
X119913258Y-68184245D01*
X119913259Y-68184247D01*
X120015753Y-68286741D01*
X120015754Y-68286742D01*
X120015756Y-68286743D01*
X120141279Y-68359214D01*
X120141280Y-68359214D01*
X120141283Y-68359216D01*
X120281293Y-68396732D01*
X120281296Y-68396732D01*
X120426240Y-68396732D01*
X120426243Y-68396732D01*
X120566253Y-68359216D01*
X120691783Y-68286741D01*
X120794277Y-68184247D01*
X120866752Y-68058717D01*
X120904268Y-67918707D01*
X120904268Y-67773757D01*
X120866752Y-67633747D01*
X120857181Y-67617170D01*
X120794279Y-67508220D01*
X120794274Y-67508214D01*
X120691785Y-67405725D01*
X120691779Y-67405720D01*
X120566256Y-67333249D01*
X120566257Y-67333249D01*
X120548242Y-67328422D01*
X120426243Y-67295732D01*
X120281293Y-67295732D01*
X120159294Y-67328422D01*
X120141279Y-67333249D01*
X120015756Y-67405720D01*
X120015750Y-67405725D01*
X119913261Y-67508214D01*
X119913256Y-67508220D01*
X119840785Y-67633743D01*
X119840784Y-67633747D01*
X119803268Y-67773757D01*
X115875500Y-67773757D01*
X115875500Y-65326525D01*
X122249500Y-65326525D01*
X122249500Y-65471475D01*
X122287016Y-65611485D01*
X122287017Y-65611488D01*
X122359488Y-65737011D01*
X122359490Y-65737013D01*
X122359491Y-65737015D01*
X122461985Y-65839509D01*
X122461986Y-65839510D01*
X122461988Y-65839511D01*
X122587511Y-65911982D01*
X122587512Y-65911982D01*
X122587515Y-65911984D01*
X122727525Y-65949500D01*
X122727528Y-65949500D01*
X122872472Y-65949500D01*
X122872475Y-65949500D01*
X123012485Y-65911984D01*
X123138015Y-65839509D01*
X123240509Y-65737015D01*
X123312984Y-65611485D01*
X123350500Y-65471475D01*
X123350500Y-65326525D01*
X123312984Y-65186515D01*
X123293650Y-65153028D01*
X123240511Y-65060988D01*
X123240506Y-65060982D01*
X123138017Y-64958493D01*
X123138011Y-64958488D01*
X123012488Y-64886017D01*
X123012489Y-64886017D01*
X123001006Y-64882940D01*
X122872475Y-64848500D01*
X122727525Y-64848500D01*
X122598993Y-64882940D01*
X122587511Y-64886017D01*
X122461988Y-64958488D01*
X122461982Y-64958493D01*
X122359493Y-65060982D01*
X122359488Y-65060988D01*
X122287017Y-65186511D01*
X122287016Y-65186515D01*
X122249500Y-65326525D01*
X115875500Y-65326525D01*
X115875500Y-65179386D01*
X115895185Y-65112347D01*
X115911819Y-65091705D01*
X115943961Y-65059563D01*
X115990509Y-65013015D01*
X116062984Y-64887485D01*
X116100500Y-64747475D01*
X116100500Y-64602525D01*
X116062984Y-64462515D01*
X116062981Y-64462510D01*
X116061934Y-64459981D01*
X116061685Y-64457671D01*
X116060880Y-64454665D01*
X116061348Y-64454539D01*
X116054462Y-64390512D01*
X116085735Y-64328031D01*
X116145823Y-64292377D01*
X116214811Y-64294593D01*
X116289293Y-64318793D01*
X116374736Y-64346555D01*
X116557486Y-64375500D01*
X116557487Y-64375500D01*
X116742513Y-64375500D01*
X116742514Y-64375500D01*
X116925264Y-64346555D01*
X117101235Y-64289379D01*
X117266096Y-64205378D01*
X117415787Y-64096621D01*
X117546621Y-63965787D01*
X117647074Y-63827525D01*
X119849500Y-63827525D01*
X119849500Y-63972475D01*
X119882765Y-64096621D01*
X119887017Y-64112488D01*
X119959488Y-64238011D01*
X119959490Y-64238013D01*
X119959491Y-64238015D01*
X120061985Y-64340509D01*
X120061986Y-64340510D01*
X120061988Y-64340511D01*
X120187511Y-64412982D01*
X120187512Y-64412982D01*
X120187515Y-64412984D01*
X120327525Y-64450500D01*
X120327528Y-64450500D01*
X120472472Y-64450500D01*
X120472475Y-64450500D01*
X120612485Y-64412984D01*
X120738015Y-64340509D01*
X120840509Y-64238015D01*
X120912984Y-64112485D01*
X120950500Y-63972475D01*
X120950500Y-63827525D01*
X120912984Y-63687515D01*
X120912982Y-63687511D01*
X120899286Y-63663788D01*
X120882813Y-63595887D01*
X120905666Y-63529860D01*
X120944671Y-63494401D01*
X121038017Y-63440509D01*
X121140511Y-63338015D01*
X121212986Y-63212485D01*
X121250502Y-63072475D01*
X121250502Y-62927525D01*
X121212986Y-62787515D01*
X121196791Y-62759465D01*
X121140513Y-62661988D01*
X121140508Y-62661982D01*
X121038019Y-62559493D01*
X121038013Y-62559488D01*
X120912490Y-62487017D01*
X120912491Y-62487017D01*
X120901008Y-62483940D01*
X120772477Y-62449500D01*
X120627527Y-62449500D01*
X120498995Y-62483940D01*
X120487513Y-62487017D01*
X120361990Y-62559488D01*
X120361984Y-62559493D01*
X120259495Y-62661982D01*
X120259490Y-62661988D01*
X120187019Y-62787511D01*
X120187018Y-62787515D01*
X120149502Y-62927525D01*
X120149502Y-63072475D01*
X120183942Y-63201006D01*
X120187019Y-63212489D01*
X120187020Y-63212490D01*
X120200716Y-63236213D01*
X120217187Y-63304113D01*
X120194334Y-63370140D01*
X120155329Y-63405597D01*
X120061991Y-63459487D01*
X120061982Y-63459493D01*
X119959493Y-63561982D01*
X119959488Y-63561988D01*
X119887017Y-63687511D01*
X119887016Y-63687515D01*
X119849500Y-63827525D01*
X117647074Y-63827525D01*
X117655378Y-63816096D01*
X117739379Y-63651235D01*
X117796555Y-63475264D01*
X117825500Y-63292514D01*
X117825500Y-63107486D01*
X117796555Y-62924736D01*
X117767381Y-62834948D01*
X117739380Y-62748767D01*
X117739379Y-62748764D01*
X117655377Y-62583903D01*
X117637642Y-62559493D01*
X117546621Y-62434213D01*
X117415787Y-62303379D01*
X117266096Y-62194622D01*
X117101235Y-62110620D01*
X117101232Y-62110619D01*
X116925265Y-62053445D01*
X116782972Y-62030908D01*
X116742514Y-62024500D01*
X116557486Y-62024500D01*
X116517028Y-62030908D01*
X116374734Y-62053445D01*
X116198767Y-62110619D01*
X116198764Y-62110620D01*
X116033903Y-62194622D01*
X115988614Y-62227527D01*
X115884213Y-62303379D01*
X115884211Y-62303381D01*
X115884210Y-62303381D01*
X115753381Y-62434210D01*
X115753381Y-62434211D01*
X115753379Y-62434213D01*
X115722199Y-62477129D01*
X115644622Y-62583903D01*
X115560620Y-62748764D01*
X115560619Y-62748767D01*
X115503445Y-62924734D01*
X115474500Y-63107486D01*
X115474500Y-63292513D01*
X115503445Y-63475265D01*
X115560619Y-63651232D01*
X115560620Y-63651235D01*
X115634771Y-63796763D01*
X115644622Y-63816096D01*
X115722207Y-63922883D01*
X115725645Y-63927614D01*
X115749125Y-63993421D01*
X115733300Y-64061475D01*
X115683194Y-64110170D01*
X115625327Y-64124500D01*
X115622475Y-64124500D01*
X115477525Y-64124500D01*
X115348993Y-64158940D01*
X115337511Y-64162017D01*
X115211988Y-64234488D01*
X115211982Y-64234493D01*
X115109493Y-64336982D01*
X115109488Y-64336988D01*
X115037017Y-64462511D01*
X115037016Y-64462515D01*
X114999500Y-64602525D01*
X114999500Y-64747475D01*
X115036623Y-64886017D01*
X115037017Y-64887488D01*
X115109488Y-65013011D01*
X115109493Y-65013017D01*
X115188181Y-65091705D01*
X115221666Y-65153028D01*
X115224500Y-65179386D01*
X115224500Y-69114461D01*
X115222575Y-69123737D01*
X115223556Y-69129730D01*
X115217726Y-69147115D01*
X115214270Y-69163780D01*
X115211441Y-69170305D01*
X115195682Y-69197601D01*
X115191694Y-69212485D01*
X115189327Y-69221316D01*
X115189327Y-69221318D01*
X115173500Y-69280387D01*
X115173500Y-70313810D01*
X115153815Y-70380849D01*
X115137181Y-70401491D01*
X114949492Y-70589181D01*
X114888169Y-70622666D01*
X114861811Y-70625500D01*
X114599500Y-70625500D01*
X114532461Y-70605815D01*
X114486706Y-70553011D01*
X114475500Y-70501500D01*
X114475499Y-69077129D01*
X114475498Y-69077123D01*
X114475497Y-69077116D01*
X114469091Y-69017517D01*
X114457715Y-68987017D01*
X114418797Y-68882671D01*
X114418793Y-68882664D01*
X114332547Y-68767455D01*
X114332544Y-68767452D01*
X114217335Y-68681206D01*
X114217328Y-68681202D01*
X114082482Y-68630908D01*
X114082483Y-68630908D01*
X114022883Y-68624501D01*
X114022881Y-68624500D01*
X114022873Y-68624500D01*
X114022864Y-68624500D01*
X112577129Y-68624500D01*
X112577123Y-68624501D01*
X112517516Y-68630908D01*
X112382671Y-68681202D01*
X112382664Y-68681206D01*
X112267455Y-68767452D01*
X112267452Y-68767455D01*
X112181206Y-68882664D01*
X112181202Y-68882671D01*
X112130908Y-69017517D01*
X112125000Y-69072472D01*
X112124501Y-69077123D01*
X112124500Y-69077135D01*
X112124500Y-70522870D01*
X112124501Y-70522876D01*
X112130908Y-70582483D01*
X112181202Y-70717328D01*
X112181206Y-70717335D01*
X112267452Y-70832544D01*
X112267455Y-70832547D01*
X112382664Y-70918793D01*
X112382671Y-70918797D01*
X112406078Y-70927527D01*
X112517517Y-70969091D01*
X112577127Y-70975500D01*
X112577145Y-70975499D01*
X112577706Y-70975530D01*
X112577833Y-70975574D01*
X112580429Y-70975854D01*
X112580363Y-70976467D01*
X112643598Y-70998770D01*
X112686465Y-71053943D01*
X112692698Y-71123534D01*
X112660318Y-71185448D01*
X112658760Y-71187034D01*
X104763537Y-79082258D01*
X104763533Y-79082264D01*
X104720681Y-79156484D01*
X104720682Y-79156485D01*
X104698500Y-79239270D01*
X104698500Y-79760729D01*
X104720682Y-79843517D01*
X104737877Y-79873298D01*
X104763535Y-79917739D01*
X104763537Y-79917741D01*
X105132261Y-80286465D01*
X105169373Y-80307891D01*
X105169375Y-80307893D01*
X105206481Y-80329317D01*
X105206483Y-80329317D01*
X105206484Y-80329318D01*
X105289270Y-80351501D01*
X105289272Y-80351501D01*
X105382572Y-80351501D01*
X105382588Y-80351500D01*
X105847796Y-80351500D01*
X105909796Y-80368113D01*
X105987511Y-80412982D01*
X105987512Y-80412982D01*
X105987515Y-80412984D01*
X106127525Y-80450500D01*
X106127528Y-80450500D01*
X106272472Y-80450500D01*
X106272475Y-80450500D01*
X106343409Y-80431493D01*
X106413256Y-80433156D01*
X106471118Y-80472318D01*
X106498623Y-80536546D01*
X106499500Y-80551268D01*
X106499500Y-89375500D01*
X106479815Y-89442539D01*
X106427011Y-89488294D01*
X106375500Y-89499500D01*
X93624500Y-89499500D01*
X93557461Y-89479815D01*
X93511706Y-89427011D01*
X93500500Y-89375500D01*
X93500500Y-88427525D01*
X94149500Y-88427525D01*
X94149500Y-88572475D01*
X94187016Y-88712485D01*
X94187017Y-88712488D01*
X94259488Y-88838011D01*
X94259490Y-88838013D01*
X94259491Y-88838015D01*
X94361985Y-88940509D01*
X94361986Y-88940510D01*
X94361988Y-88940511D01*
X94487511Y-89012982D01*
X94487512Y-89012982D01*
X94487515Y-89012984D01*
X94627525Y-89050500D01*
X94627528Y-89050500D01*
X94772472Y-89050500D01*
X94772475Y-89050500D01*
X94912485Y-89012984D01*
X95038015Y-88940509D01*
X95140509Y-88838015D01*
X95212984Y-88712485D01*
X95250500Y-88572475D01*
X95250500Y-88427525D01*
X95212984Y-88287515D01*
X95140509Y-88161985D01*
X95038015Y-88059491D01*
X95038013Y-88059490D01*
X95038011Y-88059488D01*
X94912488Y-87987017D01*
X94912489Y-87987017D01*
X94901006Y-87983940D01*
X94772475Y-87949500D01*
X94627525Y-87949500D01*
X94498993Y-87983940D01*
X94487511Y-87987017D01*
X94361988Y-88059488D01*
X94361982Y-88059493D01*
X94259493Y-88161982D01*
X94259488Y-88161988D01*
X94187017Y-88287511D01*
X94187016Y-88287515D01*
X94149500Y-88427525D01*
X93500500Y-88427525D01*
X93500500Y-80397058D01*
X93520185Y-80330019D01*
X93572989Y-80284264D01*
X93642147Y-80274320D01*
X93656589Y-80277282D01*
X93682916Y-80284337D01*
X93742577Y-80320700D01*
X93773107Y-80383546D01*
X93773522Y-80406578D01*
X93774500Y-80406578D01*
X93774500Y-80414706D01*
X93774500Y-80559656D01*
X93811428Y-80697472D01*
X93812017Y-80699669D01*
X93884488Y-80825192D01*
X93884490Y-80825194D01*
X93884491Y-80825196D01*
X93986985Y-80927690D01*
X93986986Y-80927691D01*
X93986988Y-80927692D01*
X94112511Y-81000163D01*
X94112512Y-81000163D01*
X94112515Y-81000165D01*
X94252525Y-81037681D01*
X94252528Y-81037681D01*
X94397472Y-81037681D01*
X94397475Y-81037681D01*
X94518410Y-81005276D01*
X94588255Y-81006939D01*
X94646118Y-81046101D01*
X94673623Y-81110329D01*
X94674500Y-81125051D01*
X94674500Y-85242852D01*
X94696682Y-85325640D01*
X94718108Y-85362750D01*
X94739535Y-85399862D01*
X95590234Y-86250561D01*
X95590235Y-86250562D01*
X95650838Y-86311165D01*
X95650840Y-86311166D01*
X95650844Y-86311169D01*
X95725055Y-86354014D01*
X95725062Y-86354018D01*
X95807847Y-86376200D01*
X97089884Y-86376200D01*
X97156923Y-86395885D01*
X97202678Y-86448689D01*
X97212622Y-86517847D01*
X97183597Y-86581403D01*
X97151885Y-86607587D01*
X97061985Y-86659491D01*
X97061982Y-86659493D01*
X96959493Y-86761982D01*
X96959488Y-86761988D01*
X96887017Y-86887511D01*
X96887016Y-86887515D01*
X96849500Y-87027525D01*
X96849500Y-87172475D01*
X96887016Y-87312485D01*
X96887017Y-87312488D01*
X96959488Y-87438011D01*
X96959490Y-87438013D01*
X96959491Y-87438015D01*
X97061985Y-87540509D01*
X97061986Y-87540510D01*
X97061988Y-87540511D01*
X97187511Y-87612982D01*
X97187512Y-87612982D01*
X97187515Y-87612984D01*
X97327525Y-87650500D01*
X97327528Y-87650500D01*
X97472472Y-87650500D01*
X97472475Y-87650500D01*
X97612485Y-87612984D01*
X97738015Y-87540509D01*
X97840509Y-87438015D01*
X97912984Y-87312485D01*
X97950500Y-87172475D01*
X97950500Y-87027525D01*
X97912984Y-86887515D01*
X97871972Y-86816481D01*
X97840511Y-86761988D01*
X97840506Y-86761982D01*
X97738017Y-86659493D01*
X97738015Y-86659491D01*
X97648115Y-86607587D01*
X97599900Y-86557019D01*
X97586678Y-86488412D01*
X97612646Y-86423548D01*
X97669560Y-86383020D01*
X97710116Y-86376200D01*
X101119811Y-86376200D01*
X101186850Y-86395885D01*
X101232605Y-86448689D01*
X101242549Y-86517847D01*
X101239878Y-86530864D01*
X101239792Y-86531519D01*
X101239792Y-86531521D01*
X101239792Y-86676471D01*
X101271180Y-86793612D01*
X101277309Y-86816484D01*
X101349780Y-86942007D01*
X101349782Y-86942009D01*
X101349783Y-86942011D01*
X101452277Y-87044505D01*
X101452278Y-87044506D01*
X101452280Y-87044507D01*
X101577803Y-87116978D01*
X101577804Y-87116978D01*
X101577807Y-87116980D01*
X101717817Y-87154496D01*
X101717820Y-87154496D01*
X101862764Y-87154496D01*
X101862767Y-87154496D01*
X102002777Y-87116980D01*
X102128307Y-87044505D01*
X102230801Y-86942011D01*
X102303276Y-86816481D01*
X102340792Y-86676471D01*
X102340792Y-86676468D01*
X102342895Y-86668620D01*
X102345835Y-86669407D01*
X102368251Y-86618750D01*
X102426578Y-86580283D01*
X102462917Y-86574839D01*
X102596811Y-86574839D01*
X102596814Y-86574839D01*
X102736824Y-86537323D01*
X102786489Y-86508649D01*
X103405874Y-86508649D01*
X103405874Y-86653599D01*
X103434917Y-86761988D01*
X103443391Y-86793612D01*
X103515862Y-86919135D01*
X103515864Y-86919137D01*
X103515865Y-86919139D01*
X103618359Y-87021633D01*
X103618360Y-87021634D01*
X103618362Y-87021635D01*
X103743885Y-87094106D01*
X103743886Y-87094106D01*
X103743889Y-87094108D01*
X103883899Y-87131624D01*
X103883902Y-87131624D01*
X104028846Y-87131624D01*
X104028849Y-87131624D01*
X104168859Y-87094108D01*
X104294389Y-87021633D01*
X104396883Y-86919139D01*
X104469358Y-86793609D01*
X104506874Y-86653599D01*
X104506874Y-86508649D01*
X104469358Y-86368639D01*
X104465730Y-86362356D01*
X104396885Y-86243112D01*
X104396880Y-86243106D01*
X104294391Y-86140617D01*
X104294385Y-86140612D01*
X104168862Y-86068141D01*
X104168863Y-86068141D01*
X104157380Y-86065064D01*
X104028849Y-86030624D01*
X103883899Y-86030624D01*
X103755367Y-86065064D01*
X103743885Y-86068141D01*
X103618362Y-86140612D01*
X103618356Y-86140617D01*
X103515867Y-86243106D01*
X103515862Y-86243112D01*
X103443391Y-86368635D01*
X103443390Y-86368639D01*
X103405874Y-86508649D01*
X102786489Y-86508649D01*
X102862354Y-86464848D01*
X102964848Y-86362354D01*
X103037323Y-86236824D01*
X103074839Y-86096814D01*
X103074839Y-85951864D01*
X103037323Y-85811854D01*
X102970907Y-85696819D01*
X102964850Y-85686327D01*
X102964845Y-85686321D01*
X102862356Y-85583832D01*
X102862350Y-85583827D01*
X102736827Y-85511356D01*
X102729320Y-85508247D01*
X102730434Y-85505556D01*
X102682736Y-85476475D01*
X102652214Y-85413624D01*
X102650500Y-85393076D01*
X102650500Y-85327527D01*
X102650500Y-85327525D01*
X102612984Y-85187515D01*
X102563318Y-85101492D01*
X102540511Y-85061988D01*
X102540506Y-85061982D01*
X102438017Y-84959493D01*
X102438011Y-84959488D01*
X102312488Y-84887017D01*
X102312489Y-84887017D01*
X102301006Y-84883940D01*
X102172475Y-84849500D01*
X102027525Y-84849500D01*
X101898993Y-84883940D01*
X101887511Y-84887017D01*
X101761988Y-84959488D01*
X101761982Y-84959493D01*
X101659493Y-85061982D01*
X101659488Y-85061988D01*
X101587017Y-85187511D01*
X101587016Y-85187515D01*
X101549500Y-85327525D01*
X101549500Y-85472475D01*
X101575392Y-85569107D01*
X101573730Y-85638956D01*
X101534568Y-85696819D01*
X101470339Y-85724323D01*
X101455618Y-85725200D01*
X96036889Y-85725200D01*
X95969850Y-85705515D01*
X95949208Y-85688881D01*
X95361819Y-85101492D01*
X95328334Y-85040169D01*
X95325500Y-85013811D01*
X95325500Y-84127525D01*
X98349500Y-84127525D01*
X98349500Y-84272475D01*
X98387016Y-84412485D01*
X98387017Y-84412488D01*
X98459488Y-84538011D01*
X98459490Y-84538013D01*
X98459491Y-84538015D01*
X98561985Y-84640509D01*
X98561986Y-84640510D01*
X98561988Y-84640511D01*
X98687511Y-84712982D01*
X98687512Y-84712982D01*
X98687515Y-84712984D01*
X98827525Y-84750500D01*
X98827528Y-84750500D01*
X98972472Y-84750500D01*
X98972475Y-84750500D01*
X99112485Y-84712984D01*
X99238015Y-84640509D01*
X99340509Y-84538015D01*
X99412984Y-84412485D01*
X99450500Y-84272475D01*
X99450500Y-84127525D01*
X99412984Y-83987515D01*
X99340509Y-83861985D01*
X99238015Y-83759491D01*
X99238013Y-83759490D01*
X99238011Y-83759488D01*
X99112488Y-83687017D01*
X99112489Y-83687017D01*
X99101006Y-83683940D01*
X98972475Y-83649500D01*
X98827525Y-83649500D01*
X98698993Y-83683940D01*
X98687511Y-83687017D01*
X98561988Y-83759488D01*
X98561982Y-83759493D01*
X98459493Y-83861982D01*
X98459488Y-83861988D01*
X98387017Y-83987511D01*
X98387016Y-83987515D01*
X98349500Y-84127525D01*
X95325500Y-84127525D01*
X95325500Y-81176525D01*
X98249500Y-81176525D01*
X98249500Y-81321475D01*
X98284625Y-81452562D01*
X98287017Y-81461488D01*
X98359488Y-81587011D01*
X98359490Y-81587013D01*
X98359491Y-81587015D01*
X98461985Y-81689509D01*
X98493197Y-81707529D01*
X98541412Y-81758095D01*
X98554636Y-81826702D01*
X98528668Y-81891567D01*
X98518879Y-81902597D01*
X98459488Y-81961988D01*
X98387017Y-82087511D01*
X98387016Y-82087515D01*
X98349500Y-82227525D01*
X98349500Y-82372475D01*
X98367044Y-82437948D01*
X98387017Y-82512488D01*
X98459488Y-82638011D01*
X98459490Y-82638013D01*
X98459491Y-82638015D01*
X98561985Y-82740509D01*
X98561986Y-82740510D01*
X98561988Y-82740511D01*
X98687511Y-82812982D01*
X98687512Y-82812982D01*
X98687515Y-82812984D01*
X98827525Y-82850500D01*
X98827528Y-82850500D01*
X98972472Y-82850500D01*
X98972475Y-82850500D01*
X99112485Y-82812984D01*
X99131187Y-82802185D01*
X99199081Y-82785711D01*
X99265109Y-82808559D01*
X99280869Y-82821890D01*
X99311988Y-82853009D01*
X99311989Y-82853010D01*
X99311991Y-82853011D01*
X99437514Y-82925482D01*
X99437515Y-82925482D01*
X99437518Y-82925484D01*
X99577528Y-82963000D01*
X99577531Y-82963000D01*
X99722475Y-82963000D01*
X99722478Y-82963000D01*
X99862488Y-82925484D01*
X99988018Y-82853009D01*
X100090512Y-82750515D01*
X100162987Y-82624985D01*
X100200503Y-82484975D01*
X100200503Y-82340025D01*
X100162987Y-82200015D01*
X100126867Y-82137454D01*
X100090514Y-82074488D01*
X100090509Y-82074482D01*
X99988020Y-81971993D01*
X99988014Y-81971988D01*
X99862491Y-81899517D01*
X99862492Y-81899517D01*
X99838439Y-81893072D01*
X99722478Y-81862000D01*
X99577528Y-81862000D01*
X99479111Y-81888370D01*
X99437513Y-81899517D01*
X99437512Y-81899518D01*
X99418811Y-81910315D01*
X99398840Y-81915159D01*
X99380596Y-81924625D01*
X99365571Y-81923229D01*
X99350910Y-81926786D01*
X99331490Y-81920064D01*
X99311026Y-81918164D01*
X99294395Y-81907225D01*
X99284884Y-81903933D01*
X99280414Y-81900596D01*
X99274472Y-81895948D01*
X99238015Y-81859491D01*
X99199260Y-81837115D01*
X99192403Y-81831752D01*
X99176928Y-81810139D01*
X99158586Y-81790903D01*
X99156903Y-81782172D01*
X99151727Y-81774943D01*
X99150393Y-81748393D01*
X99145364Y-81722296D01*
X99148668Y-81714042D01*
X99148222Y-81705161D01*
X99161454Y-81682104D01*
X99171332Y-81657431D01*
X99181105Y-81646418D01*
X99240509Y-81587015D01*
X99312984Y-81461485D01*
X99350500Y-81321475D01*
X99350500Y-81176525D01*
X99312984Y-81036515D01*
X99303006Y-81019233D01*
X99240511Y-80910988D01*
X99240506Y-80910982D01*
X99138017Y-80808493D01*
X99138011Y-80808488D01*
X99012488Y-80736017D01*
X99012489Y-80736017D01*
X98989425Y-80729837D01*
X98872475Y-80698500D01*
X98727525Y-80698500D01*
X98610575Y-80729837D01*
X98587511Y-80736017D01*
X98461988Y-80808488D01*
X98461982Y-80808493D01*
X98359493Y-80910982D01*
X98359488Y-80910988D01*
X98287017Y-81036511D01*
X98287016Y-81036515D01*
X98249500Y-81176525D01*
X95325500Y-81176525D01*
X95325500Y-80552525D01*
X99829394Y-80552525D01*
X99829394Y-80697475D01*
X99866455Y-80835788D01*
X99866911Y-80837488D01*
X99939382Y-80963011D01*
X99939384Y-80963013D01*
X99939385Y-80963015D01*
X100041879Y-81065509D01*
X100041880Y-81065510D01*
X100041882Y-81065511D01*
X100167405Y-81137982D01*
X100167406Y-81137982D01*
X100167409Y-81137984D01*
X100307419Y-81175500D01*
X100307422Y-81175500D01*
X100452366Y-81175500D01*
X100452369Y-81175500D01*
X100592379Y-81137984D01*
X100717909Y-81065509D01*
X100820403Y-80963015D01*
X100892878Y-80837485D01*
X100930394Y-80697475D01*
X100930394Y-80552525D01*
X100929938Y-80550825D01*
X102289298Y-80550825D01*
X102289298Y-80695775D01*
X102323976Y-80825192D01*
X102326815Y-80835788D01*
X102399286Y-80961311D01*
X102399288Y-80961313D01*
X102399289Y-80961315D01*
X102501783Y-81063809D01*
X102501784Y-81063810D01*
X102501786Y-81063811D01*
X102627309Y-81136282D01*
X102627310Y-81136282D01*
X102627313Y-81136284D01*
X102767323Y-81173800D01*
X102767326Y-81173800D01*
X102912270Y-81173800D01*
X102912273Y-81173800D01*
X103052283Y-81136284D01*
X103052285Y-81136282D01*
X103052287Y-81136282D01*
X103052288Y-81136281D01*
X103078849Y-81120946D01*
X103166003Y-81070627D01*
X103233901Y-81054154D01*
X103289999Y-81070626D01*
X103377158Y-81120947D01*
X103517168Y-81158463D01*
X103517171Y-81158463D01*
X103662115Y-81158463D01*
X103662118Y-81158463D01*
X103802128Y-81120947D01*
X103805957Y-81118736D01*
X103809600Y-81117851D01*
X103809642Y-81117835D01*
X103809644Y-81117841D01*
X103873853Y-81102260D01*
X103939882Y-81125107D01*
X103983076Y-81180026D01*
X103989723Y-81249578D01*
X103987737Y-81258212D01*
X103974500Y-81307613D01*
X103974500Y-81307615D01*
X103974500Y-81452565D01*
X104010525Y-81587011D01*
X104012017Y-81592578D01*
X104084488Y-81718101D01*
X104084490Y-81718103D01*
X104084491Y-81718105D01*
X104186985Y-81820599D01*
X104186986Y-81820600D01*
X104186988Y-81820601D01*
X104312511Y-81893072D01*
X104312512Y-81893072D01*
X104312515Y-81893074D01*
X104347886Y-81902551D01*
X104407545Y-81938917D01*
X104438074Y-82001764D01*
X104429779Y-82071139D01*
X104385293Y-82125017D01*
X104363242Y-82136888D01*
X104361874Y-82137454D01*
X104236351Y-82209925D01*
X104236345Y-82209930D01*
X104133856Y-82312419D01*
X104133851Y-82312425D01*
X104061380Y-82437948D01*
X104061379Y-82437952D01*
X104023863Y-82577962D01*
X104023863Y-82722912D01*
X104061379Y-82862922D01*
X104061380Y-82862925D01*
X104133851Y-82988448D01*
X104133853Y-82988450D01*
X104133854Y-82988452D01*
X104236348Y-83090946D01*
X104236349Y-83090947D01*
X104236351Y-83090948D01*
X104361874Y-83163419D01*
X104361875Y-83163419D01*
X104361878Y-83163421D01*
X104501888Y-83200937D01*
X104501891Y-83200937D01*
X104646835Y-83200937D01*
X104646838Y-83200937D01*
X104786848Y-83163421D01*
X104912378Y-83090946D01*
X105014872Y-82988452D01*
X105087347Y-82862922D01*
X105124863Y-82722912D01*
X105124863Y-82577962D01*
X105087347Y-82437952D01*
X105014872Y-82312422D01*
X104912378Y-82209928D01*
X104912376Y-82209927D01*
X104912374Y-82209925D01*
X104786851Y-82137454D01*
X104786848Y-82137453D01*
X104751475Y-82127974D01*
X104691815Y-82091608D01*
X104661287Y-82028760D01*
X104669584Y-81959385D01*
X104714070Y-81905508D01*
X104736135Y-81893632D01*
X104737476Y-81893076D01*
X104737485Y-81893074D01*
X104740096Y-81891567D01*
X104852444Y-81826702D01*
X104863015Y-81820599D01*
X104965509Y-81718105D01*
X105037984Y-81592575D01*
X105075500Y-81452565D01*
X105075500Y-81307615D01*
X105037984Y-81167605D01*
X105020882Y-81137984D01*
X104965511Y-81042078D01*
X104965506Y-81042072D01*
X104863017Y-80939583D01*
X104863011Y-80939578D01*
X104737488Y-80867107D01*
X104737489Y-80867107D01*
X104721926Y-80862937D01*
X104597475Y-80829590D01*
X104452525Y-80829590D01*
X104354108Y-80855960D01*
X104312510Y-80867107D01*
X104312507Y-80867108D01*
X104308676Y-80869321D01*
X104305033Y-80870204D01*
X104305001Y-80870218D01*
X104304998Y-80870212D01*
X104240775Y-80885791D01*
X104174749Y-80862937D01*
X104131561Y-80808014D01*
X104124922Y-80738460D01*
X104126906Y-80729837D01*
X104140143Y-80680438D01*
X104140143Y-80535488D01*
X104102627Y-80395478D01*
X104077236Y-80351500D01*
X104030154Y-80269951D01*
X104030149Y-80269945D01*
X103927660Y-80167456D01*
X103927654Y-80167451D01*
X103802131Y-80094980D01*
X103802132Y-80094980D01*
X103790649Y-80091903D01*
X103662118Y-80057463D01*
X103517168Y-80057463D01*
X103388636Y-80091903D01*
X103377154Y-80094980D01*
X103263438Y-80160635D01*
X103195538Y-80177108D01*
X103139438Y-80160635D01*
X103052283Y-80110316D01*
X102912273Y-80072800D01*
X102767323Y-80072800D01*
X102638791Y-80107240D01*
X102627309Y-80110317D01*
X102501786Y-80182788D01*
X102501780Y-80182793D01*
X102399291Y-80285282D01*
X102399286Y-80285288D01*
X102326815Y-80410811D01*
X102326358Y-80412515D01*
X102289298Y-80550825D01*
X100929938Y-80550825D01*
X100892878Y-80412515D01*
X100891894Y-80410811D01*
X100820405Y-80286988D01*
X100820400Y-80286982D01*
X100717911Y-80184493D01*
X100717905Y-80184488D01*
X100592382Y-80112017D01*
X100592383Y-80112017D01*
X100580900Y-80108940D01*
X100452369Y-80074500D01*
X100307419Y-80074500D01*
X100178887Y-80108940D01*
X100167405Y-80112017D01*
X100041882Y-80184488D01*
X100041876Y-80184493D01*
X99939387Y-80286982D01*
X99939382Y-80286988D01*
X99866911Y-80412511D01*
X99866910Y-80412515D01*
X99829394Y-80552525D01*
X95325500Y-80552525D01*
X95325500Y-79409062D01*
X95325499Y-79409055D01*
X95314765Y-79368994D01*
X95303318Y-79326273D01*
X95260465Y-79252050D01*
X94931150Y-78922735D01*
X94897665Y-78861412D01*
X94902649Y-78791720D01*
X94931150Y-78747372D01*
X94933287Y-78745234D01*
X94933292Y-78745232D01*
X95035786Y-78642738D01*
X95108261Y-78517208D01*
X95145777Y-78377198D01*
X95145777Y-78232248D01*
X95108261Y-78092238D01*
X95035786Y-77966708D01*
X94933292Y-77864214D01*
X94933290Y-77864213D01*
X94933288Y-77864211D01*
X94807765Y-77791740D01*
X94807766Y-77791740D01*
X94796283Y-77788663D01*
X94667752Y-77754223D01*
X94522802Y-77754223D01*
X94394270Y-77788663D01*
X94382788Y-77791740D01*
X94257265Y-77864211D01*
X94152626Y-77968850D01*
X94091303Y-78002334D01*
X94021611Y-77997350D01*
X93977264Y-77968849D01*
X93535941Y-77527526D01*
X98412002Y-77527526D01*
X98412002Y-77672476D01*
X98435987Y-77761988D01*
X98449519Y-77812489D01*
X98521990Y-77938012D01*
X98521992Y-77938014D01*
X98521993Y-77938016D01*
X98624487Y-78040510D01*
X98624488Y-78040511D01*
X98624490Y-78040512D01*
X98750013Y-78112983D01*
X98750014Y-78112983D01*
X98750017Y-78112985D01*
X98890027Y-78150501D01*
X98890030Y-78150501D01*
X99034974Y-78150501D01*
X99034977Y-78150501D01*
X99174987Y-78112985D01*
X99300517Y-78040510D01*
X99403011Y-77938016D01*
X99475486Y-77812486D01*
X99513002Y-77672476D01*
X99513002Y-77527526D01*
X101774504Y-77527526D01*
X101774504Y-77672476D01*
X101798489Y-77761988D01*
X101812021Y-77812489D01*
X101884492Y-77938012D01*
X101884494Y-77938014D01*
X101884495Y-77938016D01*
X101986989Y-78040510D01*
X101986990Y-78040511D01*
X101986992Y-78040512D01*
X102112515Y-78112983D01*
X102112516Y-78112983D01*
X102112519Y-78112985D01*
X102252529Y-78150501D01*
X102252532Y-78150501D01*
X102397476Y-78150501D01*
X102397479Y-78150501D01*
X102537489Y-78112985D01*
X102663019Y-78040510D01*
X102676004Y-78027525D01*
X103649500Y-78027525D01*
X103649500Y-78172475D01*
X103665517Y-78232250D01*
X103687017Y-78312488D01*
X103759488Y-78438011D01*
X103759490Y-78438013D01*
X103759491Y-78438015D01*
X103861985Y-78540509D01*
X103861986Y-78540510D01*
X103861988Y-78540511D01*
X103987511Y-78612982D01*
X103987512Y-78612982D01*
X103987515Y-78612984D01*
X104127525Y-78650500D01*
X104127528Y-78650500D01*
X104272472Y-78650500D01*
X104272475Y-78650500D01*
X104412485Y-78612984D01*
X104538015Y-78540509D01*
X104640509Y-78438015D01*
X104712984Y-78312485D01*
X104750500Y-78172475D01*
X104750500Y-78027525D01*
X104712984Y-77887515D01*
X104699532Y-77864216D01*
X104640511Y-77761988D01*
X104640506Y-77761982D01*
X104538017Y-77659493D01*
X104538011Y-77659488D01*
X104412488Y-77587017D01*
X104412489Y-77587017D01*
X104401006Y-77583940D01*
X104272475Y-77549500D01*
X104127525Y-77549500D01*
X103998993Y-77583940D01*
X103987511Y-77587017D01*
X103861988Y-77659488D01*
X103861982Y-77659493D01*
X103759493Y-77761982D01*
X103759488Y-77761988D01*
X103687017Y-77887511D01*
X103687016Y-77887515D01*
X103649500Y-78027525D01*
X102676004Y-78027525D01*
X102765513Y-77938016D01*
X102837988Y-77812486D01*
X102875504Y-77672476D01*
X102875504Y-77527526D01*
X102837988Y-77387516D01*
X102765513Y-77261986D01*
X102663019Y-77159492D01*
X102663017Y-77159491D01*
X102663015Y-77159489D01*
X102537492Y-77087018D01*
X102537493Y-77087018D01*
X102526010Y-77083941D01*
X102397479Y-77049501D01*
X102252529Y-77049501D01*
X102123997Y-77083941D01*
X102112515Y-77087018D01*
X101986992Y-77159489D01*
X101986986Y-77159494D01*
X101884497Y-77261983D01*
X101884492Y-77261989D01*
X101812021Y-77387512D01*
X101812020Y-77387516D01*
X101774504Y-77527526D01*
X99513002Y-77527526D01*
X99475486Y-77387516D01*
X99403011Y-77261986D01*
X99300517Y-77159492D01*
X99300515Y-77159491D01*
X99300513Y-77159489D01*
X99174990Y-77087018D01*
X99174991Y-77087018D01*
X99163508Y-77083941D01*
X99034977Y-77049501D01*
X98890027Y-77049501D01*
X98761495Y-77083941D01*
X98750013Y-77087018D01*
X98624490Y-77159489D01*
X98624484Y-77159494D01*
X98521995Y-77261983D01*
X98521990Y-77261989D01*
X98449519Y-77387512D01*
X98449518Y-77387516D01*
X98412002Y-77527526D01*
X93535941Y-77527526D01*
X92035940Y-76027525D01*
X96812001Y-76027525D01*
X96812001Y-76172475D01*
X96849517Y-76312485D01*
X96849518Y-76312488D01*
X96921989Y-76438011D01*
X96921991Y-76438013D01*
X96921992Y-76438015D01*
X97024486Y-76540509D01*
X97024487Y-76540510D01*
X97024489Y-76540511D01*
X97150012Y-76612982D01*
X97150013Y-76612982D01*
X97150016Y-76612984D01*
X97290026Y-76650500D01*
X97290029Y-76650500D01*
X97434973Y-76650500D01*
X97434976Y-76650500D01*
X97574986Y-76612984D01*
X97700516Y-76540509D01*
X97803010Y-76438015D01*
X97875485Y-76312485D01*
X97913001Y-76172475D01*
X97913001Y-76027525D01*
X97875485Y-75887515D01*
X97803010Y-75761985D01*
X97700516Y-75659491D01*
X97700513Y-75659489D01*
X97700512Y-75659488D01*
X97574989Y-75587017D01*
X97574990Y-75587017D01*
X97563507Y-75583940D01*
X97434976Y-75549500D01*
X97290026Y-75549500D01*
X97161494Y-75583940D01*
X97150012Y-75587017D01*
X97024489Y-75659488D01*
X97024483Y-75659493D01*
X96921994Y-75761982D01*
X96921989Y-75761988D01*
X96849518Y-75887511D01*
X96849517Y-75887515D01*
X96812001Y-76027525D01*
X92035940Y-76027525D01*
X87481150Y-71472735D01*
X87447665Y-71411412D01*
X87452649Y-71341720D01*
X87481150Y-71297372D01*
X87483286Y-71295235D01*
X87483291Y-71295233D01*
X87585785Y-71192739D01*
X87658260Y-71067209D01*
X87695776Y-70927199D01*
X87695776Y-70782249D01*
X87658260Y-70642239D01*
X87646959Y-70622666D01*
X87585787Y-70516712D01*
X87585782Y-70516706D01*
X87483293Y-70414217D01*
X87483287Y-70414212D01*
X87357764Y-70341741D01*
X87357765Y-70341741D01*
X87345774Y-70338528D01*
X87217751Y-70304224D01*
X87072801Y-70304224D01*
X87068776Y-70304224D01*
X87001737Y-70284539D01*
X86955982Y-70231735D01*
X86944776Y-70180224D01*
X86944776Y-68927525D01*
X87576500Y-68927525D01*
X87576500Y-69072475D01*
X87610028Y-69197601D01*
X87614017Y-69212488D01*
X87686488Y-69338011D01*
X87686490Y-69338013D01*
X87686491Y-69338015D01*
X87788985Y-69440509D01*
X87788986Y-69440510D01*
X87788988Y-69440511D01*
X87914511Y-69512982D01*
X87914512Y-69512982D01*
X87914515Y-69512984D01*
X88054525Y-69550500D01*
X88054528Y-69550500D01*
X88199472Y-69550500D01*
X88199475Y-69550500D01*
X88339485Y-69512984D01*
X88465015Y-69440509D01*
X88567509Y-69338015D01*
X88639984Y-69212485D01*
X88677500Y-69072475D01*
X88677500Y-68927525D01*
X88639984Y-68787515D01*
X88637647Y-68783468D01*
X88567511Y-68661988D01*
X88567506Y-68661982D01*
X88465017Y-68559493D01*
X88465011Y-68559488D01*
X88339488Y-68487017D01*
X88339489Y-68487017D01*
X88328006Y-68483940D01*
X88199475Y-68449500D01*
X88054525Y-68449500D01*
X87925993Y-68483940D01*
X87914511Y-68487017D01*
X87788988Y-68559488D01*
X87788982Y-68559493D01*
X87686493Y-68661982D01*
X87686488Y-68661988D01*
X87614017Y-68787511D01*
X87614016Y-68787515D01*
X87576500Y-68927525D01*
X86944776Y-68927525D01*
X86944776Y-68251719D01*
X86964461Y-68184680D01*
X86981095Y-68164038D01*
X87270615Y-67874518D01*
X87581966Y-67563167D01*
X87624819Y-67488944D01*
X87647001Y-67406158D01*
X87647001Y-67320452D01*
X87647001Y-65482886D01*
X87666686Y-65415847D01*
X87683320Y-65395205D01*
X87704833Y-65373692D01*
X87762010Y-65316515D01*
X87834485Y-65190985D01*
X87872001Y-65050975D01*
X87872001Y-64906025D01*
X87860293Y-64862332D01*
X89399499Y-64862332D01*
X89399499Y-65137667D01*
X89399500Y-65137684D01*
X89435437Y-65410655D01*
X89435438Y-65410660D01*
X89435439Y-65410666D01*
X89460356Y-65503657D01*
X89506703Y-65676630D01*
X89612074Y-65931017D01*
X89612079Y-65931028D01*
X89682783Y-66053489D01*
X89749750Y-66169479D01*
X89749752Y-66169482D01*
X89749753Y-66169483D01*
X89917369Y-66387926D01*
X89917375Y-66387933D01*
X90112065Y-66582623D01*
X90112072Y-66582629D01*
X90117791Y-66587017D01*
X90330520Y-66750249D01*
X90483266Y-66838437D01*
X90568970Y-66887919D01*
X90568975Y-66887921D01*
X90568978Y-66887923D01*
X90823367Y-66993295D01*
X91089333Y-67064560D01*
X91362325Y-67100500D01*
X91362332Y-67100500D01*
X91447601Y-67100500D01*
X91514640Y-67120185D01*
X91560395Y-67172989D01*
X91570339Y-67242147D01*
X91541314Y-67305703D01*
X91535282Y-67312181D01*
X91433087Y-67414375D01*
X91188894Y-67705392D01*
X90971007Y-68016567D01*
X90970991Y-68016593D01*
X90781052Y-68345576D01*
X90781044Y-68345591D01*
X90620503Y-68689874D01*
X90620500Y-68689880D01*
X90620499Y-68689884D01*
X90584964Y-68787515D01*
X90495173Y-69034213D01*
X90490567Y-69046867D01*
X90452880Y-69187515D01*
X90392243Y-69413814D01*
X90392241Y-69413825D01*
X90326276Y-69787932D01*
X90326276Y-69787936D01*
X90293166Y-70166383D01*
X90293166Y-70546284D01*
X90326276Y-70924731D01*
X90326276Y-70924735D01*
X90392241Y-71298842D01*
X90392243Y-71298853D01*
X90403729Y-71341720D01*
X90490567Y-71665801D01*
X90620499Y-72022784D01*
X90620502Y-72022791D01*
X90620503Y-72022793D01*
X90781044Y-72367076D01*
X90781049Y-72367085D01*
X90970996Y-72696083D01*
X90971000Y-72696089D01*
X90971007Y-72696100D01*
X91188894Y-73007275D01*
X91365396Y-73217621D01*
X91433085Y-73298290D01*
X91701710Y-73566915D01*
X91719962Y-73582230D01*
X91992724Y-73811105D01*
X92303899Y-74028992D01*
X92303906Y-74028996D01*
X92303917Y-74029004D01*
X92559615Y-74176631D01*
X92632908Y-74218947D01*
X92632923Y-74218955D01*
X92667821Y-74235228D01*
X92977216Y-74379501D01*
X93334199Y-74509433D01*
X93701148Y-74607757D01*
X94075271Y-74673724D01*
X94453717Y-74706833D01*
X94453718Y-74706834D01*
X94453719Y-74706834D01*
X94833614Y-74706834D01*
X94833614Y-74706833D01*
X95212061Y-74673724D01*
X95586184Y-74607757D01*
X95953133Y-74509433D01*
X96310116Y-74379501D01*
X96654417Y-74218951D01*
X96983415Y-74029004D01*
X97294606Y-73811106D01*
X97585622Y-73566915D01*
X97687819Y-73464718D01*
X97749142Y-73431233D01*
X97818834Y-73436217D01*
X97874767Y-73478089D01*
X97899184Y-73543553D01*
X97899500Y-73552399D01*
X97899500Y-73637668D01*
X97899501Y-73637685D01*
X97935438Y-73910656D01*
X97935439Y-73910661D01*
X97935440Y-73910667D01*
X97935441Y-73910669D01*
X98006704Y-74176631D01*
X98112075Y-74431018D01*
X98112080Y-74431029D01*
X98191809Y-74569122D01*
X98249751Y-74669480D01*
X98249753Y-74669483D01*
X98249754Y-74669484D01*
X98417370Y-74887927D01*
X98417376Y-74887934D01*
X98612066Y-75082624D01*
X98612072Y-75082629D01*
X98830521Y-75250250D01*
X98983778Y-75338733D01*
X99068971Y-75387920D01*
X99068976Y-75387922D01*
X99068979Y-75387924D01*
X99323368Y-75493296D01*
X99589334Y-75564561D01*
X99862326Y-75600501D01*
X99862333Y-75600501D01*
X100100452Y-75600501D01*
X100167491Y-75620186D01*
X100213246Y-75672990D01*
X100223190Y-75742148D01*
X100207840Y-75786497D01*
X100149518Y-75887515D01*
X100112002Y-76027525D01*
X100112002Y-76172475D01*
X100149518Y-76312485D01*
X100149519Y-76312488D01*
X100221990Y-76438011D01*
X100221992Y-76438013D01*
X100221993Y-76438015D01*
X100324487Y-76540509D01*
X100324488Y-76540510D01*
X100324490Y-76540511D01*
X100450013Y-76612982D01*
X100450014Y-76612982D01*
X100450017Y-76612984D01*
X100590027Y-76650500D01*
X100590030Y-76650500D01*
X100734974Y-76650500D01*
X100734977Y-76650500D01*
X100874987Y-76612984D01*
X101000517Y-76540509D01*
X101103011Y-76438015D01*
X101175486Y-76312485D01*
X101213002Y-76172475D01*
X101213002Y-76027525D01*
X103412001Y-76027525D01*
X103412001Y-76172475D01*
X103449517Y-76312485D01*
X103449518Y-76312488D01*
X103521989Y-76438011D01*
X103521991Y-76438013D01*
X103521992Y-76438015D01*
X103624486Y-76540509D01*
X103624487Y-76540510D01*
X103624489Y-76540511D01*
X103750012Y-76612982D01*
X103750013Y-76612982D01*
X103750016Y-76612984D01*
X103890026Y-76650500D01*
X103890029Y-76650500D01*
X104034973Y-76650500D01*
X104034976Y-76650500D01*
X104174986Y-76612984D01*
X104300516Y-76540509D01*
X104403010Y-76438015D01*
X104475485Y-76312485D01*
X104513001Y-76172475D01*
X104513001Y-76027525D01*
X104475485Y-75887515D01*
X104403010Y-75761985D01*
X104300516Y-75659491D01*
X104300513Y-75659489D01*
X104300512Y-75659488D01*
X104174989Y-75587017D01*
X104174990Y-75587017D01*
X104163507Y-75583940D01*
X104034976Y-75549500D01*
X103890026Y-75549500D01*
X103761494Y-75583940D01*
X103750012Y-75587017D01*
X103624489Y-75659488D01*
X103624483Y-75659493D01*
X103521994Y-75761982D01*
X103521989Y-75761988D01*
X103449518Y-75887511D01*
X103449517Y-75887515D01*
X103412001Y-76027525D01*
X101213002Y-76027525D01*
X101175486Y-75887515D01*
X101103011Y-75761985D01*
X101000517Y-75659491D01*
X100915368Y-75610330D01*
X100867152Y-75559763D01*
X100853930Y-75491156D01*
X100879898Y-75426291D01*
X100927591Y-75390145D01*
X100927381Y-75389719D01*
X100929595Y-75388626D01*
X100929922Y-75388378D01*
X100931021Y-75387924D01*
X101169479Y-75250250D01*
X101387928Y-75082629D01*
X101582628Y-74887929D01*
X101750249Y-74669480D01*
X101887923Y-74431022D01*
X101993295Y-74176633D01*
X102064560Y-73910667D01*
X102089366Y-73722244D01*
X106554781Y-73722244D01*
X106554781Y-73867194D01*
X106592297Y-74007204D01*
X106592298Y-74007207D01*
X106664769Y-74132730D01*
X106664771Y-74132732D01*
X106664772Y-74132734D01*
X106767266Y-74235228D01*
X106767267Y-74235229D01*
X106767269Y-74235230D01*
X106892792Y-74307701D01*
X106892793Y-74307701D01*
X106892796Y-74307703D01*
X107032806Y-74345219D01*
X107032809Y-74345219D01*
X107177753Y-74345219D01*
X107177756Y-74345219D01*
X107317766Y-74307703D01*
X107443296Y-74235228D01*
X107545790Y-74132734D01*
X107618265Y-74007204D01*
X107655781Y-73867194D01*
X107655781Y-73722244D01*
X107618265Y-73582234D01*
X107595932Y-73543553D01*
X107545792Y-73456707D01*
X107545787Y-73456701D01*
X107443298Y-73354212D01*
X107443292Y-73354207D01*
X107317769Y-73281736D01*
X107317770Y-73281736D01*
X107306287Y-73278659D01*
X107177756Y-73244219D01*
X107032806Y-73244219D01*
X106904274Y-73278659D01*
X106892792Y-73281736D01*
X106767269Y-73354207D01*
X106767263Y-73354212D01*
X106664774Y-73456701D01*
X106664769Y-73456707D01*
X106592298Y-73582230D01*
X106592297Y-73582234D01*
X106554781Y-73722244D01*
X102089366Y-73722244D01*
X102100500Y-73637675D01*
X102100500Y-73362327D01*
X102064560Y-73089335D01*
X101993295Y-72823369D01*
X101887923Y-72568980D01*
X101887921Y-72568977D01*
X101887919Y-72568972D01*
X101828694Y-72466392D01*
X101750249Y-72330522D01*
X101582628Y-72112073D01*
X101582623Y-72112067D01*
X101387933Y-71917377D01*
X101387926Y-71917371D01*
X101169483Y-71749755D01*
X101169482Y-71749754D01*
X101169479Y-71749752D01*
X101074407Y-71694862D01*
X100931028Y-71612081D01*
X100931017Y-71612076D01*
X100676630Y-71506705D01*
X100527898Y-71466853D01*
X100410666Y-71435441D01*
X100410660Y-71435440D01*
X100410655Y-71435439D01*
X100137684Y-71399502D01*
X100137679Y-71399501D01*
X100137674Y-71399501D01*
X99862326Y-71399501D01*
X99862320Y-71399501D01*
X99862315Y-71399502D01*
X99589344Y-71435439D01*
X99589337Y-71435440D01*
X99589334Y-71435441D01*
X99533133Y-71450500D01*
X99323369Y-71506705D01*
X99068982Y-71612076D01*
X99068968Y-71612082D01*
X99023229Y-71638490D01*
X98955329Y-71654961D01*
X98889302Y-71632108D01*
X98846113Y-71577186D01*
X98839472Y-71507633D01*
X98841448Y-71499039D01*
X98895089Y-71298852D01*
X98960563Y-70927525D01*
X98961055Y-70924735D01*
X98961055Y-70924733D01*
X98961056Y-70924729D01*
X98969560Y-70827525D01*
X102349500Y-70827525D01*
X102349500Y-70972475D01*
X102387016Y-71112485D01*
X102387017Y-71112488D01*
X102459488Y-71238011D01*
X102459490Y-71238013D01*
X102459491Y-71238015D01*
X102561985Y-71340509D01*
X102561986Y-71340510D01*
X102561988Y-71340511D01*
X102687511Y-71412982D01*
X102687512Y-71412982D01*
X102687515Y-71412984D01*
X102827525Y-71450500D01*
X102827528Y-71450500D01*
X102972472Y-71450500D01*
X102972475Y-71450500D01*
X103112485Y-71412984D01*
X103238015Y-71340509D01*
X103340509Y-71238015D01*
X103412984Y-71112485D01*
X103450500Y-70972475D01*
X103450500Y-70827525D01*
X103412984Y-70687515D01*
X103398244Y-70661985D01*
X103340511Y-70561988D01*
X103340506Y-70561982D01*
X103238017Y-70459493D01*
X103238011Y-70459488D01*
X103112488Y-70387017D01*
X103112489Y-70387017D01*
X103101006Y-70383940D01*
X102972475Y-70349500D01*
X102827525Y-70349500D01*
X102698993Y-70383940D01*
X102687511Y-70387017D01*
X102561988Y-70459488D01*
X102561982Y-70459493D01*
X102459493Y-70561982D01*
X102459488Y-70561988D01*
X102387017Y-70687511D01*
X102387016Y-70687515D01*
X102349500Y-70827525D01*
X98969560Y-70827525D01*
X98994166Y-70546281D01*
X98994166Y-70166387D01*
X98961056Y-69787939D01*
X98952252Y-69738011D01*
X98925716Y-69587515D01*
X98895089Y-69413816D01*
X98871967Y-69327525D01*
X109749500Y-69327525D01*
X109749500Y-69472475D01*
X109787016Y-69612485D01*
X109787017Y-69612488D01*
X109859488Y-69738011D01*
X109859490Y-69738013D01*
X109859491Y-69738015D01*
X109961985Y-69840509D01*
X109961986Y-69840510D01*
X109961988Y-69840511D01*
X110087511Y-69912982D01*
X110087512Y-69912982D01*
X110087515Y-69912984D01*
X110227525Y-69950500D01*
X110227528Y-69950500D01*
X110372472Y-69950500D01*
X110372475Y-69950500D01*
X110512485Y-69912984D01*
X110638015Y-69840509D01*
X110740509Y-69738015D01*
X110812984Y-69612485D01*
X110850500Y-69472475D01*
X110850500Y-69327525D01*
X110812984Y-69187515D01*
X110798244Y-69161985D01*
X110740511Y-69061988D01*
X110740506Y-69061982D01*
X110638017Y-68959493D01*
X110638011Y-68959488D01*
X110512488Y-68887017D01*
X110512489Y-68887017D01*
X110496243Y-68882664D01*
X110372475Y-68849500D01*
X110227525Y-68849500D01*
X110103757Y-68882664D01*
X110087511Y-68887017D01*
X109961988Y-68959488D01*
X109961982Y-68959493D01*
X109859493Y-69061982D01*
X109859488Y-69061988D01*
X109787017Y-69187511D01*
X109787016Y-69187515D01*
X109749500Y-69327525D01*
X98871967Y-69327525D01*
X98796765Y-69046867D01*
X98666833Y-68689884D01*
X98506283Y-68345583D01*
X98316336Y-68016585D01*
X98316328Y-68016574D01*
X98316324Y-68016567D01*
X98098437Y-67705392D01*
X97892101Y-67459491D01*
X97854247Y-67414378D01*
X97585622Y-67145753D01*
X97445965Y-67028567D01*
X97294607Y-66901562D01*
X96983432Y-66683675D01*
X96983421Y-66683668D01*
X96983415Y-66683664D01*
X96845303Y-66603925D01*
X96654423Y-66493720D01*
X96654408Y-66493712D01*
X96310125Y-66333171D01*
X96310123Y-66333170D01*
X96310116Y-66333167D01*
X95953133Y-66203235D01*
X95720498Y-66140900D01*
X95586185Y-66104911D01*
X95586174Y-66104909D01*
X95212065Y-66038944D01*
X94833616Y-66005834D01*
X94833613Y-66005834D01*
X94453719Y-66005834D01*
X94453715Y-66005834D01*
X94075268Y-66038944D01*
X94075264Y-66038944D01*
X93701157Y-66104909D01*
X93701140Y-66104913D01*
X93500990Y-66158543D01*
X93431140Y-66156880D01*
X93373278Y-66117717D01*
X93345774Y-66053489D01*
X93357361Y-65984587D01*
X93361510Y-65976767D01*
X93387922Y-65931021D01*
X93493294Y-65676632D01*
X93564559Y-65410666D01*
X93600499Y-65137674D01*
X93600499Y-64862326D01*
X93599027Y-64851146D01*
X97349499Y-64851146D01*
X97349499Y-65148853D01*
X97382829Y-65444662D01*
X97382830Y-65444671D01*
X97382831Y-65444675D01*
X97396293Y-65503656D01*
X97449075Y-65734912D01*
X97449078Y-65734920D01*
X97547399Y-66015904D01*
X97676563Y-66284114D01*
X97720884Y-66354651D01*
X97834949Y-66536185D01*
X97925315Y-66649500D01*
X98015018Y-66761985D01*
X98020561Y-66768935D01*
X98231065Y-66979439D01*
X98463815Y-67165051D01*
X98698461Y-67312488D01*
X98715885Y-67323436D01*
X98736260Y-67333248D01*
X98984099Y-67452602D01*
X99143047Y-67508220D01*
X99265079Y-67550921D01*
X99265087Y-67550924D01*
X99265090Y-67550924D01*
X99265091Y-67550925D01*
X99555325Y-67617169D01*
X99851147Y-67650500D01*
X99851148Y-67650501D01*
X99851151Y-67650501D01*
X100148852Y-67650501D01*
X100148852Y-67650500D01*
X100444675Y-67617169D01*
X100734909Y-67550925D01*
X101015901Y-67452602D01*
X101284117Y-67323435D01*
X101536185Y-67165051D01*
X101583241Y-67127525D01*
X102449500Y-67127525D01*
X102449500Y-67272475D01*
X102485321Y-67406158D01*
X102487017Y-67412488D01*
X102559488Y-67538011D01*
X102559490Y-67538013D01*
X102559491Y-67538015D01*
X102661985Y-67640509D01*
X102661986Y-67640510D01*
X102661988Y-67640511D01*
X102787511Y-67712982D01*
X102787512Y-67712982D01*
X102787515Y-67712984D01*
X102927525Y-67750500D01*
X102927528Y-67750500D01*
X103072472Y-67750500D01*
X103072475Y-67750500D01*
X103212485Y-67712984D01*
X103338015Y-67640509D01*
X103440509Y-67538015D01*
X103512984Y-67412485D01*
X103550500Y-67272475D01*
X103550500Y-67127525D01*
X103512984Y-66987515D01*
X103509552Y-66981571D01*
X103440511Y-66861988D01*
X103440506Y-66861982D01*
X103338017Y-66759493D01*
X103338011Y-66759488D01*
X103212488Y-66687017D01*
X103212489Y-66687017D01*
X103199957Y-66683659D01*
X103072475Y-66649500D01*
X102927525Y-66649500D01*
X102800043Y-66683659D01*
X102787511Y-66687017D01*
X102661988Y-66759488D01*
X102661982Y-66759493D01*
X102559493Y-66861982D01*
X102559488Y-66861988D01*
X102487017Y-66987511D01*
X102487016Y-66987515D01*
X102449500Y-67127525D01*
X101583241Y-67127525D01*
X101705600Y-67029947D01*
X101715000Y-67022451D01*
X101751560Y-66993295D01*
X101768935Y-66979439D01*
X101979439Y-66768935D01*
X102165051Y-66536185D01*
X102323435Y-66284117D01*
X102452602Y-66015901D01*
X102550925Y-65734909D01*
X102617169Y-65444675D01*
X102650501Y-65148849D01*
X102650501Y-64851151D01*
X102617169Y-64555325D01*
X102550925Y-64265091D01*
X102545469Y-64249500D01*
X102499222Y-64117331D01*
X102452602Y-63984099D01*
X102323435Y-63715883D01*
X102165051Y-63463815D01*
X101979439Y-63231065D01*
X101768935Y-63020561D01*
X101536185Y-62834949D01*
X101342075Y-62712982D01*
X101284114Y-62676563D01*
X101015904Y-62547399D01*
X100734920Y-62449078D01*
X100734912Y-62449075D01*
X100517233Y-62399392D01*
X100444675Y-62382831D01*
X100444671Y-62382830D01*
X100444662Y-62382829D01*
X100148853Y-62349499D01*
X100148849Y-62349499D01*
X99851151Y-62349499D01*
X99851146Y-62349499D01*
X99555337Y-62382829D01*
X99555325Y-62382831D01*
X99265087Y-62449075D01*
X99265079Y-62449078D01*
X98984095Y-62547399D01*
X98715885Y-62676563D01*
X98463816Y-62834948D01*
X98231065Y-63020560D01*
X98020560Y-63231065D01*
X97834948Y-63463816D01*
X97676563Y-63715885D01*
X97547399Y-63984095D01*
X97449078Y-64265079D01*
X97449075Y-64265087D01*
X97382831Y-64555325D01*
X97382829Y-64555337D01*
X97349499Y-64851146D01*
X93599027Y-64851146D01*
X93564559Y-64589334D01*
X93493294Y-64323368D01*
X93387922Y-64068979D01*
X93387920Y-64068976D01*
X93387918Y-64068971D01*
X93332205Y-63972475D01*
X93250248Y-63830521D01*
X93140513Y-63687511D01*
X93082628Y-63612073D01*
X93082622Y-63612066D01*
X92887932Y-63417376D01*
X92887925Y-63417370D01*
X92669482Y-63249754D01*
X92669481Y-63249753D01*
X92669478Y-63249751D01*
X92574406Y-63194861D01*
X92431027Y-63112080D01*
X92431016Y-63112075D01*
X92176629Y-63006704D01*
X92043648Y-62971072D01*
X91910665Y-62935440D01*
X91910659Y-62935439D01*
X91910654Y-62935438D01*
X91637683Y-62899501D01*
X91637678Y-62899500D01*
X91637673Y-62899500D01*
X91362325Y-62899500D01*
X91362319Y-62899500D01*
X91362314Y-62899501D01*
X91089343Y-62935438D01*
X91089336Y-62935439D01*
X91089333Y-62935440D01*
X91033124Y-62950500D01*
X90823368Y-63006704D01*
X90568981Y-63112075D01*
X90568970Y-63112080D01*
X90330515Y-63249754D01*
X90112072Y-63417370D01*
X90112065Y-63417376D01*
X89917375Y-63612066D01*
X89917369Y-63612073D01*
X89749753Y-63830516D01*
X89612079Y-64068971D01*
X89612074Y-64068982D01*
X89506703Y-64323369D01*
X89469420Y-64462515D01*
X89435927Y-64587515D01*
X89435440Y-64589331D01*
X89435437Y-64589344D01*
X89399500Y-64862315D01*
X89399499Y-64862332D01*
X87860293Y-64862332D01*
X87834485Y-64766015D01*
X87830718Y-64759491D01*
X87762012Y-64640488D01*
X87762007Y-64640482D01*
X87659518Y-64537993D01*
X87659512Y-64537988D01*
X87533989Y-64465517D01*
X87533990Y-64465517D01*
X87504708Y-64457671D01*
X87393976Y-64428000D01*
X87249026Y-64428000D01*
X87138294Y-64457671D01*
X87109012Y-64465517D01*
X86983489Y-64537988D01*
X86983483Y-64537993D01*
X86880994Y-64640482D01*
X86880989Y-64640488D01*
X86808518Y-64766011D01*
X86808517Y-64766015D01*
X86771001Y-64906025D01*
X86771001Y-65050975D01*
X86805312Y-65179024D01*
X86808518Y-65190988D01*
X86880989Y-65316511D01*
X86880994Y-65316517D01*
X86959682Y-65395205D01*
X86993167Y-65456528D01*
X86996001Y-65482886D01*
X86996001Y-66001988D01*
X86976316Y-66069027D01*
X86923512Y-66114782D01*
X86854354Y-66124726D01*
X86824442Y-66114375D01*
X86823737Y-66116080D01*
X86816227Y-66112969D01*
X86804744Y-66109892D01*
X86676213Y-66075452D01*
X86531263Y-66075452D01*
X86402731Y-66109892D01*
X86391249Y-66112969D01*
X86265726Y-66185440D01*
X86265720Y-66185445D01*
X86163231Y-66287934D01*
X86163226Y-66287940D01*
X86090755Y-66413463D01*
X86090754Y-66413467D01*
X86053238Y-66553477D01*
X86053238Y-66698427D01*
X86090754Y-66838437D01*
X86129624Y-66905761D01*
X86146097Y-66973662D01*
X86127094Y-67028567D01*
X86129483Y-67029947D01*
X86052946Y-67162511D01*
X86052945Y-67162515D01*
X86015429Y-67302525D01*
X86015429Y-67447475D01*
X86050408Y-67578017D01*
X86052946Y-67587488D01*
X86125417Y-67713011D01*
X86125419Y-67713013D01*
X86125420Y-67713015D01*
X86227914Y-67815509D01*
X86227915Y-67815510D01*
X86227917Y-67815511D01*
X86250624Y-67828621D01*
X86298840Y-67879188D01*
X86312063Y-67947795D01*
X86308399Y-67968100D01*
X86293776Y-68022675D01*
X86293776Y-71375500D01*
X86274091Y-71442539D01*
X86221287Y-71488294D01*
X86169776Y-71499500D01*
X84062050Y-71499500D01*
X83995011Y-71479815D01*
X83949256Y-71427011D01*
X83939312Y-71357853D01*
X83954663Y-71313500D01*
X83998244Y-71238015D01*
X84012984Y-71212485D01*
X84050500Y-71072475D01*
X84050500Y-70927525D01*
X84012984Y-70787515D01*
X83972465Y-70717335D01*
X83940511Y-70661988D01*
X83940506Y-70661982D01*
X83838017Y-70559493D01*
X83838011Y-70559488D01*
X83712488Y-70487017D01*
X83712489Y-70487017D01*
X83701006Y-70483940D01*
X83572475Y-70449500D01*
X83427525Y-70449500D01*
X83298993Y-70483940D01*
X83287511Y-70487017D01*
X83161988Y-70559488D01*
X83161982Y-70559493D01*
X83059493Y-70661982D01*
X83059488Y-70661988D01*
X82987017Y-70787511D01*
X82987016Y-70787515D01*
X82949500Y-70927525D01*
X82949500Y-71072475D01*
X82986743Y-71211465D01*
X82987017Y-71212488D01*
X83045337Y-71313500D01*
X83061810Y-71381400D01*
X83038958Y-71447427D01*
X82984037Y-71490617D01*
X82937950Y-71499500D01*
X75624500Y-71499500D01*
X75557461Y-71479815D01*
X75511706Y-71427011D01*
X75500500Y-71375500D01*
X75500500Y-69727525D01*
X77849500Y-69727525D01*
X77849500Y-69872475D01*
X77867999Y-69941512D01*
X77887017Y-70012488D01*
X77959488Y-70138011D01*
X77959490Y-70138013D01*
X77959491Y-70138015D01*
X78061985Y-70240509D01*
X78061986Y-70240510D01*
X78061988Y-70240511D01*
X78187511Y-70312982D01*
X78187512Y-70312982D01*
X78187515Y-70312984D01*
X78327525Y-70350500D01*
X78327528Y-70350500D01*
X78472472Y-70350500D01*
X78472475Y-70350500D01*
X78612485Y-70312984D01*
X78738015Y-70240509D01*
X78840509Y-70138015D01*
X78912984Y-70012485D01*
X78950500Y-69872475D01*
X78950500Y-69727525D01*
X78912984Y-69587515D01*
X78891613Y-69550500D01*
X78840511Y-69461988D01*
X78840506Y-69461982D01*
X78738017Y-69359493D01*
X78738011Y-69359488D01*
X78612488Y-69287017D01*
X78612489Y-69287017D01*
X78601006Y-69283940D01*
X78472475Y-69249500D01*
X78327525Y-69249500D01*
X78198993Y-69283940D01*
X78187511Y-69287017D01*
X78061988Y-69359488D01*
X78061982Y-69359493D01*
X77959493Y-69461982D01*
X77959488Y-69461988D01*
X77887017Y-69587511D01*
X77887016Y-69587515D01*
X77849500Y-69727525D01*
X75500500Y-69727525D01*
X75500500Y-67827525D01*
X79049500Y-67827525D01*
X79049500Y-67972475D01*
X79062952Y-68022677D01*
X79087017Y-68112488D01*
X79159488Y-68238011D01*
X79159490Y-68238013D01*
X79159491Y-68238015D01*
X79261985Y-68340509D01*
X79261986Y-68340510D01*
X79261988Y-68340511D01*
X79387511Y-68412982D01*
X79387512Y-68412982D01*
X79387515Y-68412984D01*
X79527525Y-68450500D01*
X79527528Y-68450500D01*
X79672472Y-68450500D01*
X79672475Y-68450500D01*
X79812485Y-68412984D01*
X79938015Y-68340509D01*
X80040509Y-68238015D01*
X80112984Y-68112485D01*
X80150500Y-67972475D01*
X80150500Y-67827525D01*
X80112984Y-67687515D01*
X80108940Y-67680511D01*
X80040511Y-67561988D01*
X80040506Y-67561982D01*
X79938017Y-67459493D01*
X79938011Y-67459488D01*
X79812488Y-67387017D01*
X79812489Y-67387017D01*
X79801006Y-67383940D01*
X79672475Y-67349500D01*
X79527525Y-67349500D01*
X79398993Y-67383940D01*
X79387511Y-67387017D01*
X79261988Y-67459488D01*
X79261982Y-67459493D01*
X79159493Y-67561982D01*
X79159488Y-67561988D01*
X79087017Y-67687511D01*
X79087016Y-67687515D01*
X79049500Y-67827525D01*
X75500500Y-67827525D01*
X75500500Y-67027525D01*
X76049500Y-67027525D01*
X76049500Y-67172475D01*
X76087016Y-67312485D01*
X76087017Y-67312488D01*
X76159488Y-67438011D01*
X76159490Y-67438013D01*
X76159491Y-67438015D01*
X76261985Y-67540509D01*
X76261986Y-67540510D01*
X76261988Y-67540511D01*
X76387511Y-67612982D01*
X76387512Y-67612982D01*
X76387515Y-67612984D01*
X76527525Y-67650500D01*
X76527528Y-67650500D01*
X76672472Y-67650500D01*
X76672475Y-67650500D01*
X76812485Y-67612984D01*
X76938015Y-67540509D01*
X77040509Y-67438015D01*
X77112984Y-67312485D01*
X77150500Y-67172475D01*
X77150500Y-67027525D01*
X77112984Y-66887515D01*
X77098244Y-66861985D01*
X77040511Y-66761988D01*
X77040506Y-66761982D01*
X76938017Y-66659493D01*
X76938011Y-66659488D01*
X76812488Y-66587017D01*
X76812489Y-66587017D01*
X76796090Y-66582623D01*
X76672475Y-66549500D01*
X76527525Y-66549500D01*
X76403910Y-66582623D01*
X76387511Y-66587017D01*
X76261988Y-66659488D01*
X76261982Y-66659493D01*
X76159493Y-66761982D01*
X76159488Y-66761988D01*
X76087017Y-66887511D01*
X76087016Y-66887515D01*
X76049500Y-67027525D01*
X75500500Y-67027525D01*
X75500500Y-65427600D01*
X79050500Y-65427600D01*
X79050500Y-65572550D01*
X79078923Y-65678625D01*
X79088017Y-65712563D01*
X79160488Y-65838086D01*
X79160490Y-65838088D01*
X79160491Y-65838090D01*
X79262985Y-65940584D01*
X79262986Y-65940585D01*
X79262988Y-65940586D01*
X79388511Y-66013057D01*
X79388512Y-66013057D01*
X79388515Y-66013059D01*
X79528525Y-66050575D01*
X79528528Y-66050575D01*
X79673472Y-66050575D01*
X79673475Y-66050575D01*
X79813485Y-66013059D01*
X79932813Y-65944165D01*
X81537000Y-65944165D01*
X81537000Y-66089115D01*
X81562812Y-66185445D01*
X81574517Y-66229128D01*
X81646988Y-66354651D01*
X81646990Y-66354653D01*
X81646991Y-66354655D01*
X81749485Y-66457149D01*
X81812828Y-66493720D01*
X81866211Y-66524541D01*
X81914426Y-66575108D01*
X81927648Y-66643716D01*
X81901680Y-66708580D01*
X81866211Y-66739314D01*
X81761991Y-66799487D01*
X81761982Y-66799493D01*
X81659493Y-66901982D01*
X81659488Y-66901988D01*
X81587017Y-67027511D01*
X81587016Y-67027515D01*
X81549500Y-67167525D01*
X81549500Y-67312475D01*
X81585673Y-67447472D01*
X81587017Y-67452488D01*
X81659488Y-67578011D01*
X81659490Y-67578013D01*
X81659491Y-67578015D01*
X81761985Y-67680509D01*
X81761986Y-67680510D01*
X81761988Y-67680511D01*
X81887511Y-67752982D01*
X81887512Y-67752982D01*
X81887515Y-67752984D01*
X82027525Y-67790500D01*
X82027528Y-67790500D01*
X82172472Y-67790500D01*
X82172475Y-67790500D01*
X82312485Y-67752984D01*
X82438015Y-67680509D01*
X82540509Y-67578015D01*
X82612984Y-67452485D01*
X82650500Y-67312475D01*
X82650500Y-67312470D01*
X82652499Y-67305010D01*
X82688864Y-67245349D01*
X82751711Y-67214820D01*
X82821086Y-67223115D01*
X82859955Y-67249422D01*
X84513181Y-68902648D01*
X84527884Y-68929575D01*
X84544477Y-68955394D01*
X84545368Y-68961594D01*
X84546666Y-68963971D01*
X84549500Y-68990329D01*
X84549500Y-68996614D01*
X84529815Y-69063653D01*
X84513182Y-69084295D01*
X84434488Y-69162989D01*
X84362017Y-69288512D01*
X84362016Y-69288516D01*
X84324500Y-69428526D01*
X84324500Y-69573476D01*
X84361748Y-69712485D01*
X84362017Y-69713489D01*
X84434488Y-69839012D01*
X84434490Y-69839014D01*
X84434491Y-69839016D01*
X84536985Y-69941510D01*
X84536986Y-69941511D01*
X84536988Y-69941512D01*
X84662511Y-70013983D01*
X84662512Y-70013983D01*
X84662515Y-70013985D01*
X84802525Y-70051501D01*
X84802528Y-70051501D01*
X84947472Y-70051501D01*
X84947475Y-70051501D01*
X85087485Y-70013985D01*
X85213015Y-69941510D01*
X85315509Y-69839016D01*
X85387984Y-69713486D01*
X85425500Y-69573476D01*
X85425500Y-69428526D01*
X85387984Y-69288516D01*
X85352999Y-69227921D01*
X85315511Y-69162989D01*
X85315510Y-69162988D01*
X85315509Y-69162986D01*
X85236818Y-69084295D01*
X85203334Y-69022971D01*
X85200500Y-68996614D01*
X85200500Y-68761289D01*
X85200500Y-68761287D01*
X85178318Y-68678502D01*
X85168780Y-68661982D01*
X85135469Y-68604284D01*
X85135463Y-68604276D01*
X82674319Y-66143132D01*
X82640834Y-66081809D01*
X82638000Y-66055451D01*
X82638000Y-65944167D01*
X82638000Y-65944165D01*
X82600484Y-65804155D01*
X82561718Y-65737011D01*
X82528011Y-65678628D01*
X82528006Y-65678622D01*
X82425517Y-65576133D01*
X82425511Y-65576128D01*
X82299988Y-65503657D01*
X82299989Y-65503657D01*
X82288506Y-65500580D01*
X82159975Y-65466140D01*
X82015025Y-65466140D01*
X81886493Y-65500580D01*
X81875011Y-65503657D01*
X81749488Y-65576128D01*
X81749482Y-65576133D01*
X81646993Y-65678622D01*
X81646988Y-65678628D01*
X81574517Y-65804151D01*
X81574516Y-65804155D01*
X81537000Y-65944165D01*
X79932813Y-65944165D01*
X79939015Y-65940584D01*
X80041509Y-65838090D01*
X80113984Y-65712560D01*
X80151500Y-65572550D01*
X80151500Y-65427600D01*
X80113984Y-65287590D01*
X80105257Y-65272475D01*
X80041511Y-65162063D01*
X80041506Y-65162057D01*
X79939017Y-65059568D01*
X79939011Y-65059563D01*
X79813488Y-64987092D01*
X79813489Y-64987092D01*
X79802006Y-64984015D01*
X79673475Y-64949575D01*
X79528525Y-64949575D01*
X79399993Y-64984015D01*
X79388511Y-64987092D01*
X79262988Y-65059563D01*
X79262982Y-65059568D01*
X79160493Y-65162057D01*
X79160488Y-65162063D01*
X79088017Y-65287586D01*
X79088016Y-65287590D01*
X79050500Y-65427600D01*
X75500500Y-65427600D01*
X75500500Y-64027525D01*
X79249500Y-64027525D01*
X79249500Y-64172475D01*
X79281628Y-64292377D01*
X79287017Y-64312488D01*
X79359488Y-64438011D01*
X79359490Y-64438013D01*
X79359491Y-64438015D01*
X79461985Y-64540509D01*
X79461986Y-64540510D01*
X79461988Y-64540511D01*
X79587511Y-64612982D01*
X79587512Y-64612982D01*
X79587515Y-64612984D01*
X79727525Y-64650500D01*
X79727528Y-64650500D01*
X79872472Y-64650500D01*
X79872475Y-64650500D01*
X80012485Y-64612984D01*
X80138015Y-64540509D01*
X80240509Y-64438015D01*
X80257535Y-64408525D01*
X81549500Y-64408525D01*
X81549500Y-64553475D01*
X81575498Y-64650500D01*
X81587017Y-64693488D01*
X81659488Y-64819011D01*
X81659490Y-64819013D01*
X81659491Y-64819015D01*
X81761985Y-64921509D01*
X81761986Y-64921510D01*
X81761988Y-64921511D01*
X81887511Y-64993982D01*
X81887512Y-64993982D01*
X81887515Y-64993984D01*
X82027525Y-65031500D01*
X82027528Y-65031500D01*
X82172472Y-65031500D01*
X82172475Y-65031500D01*
X82312485Y-64993984D01*
X82438015Y-64921509D01*
X82540509Y-64819015D01*
X82612984Y-64693485D01*
X82650500Y-64553475D01*
X82650500Y-64408525D01*
X82612984Y-64268515D01*
X82611000Y-64265079D01*
X82540511Y-64142988D01*
X82540506Y-64142982D01*
X82438017Y-64040493D01*
X82438011Y-64040488D01*
X82312488Y-63968017D01*
X82312489Y-63968017D01*
X82286506Y-63961055D01*
X82172475Y-63930500D01*
X82027525Y-63930500D01*
X81913494Y-63961055D01*
X81887511Y-63968017D01*
X81761988Y-64040488D01*
X81761982Y-64040493D01*
X81659493Y-64142982D01*
X81659488Y-64142988D01*
X81587017Y-64268511D01*
X81587016Y-64268515D01*
X81549500Y-64408525D01*
X80257535Y-64408525D01*
X80296803Y-64340511D01*
X80298024Y-64338397D01*
X80298024Y-64338396D01*
X80298839Y-64336985D01*
X80312984Y-64312485D01*
X80350500Y-64172475D01*
X80350500Y-64027525D01*
X80312984Y-63887515D01*
X80280078Y-63830521D01*
X80240511Y-63761988D01*
X80240506Y-63761982D01*
X80138017Y-63659493D01*
X80138011Y-63659488D01*
X80012488Y-63587017D01*
X80012489Y-63587017D01*
X80001006Y-63583940D01*
X79872475Y-63549500D01*
X79727525Y-63549500D01*
X79598993Y-63583940D01*
X79587511Y-63587017D01*
X79461988Y-63659488D01*
X79461982Y-63659493D01*
X79359493Y-63761982D01*
X79359488Y-63761988D01*
X79287017Y-63887511D01*
X79284986Y-63895090D01*
X79249500Y-64027525D01*
X75500500Y-64027525D01*
X75500500Y-62227525D01*
X75849500Y-62227525D01*
X75849500Y-62372475D01*
X75887016Y-62512485D01*
X75887017Y-62512488D01*
X75959488Y-62638011D01*
X75959490Y-62638013D01*
X75959491Y-62638015D01*
X76061985Y-62740509D01*
X76061986Y-62740510D01*
X76061988Y-62740511D01*
X76187511Y-62812982D01*
X76187512Y-62812982D01*
X76187515Y-62812984D01*
X76327525Y-62850500D01*
X76327528Y-62850500D01*
X76472472Y-62850500D01*
X76472475Y-62850500D01*
X76612485Y-62812984D01*
X76738015Y-62740509D01*
X76840509Y-62638015D01*
X76846565Y-62627525D01*
X79149500Y-62627525D01*
X79149500Y-62772475D01*
X79171411Y-62854247D01*
X79187017Y-62912488D01*
X79259488Y-63038011D01*
X79259490Y-63038013D01*
X79259491Y-63038015D01*
X79361985Y-63140509D01*
X79361986Y-63140510D01*
X79361988Y-63140511D01*
X79487511Y-63212982D01*
X79487512Y-63212982D01*
X79487515Y-63212984D01*
X79627525Y-63250500D01*
X79627528Y-63250500D01*
X79772472Y-63250500D01*
X79772475Y-63250500D01*
X79912485Y-63212984D01*
X80038015Y-63140509D01*
X80140509Y-63038015D01*
X80212984Y-62912485D01*
X80250500Y-62772475D01*
X80250500Y-62627525D01*
X80212984Y-62487515D01*
X80212696Y-62487017D01*
X80140511Y-62361988D01*
X80140506Y-62361982D01*
X80038017Y-62259493D01*
X80038015Y-62259491D01*
X79982652Y-62227527D01*
X79981367Y-62226785D01*
X79912485Y-62187016D01*
X79772475Y-62149500D01*
X79627525Y-62149500D01*
X79514796Y-62179706D01*
X79487511Y-62187017D01*
X79361988Y-62259488D01*
X79361982Y-62259493D01*
X79259493Y-62361982D01*
X79259488Y-62361988D01*
X79187017Y-62487511D01*
X79187016Y-62487515D01*
X79149500Y-62627525D01*
X76846565Y-62627525D01*
X76912984Y-62512485D01*
X76950500Y-62372475D01*
X76950500Y-62227525D01*
X76923705Y-62127525D01*
X81249500Y-62127525D01*
X81249500Y-62272475D01*
X81279070Y-62382829D01*
X81287017Y-62412488D01*
X81359488Y-62538011D01*
X81359490Y-62538013D01*
X81359491Y-62538015D01*
X81461985Y-62640509D01*
X81461986Y-62640510D01*
X81461988Y-62640511D01*
X81587511Y-62712982D01*
X81587512Y-62712982D01*
X81587515Y-62712984D01*
X81727525Y-62750500D01*
X81727528Y-62750500D01*
X81872472Y-62750500D01*
X81872475Y-62750500D01*
X82012485Y-62712984D01*
X82138015Y-62640509D01*
X82150999Y-62627525D01*
X85949500Y-62627525D01*
X85949500Y-62772475D01*
X85971411Y-62854247D01*
X85987017Y-62912488D01*
X86059488Y-63038011D01*
X86059490Y-63038013D01*
X86059491Y-63038015D01*
X86161985Y-63140509D01*
X86161986Y-63140510D01*
X86161988Y-63140511D01*
X86287511Y-63212982D01*
X86287512Y-63212982D01*
X86287515Y-63212984D01*
X86427525Y-63250500D01*
X86427528Y-63250500D01*
X86572472Y-63250500D01*
X86572475Y-63250500D01*
X86712485Y-63212984D01*
X86838015Y-63140509D01*
X86940509Y-63038015D01*
X87012984Y-62912485D01*
X87050500Y-62772475D01*
X87050500Y-62627525D01*
X87035440Y-62571320D01*
X93685286Y-62571320D01*
X93689225Y-62591125D01*
X93689228Y-62591137D01*
X93758951Y-62759465D01*
X93758958Y-62759478D01*
X93860184Y-62910972D01*
X93860187Y-62910976D01*
X93989023Y-63039812D01*
X93989027Y-63039815D01*
X94140521Y-63141041D01*
X94140534Y-63141048D01*
X94308862Y-63210771D01*
X94308874Y-63210774D01*
X94328680Y-63214714D01*
X94328680Y-63214713D01*
X94828680Y-63214713D01*
X94848485Y-63210774D01*
X94848497Y-63210771D01*
X95016825Y-63141048D01*
X95016838Y-63141041D01*
X95168332Y-63039815D01*
X95168336Y-63039812D01*
X95297172Y-62910976D01*
X95297175Y-62910972D01*
X95398401Y-62759478D01*
X95398408Y-62759465D01*
X95468131Y-62591137D01*
X95468134Y-62591125D01*
X95472074Y-62571320D01*
X94828680Y-62571320D01*
X94828680Y-63214713D01*
X94328680Y-63214713D01*
X94328680Y-62571320D01*
X93685286Y-62571320D01*
X87035440Y-62571320D01*
X87012984Y-62487515D01*
X87012696Y-62487017D01*
X86940511Y-62361988D01*
X86940506Y-62361982D01*
X86838017Y-62259493D01*
X86838015Y-62259491D01*
X86782652Y-62227527D01*
X86755823Y-62212037D01*
X86712485Y-62187016D01*
X86572475Y-62149500D01*
X86427525Y-62149500D01*
X86314796Y-62179706D01*
X86287511Y-62187017D01*
X86161988Y-62259488D01*
X86161982Y-62259493D01*
X86059493Y-62361982D01*
X86059488Y-62361988D01*
X85987017Y-62487511D01*
X85987016Y-62487515D01*
X85949500Y-62627525D01*
X82150999Y-62627525D01*
X82240509Y-62538015D01*
X82312984Y-62412485D01*
X82350500Y-62272475D01*
X82350500Y-62127525D01*
X82335440Y-62071320D01*
X93685286Y-62071320D01*
X94528952Y-62071320D01*
X94437066Y-62109380D01*
X94366740Y-62179706D01*
X94328680Y-62271592D01*
X94328680Y-62371048D01*
X94366740Y-62462934D01*
X94437066Y-62533260D01*
X94528952Y-62571320D01*
X94628408Y-62571320D01*
X94720294Y-62533260D01*
X94790620Y-62462934D01*
X94828680Y-62371048D01*
X94828680Y-62271592D01*
X94790620Y-62179706D01*
X94720294Y-62109380D01*
X94628408Y-62071320D01*
X94736230Y-62071320D01*
X94803269Y-62091005D01*
X94823911Y-62107639D01*
X94855177Y-62138905D01*
X94855185Y-62138911D01*
X94965807Y-62212826D01*
X94965810Y-62212827D01*
X94965818Y-62212833D01*
X94965824Y-62212835D01*
X94965825Y-62212836D01*
X95078466Y-62259493D01*
X95088751Y-62263753D01*
X95088755Y-62263753D01*
X95088756Y-62263754D01*
X95219253Y-62289713D01*
X95219256Y-62289713D01*
X95352320Y-62289713D01*
X95443415Y-62271592D01*
X95482823Y-62263753D01*
X95605756Y-62212833D01*
X95716393Y-62138908D01*
X95810482Y-62044819D01*
X95884407Y-61934182D01*
X95935327Y-61811249D01*
X95961287Y-61680744D01*
X95961287Y-61680743D01*
X95961405Y-61680150D01*
X95993790Y-61618239D01*
X96054506Y-61583665D01*
X96058830Y-61582725D01*
X96059423Y-61582607D01*
X96059424Y-61582607D01*
X96189929Y-61556647D01*
X96312862Y-61505727D01*
X96423499Y-61431802D01*
X96517588Y-61337713D01*
X96591513Y-61227076D01*
X96642433Y-61104143D01*
X96668393Y-60973638D01*
X96668393Y-60973637D01*
X96668511Y-60973044D01*
X96700896Y-60911133D01*
X96761612Y-60876558D01*
X96765937Y-60875618D01*
X96766530Y-60875500D01*
X96766531Y-60875500D01*
X96897036Y-60849540D01*
X97019969Y-60798620D01*
X97130606Y-60724695D01*
X97224695Y-60630606D01*
X97298620Y-60519969D01*
X97340537Y-60418769D01*
X97384374Y-60364370D01*
X97430901Y-60344608D01*
X97504848Y-60329900D01*
X97566790Y-60288511D01*
X97566794Y-60288506D01*
X97566797Y-60288505D01*
X98202719Y-59652583D01*
X98202720Y-59652580D01*
X98202725Y-59652576D01*
X98244114Y-59590634D01*
X98244115Y-59590632D01*
X98263556Y-59492895D01*
X98263556Y-59492890D01*
X98244115Y-59395153D01*
X98244114Y-59395151D01*
X98227535Y-59370340D01*
X98202725Y-59333210D01*
X98202721Y-59333206D01*
X98202719Y-59333203D01*
X97566797Y-58697281D01*
X97566793Y-58697278D01*
X97566790Y-58697275D01*
X97541978Y-58680696D01*
X97504848Y-58655885D01*
X97504846Y-58655884D01*
X97407109Y-58636444D01*
X97407105Y-58636444D01*
X97309367Y-58655884D01*
X97309365Y-58655885D01*
X97247424Y-58697275D01*
X97247417Y-58697281D01*
X96611495Y-59333203D01*
X96611489Y-59333210D01*
X96570099Y-59395151D01*
X96570099Y-59395153D01*
X96555391Y-59469094D01*
X96523006Y-59531005D01*
X96481227Y-59559463D01*
X96380035Y-59601378D01*
X96380020Y-59601386D01*
X96269398Y-59675301D01*
X96269390Y-59675307D01*
X96175307Y-59769390D01*
X96175301Y-59769398D01*
X96101386Y-59880020D01*
X96101376Y-59880038D01*
X96050461Y-60002959D01*
X96050458Y-60002969D01*
X96024381Y-60134063D01*
X95991995Y-60195974D01*
X95931279Y-60230548D01*
X95926956Y-60231488D01*
X95795862Y-60257565D01*
X95795852Y-60257568D01*
X95672931Y-60308483D01*
X95672913Y-60308493D01*
X95562291Y-60382408D01*
X95562283Y-60382414D01*
X95468200Y-60476497D01*
X95468194Y-60476505D01*
X95394279Y-60587127D01*
X95394269Y-60587145D01*
X95343354Y-60710066D01*
X95343351Y-60710075D01*
X95317274Y-60841170D01*
X95284888Y-60903080D01*
X95224172Y-60937654D01*
X95219850Y-60938594D01*
X95088755Y-60964671D01*
X95088746Y-60964674D01*
X94995132Y-61003450D01*
X94925662Y-61010919D01*
X94863183Y-60979643D01*
X94827532Y-60919554D01*
X94827904Y-60856799D01*
X94850500Y-60772475D01*
X94850500Y-60627525D01*
X94812984Y-60487515D01*
X94806627Y-60476505D01*
X94740511Y-60361988D01*
X94740506Y-60361982D01*
X94638017Y-60259493D01*
X94638011Y-60259488D01*
X94512488Y-60187017D01*
X94512489Y-60187017D01*
X94501006Y-60183940D01*
X94372475Y-60149500D01*
X94227525Y-60149500D01*
X94098993Y-60183940D01*
X94087511Y-60187017D01*
X93961988Y-60259488D01*
X93961982Y-60259493D01*
X93859493Y-60361982D01*
X93859488Y-60361988D01*
X93787017Y-60487511D01*
X93787016Y-60487515D01*
X93749500Y-60627525D01*
X93749500Y-60772475D01*
X93784496Y-60903080D01*
X93787017Y-60912488D01*
X93859488Y-61038011D01*
X93859490Y-61038013D01*
X93859491Y-61038015D01*
X93961985Y-61140509D01*
X93961986Y-61140510D01*
X93961988Y-61140511D01*
X94087511Y-61212982D01*
X94087512Y-61212982D01*
X94087515Y-61212984D01*
X94189943Y-61240429D01*
X94249602Y-61276794D01*
X94280131Y-61339641D01*
X94271836Y-61409017D01*
X94227351Y-61462895D01*
X94205301Y-61474765D01*
X94140530Y-61501593D01*
X94140521Y-61501598D01*
X93989027Y-61602824D01*
X93989023Y-61602827D01*
X93860187Y-61731663D01*
X93860184Y-61731667D01*
X93758958Y-61883161D01*
X93758951Y-61883174D01*
X93689228Y-62051502D01*
X93689225Y-62051514D01*
X93685286Y-62071320D01*
X82335440Y-62071320D01*
X82312984Y-61987515D01*
X82298244Y-61961985D01*
X82240511Y-61861988D01*
X82240506Y-61861982D01*
X82138017Y-61759493D01*
X82138011Y-61759488D01*
X82012488Y-61687017D01*
X82012489Y-61687017D01*
X81986861Y-61680150D01*
X81872475Y-61649500D01*
X81727525Y-61649500D01*
X81613139Y-61680150D01*
X81587511Y-61687017D01*
X81461988Y-61759488D01*
X81461982Y-61759493D01*
X81359493Y-61861982D01*
X81359488Y-61861988D01*
X81287017Y-61987511D01*
X81287016Y-61987515D01*
X81249500Y-62127525D01*
X76923705Y-62127525D01*
X76912984Y-62087515D01*
X76909341Y-62081206D01*
X76840511Y-61961988D01*
X76840506Y-61961982D01*
X76738017Y-61859493D01*
X76738011Y-61859488D01*
X76612488Y-61787017D01*
X76612489Y-61787017D01*
X76601006Y-61783940D01*
X76472475Y-61749500D01*
X76327525Y-61749500D01*
X76198993Y-61783940D01*
X76187511Y-61787017D01*
X76061988Y-61859488D01*
X76061982Y-61859493D01*
X75959493Y-61961982D01*
X75959488Y-61961988D01*
X75887017Y-62087511D01*
X75887016Y-62087515D01*
X75849500Y-62227525D01*
X75500500Y-62227525D01*
X75500500Y-60527525D01*
X78949500Y-60527525D01*
X78949500Y-60672475D01*
X78983299Y-60798613D01*
X78987017Y-60812488D01*
X79059488Y-60938011D01*
X79059490Y-60938013D01*
X79059491Y-60938015D01*
X79161985Y-61040509D01*
X79161986Y-61040510D01*
X79161988Y-61040511D01*
X79287511Y-61112982D01*
X79287512Y-61112982D01*
X79287515Y-61112984D01*
X79427525Y-61150500D01*
X79427528Y-61150500D01*
X79572472Y-61150500D01*
X79572475Y-61150500D01*
X79712485Y-61112984D01*
X79838015Y-61040509D01*
X79940509Y-60938015D01*
X80012984Y-60812485D01*
X80050500Y-60672475D01*
X80050500Y-60527525D01*
X80012984Y-60387515D01*
X80010035Y-60382408D01*
X79940511Y-60261988D01*
X79940506Y-60261982D01*
X79838017Y-60159493D01*
X79838011Y-60159488D01*
X79712488Y-60087017D01*
X79712489Y-60087017D01*
X79701006Y-60083940D01*
X79572475Y-60049500D01*
X79427525Y-60049500D01*
X79298993Y-60083940D01*
X79287511Y-60087017D01*
X79161988Y-60159488D01*
X79161982Y-60159493D01*
X79059493Y-60261982D01*
X79059488Y-60261988D01*
X78987017Y-60387511D01*
X78987016Y-60387515D01*
X78949500Y-60527525D01*
X75500500Y-60527525D01*
X75500500Y-59790987D01*
X80662000Y-59790987D01*
X80662000Y-59935937D01*
X80695774Y-60061982D01*
X80699517Y-60075950D01*
X80771988Y-60201473D01*
X80771990Y-60201475D01*
X80771991Y-60201477D01*
X80874485Y-60303971D01*
X80874486Y-60303972D01*
X80874488Y-60303973D01*
X81000011Y-60376444D01*
X81000012Y-60376444D01*
X81000015Y-60376446D01*
X81140025Y-60413962D01*
X81140028Y-60413962D01*
X81284972Y-60413962D01*
X81284975Y-60413962D01*
X81424985Y-60376446D01*
X81550515Y-60303971D01*
X81653009Y-60201477D01*
X81725484Y-60075947D01*
X81763000Y-59935937D01*
X81763000Y-59790987D01*
X81725484Y-59650977D01*
X81667450Y-59550460D01*
X81653011Y-59525450D01*
X81653006Y-59525444D01*
X81555087Y-59427525D01*
X87649500Y-59427525D01*
X87649500Y-59572475D01*
X87677054Y-59675305D01*
X87687017Y-59712488D01*
X87759488Y-59838011D01*
X87759490Y-59838013D01*
X87759491Y-59838015D01*
X87861985Y-59940509D01*
X87861986Y-59940510D01*
X87861988Y-59940511D01*
X87987511Y-60012982D01*
X87987512Y-60012982D01*
X87987515Y-60012984D01*
X88127525Y-60050500D01*
X88127528Y-60050500D01*
X88272472Y-60050500D01*
X88272475Y-60050500D01*
X88412485Y-60012984D01*
X88538015Y-59940509D01*
X88640509Y-59838015D01*
X88712984Y-59712485D01*
X88750500Y-59572475D01*
X88750500Y-59427525D01*
X88712984Y-59287515D01*
X88640509Y-59161985D01*
X88538015Y-59059491D01*
X88538013Y-59059490D01*
X88538011Y-59059488D01*
X88412488Y-58987017D01*
X88412489Y-58987017D01*
X88401006Y-58983940D01*
X88272475Y-58949500D01*
X88127525Y-58949500D01*
X87998993Y-58983940D01*
X87987511Y-58987017D01*
X87861988Y-59059488D01*
X87861982Y-59059493D01*
X87759493Y-59161982D01*
X87759488Y-59161988D01*
X87687017Y-59287511D01*
X87687016Y-59287515D01*
X87649500Y-59427525D01*
X81555087Y-59427525D01*
X81550517Y-59422955D01*
X81550511Y-59422950D01*
X81424988Y-59350479D01*
X81424989Y-59350479D01*
X81413506Y-59347402D01*
X81284975Y-59312962D01*
X81140025Y-59312962D01*
X81011493Y-59347402D01*
X81000011Y-59350479D01*
X80874488Y-59422950D01*
X80874482Y-59422955D01*
X80771993Y-59525444D01*
X80771988Y-59525450D01*
X80699517Y-59650973D01*
X80699086Y-59652583D01*
X80662000Y-59790987D01*
X75500500Y-59790987D01*
X75500500Y-58624500D01*
X75520185Y-58557461D01*
X75572989Y-58511706D01*
X75624500Y-58500500D01*
X86799391Y-58500500D01*
X86799393Y-58500500D01*
X86926687Y-58466392D01*
X87040815Y-58400500D01*
X88299620Y-57141693D01*
X88360941Y-57108210D01*
X88430632Y-57113194D01*
X88478091Y-57146133D01*
X88478635Y-57145618D01*
X88480537Y-57147625D01*
X88480542Y-57147630D01*
X88480544Y-57147632D01*
X88513318Y-57179257D01*
X88601653Y-57225465D01*
X88601654Y-57225465D01*
X88601654Y-57225466D01*
X88651782Y-57240184D01*
X88668692Y-57245150D01*
X88668696Y-57245150D01*
X88668698Y-57245151D01*
X88680329Y-57246823D01*
X88740677Y-57255500D01*
X88740678Y-57255500D01*
X97805804Y-57255500D01*
X97805807Y-57255500D01*
X97858241Y-57248120D01*
X97876323Y-57245576D01*
X97876325Y-57245575D01*
X97876328Y-57245575D01*
X97911951Y-57235345D01*
X97981817Y-57235761D01*
X98040370Y-57273884D01*
X98060734Y-57307070D01*
X98112077Y-57431020D01*
X98112080Y-57431025D01*
X98112082Y-57431030D01*
X98171306Y-57533608D01*
X98249751Y-57669478D01*
X98249753Y-57669481D01*
X98249754Y-57669482D01*
X98417370Y-57887925D01*
X98417376Y-57887932D01*
X98612066Y-58082622D01*
X98612072Y-58082627D01*
X98830521Y-58250248D01*
X98975921Y-58334195D01*
X99068971Y-58387918D01*
X99068976Y-58387920D01*
X99068979Y-58387922D01*
X99323368Y-58493294D01*
X99589334Y-58564559D01*
X99862326Y-58600499D01*
X99862333Y-58600499D01*
X100137667Y-58600499D01*
X100137674Y-58600499D01*
X100410666Y-58564559D01*
X100676632Y-58493294D01*
X100931021Y-58387922D01*
X100976768Y-58361509D01*
X101044667Y-58345037D01*
X101110694Y-58367889D01*
X101153885Y-58422810D01*
X101160527Y-58492363D01*
X101158543Y-58500990D01*
X101104913Y-58701140D01*
X101104912Y-58701145D01*
X101038944Y-59075264D01*
X101038944Y-59075268D01*
X101005834Y-59453715D01*
X101005834Y-59833616D01*
X101038944Y-60212063D01*
X101038944Y-60212067D01*
X101104909Y-60586174D01*
X101104911Y-60586185D01*
X101116814Y-60630606D01*
X101203235Y-60953133D01*
X101203236Y-60953135D01*
X101203236Y-60953136D01*
X101207435Y-60964673D01*
X101333167Y-61310116D01*
X101333170Y-61310123D01*
X101333171Y-61310125D01*
X101493712Y-61654408D01*
X101493720Y-61654423D01*
X101584260Y-61811243D01*
X101683664Y-61983415D01*
X101683668Y-61983421D01*
X101683675Y-61983432D01*
X101901562Y-62294607D01*
X102031179Y-62449078D01*
X102145753Y-62585622D01*
X102414378Y-62854247D01*
X102535380Y-62955779D01*
X102705392Y-63098437D01*
X103016567Y-63316324D01*
X103016574Y-63316328D01*
X103016585Y-63316336D01*
X103291858Y-63475265D01*
X103345576Y-63506279D01*
X103345591Y-63506287D01*
X103359953Y-63512984D01*
X103689884Y-63666833D01*
X104046867Y-63796765D01*
X104413816Y-63895089D01*
X104787939Y-63961056D01*
X105166385Y-63994165D01*
X105166386Y-63994166D01*
X105166387Y-63994166D01*
X105546282Y-63994166D01*
X105546282Y-63994165D01*
X105924729Y-63961056D01*
X106298852Y-63895089D01*
X106499012Y-63841456D01*
X106568858Y-63843119D01*
X106626721Y-63882281D01*
X106654225Y-63946509D01*
X106642639Y-64015412D01*
X106638490Y-64023229D01*
X106612082Y-64068968D01*
X106612076Y-64068982D01*
X106506705Y-64323369D01*
X106469422Y-64462515D01*
X106435929Y-64587515D01*
X106435442Y-64589331D01*
X106435439Y-64589344D01*
X106399502Y-64862315D01*
X106399501Y-64862332D01*
X106399501Y-65137667D01*
X106399502Y-65137684D01*
X106435439Y-65410655D01*
X106435440Y-65410660D01*
X106435441Y-65410666D01*
X106460358Y-65503657D01*
X106506705Y-65676630D01*
X106612076Y-65931017D01*
X106612081Y-65931028D01*
X106682785Y-66053489D01*
X106749752Y-66169479D01*
X106749754Y-66169482D01*
X106749755Y-66169483D01*
X106917371Y-66387926D01*
X106917377Y-66387933D01*
X107112067Y-66582623D01*
X107112074Y-66582629D01*
X107117793Y-66587017D01*
X107330522Y-66750249D01*
X107483268Y-66838437D01*
X107568972Y-66887919D01*
X107568977Y-66887921D01*
X107568980Y-66887923D01*
X107823369Y-66993295D01*
X108089335Y-67064560D01*
X108362327Y-67100500D01*
X108362334Y-67100500D01*
X108637668Y-67100500D01*
X108637675Y-67100500D01*
X108910667Y-67064560D01*
X109176633Y-66993295D01*
X109431022Y-66887923D01*
X109669480Y-66750249D01*
X109887929Y-66582628D01*
X110082629Y-66387928D01*
X110250250Y-66169479D01*
X110387924Y-65931021D01*
X110493296Y-65676632D01*
X110564561Y-65410666D01*
X110600501Y-65137674D01*
X110600501Y-65127525D01*
X113699500Y-65127525D01*
X113699500Y-65272475D01*
X113729670Y-65385068D01*
X113737017Y-65412488D01*
X113809488Y-65538011D01*
X113809490Y-65538013D01*
X113809491Y-65538015D01*
X113911985Y-65640509D01*
X113911986Y-65640510D01*
X113911988Y-65640511D01*
X114037511Y-65712982D01*
X114037512Y-65712982D01*
X114037515Y-65712984D01*
X114177525Y-65750500D01*
X114177528Y-65750500D01*
X114322472Y-65750500D01*
X114322475Y-65750500D01*
X114462485Y-65712984D01*
X114588015Y-65640509D01*
X114690509Y-65538015D01*
X114762984Y-65412485D01*
X114800500Y-65272475D01*
X114800500Y-65127525D01*
X114762984Y-64987515D01*
X114762739Y-64987091D01*
X114690511Y-64861988D01*
X114690506Y-64861982D01*
X114588017Y-64759493D01*
X114588011Y-64759488D01*
X114462488Y-64687017D01*
X114462489Y-64687017D01*
X114451006Y-64683940D01*
X114322475Y-64649500D01*
X114177525Y-64649500D01*
X114048993Y-64683940D01*
X114037511Y-64687017D01*
X113911988Y-64759488D01*
X113911982Y-64759493D01*
X113809493Y-64861982D01*
X113809488Y-64861988D01*
X113737017Y-64987511D01*
X113737016Y-64987515D01*
X113699500Y-65127525D01*
X110600501Y-65127525D01*
X110600501Y-64862326D01*
X110564561Y-64589334D01*
X110493296Y-64323368D01*
X110387924Y-64068979D01*
X110387922Y-64068976D01*
X110387920Y-64068971D01*
X110332207Y-63972475D01*
X110250250Y-63830521D01*
X110140515Y-63687511D01*
X110082630Y-63612073D01*
X110082624Y-63612066D01*
X109887934Y-63417376D01*
X109887927Y-63417370D01*
X109669484Y-63249754D01*
X109669483Y-63249753D01*
X109669480Y-63249751D01*
X109574408Y-63194861D01*
X109431029Y-63112080D01*
X109431018Y-63112075D01*
X109176631Y-63006704D01*
X109043650Y-62971072D01*
X108910667Y-62935440D01*
X108910661Y-62935439D01*
X108910656Y-62935438D01*
X108637685Y-62899501D01*
X108637680Y-62899500D01*
X108637675Y-62899500D01*
X108552399Y-62899500D01*
X108485360Y-62879815D01*
X108439605Y-62827011D01*
X108429661Y-62757853D01*
X108458686Y-62694297D01*
X108464718Y-62687819D01*
X108514526Y-62638011D01*
X108566915Y-62585622D01*
X108657946Y-62477135D01*
X112124500Y-62477135D01*
X112124500Y-63922870D01*
X112124501Y-63922876D01*
X112130908Y-63982483D01*
X112181202Y-64117328D01*
X112181206Y-64117335D01*
X112267452Y-64232544D01*
X112267455Y-64232547D01*
X112382664Y-64318793D01*
X112382671Y-64318797D01*
X112517517Y-64369091D01*
X112517516Y-64369091D01*
X112524444Y-64369835D01*
X112577127Y-64375500D01*
X114022872Y-64375499D01*
X114082483Y-64369091D01*
X114217331Y-64318796D01*
X114332546Y-64232546D01*
X114418796Y-64117331D01*
X114469091Y-63982483D01*
X114475500Y-63922873D01*
X114475499Y-62477128D01*
X114469091Y-62417517D01*
X114467215Y-62412488D01*
X114418797Y-62282671D01*
X114418793Y-62282664D01*
X114332547Y-62167455D01*
X114332544Y-62167452D01*
X114217335Y-62081206D01*
X114217328Y-62081202D01*
X114082482Y-62030908D01*
X114082483Y-62030908D01*
X114022883Y-62024501D01*
X114022881Y-62024500D01*
X114022873Y-62024500D01*
X114022864Y-62024500D01*
X112577129Y-62024500D01*
X112577123Y-62024501D01*
X112517516Y-62030908D01*
X112382671Y-62081202D01*
X112382664Y-62081206D01*
X112267455Y-62167452D01*
X112267452Y-62167455D01*
X112181206Y-62282664D01*
X112181202Y-62282671D01*
X112130908Y-62417517D01*
X112127470Y-62449500D01*
X112124501Y-62477123D01*
X112124500Y-62477135D01*
X108657946Y-62477135D01*
X108707972Y-62417516D01*
X108727621Y-62394100D01*
X108803743Y-62303381D01*
X108811106Y-62294606D01*
X109029004Y-61983415D01*
X109218951Y-61654417D01*
X109379501Y-61310116D01*
X109509433Y-60953133D01*
X109607757Y-60586184D01*
X109647289Y-60361985D01*
X109653365Y-60327525D01*
X120949500Y-60327525D01*
X120949500Y-60472475D01*
X120980226Y-60587145D01*
X120987017Y-60612488D01*
X121059488Y-60738011D01*
X121059490Y-60738013D01*
X121059491Y-60738015D01*
X121161985Y-60840509D01*
X121161986Y-60840510D01*
X121161988Y-60840511D01*
X121287511Y-60912982D01*
X121287512Y-60912982D01*
X121287515Y-60912984D01*
X121427525Y-60950500D01*
X121427528Y-60950500D01*
X121572472Y-60950500D01*
X121572475Y-60950500D01*
X121712485Y-60912984D01*
X121838015Y-60840509D01*
X121940509Y-60738015D01*
X122012984Y-60612485D01*
X122050500Y-60472475D01*
X122050500Y-60327525D01*
X122012984Y-60187515D01*
X122012696Y-60187017D01*
X121940511Y-60061988D01*
X121940506Y-60061982D01*
X121838017Y-59959493D01*
X121838011Y-59959488D01*
X121712488Y-59887017D01*
X121712489Y-59887017D01*
X121686376Y-59880020D01*
X121572475Y-59849500D01*
X121427525Y-59849500D01*
X121313624Y-59880020D01*
X121287511Y-59887017D01*
X121161988Y-59959488D01*
X121161982Y-59959493D01*
X121059493Y-60061982D01*
X121059488Y-60061988D01*
X120987017Y-60187511D01*
X120987016Y-60187515D01*
X120949500Y-60327525D01*
X109653365Y-60327525D01*
X109658595Y-60297866D01*
X109673723Y-60212067D01*
X109673723Y-60212066D01*
X109673724Y-60212061D01*
X109706834Y-59833613D01*
X109706834Y-59453719D01*
X109673724Y-59075271D01*
X109658162Y-58987016D01*
X109607756Y-58701145D01*
X109595629Y-58655886D01*
X109509433Y-58334199D01*
X109379501Y-57977216D01*
X109246823Y-57692686D01*
X109218955Y-57632923D01*
X109218947Y-57632908D01*
X109108438Y-57441500D01*
X109091965Y-57373600D01*
X109114818Y-57307573D01*
X109169739Y-57264382D01*
X109215825Y-57255500D01*
X111259327Y-57255500D01*
X111259888Y-57255489D01*
X111268444Y-57255337D01*
X111277290Y-57255021D01*
X111357458Y-57239074D01*
X111422922Y-57214657D01*
X111464004Y-57195002D01*
X111529175Y-57136463D01*
X111592202Y-57106310D01*
X111661527Y-57115017D01*
G37*
%TD.AperFunction*%
%TD*%
%TA.AperFunction,Conductor*%
%TO.N,+BATT*%
G36*
X106442539Y-40520185D02*
G01*
X106488294Y-40572989D01*
X106499500Y-40624500D01*
X106499500Y-51799392D01*
X106533608Y-51926688D01*
X106566554Y-51983751D01*
X106599500Y-52040815D01*
X106599502Y-52040817D01*
X111347004Y-56788319D01*
X111380489Y-56849642D01*
X111375505Y-56919334D01*
X111333633Y-56975267D01*
X111268169Y-56999684D01*
X111259323Y-57000000D01*
X108875031Y-57000000D01*
X108807992Y-56980315D01*
X108780047Y-56955711D01*
X108566915Y-56701710D01*
X108298290Y-56433085D01*
X108175937Y-56330419D01*
X108007275Y-56188894D01*
X107696100Y-55971007D01*
X107696089Y-55971000D01*
X107696083Y-55970996D01*
X107440384Y-55823368D01*
X107367091Y-55781052D01*
X107367076Y-55781044D01*
X107022793Y-55620503D01*
X107022791Y-55620502D01*
X107022784Y-55620499D01*
X106665801Y-55490567D01*
X106342312Y-55403888D01*
X106298853Y-55392243D01*
X106298842Y-55392241D01*
X105924733Y-55326276D01*
X105546284Y-55293166D01*
X105546281Y-55293166D01*
X105166387Y-55293166D01*
X105166383Y-55293166D01*
X104787936Y-55326276D01*
X104787932Y-55326276D01*
X104413825Y-55392241D01*
X104413814Y-55392243D01*
X104217166Y-55444935D01*
X104046867Y-55490567D01*
X104046864Y-55490568D01*
X104046863Y-55490568D01*
X103849176Y-55562521D01*
X103689884Y-55620499D01*
X103689880Y-55620500D01*
X103689874Y-55620503D01*
X103345591Y-55781044D01*
X103345576Y-55781052D01*
X103016593Y-55970991D01*
X103016567Y-55971007D01*
X102705392Y-56188894D01*
X102414375Y-56433087D01*
X102312181Y-56535282D01*
X102250858Y-56568767D01*
X102181166Y-56563783D01*
X102125233Y-56521911D01*
X102100816Y-56456447D01*
X102100500Y-56447601D01*
X102100500Y-56362331D01*
X102100500Y-56362325D01*
X102064560Y-56089333D01*
X101993295Y-55823367D01*
X101887923Y-55568978D01*
X101887921Y-55568975D01*
X101887919Y-55568970D01*
X101838732Y-55483777D01*
X101750249Y-55330520D01*
X101582628Y-55112071D01*
X101582623Y-55112065D01*
X101387933Y-54917375D01*
X101387926Y-54917369D01*
X101169483Y-54749753D01*
X101169482Y-54749752D01*
X101169479Y-54749750D01*
X101074407Y-54694860D01*
X100931028Y-54612079D01*
X100931017Y-54612074D01*
X100676630Y-54506703D01*
X100543649Y-54471071D01*
X100410666Y-54435439D01*
X100410660Y-54435438D01*
X100410655Y-54435437D01*
X100137684Y-54399500D01*
X100137679Y-54399499D01*
X100137674Y-54399499D01*
X99862326Y-54399499D01*
X99862320Y-54399499D01*
X99862315Y-54399500D01*
X99589344Y-54435437D01*
X99589337Y-54435438D01*
X99589334Y-54435439D01*
X99533125Y-54450499D01*
X99323369Y-54506703D01*
X99068982Y-54612074D01*
X99068971Y-54612079D01*
X98830516Y-54749753D01*
X98612073Y-54917369D01*
X98612066Y-54917375D01*
X98417376Y-55112065D01*
X98417370Y-55112072D01*
X98249754Y-55330515D01*
X98112080Y-55568970D01*
X98112075Y-55568981D01*
X98006704Y-55823368D01*
X97935441Y-56089330D01*
X97935438Y-56089343D01*
X97899501Y-56362314D01*
X97899500Y-56362331D01*
X97899500Y-56637680D01*
X97915166Y-56756672D01*
X97928745Y-56859816D01*
X97917981Y-56928850D01*
X97871601Y-56981106D01*
X97805807Y-57000000D01*
X88740677Y-57000000D01*
X88673638Y-56980315D01*
X88627883Y-56927511D01*
X88617939Y-56858353D01*
X88646964Y-56794797D01*
X88652996Y-56788319D01*
X91005878Y-54435437D01*
X93400500Y-52040815D01*
X93466392Y-51926687D01*
X93500500Y-51799393D01*
X93500500Y-51667608D01*
X93500500Y-51307486D01*
X94324500Y-51307486D01*
X94324500Y-51492513D01*
X94353445Y-51675265D01*
X94410619Y-51851232D01*
X94410620Y-51851235D01*
X94449066Y-51926688D01*
X94494622Y-52016096D01*
X94603379Y-52165787D01*
X94734213Y-52296621D01*
X94883904Y-52405378D01*
X94964763Y-52446577D01*
X95048764Y-52489379D01*
X95048767Y-52489380D01*
X95136750Y-52517967D01*
X95224736Y-52546555D01*
X95407486Y-52575500D01*
X95407487Y-52575500D01*
X95592513Y-52575500D01*
X95592514Y-52575500D01*
X95775264Y-52546555D01*
X95951235Y-52489379D01*
X96116096Y-52405378D01*
X96265787Y-52296621D01*
X96396621Y-52165787D01*
X96505378Y-52016096D01*
X96589379Y-51851235D01*
X96646555Y-51675264D01*
X96675500Y-51492514D01*
X96675500Y-51307486D01*
X97324500Y-51307486D01*
X97324500Y-51492513D01*
X97353445Y-51675265D01*
X97410619Y-51851232D01*
X97410620Y-51851235D01*
X97449066Y-51926688D01*
X97494622Y-52016096D01*
X97603379Y-52165787D01*
X97734213Y-52296621D01*
X97883904Y-52405378D01*
X97964763Y-52446577D01*
X98048764Y-52489379D01*
X98048767Y-52489380D01*
X98136750Y-52517967D01*
X98224736Y-52546555D01*
X98407486Y-52575500D01*
X98407487Y-52575500D01*
X98592513Y-52575500D01*
X98592514Y-52575500D01*
X98775264Y-52546555D01*
X98951235Y-52489379D01*
X99116096Y-52405378D01*
X99265787Y-52296621D01*
X99396621Y-52165787D01*
X99505378Y-52016096D01*
X99589379Y-51851235D01*
X99646555Y-51675264D01*
X99675500Y-51492514D01*
X99675500Y-51307486D01*
X100324500Y-51307486D01*
X100324500Y-51492513D01*
X100353445Y-51675265D01*
X100410619Y-51851232D01*
X100410620Y-51851235D01*
X100449066Y-51926688D01*
X100494622Y-52016096D01*
X100603379Y-52165787D01*
X100734213Y-52296621D01*
X100883904Y-52405378D01*
X100964763Y-52446577D01*
X101048764Y-52489379D01*
X101048767Y-52489380D01*
X101136750Y-52517967D01*
X101224736Y-52546555D01*
X101407486Y-52575500D01*
X101407487Y-52575500D01*
X101592513Y-52575500D01*
X101592514Y-52575500D01*
X101775264Y-52546555D01*
X101951235Y-52489379D01*
X102116096Y-52405378D01*
X102265787Y-52296621D01*
X102396621Y-52165787D01*
X102505378Y-52016096D01*
X102589379Y-51851235D01*
X102646555Y-51675264D01*
X102675500Y-51492514D01*
X102675500Y-51307486D01*
X103324500Y-51307486D01*
X103324500Y-51492513D01*
X103353445Y-51675265D01*
X103410619Y-51851232D01*
X103410620Y-51851235D01*
X103449066Y-51926688D01*
X103494622Y-52016096D01*
X103603379Y-52165787D01*
X103734213Y-52296621D01*
X103883904Y-52405378D01*
X103964763Y-52446577D01*
X104048764Y-52489379D01*
X104048767Y-52489380D01*
X104136750Y-52517967D01*
X104224736Y-52546555D01*
X104407486Y-52575500D01*
X104407487Y-52575500D01*
X104592513Y-52575500D01*
X104592514Y-52575500D01*
X104775264Y-52546555D01*
X104951235Y-52489379D01*
X105116096Y-52405378D01*
X105265787Y-52296621D01*
X105396621Y-52165787D01*
X105505378Y-52016096D01*
X105589379Y-51851235D01*
X105646555Y-51675264D01*
X105675500Y-51492514D01*
X105675500Y-51307486D01*
X105646555Y-51124736D01*
X105589379Y-50948765D01*
X105589379Y-50948764D01*
X105505377Y-50783903D01*
X105396621Y-50634213D01*
X105265787Y-50503379D01*
X105116096Y-50394622D01*
X104951235Y-50310620D01*
X104951232Y-50310619D01*
X104775265Y-50253445D01*
X104683889Y-50238972D01*
X104592514Y-50224500D01*
X104407486Y-50224500D01*
X104346569Y-50234148D01*
X104224734Y-50253445D01*
X104048767Y-50310619D01*
X104048764Y-50310620D01*
X103883903Y-50394622D01*
X103798499Y-50456672D01*
X103734213Y-50503379D01*
X103734211Y-50503381D01*
X103734210Y-50503381D01*
X103603381Y-50634210D01*
X103603381Y-50634211D01*
X103603379Y-50634213D01*
X103556672Y-50698499D01*
X103494622Y-50783903D01*
X103410620Y-50948764D01*
X103410619Y-50948767D01*
X103353445Y-51124734D01*
X103324500Y-51307486D01*
X102675500Y-51307486D01*
X102646555Y-51124736D01*
X102589379Y-50948765D01*
X102589379Y-50948764D01*
X102505377Y-50783903D01*
X102396621Y-50634213D01*
X102265787Y-50503379D01*
X102116096Y-50394622D01*
X101951235Y-50310620D01*
X101951232Y-50310619D01*
X101775265Y-50253445D01*
X101683889Y-50238972D01*
X101592514Y-50224500D01*
X101407486Y-50224500D01*
X101346569Y-50234148D01*
X101224734Y-50253445D01*
X101048767Y-50310619D01*
X101048764Y-50310620D01*
X100883903Y-50394622D01*
X100798499Y-50456672D01*
X100734213Y-50503379D01*
X100734211Y-50503381D01*
X100734210Y-50503381D01*
X100603381Y-50634210D01*
X100603381Y-50634211D01*
X100603379Y-50634213D01*
X100556672Y-50698499D01*
X100494622Y-50783903D01*
X100410620Y-50948764D01*
X100410619Y-50948767D01*
X100353445Y-51124734D01*
X100324500Y-51307486D01*
X99675500Y-51307486D01*
X99646555Y-51124736D01*
X99589379Y-50948765D01*
X99589379Y-50948764D01*
X99505377Y-50783903D01*
X99396621Y-50634213D01*
X99265787Y-50503379D01*
X99116096Y-50394622D01*
X98951235Y-50310620D01*
X98951232Y-50310619D01*
X98775265Y-50253445D01*
X98683889Y-50238972D01*
X98592514Y-50224500D01*
X98407486Y-50224500D01*
X98346569Y-50234148D01*
X98224734Y-50253445D01*
X98048767Y-50310619D01*
X98048764Y-50310620D01*
X97883903Y-50394622D01*
X97798499Y-50456672D01*
X97734213Y-50503379D01*
X97734211Y-50503381D01*
X97734210Y-50503381D01*
X97603381Y-50634210D01*
X97603381Y-50634211D01*
X97603379Y-50634213D01*
X97556672Y-50698499D01*
X97494622Y-50783903D01*
X97410620Y-50948764D01*
X97410619Y-50948767D01*
X97353445Y-51124734D01*
X97324500Y-51307486D01*
X96675500Y-51307486D01*
X96646555Y-51124736D01*
X96589379Y-50948765D01*
X96589379Y-50948764D01*
X96505377Y-50783903D01*
X96396621Y-50634213D01*
X96265787Y-50503379D01*
X96116096Y-50394622D01*
X95951235Y-50310620D01*
X95951232Y-50310619D01*
X95775265Y-50253445D01*
X95683889Y-50238972D01*
X95592514Y-50224500D01*
X95407486Y-50224500D01*
X95346569Y-50234148D01*
X95224734Y-50253445D01*
X95048767Y-50310619D01*
X95048764Y-50310620D01*
X94883903Y-50394622D01*
X94798499Y-50456672D01*
X94734213Y-50503379D01*
X94734211Y-50503381D01*
X94734210Y-50503381D01*
X94603381Y-50634210D01*
X94603381Y-50634211D01*
X94603379Y-50634213D01*
X94556672Y-50698499D01*
X94494622Y-50783903D01*
X94410620Y-50948764D01*
X94410619Y-50948767D01*
X94353445Y-51124734D01*
X94324500Y-51307486D01*
X93500500Y-51307486D01*
X93500500Y-47327135D01*
X94324500Y-47327135D01*
X94324500Y-48772870D01*
X94324501Y-48772876D01*
X94330908Y-48832483D01*
X94381202Y-48967328D01*
X94381206Y-48967335D01*
X94467452Y-49082544D01*
X94467455Y-49082547D01*
X94582664Y-49168793D01*
X94582671Y-49168797D01*
X94717517Y-49219091D01*
X94717516Y-49219091D01*
X94724444Y-49219835D01*
X94777127Y-49225500D01*
X96222872Y-49225499D01*
X96282483Y-49219091D01*
X96417331Y-49168796D01*
X96532546Y-49082546D01*
X96618796Y-48967331D01*
X96669091Y-48832483D01*
X96675500Y-48772873D01*
X96675499Y-47327135D01*
X97324500Y-47327135D01*
X97324500Y-48772870D01*
X97324501Y-48772876D01*
X97330908Y-48832483D01*
X97381202Y-48967328D01*
X97381206Y-48967335D01*
X97467452Y-49082544D01*
X97467455Y-49082547D01*
X97582664Y-49168793D01*
X97582671Y-49168797D01*
X97717517Y-49219091D01*
X97717516Y-49219091D01*
X97724444Y-49219835D01*
X97777127Y-49225500D01*
X99222872Y-49225499D01*
X99282483Y-49219091D01*
X99417331Y-49168796D01*
X99532546Y-49082546D01*
X99618796Y-48967331D01*
X99669091Y-48832483D01*
X99675500Y-48772873D01*
X99675499Y-47327135D01*
X100324500Y-47327135D01*
X100324500Y-48772870D01*
X100324501Y-48772876D01*
X100330908Y-48832483D01*
X100381202Y-48967328D01*
X100381206Y-48967335D01*
X100467452Y-49082544D01*
X100467455Y-49082547D01*
X100582664Y-49168793D01*
X100582671Y-49168797D01*
X100717517Y-49219091D01*
X100717516Y-49219091D01*
X100724444Y-49219835D01*
X100777127Y-49225500D01*
X102222872Y-49225499D01*
X102282483Y-49219091D01*
X102417331Y-49168796D01*
X102532546Y-49082546D01*
X102618796Y-48967331D01*
X102669091Y-48832483D01*
X102675500Y-48772873D01*
X102675499Y-47327135D01*
X103324500Y-47327135D01*
X103324500Y-48772870D01*
X103324501Y-48772876D01*
X103330908Y-48832483D01*
X103381202Y-48967328D01*
X103381206Y-48967335D01*
X103467452Y-49082544D01*
X103467455Y-49082547D01*
X103582664Y-49168793D01*
X103582671Y-49168797D01*
X103717517Y-49219091D01*
X103717516Y-49219091D01*
X103724444Y-49219835D01*
X103777127Y-49225500D01*
X105222872Y-49225499D01*
X105282483Y-49219091D01*
X105417331Y-49168796D01*
X105532546Y-49082546D01*
X105618796Y-48967331D01*
X105669091Y-48832483D01*
X105675500Y-48772873D01*
X105675499Y-47327128D01*
X105669091Y-47267517D01*
X105618796Y-47132669D01*
X105618795Y-47132668D01*
X105618793Y-47132664D01*
X105532547Y-47017455D01*
X105532544Y-47017452D01*
X105417335Y-46931206D01*
X105417328Y-46931202D01*
X105282482Y-46880908D01*
X105282483Y-46880908D01*
X105222883Y-46874501D01*
X105222881Y-46874500D01*
X105222873Y-46874500D01*
X105222864Y-46874500D01*
X103777129Y-46874500D01*
X103777123Y-46874501D01*
X103717516Y-46880908D01*
X103582671Y-46931202D01*
X103582664Y-46931206D01*
X103467455Y-47017452D01*
X103467452Y-47017455D01*
X103381206Y-47132664D01*
X103381202Y-47132671D01*
X103330908Y-47267517D01*
X103324501Y-47327116D01*
X103324501Y-47327123D01*
X103324500Y-47327135D01*
X102675499Y-47327135D01*
X102675499Y-47327128D01*
X102669091Y-47267517D01*
X102618796Y-47132669D01*
X102618795Y-47132668D01*
X102618793Y-47132664D01*
X102532547Y-47017455D01*
X102532544Y-47017452D01*
X102417335Y-46931206D01*
X102417328Y-46931202D01*
X102282482Y-46880908D01*
X102282483Y-46880908D01*
X102222883Y-46874501D01*
X102222881Y-46874500D01*
X102222873Y-46874500D01*
X102222864Y-46874500D01*
X100777129Y-46874500D01*
X100777123Y-46874501D01*
X100717516Y-46880908D01*
X100582671Y-46931202D01*
X100582664Y-46931206D01*
X100467455Y-47017452D01*
X100467452Y-47017455D01*
X100381206Y-47132664D01*
X100381202Y-47132671D01*
X100330908Y-47267517D01*
X100324501Y-47327116D01*
X100324501Y-47327123D01*
X100324500Y-47327135D01*
X99675499Y-47327135D01*
X99675499Y-47327128D01*
X99669091Y-47267517D01*
X99618796Y-47132669D01*
X99618795Y-47132668D01*
X99618793Y-47132664D01*
X99532547Y-47017455D01*
X99532544Y-47017452D01*
X99417335Y-46931206D01*
X99417328Y-46931202D01*
X99282482Y-46880908D01*
X99282483Y-46880908D01*
X99222883Y-46874501D01*
X99222881Y-46874500D01*
X99222873Y-46874500D01*
X99222864Y-46874500D01*
X97777129Y-46874500D01*
X97777123Y-46874501D01*
X97717516Y-46880908D01*
X97582671Y-46931202D01*
X97582664Y-46931206D01*
X97467455Y-47017452D01*
X97467452Y-47017455D01*
X97381206Y-47132664D01*
X97381202Y-47132671D01*
X97330908Y-47267517D01*
X97324501Y-47327116D01*
X97324501Y-47327123D01*
X97324500Y-47327135D01*
X96675499Y-47327135D01*
X96675499Y-47327128D01*
X96669091Y-47267517D01*
X96618796Y-47132669D01*
X96618795Y-47132668D01*
X96618793Y-47132664D01*
X96532547Y-47017455D01*
X96532544Y-47017452D01*
X96417335Y-46931206D01*
X96417328Y-46931202D01*
X96282482Y-46880908D01*
X96282483Y-46880908D01*
X96222883Y-46874501D01*
X96222881Y-46874500D01*
X96222873Y-46874500D01*
X96222864Y-46874500D01*
X94777129Y-46874500D01*
X94777123Y-46874501D01*
X94717516Y-46880908D01*
X94582671Y-46931202D01*
X94582664Y-46931206D01*
X94467455Y-47017452D01*
X94467452Y-47017455D01*
X94381206Y-47132664D01*
X94381202Y-47132671D01*
X94330908Y-47267517D01*
X94324501Y-47327116D01*
X94324501Y-47327123D01*
X94324500Y-47327135D01*
X93500500Y-47327135D01*
X93500500Y-45127525D01*
X96649500Y-45127525D01*
X96649500Y-45272475D01*
X96668490Y-45343345D01*
X96687017Y-45412488D01*
X96759488Y-45538011D01*
X96759490Y-45538013D01*
X96759491Y-45538015D01*
X96861985Y-45640509D01*
X96861986Y-45640510D01*
X96861988Y-45640511D01*
X96987511Y-45712982D01*
X96987512Y-45712982D01*
X96987515Y-45712984D01*
X97127525Y-45750500D01*
X97127528Y-45750500D01*
X97272472Y-45750500D01*
X97272475Y-45750500D01*
X97412485Y-45712984D01*
X97538015Y-45640509D01*
X97640509Y-45538015D01*
X97712984Y-45412485D01*
X97750500Y-45272475D01*
X97750500Y-45127525D01*
X97712984Y-44987515D01*
X97640509Y-44861985D01*
X97538015Y-44759491D01*
X97538013Y-44759490D01*
X97538011Y-44759488D01*
X97412488Y-44687017D01*
X97412489Y-44687017D01*
X97401006Y-44683940D01*
X97272475Y-44649500D01*
X97127525Y-44649500D01*
X96998993Y-44683940D01*
X96987511Y-44687017D01*
X96861988Y-44759488D01*
X96861982Y-44759493D01*
X96759493Y-44861982D01*
X96759488Y-44861988D01*
X96687017Y-44987511D01*
X96682583Y-45004055D01*
X96649500Y-45127525D01*
X93500500Y-45127525D01*
X93500500Y-43575013D01*
X98000000Y-43575013D01*
X98000000Y-44000000D01*
X98819670Y-44000000D01*
X98799925Y-44019745D01*
X98750556Y-44105255D01*
X98725000Y-44200630D01*
X98725000Y-44299370D01*
X98750556Y-44394745D01*
X98799925Y-44480255D01*
X98819670Y-44500000D01*
X98000001Y-44500000D01*
X98000001Y-44924986D01*
X98010494Y-45027697D01*
X98065641Y-45194119D01*
X98065643Y-45194124D01*
X98157684Y-45343345D01*
X98281654Y-45467315D01*
X98430875Y-45559356D01*
X98430880Y-45559358D01*
X98597302Y-45614505D01*
X98597309Y-45614506D01*
X98700019Y-45624999D01*
X98849999Y-45624999D01*
X98850000Y-45624998D01*
X98850000Y-44530330D01*
X98869745Y-44550075D01*
X98955255Y-44599444D01*
X99050630Y-44625000D01*
X99149370Y-44625000D01*
X99244745Y-44599444D01*
X99330255Y-44550075D01*
X99350000Y-44530330D01*
X99350000Y-45624999D01*
X99499972Y-45624999D01*
X99499986Y-45624998D01*
X99602697Y-45614505D01*
X99769119Y-45559358D01*
X99769124Y-45559356D01*
X99918345Y-45467315D01*
X100042315Y-45343345D01*
X100134356Y-45194124D01*
X100134359Y-45194117D01*
X100183776Y-45044984D01*
X100223548Y-44987539D01*
X100288063Y-44960715D01*
X100356839Y-44973030D01*
X100404584Y-45015096D01*
X100439373Y-45067161D01*
X100439376Y-45067165D01*
X100557837Y-45185626D01*
X100650494Y-45247537D01*
X100697137Y-45278703D01*
X100851918Y-45342816D01*
X101016228Y-45375499D01*
X101016232Y-45375500D01*
X101016233Y-45375500D01*
X101183768Y-45375500D01*
X101183769Y-45375499D01*
X101348082Y-45342816D01*
X101502863Y-45278703D01*
X101642162Y-45185626D01*
X101760626Y-45067162D01*
X101853703Y-44927863D01*
X101917816Y-44773082D01*
X101950500Y-44608767D01*
X101950500Y-43891233D01*
X101917816Y-43726918D01*
X101853703Y-43572137D01*
X101786995Y-43472302D01*
X101760626Y-43432837D01*
X101642165Y-43314376D01*
X101642161Y-43314373D01*
X101591896Y-43280787D01*
X101547091Y-43227175D01*
X101538384Y-43157850D01*
X101553398Y-43115689D01*
X101612984Y-43012485D01*
X101650500Y-42872475D01*
X101650500Y-42727525D01*
X101612984Y-42587515D01*
X101540509Y-42461985D01*
X101438015Y-42359491D01*
X101438013Y-42359490D01*
X101438011Y-42359488D01*
X101312488Y-42287017D01*
X101312489Y-42287017D01*
X101301006Y-42283940D01*
X101172475Y-42249500D01*
X101027525Y-42249500D01*
X100898993Y-42283940D01*
X100887511Y-42287017D01*
X100761988Y-42359488D01*
X100761982Y-42359493D01*
X100659493Y-42461982D01*
X100659488Y-42461988D01*
X100587017Y-42587511D01*
X100587016Y-42587515D01*
X100549500Y-42727525D01*
X100549500Y-42872475D01*
X100587016Y-43012485D01*
X100646599Y-43115686D01*
X100663072Y-43183584D01*
X100640220Y-43249611D01*
X100608104Y-43280787D01*
X100557834Y-43314376D01*
X100439376Y-43432834D01*
X100439373Y-43432838D01*
X100404585Y-43484902D01*
X100350972Y-43529707D01*
X100281647Y-43538414D01*
X100218620Y-43508259D01*
X100183777Y-43455015D01*
X100134358Y-43305880D01*
X100134356Y-43305875D01*
X100042315Y-43156654D01*
X99918345Y-43032684D01*
X99769124Y-42940643D01*
X99769119Y-42940641D01*
X99602697Y-42885494D01*
X99602690Y-42885493D01*
X99499986Y-42875000D01*
X99350000Y-42875000D01*
X99350000Y-43969670D01*
X99330255Y-43949925D01*
X99244745Y-43900556D01*
X99149370Y-43875000D01*
X99050630Y-43875000D01*
X98955255Y-43900556D01*
X98869745Y-43949925D01*
X98850000Y-43969670D01*
X98850000Y-42875000D01*
X98700027Y-42875000D01*
X98700012Y-42875001D01*
X98597302Y-42885494D01*
X98430880Y-42940641D01*
X98430875Y-42940643D01*
X98281654Y-43032684D01*
X98157684Y-43156654D01*
X98065643Y-43305875D01*
X98065641Y-43305880D01*
X98010494Y-43472302D01*
X98010493Y-43472309D01*
X98000000Y-43575013D01*
X93500500Y-43575013D01*
X93500500Y-40624500D01*
X93520185Y-40557461D01*
X93572989Y-40511706D01*
X93624500Y-40500500D01*
X106375500Y-40500500D01*
X106442539Y-40520185D01*
G37*
%TD.AperFunction*%
%TD*%
M02*
