%TF.GenerationSoftware,KiCad,Pcbnew,9.0.6*%
%TF.CreationDate,2026-03-25T11:26:29-04:00*%
%TF.ProjectId,newschematic,6e657773-6368-4656-9d61-7469632e6b69,0*%
%TF.SameCoordinates,Original*%
%TF.FileFunction,Copper,L1,Top*%
%TF.FilePolarity,Positive*%
%FSLAX46Y46*%
G04 Gerber Fmt 4.6, Leading zero omitted, Abs format (unit mm)*
G04 Created by KiCad (PCBNEW 9.0.6) date 2026-03-25 11:26:29*
%MOMM*%
%LPD*%
G01*
G04 APERTURE LIST*
G04 Aperture macros list*
%AMRoundRect*
0 Rectangle with rounded corners*
0 $1 Rounding radius*
0 $2 $3 $4 $5 $6 $7 $8 $9 X,Y pos of 4 corners*
0 Add a 4 corners polygon primitive as box body*
4,1,4,$2,$3,$4,$5,$6,$7,$8,$9,$2,$3,0*
0 Add four circle primitives for the rounded corners*
1,1,$1+$1,$2,$3*
1,1,$1+$1,$4,$5*
1,1,$1+$1,$6,$7*
1,1,$1+$1,$8,$9*
0 Add four rect primitives between the rounded corners*
20,1,$1+$1,$2,$3,$4,$5,0*
20,1,$1+$1,$4,$5,$6,$7,0*
20,1,$1+$1,$6,$7,$8,$9,0*
20,1,$1+$1,$8,$9,$2,$3,0*%
%AMRotRect*
0 Rectangle, with rotation*
0 The origin of the aperture is its center*
0 $1 length*
0 $2 width*
0 $3 Rotation angle, in degrees counterclockwise*
0 Add horizontal line*
21,1,$1,$2,0,0,$3*%
G04 Aperture macros list end*
%TA.AperFunction,SMDPad,CuDef*%
%ADD10RoundRect,0.237500X0.300000X0.237500X-0.300000X0.237500X-0.300000X-0.237500X0.300000X-0.237500X0*%
%TD*%
%TA.AperFunction,SMDPad,CuDef*%
%ADD11RoundRect,0.250000X0.000000X0.424264X-0.424264X0.000000X0.000000X-0.424264X0.424264X0.000000X0*%
%TD*%
%TA.AperFunction,SMDPad,CuDef*%
%ADD12RoundRect,0.250000X0.300000X0.300000X-0.300000X0.300000X-0.300000X-0.300000X0.300000X-0.300000X0*%
%TD*%
%TA.AperFunction,SMDPad,CuDef*%
%ADD13R,0.400000X1.400000*%
%TD*%
%TA.AperFunction,SMDPad,CuDef*%
%ADD14R,2.300000X1.900000*%
%TD*%
%TA.AperFunction,SMDPad,CuDef*%
%ADD15R,1.800000X1.900000*%
%TD*%
%TA.AperFunction,ComponentPad*%
%ADD16RoundRect,0.250000X-0.675000X-0.675000X0.675000X-0.675000X0.675000X0.675000X-0.675000X0.675000X0*%
%TD*%
%TA.AperFunction,ComponentPad*%
%ADD17C,1.850000*%
%TD*%
%TA.AperFunction,SMDPad,CuDef*%
%ADD18RoundRect,0.175000X-0.825000X-0.175000X0.825000X-0.175000X0.825000X0.175000X-0.825000X0.175000X0*%
%TD*%
%TA.AperFunction,ComponentPad*%
%ADD19RoundRect,0.250000X-0.675000X0.675000X-0.675000X-0.675000X0.675000X-0.675000X0.675000X0.675000X0*%
%TD*%
%TA.AperFunction,SMDPad,CuDef*%
%ADD20RoundRect,0.237500X0.237500X-0.250000X0.237500X0.250000X-0.237500X0.250000X-0.237500X-0.250000X0*%
%TD*%
%TA.AperFunction,SMDPad,CuDef*%
%ADD21RoundRect,0.237500X-0.044194X-0.380070X0.380070X0.044194X0.044194X0.380070X-0.380070X-0.044194X0*%
%TD*%
%TA.AperFunction,SMDPad,CuDef*%
%ADD22RoundRect,0.237500X-0.250000X-0.237500X0.250000X-0.237500X0.250000X0.237500X-0.250000X0.237500X0*%
%TD*%
%TA.AperFunction,SMDPad,CuDef*%
%ADD23RoundRect,0.100000X-0.850000X-0.100000X0.850000X-0.100000X0.850000X0.100000X-0.850000X0.100000X0*%
%TD*%
%TA.AperFunction,ComponentPad*%
%ADD24RotRect,0.850000X0.850000X135.000000*%
%TD*%
%TA.AperFunction,ComponentPad*%
%ADD25C,0.850000*%
%TD*%
%TA.AperFunction,ComponentPad*%
%ADD26RoundRect,0.250000X-0.350000X-0.625000X0.350000X-0.625000X0.350000X0.625000X-0.350000X0.625000X0*%
%TD*%
%TA.AperFunction,ComponentPad*%
%ADD27O,1.200000X1.750000*%
%TD*%
%TA.AperFunction,ViaPad*%
%ADD28C,0.600000*%
%TD*%
%TA.AperFunction,Conductor*%
%ADD29C,0.400000*%
%TD*%
%TA.AperFunction,Conductor*%
%ADD30C,0.150000*%
%TD*%
G04 APERTURE END LIST*
D10*
%TO.P,C18,1*%
%TO.N,+BATT*%
X83825000Y-59099999D03*
%TO.P,C18,2*%
%TO.N,GND*%
X82100000Y-59099999D03*
%TD*%
D11*
%TO.P,CR2,1*%
%TO.N,+BATT*%
X107879898Y-71620102D03*
%TO.P,CR2,2*%
%TO.N,Net-(J2-VBUS)*%
X105900000Y-73600000D03*
%TD*%
D12*
%TO.P,CR3,1*%
%TO.N,Net-(M2--)*%
X117700000Y-66800000D03*
%TO.P,CR3,2*%
%TO.N,+BATT*%
X114900000Y-66800000D03*
%TD*%
D13*
%TO.P,J2,1,VBUS*%
%TO.N,Net-(J2-VBUS)*%
X98749997Y-85650001D03*
%TO.P,J2,2,D-*%
%TO.N,Net-(J2-D-)*%
X99399997Y-85650001D03*
%TO.P,J2,3,D+*%
%TO.N,Net-(J2-D+)*%
X100049997Y-85650001D03*
%TO.P,J2,4,ID*%
%TO.N,unconnected-(J2-ID-Pad4)*%
X100699997Y-85650001D03*
%TO.P,J2,5,GND*%
%TO.N,GND*%
X101349997Y-85650001D03*
D14*
%TO.P,J2,6,Shield*%
X96299997Y-88500001D03*
D15*
X98899997Y-88500001D03*
X101199997Y-88500001D03*
D14*
X103799997Y-88500001D03*
%TD*%
D16*
%TO.P,M2,1,+*%
%TO.N,+BATT*%
X113300000Y-69800000D03*
D17*
%TO.P,M2,2,-*%
%TO.N,Net-(M2--)*%
X116650000Y-69800000D03*
%TD*%
D18*
%TO.P,Q1,1,G*%
%TO.N,Net-(Q1-G)*%
X120000000Y-60150000D03*
%TO.P,Q1,2,S*%
%TO.N,GND*%
X120000000Y-62050000D03*
%TO.P,Q1,3,D*%
%TO.N,Net-(M1--)*%
X123400000Y-61100000D03*
%TD*%
D12*
%TO.P,CR1,1*%
%TO.N,Net-(M1--)*%
X117700000Y-60200000D03*
%TO.P,CR1,2*%
%TO.N,+BATT*%
X114900000Y-60200000D03*
%TD*%
D16*
%TO.P,M1,1,+*%
%TO.N,+BATT*%
X113300000Y-63200000D03*
D17*
%TO.P,M1,2,-*%
%TO.N,Net-(M1--)*%
X116650000Y-63200000D03*
%TD*%
D18*
%TO.P,Q2,1,G*%
%TO.N,Net-(Q2-G)*%
X120000000Y-66750000D03*
%TO.P,Q2,2,S*%
%TO.N,GND*%
X120000000Y-68650000D03*
%TO.P,Q2,3,D*%
%TO.N,Net-(M2--)*%
X123400000Y-67700000D03*
%TD*%
D19*
%TO.P,M5,1,+*%
%TO.N,Net-(M3-+)*%
X95500000Y-48050000D03*
D17*
%TO.P,M5,2,-*%
%TO.N,Net-(M3--)*%
X95500000Y-51400000D03*
%TD*%
D19*
%TO.P,M3,1,+*%
%TO.N,Net-(M3-+)*%
X98500000Y-48050000D03*
D17*
%TO.P,M3,2,-*%
%TO.N,Net-(M3--)*%
X98500000Y-51400000D03*
%TD*%
D20*
%TO.P,R8,1*%
%TO.N,Net-(J2-D-)*%
X102100000Y-83712500D03*
%TO.P,R8,2*%
%TO.N,Net-(U1-PA24)*%
X102100000Y-81887500D03*
%TD*%
D21*
%TO.P,C14,1*%
%TO.N,+3.3V*%
X87890120Y-61709880D03*
%TO.P,C14,2*%
%TO.N,GND*%
X89109880Y-60490120D03*
%TD*%
D19*
%TO.P,M6,1,+*%
%TO.N,Net-(M4-+)*%
X101500000Y-48050000D03*
D17*
%TO.P,M6,2,-*%
%TO.N,Net-(M4--)*%
X101500000Y-51400000D03*
%TD*%
D19*
%TO.P,M4,1,+*%
%TO.N,Net-(M4-+)*%
X104500000Y-48050000D03*
D17*
%TO.P,M4,2,-*%
%TO.N,Net-(M4--)*%
X104500000Y-51400000D03*
%TD*%
D20*
%TO.P,R7,1*%
%TO.N,Net-(J2-D+)*%
X103600000Y-83712500D03*
%TO.P,R7,2*%
%TO.N,Net-(U1-PA25)*%
X103600000Y-81887500D03*
%TD*%
D22*
%TO.P,R1,1*%
%TO.N,Net-(Q1-G)*%
X121575000Y-63850000D03*
%TO.P,R1,2*%
%TO.N,GND*%
X123400000Y-63850000D03*
%TD*%
%TO.P,R4,1*%
%TO.N,+3.3V*%
X80087500Y-71000000D03*
%TO.P,R4,2*%
%TO.N,Net-(U1-PA13)*%
X81912500Y-71000000D03*
%TD*%
%TO.P,R2,1*%
%TO.N,Net-(Q2-G)*%
X121687500Y-70400000D03*
%TO.P,R2,2*%
%TO.N,GND*%
X123512500Y-70400000D03*
%TD*%
D23*
%TO.P,U8,1,AO1*%
%TO.N,Net-(M3-+)*%
X78200001Y-61400001D03*
%TO.P,U8,2,AO1*%
X78200001Y-62050001D03*
%TO.P,U8,3,PGND1*%
%TO.N,GND*%
X78200001Y-62700001D03*
%TO.P,U8,4,PGND1*%
X78200001Y-63350001D03*
%TO.P,U8,5,AO2*%
%TO.N,Net-(M3--)*%
X78200001Y-64000001D03*
%TO.P,U8,6,AO2*%
X78200001Y-64650001D03*
%TO.P,U8,7,BO2*%
%TO.N,Net-(M4-+)*%
X78200001Y-65300001D03*
%TO.P,U8,8,BO2*%
X78200001Y-65950001D03*
%TO.P,U8,9,PGND2*%
%TO.N,GND*%
X78200001Y-66600001D03*
%TO.P,U8,10,PGND2*%
X78200001Y-67250001D03*
%TO.P,U8,11,BO1*%
%TO.N,Net-(M4--)*%
X78200001Y-67900001D03*
%TO.P,U8,12,BO1*%
X78200001Y-68550001D03*
%TO.P,U8,13,VM2*%
%TO.N,+BATT*%
X85200001Y-68550001D03*
%TO.P,U8,14,VM3*%
X85200001Y-67900001D03*
%TO.P,U8,15,PWMB*%
%TO.N,Net-(U1-PA16)*%
X85200001Y-67250001D03*
%TO.P,U8,16,BIN2*%
%TO.N,Net-(U1-PA15)*%
X85200001Y-66600001D03*
%TO.P,U8,17,BIN1*%
%TO.N,Net-(U1-PA14)*%
X85200001Y-65950001D03*
%TO.P,U8,18,GND*%
%TO.N,GND*%
X85200001Y-65300001D03*
%TO.P,U8,19,STBY*%
%TO.N,Net-(U1-PA13)*%
X85200001Y-64650001D03*
%TO.P,U8,20,Vcc*%
%TO.N,+3.3V*%
X85200001Y-64000001D03*
%TO.P,U8,21,AIN1*%
%TO.N,Net-(U1-PA12)*%
X85200001Y-63350001D03*
%TO.P,U8,22,AIN2*%
%TO.N,Net-(U1-PA11)*%
X85200001Y-62700001D03*
%TO.P,U8,23,PWMA*%
%TO.N,Net-(U1-PA10)*%
X85200001Y-62050001D03*
%TO.P,U8,24,VM1*%
%TO.N,+BATT*%
X85200001Y-61400001D03*
%TD*%
D24*
%TO.P,J3,1,Pin_1*%
%TO.N,Net-(J3-Pin_1)*%
X97407107Y-59492893D03*
D25*
%TO.P,J3,2,Pin_2*%
%TO.N,Net-(J3-Pin_2)*%
X96700000Y-60200000D03*
%TO.P,J3,3,Pin_3*%
%TO.N,Net-(J3-Pin_3)*%
X95992893Y-60907107D03*
%TO.P,J3,4,Pin_4*%
%TO.N,GND*%
X95285787Y-61614213D03*
%TO.P,J3,5,Pin_5*%
%TO.N,+3.3V*%
X94578680Y-62321320D03*
%TD*%
D26*
%TO.P,J1,1,1*%
%TO.N,+BATT*%
X99100000Y-44250000D03*
D27*
%TO.P,J1,2,2*%
%TO.N,GND*%
X101100000Y-44250000D03*
%TD*%
D28*
%TO.N,+BATT*%
X91400000Y-56400000D03*
X99100000Y-42700000D03*
X97200000Y-43200000D03*
X81800000Y-62200000D03*
X82100000Y-67240000D03*
X110600000Y-56600000D03*
%TO.N,GND*%
X94700000Y-88500000D03*
X98800000Y-81249000D03*
X76400000Y-62300000D03*
X103000000Y-67200000D03*
X76600000Y-67100000D03*
X102100000Y-85400000D03*
X103962501Y-76100000D03*
X102900000Y-70900000D03*
X120700002Y-63000000D03*
X81212500Y-59863462D03*
X120353768Y-67846232D03*
X98962502Y-77600001D03*
X102325004Y-77600001D03*
X122800000Y-65399000D03*
X124100000Y-64800000D03*
X97200000Y-45200000D03*
X82100000Y-64481000D03*
X121500000Y-60400000D03*
X79700000Y-62700000D03*
X123500000Y-69400000D03*
X88127000Y-69000000D03*
X120000000Y-69500000D03*
X100662502Y-76100000D03*
X78400000Y-69800000D03*
X104574363Y-82650437D03*
X100379894Y-80625000D03*
X101790292Y-86603996D03*
X94300000Y-60700000D03*
X110300000Y-69400000D03*
X101100000Y-42800000D03*
X88200000Y-59500000D03*
X97362501Y-76100000D03*
%TO.N,+3.3V*%
X102300000Y-67900000D03*
X98937500Y-76100000D03*
X104600000Y-83400000D03*
X89400000Y-70600000D03*
X110100000Y-72500000D03*
X93200000Y-61800000D03*
X86700465Y-63923123D03*
X81900000Y-63311000D03*
X100600002Y-77600001D03*
X97237500Y-77600001D03*
X102100000Y-80500000D03*
X95637499Y-76100000D03*
X114000000Y-58800000D03*
X79000000Y-71000000D03*
X105100000Y-74500000D03*
X108900000Y-70700000D03*
X97600000Y-80200000D03*
X102237499Y-76100000D03*
X106300000Y-70100000D03*
X81900000Y-68400000D03*
X87328000Y-60500000D03*
X103500000Y-85700000D03*
X103800000Y-66800000D03*
%TO.N,Net-(J2-VBUS)*%
X104525000Y-81380090D03*
X98900000Y-84200000D03*
%TO.N,Net-(Q1-G)*%
X104200000Y-78100000D03*
X120400000Y-63900000D03*
X114250000Y-65200000D03*
%TO.N,Net-(U1-PA13)*%
X83500000Y-71000000D03*
X94325000Y-80487181D03*
%TO.N,Net-(U1-PA22)*%
X107105281Y-73794719D03*
X105550000Y-79500000D03*
%TO.N,Net-(U1-PA25)*%
X99650003Y-82412500D03*
%TO.N,Net-(U1-PA24)*%
X98900000Y-82300000D03*
%TO.N,Net-(U1-PA11)*%
X86500000Y-62700000D03*
X93800000Y-79745790D03*
X94595277Y-78304723D03*
%TO.N,Net-(U1-PA12)*%
X102524339Y-86024339D03*
X87321501Y-64978500D03*
%TO.N,Net-(U1-PA15)*%
X97400000Y-87100000D03*
X87145276Y-70854724D03*
X86603738Y-66625952D03*
%TO.N,Net-(J3-Pin_3)*%
X102839798Y-80623300D03*
%TO.N,Net-(J3-Pin_2)*%
X103589643Y-80607963D03*
%TO.N,Net-(U1-PA16)*%
X86565929Y-67375000D03*
%TO.N,Net-(U1-PA10)*%
X103956374Y-86581124D03*
%TO.N,Net-(U1-PA14)*%
X84875000Y-69501001D03*
X82087500Y-66016640D03*
X93800000Y-78995787D03*
%TO.N,Net-(M3-+)*%
X79500000Y-60600000D03*
%TO.N,Net-(M4-+)*%
X79601000Y-65500075D03*
%TO.N,Net-(M3--)*%
X79800000Y-64100000D03*
%TO.N,Net-(M4--)*%
X79600000Y-67900000D03*
%TO.N,Net-(Q2-G)*%
X106200000Y-78900000D03*
%TO.N,Net-(D1-A)*%
X115550000Y-64675000D03*
X106200000Y-79900000D03*
%TD*%
D29*
%TO.N,+BATT*%
X114475135Y-60200000D02*
X110875135Y-56600000D01*
X110875135Y-56600000D02*
X110600000Y-56600000D01*
X113300000Y-69800000D02*
X113300000Y-68400000D01*
X82100000Y-67240000D02*
X82100000Y-67300000D01*
X113300000Y-61800000D02*
X114900000Y-60200000D01*
X82060000Y-67200000D02*
X81200000Y-67200000D01*
X81800000Y-62100000D02*
X82499999Y-61400001D01*
X85200001Y-58801001D02*
X85100000Y-58701000D01*
X89324865Y-56400000D02*
X91400000Y-56400000D01*
X81800000Y-62200000D02*
X81800000Y-62100000D01*
X82100000Y-67240000D02*
X82060000Y-67200000D01*
X82700001Y-67900001D02*
X85200001Y-67900001D01*
X85100000Y-58701000D02*
X87023865Y-58701000D01*
X114900000Y-64800000D02*
X113300000Y-63200000D01*
X114900000Y-60200000D02*
X114475135Y-60200000D01*
X83350001Y-68550001D02*
X82700001Y-67900001D01*
X85200001Y-61400001D02*
X85200001Y-58801001D01*
X111479898Y-71620102D02*
X113300000Y-69800000D01*
X82100000Y-67300000D02*
X82700001Y-67900001D01*
X81800000Y-62200000D02*
X81200000Y-62800000D01*
X113300000Y-63200000D02*
X113300000Y-61800000D01*
X114900000Y-66800000D02*
X114900000Y-64800000D01*
X99100000Y-44250000D02*
X99100000Y-42700000D01*
X81200000Y-67200000D02*
X82000000Y-67200000D01*
X107879898Y-71620102D02*
X111479898Y-71620102D01*
X81200000Y-62800000D02*
X81200000Y-67200000D01*
X82499999Y-61400001D02*
X85200001Y-61400001D01*
X85200001Y-68550001D02*
X83350001Y-68550001D01*
X113300000Y-68400000D02*
X114900000Y-66800000D01*
X87023865Y-58701000D02*
X89324865Y-56400000D01*
X84223999Y-58701000D02*
X87023865Y-58701000D01*
X83825000Y-59099999D02*
X84223999Y-58701000D01*
%TO.N,Net-(M1--)*%
X121649000Y-59349000D02*
X118551000Y-59349000D01*
X116650000Y-63200000D02*
X116650000Y-61250000D01*
X116650000Y-61250000D02*
X117700000Y-60200000D01*
X123400000Y-61100000D02*
X121649000Y-59349000D01*
X118551000Y-59349000D02*
X117700000Y-60200000D01*
%TO.N,GND*%
X120000000Y-68650000D02*
X120000000Y-69500000D01*
X120000000Y-62299998D02*
X120700002Y-63000000D01*
X79249999Y-63350001D02*
X78200001Y-63350001D01*
X123512500Y-70400000D02*
X123512500Y-69412500D01*
D30*
X103799997Y-88500001D02*
X101199997Y-88500001D01*
D29*
X120000000Y-62050000D02*
X120000000Y-62299998D01*
X79300002Y-62700000D02*
X79300001Y-62700001D01*
D30*
X98899997Y-88500001D02*
X96299997Y-88500001D01*
D29*
X101100000Y-44250000D02*
X101100000Y-42800000D01*
X101849999Y-85650001D02*
X102100000Y-85400000D01*
X79300001Y-62700001D02*
X78200001Y-62700001D01*
X78050000Y-67100000D02*
X78200001Y-67250001D01*
X79700000Y-62700000D02*
X79700000Y-62900000D01*
X88200000Y-59580240D02*
X89109880Y-60490120D01*
X79700000Y-62700000D02*
X79300002Y-62700000D01*
X83660002Y-65300001D02*
X85200001Y-65300001D01*
X88200000Y-59500000D02*
X88200000Y-59580240D01*
X79700000Y-62900000D02*
X79249999Y-63350001D01*
D30*
X96299997Y-88500001D02*
X94700000Y-88500000D01*
D29*
X123512500Y-69412500D02*
X123500000Y-69400000D01*
X101349997Y-85650001D02*
X101849999Y-85650001D01*
X82100000Y-64481000D02*
X82319000Y-64700000D01*
X76600000Y-67100000D02*
X78050000Y-67100000D01*
D30*
X101199997Y-88500001D02*
X98899997Y-88500001D01*
D29*
X82319000Y-64700000D02*
X83060001Y-64700000D01*
X123400000Y-64100000D02*
X124100000Y-64800000D01*
X76600000Y-67100000D02*
X77700002Y-67100000D01*
X83060001Y-64700000D02*
X83660002Y-65300001D01*
D30*
X94300000Y-60700000D02*
X95214213Y-61614213D01*
D29*
X77700002Y-67100000D02*
X78200001Y-66600001D01*
X81975963Y-59099999D02*
X81212500Y-59863462D01*
D30*
%TO.N,+3.3V*%
X93200000Y-61800000D02*
X93700000Y-62300000D01*
X87907798Y-61692202D02*
X87907798Y-61079798D01*
X79200000Y-71200000D02*
X79887500Y-71200000D01*
X86700465Y-63923123D02*
X86700462Y-63923123D01*
X93700000Y-62300000D02*
X94357360Y-62300000D01*
X86623584Y-64000001D02*
X85200001Y-64000001D01*
X79000000Y-71000000D02*
X79200000Y-71200000D01*
X86700462Y-63923123D02*
X86623584Y-64000001D01*
X87907798Y-61079798D02*
X87328000Y-60500000D01*
D29*
%TO.N,Net-(M2--)*%
X121649000Y-65949000D02*
X123400000Y-67700000D01*
X117700000Y-66800000D02*
X118551000Y-65949000D01*
X116650000Y-67850000D02*
X117700000Y-66800000D01*
X118551000Y-65949000D02*
X121649000Y-65949000D01*
X116650000Y-69800000D02*
X116650000Y-67850000D01*
%TO.N,Net-(J2-VBUS)*%
X105900000Y-77497546D02*
X105900000Y-73600000D01*
X104851000Y-78549000D02*
X105124000Y-78276000D01*
X105124000Y-78276000D02*
X105124000Y-78273545D01*
X98749997Y-84350003D02*
X98900000Y-84200000D01*
X105124000Y-78273545D02*
X105900000Y-77497546D01*
X104525000Y-81380090D02*
X104851000Y-81054090D01*
X98749997Y-85650001D02*
X98749997Y-84350003D01*
X104851000Y-81054090D02*
X104851000Y-78549000D01*
D30*
%TO.N,Net-(J2-D-)*%
X100687500Y-83712500D02*
X102100000Y-83712500D01*
X99399997Y-85000003D02*
X100687500Y-83712500D01*
X99399997Y-85650001D02*
X99399997Y-85000003D01*
%TO.N,Net-(J2-D+)*%
X100049997Y-85650001D02*
X100049997Y-84948001D01*
X102886500Y-84426000D02*
X103600000Y-83712500D01*
X100571998Y-84426000D02*
X102886500Y-84426000D01*
X100049997Y-84948001D02*
X100571998Y-84426000D01*
%TO.N,Net-(Q1-G)*%
X104800000Y-77500000D02*
X104800000Y-74943877D01*
X121575000Y-61725000D02*
X120000000Y-60150000D01*
X104200000Y-78100000D02*
X104800000Y-77500000D01*
X104574000Y-74717877D02*
X104574000Y-73828568D01*
X113202568Y-65200000D02*
X114250000Y-65200000D01*
X104574000Y-73828568D02*
X113202568Y-65200000D01*
X120400000Y-63900000D02*
X121525000Y-63900000D01*
X104800000Y-74943877D02*
X104574000Y-74717877D01*
X121575000Y-63850000D02*
X121575000Y-61725000D01*
%TO.N,Net-(U1-PA13)*%
X86150000Y-64650001D02*
X85200001Y-64650001D01*
X83500000Y-71000000D02*
X81912500Y-71000000D01*
X87129738Y-65629739D02*
X86150000Y-64650001D01*
X86187805Y-68976001D02*
X87129738Y-68034068D01*
X87129738Y-68034068D02*
X87129738Y-65629739D01*
X84656123Y-68976001D02*
X86187805Y-68976001D01*
X83500000Y-70132124D02*
X84656123Y-68976001D01*
X83500000Y-71000000D02*
X83500000Y-70132124D01*
%TO.N,Net-(U1-PA22)*%
X105550000Y-78450000D02*
X107105281Y-76894719D01*
X107105281Y-76894719D02*
X107105281Y-73794719D01*
X105550000Y-79500000D02*
X105550000Y-78450000D01*
%TO.N,Net-(U1-PA25)*%
X103600000Y-81887500D02*
X102886500Y-82601000D01*
X99838503Y-82601000D02*
X99650003Y-82412500D01*
X102886500Y-82601000D02*
X99838503Y-82601000D01*
%TO.N,Net-(U1-PA24)*%
X99312500Y-81887500D02*
X102100000Y-81887500D01*
X98900000Y-82300000D02*
X99312500Y-81887500D01*
%TO.N,Net-(U1-PA11)*%
X93800000Y-79745790D02*
X94595277Y-78950513D01*
X94595277Y-78950513D02*
X94595277Y-78304723D01*
X85200001Y-62700001D02*
X86500000Y-62700000D01*
%TO.N,Net-(U1-PA12)*%
X87321501Y-63800282D02*
X87321501Y-64978500D01*
X85200001Y-63350001D02*
X86871220Y-63350001D01*
X86871220Y-63350001D02*
X87321501Y-63800282D01*
%TO.N,Net-(U1-PA15)*%
X86603738Y-66625952D02*
X85225952Y-66625952D01*
X95125000Y-84825000D02*
X95125000Y-78075000D01*
X97400000Y-87100000D02*
X95125000Y-84825000D01*
X95125000Y-78075000D02*
X87904724Y-70854724D01*
X87904724Y-70854724D02*
X87145276Y-70854724D01*
%TO.N,Net-(J3-Pin_3)*%
X95992893Y-64848040D02*
X95992893Y-60907107D01*
X102211072Y-74189109D02*
X102211072Y-71066219D01*
X102851004Y-74829041D02*
X102211072Y-74189109D01*
X102851004Y-80612094D02*
X102851004Y-74829041D01*
X102211072Y-71066219D02*
X95992893Y-64848040D01*
X102839798Y-80623300D02*
X102851004Y-80612094D01*
%TO.N,Net-(J3-Pin_2)*%
X102600000Y-63700000D02*
X102555147Y-63700000D01*
X102555147Y-63700000D02*
X99480146Y-60624999D01*
X103400000Y-74243877D02*
X107598672Y-70045205D01*
X107598672Y-70045205D02*
X107598672Y-68698672D01*
X103589643Y-80607963D02*
X103400000Y-80418320D01*
X99480146Y-60624999D02*
X97124999Y-60624999D01*
X97124999Y-60624999D02*
X96700000Y-60200000D01*
X107598672Y-68698672D02*
X102600000Y-63700000D01*
X103400000Y-80418320D02*
X103400000Y-74243877D01*
%TO.N,Net-(U1-PA16)*%
X86565929Y-67375000D02*
X86440930Y-67250001D01*
X86440930Y-67250001D02*
X85200001Y-67250001D01*
%TO.N,Net-(U1-PA10)*%
X103931956Y-86605542D02*
X103394458Y-86605542D01*
X88800000Y-64256123D02*
X86593878Y-62050001D01*
X95426000Y-77926000D02*
X88800000Y-71300000D01*
X86593878Y-62050001D02*
X85200001Y-62050001D01*
X103956374Y-86581124D02*
X103931956Y-86605542D01*
X88800000Y-71300000D02*
X88800000Y-64256123D01*
X103394458Y-86605542D02*
X102870004Y-87129996D01*
X95426000Y-84226000D02*
X95426000Y-77926000D01*
X102870004Y-87129996D02*
X98329996Y-87129996D01*
X98329996Y-87129996D02*
X95426000Y-84226000D01*
%TO.N,Net-(U1-PA14)*%
X93800000Y-78251912D02*
X86972088Y-71424000D01*
X84875000Y-69576416D02*
X84875000Y-69501001D01*
X93800000Y-78995787D02*
X93800000Y-78251912D01*
X82087500Y-66016640D02*
X82116640Y-66016640D01*
X82183279Y-65950001D02*
X85200001Y-65950001D01*
X86972088Y-71424000D02*
X86722584Y-71424000D01*
X82116640Y-66016640D02*
X82183279Y-65950001D01*
X86722584Y-71424000D02*
X84875000Y-69576416D01*
%TO.N,Net-(M3-+)*%
X79150000Y-62050001D02*
X78200001Y-62050001D01*
X79500001Y-61700000D02*
X79150000Y-62050001D01*
X79200001Y-61400001D02*
X78200001Y-61400001D01*
X79500000Y-60600000D02*
X79500001Y-61700000D01*
X79500000Y-61100002D02*
X79200001Y-61400001D01*
X79500000Y-60600000D02*
X79500000Y-61100002D01*
%TO.N,Net-(M4-+)*%
X79601000Y-65500075D02*
X79601000Y-65599000D01*
X79300001Y-65300001D02*
X78200001Y-65300001D01*
X79500075Y-65500075D02*
X79300001Y-65300001D01*
X79249999Y-65950001D02*
X78200001Y-65950001D01*
X79601000Y-65599000D02*
X79249999Y-65950001D01*
X79601000Y-65500075D02*
X79500075Y-65500075D01*
%TO.N,Net-(M3--)*%
X79500000Y-64200000D02*
X79300001Y-64000001D01*
X79249999Y-64650001D02*
X78200001Y-64650001D01*
X79300001Y-64000001D02*
X78200001Y-64000001D01*
X79800000Y-64100000D02*
X79249999Y-64650001D01*
X79800000Y-64100000D02*
X79700000Y-64200000D01*
X79700000Y-64200000D02*
X79500000Y-64200000D01*
%TO.N,Net-(M4--)*%
X78200001Y-67900001D02*
X79600000Y-67900000D01*
X79600000Y-67900000D02*
X79600000Y-68200000D01*
X79600000Y-68200000D02*
X79249999Y-68550001D01*
X79249999Y-68550001D02*
X78200001Y-68550001D01*
%TO.N,Net-(Q2-G)*%
X106424000Y-78900000D02*
X106424000Y-78027911D01*
X106424000Y-78027911D02*
X113027912Y-71424000D01*
X106200000Y-78900000D02*
X106424000Y-78900000D01*
X113027912Y-71424000D02*
X120663500Y-71424000D01*
X120000000Y-66750000D02*
X121687500Y-68437500D01*
X120663500Y-71424000D02*
X121687500Y-70400000D01*
X121687500Y-68437500D02*
X121687500Y-70400000D01*
%TD*%
M02*
