%TF.GenerationSoftware,KiCad,Pcbnew,9.0.6*%
%TF.CreationDate,2026-03-25T12:31:12-04:00*%
%TF.ProjectId,newschematic,6e657773-6368-4656-9d61-7469632e6b69,0*%
%TF.SameCoordinates,Original*%
%TF.FileFunction,Legend,Bot*%
%TF.FilePolarity,Positive*%
%FSLAX46Y46*%
G04 Gerber Fmt 4.6, Leading zero omitted, Abs format (unit mm)*
G04 Created by KiCad (PCBNEW 9.0.6) date 2026-03-25 12:31:12*
%MOMM*%
%LPD*%
G01*
G04 APERTURE LIST*
%ADD10C,0.150000*%
%ADD11C,0.120000*%
%ADD12C,0.100000*%
G04 APERTURE END LIST*
D10*
X111439456Y-73203754D02*
X111338441Y-72631335D01*
X111843517Y-72799693D02*
X111136410Y-72092587D01*
X111136410Y-72092587D02*
X110867036Y-72361961D01*
X110867036Y-72361961D02*
X110833364Y-72462976D01*
X110833364Y-72462976D02*
X110833364Y-72530319D01*
X110833364Y-72530319D02*
X110867036Y-72631335D01*
X110867036Y-72631335D02*
X110968051Y-72732350D01*
X110968051Y-72732350D02*
X111069067Y-72766022D01*
X111069067Y-72766022D02*
X111136410Y-72766022D01*
X111136410Y-72766022D02*
X111237425Y-72732350D01*
X111237425Y-72732350D02*
X111506799Y-72462976D01*
X110496647Y-72732350D02*
X110058914Y-73170083D01*
X110058914Y-73170083D02*
X110563990Y-73203754D01*
X110563990Y-73203754D02*
X110462975Y-73304770D01*
X110462975Y-73304770D02*
X110429303Y-73405785D01*
X110429303Y-73405785D02*
X110429303Y-73473128D01*
X110429303Y-73473128D02*
X110462975Y-73574144D01*
X110462975Y-73574144D02*
X110631334Y-73742502D01*
X110631334Y-73742502D02*
X110732349Y-73776174D01*
X110732349Y-73776174D02*
X110799693Y-73776174D01*
X110799693Y-73776174D02*
X110900708Y-73742502D01*
X110900708Y-73742502D02*
X111102738Y-73540472D01*
X111102738Y-73540472D02*
X111136410Y-73439457D01*
X111136410Y-73439457D02*
X111136410Y-73372113D01*
X95666666Y-42259580D02*
X95714285Y-42307200D01*
X95714285Y-42307200D02*
X95857142Y-42354819D01*
X95857142Y-42354819D02*
X95952380Y-42354819D01*
X95952380Y-42354819D02*
X96095237Y-42307200D01*
X96095237Y-42307200D02*
X96190475Y-42211961D01*
X96190475Y-42211961D02*
X96238094Y-42116723D01*
X96238094Y-42116723D02*
X96285713Y-41926247D01*
X96285713Y-41926247D02*
X96285713Y-41783390D01*
X96285713Y-41783390D02*
X96238094Y-41592914D01*
X96238094Y-41592914D02*
X96190475Y-41497676D01*
X96190475Y-41497676D02*
X96095237Y-41402438D01*
X96095237Y-41402438D02*
X95952380Y-41354819D01*
X95952380Y-41354819D02*
X95857142Y-41354819D01*
X95857142Y-41354819D02*
X95714285Y-41402438D01*
X95714285Y-41402438D02*
X95666666Y-41450057D01*
X95333332Y-41354819D02*
X94666666Y-41354819D01*
X94666666Y-41354819D02*
X95095237Y-42354819D01*
X113572112Y-67636411D02*
X113639456Y-67636411D01*
X113639456Y-67636411D02*
X113774143Y-67569067D01*
X113774143Y-67569067D02*
X113841486Y-67501724D01*
X113841486Y-67501724D02*
X113908830Y-67367037D01*
X113908830Y-67367037D02*
X113908830Y-67232350D01*
X113908830Y-67232350D02*
X113875158Y-67131335D01*
X113875158Y-67131335D02*
X113774143Y-66962976D01*
X113774143Y-66962976D02*
X113673128Y-66861961D01*
X113673128Y-66861961D02*
X113504769Y-66760945D01*
X113504769Y-66760945D02*
X113403754Y-66727274D01*
X113403754Y-66727274D02*
X113269067Y-66727274D01*
X113269067Y-66727274D02*
X113134380Y-66794617D01*
X113134380Y-66794617D02*
X113067036Y-66861961D01*
X113067036Y-66861961D02*
X112999693Y-66996648D01*
X112999693Y-66996648D02*
X112999693Y-67063991D01*
X113302738Y-68040472D02*
X113168051Y-68175159D01*
X113168051Y-68175159D02*
X113067036Y-68208831D01*
X113067036Y-68208831D02*
X112999693Y-68208831D01*
X112999693Y-68208831D02*
X112831334Y-68175159D01*
X112831334Y-68175159D02*
X112662975Y-68074144D01*
X112662975Y-68074144D02*
X112393601Y-67804770D01*
X112393601Y-67804770D02*
X112359929Y-67703754D01*
X112359929Y-67703754D02*
X112359929Y-67636411D01*
X112359929Y-67636411D02*
X112393601Y-67535396D01*
X112393601Y-67535396D02*
X112528288Y-67400709D01*
X112528288Y-67400709D02*
X112629303Y-67367037D01*
X112629303Y-67367037D02*
X112696647Y-67367037D01*
X112696647Y-67367037D02*
X112797662Y-67400709D01*
X112797662Y-67400709D02*
X112966021Y-67569067D01*
X112966021Y-67569067D02*
X112999693Y-67670083D01*
X112999693Y-67670083D02*
X112999693Y-67737426D01*
X112999693Y-67737426D02*
X112966021Y-67838441D01*
X112966021Y-67838441D02*
X112831334Y-67973128D01*
X112831334Y-67973128D02*
X112730319Y-68006800D01*
X112730319Y-68006800D02*
X112662975Y-68006800D01*
X112662975Y-68006800D02*
X112561960Y-67973128D01*
X114038094Y-60054819D02*
X114038094Y-59054819D01*
X114038094Y-59054819D02*
X113799999Y-59054819D01*
X113799999Y-59054819D02*
X113657142Y-59102438D01*
X113657142Y-59102438D02*
X113561904Y-59197676D01*
X113561904Y-59197676D02*
X113514285Y-59292914D01*
X113514285Y-59292914D02*
X113466666Y-59483390D01*
X113466666Y-59483390D02*
X113466666Y-59626247D01*
X113466666Y-59626247D02*
X113514285Y-59816723D01*
X113514285Y-59816723D02*
X113561904Y-59911961D01*
X113561904Y-59911961D02*
X113657142Y-60007200D01*
X113657142Y-60007200D02*
X113799999Y-60054819D01*
X113799999Y-60054819D02*
X114038094Y-60054819D01*
X113085713Y-59150057D02*
X113038094Y-59102438D01*
X113038094Y-59102438D02*
X112942856Y-59054819D01*
X112942856Y-59054819D02*
X112704761Y-59054819D01*
X112704761Y-59054819D02*
X112609523Y-59102438D01*
X112609523Y-59102438D02*
X112561904Y-59150057D01*
X112561904Y-59150057D02*
X112514285Y-59245295D01*
X112514285Y-59245295D02*
X112514285Y-59340533D01*
X112514285Y-59340533D02*
X112561904Y-59483390D01*
X112561904Y-59483390D02*
X113133332Y-60054819D01*
X113133332Y-60054819D02*
X112514285Y-60054819D01*
X97942857Y-75259580D02*
X97990476Y-75307200D01*
X97990476Y-75307200D02*
X98133333Y-75354819D01*
X98133333Y-75354819D02*
X98228571Y-75354819D01*
X98228571Y-75354819D02*
X98371428Y-75307200D01*
X98371428Y-75307200D02*
X98466666Y-75211961D01*
X98466666Y-75211961D02*
X98514285Y-75116723D01*
X98514285Y-75116723D02*
X98561904Y-74926247D01*
X98561904Y-74926247D02*
X98561904Y-74783390D01*
X98561904Y-74783390D02*
X98514285Y-74592914D01*
X98514285Y-74592914D02*
X98466666Y-74497676D01*
X98466666Y-74497676D02*
X98371428Y-74402438D01*
X98371428Y-74402438D02*
X98228571Y-74354819D01*
X98228571Y-74354819D02*
X98133333Y-74354819D01*
X98133333Y-74354819D02*
X97990476Y-74402438D01*
X97990476Y-74402438D02*
X97942857Y-74450057D01*
X96990476Y-75354819D02*
X97561904Y-75354819D01*
X97276190Y-75354819D02*
X97276190Y-74354819D01*
X97276190Y-74354819D02*
X97371428Y-74497676D01*
X97371428Y-74497676D02*
X97466666Y-74592914D01*
X97466666Y-74592914D02*
X97561904Y-74640533D01*
X96371428Y-74354819D02*
X96276190Y-74354819D01*
X96276190Y-74354819D02*
X96180952Y-74402438D01*
X96180952Y-74402438D02*
X96133333Y-74450057D01*
X96133333Y-74450057D02*
X96085714Y-74545295D01*
X96085714Y-74545295D02*
X96038095Y-74735771D01*
X96038095Y-74735771D02*
X96038095Y-74973866D01*
X96038095Y-74973866D02*
X96085714Y-75164342D01*
X96085714Y-75164342D02*
X96133333Y-75259580D01*
X96133333Y-75259580D02*
X96180952Y-75307200D01*
X96180952Y-75307200D02*
X96276190Y-75354819D01*
X96276190Y-75354819D02*
X96371428Y-75354819D01*
X96371428Y-75354819D02*
X96466666Y-75307200D01*
X96466666Y-75307200D02*
X96514285Y-75259580D01*
X96514285Y-75259580D02*
X96561904Y-75164342D01*
X96561904Y-75164342D02*
X96609523Y-74973866D01*
X96609523Y-74973866D02*
X96609523Y-74735771D01*
X96609523Y-74735771D02*
X96561904Y-74545295D01*
X96561904Y-74545295D02*
X96514285Y-74450057D01*
X96514285Y-74450057D02*
X96466666Y-74402438D01*
X96466666Y-74402438D02*
X96371428Y-74354819D01*
X84461904Y-59954819D02*
X84461904Y-60764342D01*
X84461904Y-60764342D02*
X84414285Y-60859580D01*
X84414285Y-60859580D02*
X84366666Y-60907200D01*
X84366666Y-60907200D02*
X84271428Y-60954819D01*
X84271428Y-60954819D02*
X84080952Y-60954819D01*
X84080952Y-60954819D02*
X83985714Y-60907200D01*
X83985714Y-60907200D02*
X83938095Y-60859580D01*
X83938095Y-60859580D02*
X83890476Y-60764342D01*
X83890476Y-60764342D02*
X83890476Y-59954819D01*
X83461904Y-60050057D02*
X83414285Y-60002438D01*
X83414285Y-60002438D02*
X83319047Y-59954819D01*
X83319047Y-59954819D02*
X83080952Y-59954819D01*
X83080952Y-59954819D02*
X82985714Y-60002438D01*
X82985714Y-60002438D02*
X82938095Y-60050057D01*
X82938095Y-60050057D02*
X82890476Y-60145295D01*
X82890476Y-60145295D02*
X82890476Y-60240533D01*
X82890476Y-60240533D02*
X82938095Y-60383390D01*
X82938095Y-60383390D02*
X83509523Y-60954819D01*
X83509523Y-60954819D02*
X82890476Y-60954819D01*
X89542857Y-70954819D02*
X89876190Y-70478628D01*
X90114285Y-70954819D02*
X90114285Y-69954819D01*
X90114285Y-69954819D02*
X89733333Y-69954819D01*
X89733333Y-69954819D02*
X89638095Y-70002438D01*
X89638095Y-70002438D02*
X89590476Y-70050057D01*
X89590476Y-70050057D02*
X89542857Y-70145295D01*
X89542857Y-70145295D02*
X89542857Y-70288152D01*
X89542857Y-70288152D02*
X89590476Y-70383390D01*
X89590476Y-70383390D02*
X89638095Y-70431009D01*
X89638095Y-70431009D02*
X89733333Y-70478628D01*
X89733333Y-70478628D02*
X90114285Y-70478628D01*
X88590476Y-70954819D02*
X89161904Y-70954819D01*
X88876190Y-70954819D02*
X88876190Y-69954819D01*
X88876190Y-69954819D02*
X88971428Y-70097676D01*
X88971428Y-70097676D02*
X89066666Y-70192914D01*
X89066666Y-70192914D02*
X89161904Y-70240533D01*
X87971428Y-69954819D02*
X87876190Y-69954819D01*
X87876190Y-69954819D02*
X87780952Y-70002438D01*
X87780952Y-70002438D02*
X87733333Y-70050057D01*
X87733333Y-70050057D02*
X87685714Y-70145295D01*
X87685714Y-70145295D02*
X87638095Y-70335771D01*
X87638095Y-70335771D02*
X87638095Y-70573866D01*
X87638095Y-70573866D02*
X87685714Y-70764342D01*
X87685714Y-70764342D02*
X87733333Y-70859580D01*
X87733333Y-70859580D02*
X87780952Y-70907200D01*
X87780952Y-70907200D02*
X87876190Y-70954819D01*
X87876190Y-70954819D02*
X87971428Y-70954819D01*
X87971428Y-70954819D02*
X88066666Y-70907200D01*
X88066666Y-70907200D02*
X88114285Y-70859580D01*
X88114285Y-70859580D02*
X88161904Y-70764342D01*
X88161904Y-70764342D02*
X88209523Y-70573866D01*
X88209523Y-70573866D02*
X88209523Y-70335771D01*
X88209523Y-70335771D02*
X88161904Y-70145295D01*
X88161904Y-70145295D02*
X88114285Y-70050057D01*
X88114285Y-70050057D02*
X88066666Y-70002438D01*
X88066666Y-70002438D02*
X87971428Y-69954819D01*
X101661904Y-68254819D02*
X101661904Y-69064342D01*
X101661904Y-69064342D02*
X101614285Y-69159580D01*
X101614285Y-69159580D02*
X101566666Y-69207200D01*
X101566666Y-69207200D02*
X101471428Y-69254819D01*
X101471428Y-69254819D02*
X101280952Y-69254819D01*
X101280952Y-69254819D02*
X101185714Y-69207200D01*
X101185714Y-69207200D02*
X101138095Y-69159580D01*
X101138095Y-69159580D02*
X101090476Y-69064342D01*
X101090476Y-69064342D02*
X101090476Y-68254819D01*
X100185714Y-68254819D02*
X100376190Y-68254819D01*
X100376190Y-68254819D02*
X100471428Y-68302438D01*
X100471428Y-68302438D02*
X100519047Y-68350057D01*
X100519047Y-68350057D02*
X100614285Y-68492914D01*
X100614285Y-68492914D02*
X100661904Y-68683390D01*
X100661904Y-68683390D02*
X100661904Y-69064342D01*
X100661904Y-69064342D02*
X100614285Y-69159580D01*
X100614285Y-69159580D02*
X100566666Y-69207200D01*
X100566666Y-69207200D02*
X100471428Y-69254819D01*
X100471428Y-69254819D02*
X100280952Y-69254819D01*
X100280952Y-69254819D02*
X100185714Y-69207200D01*
X100185714Y-69207200D02*
X100138095Y-69159580D01*
X100138095Y-69159580D02*
X100090476Y-69064342D01*
X100090476Y-69064342D02*
X100090476Y-68826247D01*
X100090476Y-68826247D02*
X100138095Y-68731009D01*
X100138095Y-68731009D02*
X100185714Y-68683390D01*
X100185714Y-68683390D02*
X100280952Y-68635771D01*
X100280952Y-68635771D02*
X100471428Y-68635771D01*
X100471428Y-68635771D02*
X100566666Y-68683390D01*
X100566666Y-68683390D02*
X100614285Y-68731009D01*
X100614285Y-68731009D02*
X100661904Y-68826247D01*
X119842857Y-69859580D02*
X119890476Y-69907200D01*
X119890476Y-69907200D02*
X120033333Y-69954819D01*
X120033333Y-69954819D02*
X120128571Y-69954819D01*
X120128571Y-69954819D02*
X120271428Y-69907200D01*
X120271428Y-69907200D02*
X120366666Y-69811961D01*
X120366666Y-69811961D02*
X120414285Y-69716723D01*
X120414285Y-69716723D02*
X120461904Y-69526247D01*
X120461904Y-69526247D02*
X120461904Y-69383390D01*
X120461904Y-69383390D02*
X120414285Y-69192914D01*
X120414285Y-69192914D02*
X120366666Y-69097676D01*
X120366666Y-69097676D02*
X120271428Y-69002438D01*
X120271428Y-69002438D02*
X120128571Y-68954819D01*
X120128571Y-68954819D02*
X120033333Y-68954819D01*
X120033333Y-68954819D02*
X119890476Y-69002438D01*
X119890476Y-69002438D02*
X119842857Y-69050057D01*
X118890476Y-69954819D02*
X119461904Y-69954819D01*
X119176190Y-69954819D02*
X119176190Y-68954819D01*
X119176190Y-68954819D02*
X119271428Y-69097676D01*
X119271428Y-69097676D02*
X119366666Y-69192914D01*
X119366666Y-69192914D02*
X119461904Y-69240533D01*
X118557142Y-68954819D02*
X117938095Y-68954819D01*
X117938095Y-68954819D02*
X118271428Y-69335771D01*
X118271428Y-69335771D02*
X118128571Y-69335771D01*
X118128571Y-69335771D02*
X118033333Y-69383390D01*
X118033333Y-69383390D02*
X117985714Y-69431009D01*
X117985714Y-69431009D02*
X117938095Y-69526247D01*
X117938095Y-69526247D02*
X117938095Y-69764342D01*
X117938095Y-69764342D02*
X117985714Y-69859580D01*
X117985714Y-69859580D02*
X118033333Y-69907200D01*
X118033333Y-69907200D02*
X118128571Y-69954819D01*
X118128571Y-69954819D02*
X118414285Y-69954819D01*
X118414285Y-69954819D02*
X118509523Y-69907200D01*
X118509523Y-69907200D02*
X118557142Y-69859580D01*
X94066666Y-76459580D02*
X94114285Y-76507200D01*
X94114285Y-76507200D02*
X94257142Y-76554819D01*
X94257142Y-76554819D02*
X94352380Y-76554819D01*
X94352380Y-76554819D02*
X94495237Y-76507200D01*
X94495237Y-76507200D02*
X94590475Y-76411961D01*
X94590475Y-76411961D02*
X94638094Y-76316723D01*
X94638094Y-76316723D02*
X94685713Y-76126247D01*
X94685713Y-76126247D02*
X94685713Y-75983390D01*
X94685713Y-75983390D02*
X94638094Y-75792914D01*
X94638094Y-75792914D02*
X94590475Y-75697676D01*
X94590475Y-75697676D02*
X94495237Y-75602438D01*
X94495237Y-75602438D02*
X94352380Y-75554819D01*
X94352380Y-75554819D02*
X94257142Y-75554819D01*
X94257142Y-75554819D02*
X94114285Y-75602438D01*
X94114285Y-75602438D02*
X94066666Y-75650057D01*
X93733332Y-75554819D02*
X93114285Y-75554819D01*
X93114285Y-75554819D02*
X93447618Y-75935771D01*
X93447618Y-75935771D02*
X93304761Y-75935771D01*
X93304761Y-75935771D02*
X93209523Y-75983390D01*
X93209523Y-75983390D02*
X93161904Y-76031009D01*
X93161904Y-76031009D02*
X93114285Y-76126247D01*
X93114285Y-76126247D02*
X93114285Y-76364342D01*
X93114285Y-76364342D02*
X93161904Y-76459580D01*
X93161904Y-76459580D02*
X93209523Y-76507200D01*
X93209523Y-76507200D02*
X93304761Y-76554819D01*
X93304761Y-76554819D02*
X93590475Y-76554819D01*
X93590475Y-76554819D02*
X93685713Y-76507200D01*
X93685713Y-76507200D02*
X93733332Y-76459580D01*
X104166666Y-77959580D02*
X104214285Y-78007200D01*
X104214285Y-78007200D02*
X104357142Y-78054819D01*
X104357142Y-78054819D02*
X104452380Y-78054819D01*
X104452380Y-78054819D02*
X104595237Y-78007200D01*
X104595237Y-78007200D02*
X104690475Y-77911961D01*
X104690475Y-77911961D02*
X104738094Y-77816723D01*
X104738094Y-77816723D02*
X104785713Y-77626247D01*
X104785713Y-77626247D02*
X104785713Y-77483390D01*
X104785713Y-77483390D02*
X104738094Y-77292914D01*
X104738094Y-77292914D02*
X104690475Y-77197676D01*
X104690475Y-77197676D02*
X104595237Y-77102438D01*
X104595237Y-77102438D02*
X104452380Y-77054819D01*
X104452380Y-77054819D02*
X104357142Y-77054819D01*
X104357142Y-77054819D02*
X104214285Y-77102438D01*
X104214285Y-77102438D02*
X104166666Y-77150057D01*
X103309523Y-77388152D02*
X103309523Y-78054819D01*
X103547618Y-77007200D02*
X103785713Y-77721485D01*
X103785713Y-77721485D02*
X103166666Y-77721485D01*
X91666666Y-59759580D02*
X91714285Y-59807200D01*
X91714285Y-59807200D02*
X91857142Y-59854819D01*
X91857142Y-59854819D02*
X91952380Y-59854819D01*
X91952380Y-59854819D02*
X92095237Y-59807200D01*
X92095237Y-59807200D02*
X92190475Y-59711961D01*
X92190475Y-59711961D02*
X92238094Y-59616723D01*
X92238094Y-59616723D02*
X92285713Y-59426247D01*
X92285713Y-59426247D02*
X92285713Y-59283390D01*
X92285713Y-59283390D02*
X92238094Y-59092914D01*
X92238094Y-59092914D02*
X92190475Y-58997676D01*
X92190475Y-58997676D02*
X92095237Y-58902438D01*
X92095237Y-58902438D02*
X91952380Y-58854819D01*
X91952380Y-58854819D02*
X91857142Y-58854819D01*
X91857142Y-58854819D02*
X91714285Y-58902438D01*
X91714285Y-58902438D02*
X91666666Y-58950057D01*
X90809523Y-58854819D02*
X90999999Y-58854819D01*
X90999999Y-58854819D02*
X91095237Y-58902438D01*
X91095237Y-58902438D02*
X91142856Y-58950057D01*
X91142856Y-58950057D02*
X91238094Y-59092914D01*
X91238094Y-59092914D02*
X91285713Y-59283390D01*
X91285713Y-59283390D02*
X91285713Y-59664342D01*
X91285713Y-59664342D02*
X91238094Y-59759580D01*
X91238094Y-59759580D02*
X91190475Y-59807200D01*
X91190475Y-59807200D02*
X91095237Y-59854819D01*
X91095237Y-59854819D02*
X90904761Y-59854819D01*
X90904761Y-59854819D02*
X90809523Y-59807200D01*
X90809523Y-59807200D02*
X90761904Y-59759580D01*
X90761904Y-59759580D02*
X90714285Y-59664342D01*
X90714285Y-59664342D02*
X90714285Y-59426247D01*
X90714285Y-59426247D02*
X90761904Y-59331009D01*
X90761904Y-59331009D02*
X90809523Y-59283390D01*
X90809523Y-59283390D02*
X90904761Y-59235771D01*
X90904761Y-59235771D02*
X91095237Y-59235771D01*
X91095237Y-59235771D02*
X91190475Y-59283390D01*
X91190475Y-59283390D02*
X91238094Y-59331009D01*
X91238094Y-59331009D02*
X91285713Y-59426247D01*
X106642857Y-76559580D02*
X106690476Y-76607200D01*
X106690476Y-76607200D02*
X106833333Y-76654819D01*
X106833333Y-76654819D02*
X106928571Y-76654819D01*
X106928571Y-76654819D02*
X107071428Y-76607200D01*
X107071428Y-76607200D02*
X107166666Y-76511961D01*
X107166666Y-76511961D02*
X107214285Y-76416723D01*
X107214285Y-76416723D02*
X107261904Y-76226247D01*
X107261904Y-76226247D02*
X107261904Y-76083390D01*
X107261904Y-76083390D02*
X107214285Y-75892914D01*
X107214285Y-75892914D02*
X107166666Y-75797676D01*
X107166666Y-75797676D02*
X107071428Y-75702438D01*
X107071428Y-75702438D02*
X106928571Y-75654819D01*
X106928571Y-75654819D02*
X106833333Y-75654819D01*
X106833333Y-75654819D02*
X106690476Y-75702438D01*
X106690476Y-75702438D02*
X106642857Y-75750057D01*
X105690476Y-76654819D02*
X106261904Y-76654819D01*
X105976190Y-76654819D02*
X105976190Y-75654819D01*
X105976190Y-75654819D02*
X106071428Y-75797676D01*
X106071428Y-75797676D02*
X106166666Y-75892914D01*
X106166666Y-75892914D02*
X106261904Y-75940533D01*
X105357142Y-75654819D02*
X104690476Y-75654819D01*
X104690476Y-75654819D02*
X105119047Y-76654819D01*
X112472111Y-66736411D02*
X112539455Y-66736411D01*
X112539455Y-66736411D02*
X112674142Y-66669067D01*
X112674142Y-66669067D02*
X112741485Y-66601724D01*
X112741485Y-66601724D02*
X112808829Y-66467037D01*
X112808829Y-66467037D02*
X112808829Y-66332350D01*
X112808829Y-66332350D02*
X112775157Y-66231335D01*
X112775157Y-66231335D02*
X112674142Y-66062976D01*
X112674142Y-66062976D02*
X112573127Y-65961961D01*
X112573127Y-65961961D02*
X112404768Y-65860945D01*
X112404768Y-65860945D02*
X112303753Y-65827274D01*
X112303753Y-65827274D02*
X112169066Y-65827274D01*
X112169066Y-65827274D02*
X112034379Y-65894617D01*
X112034379Y-65894617D02*
X111967035Y-65961961D01*
X111967035Y-65961961D02*
X111899692Y-66096648D01*
X111899692Y-66096648D02*
X111899692Y-66163991D01*
X111731333Y-66803754D02*
X111765005Y-66702739D01*
X111765005Y-66702739D02*
X111765005Y-66635396D01*
X111765005Y-66635396D02*
X111731333Y-66534380D01*
X111731333Y-66534380D02*
X111697661Y-66500709D01*
X111697661Y-66500709D02*
X111596646Y-66467037D01*
X111596646Y-66467037D02*
X111529302Y-66467037D01*
X111529302Y-66467037D02*
X111428287Y-66500709D01*
X111428287Y-66500709D02*
X111293600Y-66635396D01*
X111293600Y-66635396D02*
X111259928Y-66736411D01*
X111259928Y-66736411D02*
X111259928Y-66803754D01*
X111259928Y-66803754D02*
X111293600Y-66904770D01*
X111293600Y-66904770D02*
X111327272Y-66938441D01*
X111327272Y-66938441D02*
X111428287Y-66972113D01*
X111428287Y-66972113D02*
X111495631Y-66972113D01*
X111495631Y-66972113D02*
X111596646Y-66938441D01*
X111596646Y-66938441D02*
X111731333Y-66803754D01*
X111731333Y-66803754D02*
X111832348Y-66770083D01*
X111832348Y-66770083D02*
X111899692Y-66770083D01*
X111899692Y-66770083D02*
X112000707Y-66803754D01*
X112000707Y-66803754D02*
X112135394Y-66938441D01*
X112135394Y-66938441D02*
X112169066Y-67039457D01*
X112169066Y-67039457D02*
X112169066Y-67106800D01*
X112169066Y-67106800D02*
X112135394Y-67207815D01*
X112135394Y-67207815D02*
X112000707Y-67342502D01*
X112000707Y-67342502D02*
X111899692Y-67376174D01*
X111899692Y-67376174D02*
X111832348Y-67376174D01*
X111832348Y-67376174D02*
X111731333Y-67342502D01*
X111731333Y-67342502D02*
X111596646Y-67207815D01*
X111596646Y-67207815D02*
X111562974Y-67106800D01*
X111562974Y-67106800D02*
X111562974Y-67039457D01*
X111562974Y-67039457D02*
X111596646Y-66938441D01*
X110639456Y-68503755D02*
X110538441Y-67931336D01*
X111043517Y-68099694D02*
X110336410Y-67392588D01*
X110336410Y-67392588D02*
X110067036Y-67661962D01*
X110067036Y-67661962D02*
X110033364Y-67762977D01*
X110033364Y-67762977D02*
X110033364Y-67830320D01*
X110033364Y-67830320D02*
X110067036Y-67931336D01*
X110067036Y-67931336D02*
X110168051Y-68032351D01*
X110168051Y-68032351D02*
X110269067Y-68066023D01*
X110269067Y-68066023D02*
X110336410Y-68066023D01*
X110336410Y-68066023D02*
X110437425Y-68032351D01*
X110437425Y-68032351D02*
X110706799Y-67762977D01*
X109326258Y-68402740D02*
X109460945Y-68268053D01*
X109460945Y-68268053D02*
X109561960Y-68234381D01*
X109561960Y-68234381D02*
X109629303Y-68234381D01*
X109629303Y-68234381D02*
X109797662Y-68268053D01*
X109797662Y-68268053D02*
X109966021Y-68369068D01*
X109966021Y-68369068D02*
X110235395Y-68638442D01*
X110235395Y-68638442D02*
X110269067Y-68739458D01*
X110269067Y-68739458D02*
X110269067Y-68806801D01*
X110269067Y-68806801D02*
X110235395Y-68907816D01*
X110235395Y-68907816D02*
X110100708Y-69042503D01*
X110100708Y-69042503D02*
X109999693Y-69076175D01*
X109999693Y-69076175D02*
X109932349Y-69076175D01*
X109932349Y-69076175D02*
X109831334Y-69042503D01*
X109831334Y-69042503D02*
X109662975Y-68874145D01*
X109662975Y-68874145D02*
X109629303Y-68773129D01*
X109629303Y-68773129D02*
X109629303Y-68705786D01*
X109629303Y-68705786D02*
X109662975Y-68604771D01*
X109662975Y-68604771D02*
X109797662Y-68470084D01*
X109797662Y-68470084D02*
X109898677Y-68436412D01*
X109898677Y-68436412D02*
X109966021Y-68436412D01*
X109966021Y-68436412D02*
X110067036Y-68470084D01*
X100233333Y-58954819D02*
X100233333Y-59669104D01*
X100233333Y-59669104D02*
X100280952Y-59811961D01*
X100280952Y-59811961D02*
X100376190Y-59907200D01*
X100376190Y-59907200D02*
X100519047Y-59954819D01*
X100519047Y-59954819D02*
X100614285Y-59954819D01*
X99852380Y-58954819D02*
X99233333Y-58954819D01*
X99233333Y-58954819D02*
X99566666Y-59335771D01*
X99566666Y-59335771D02*
X99423809Y-59335771D01*
X99423809Y-59335771D02*
X99328571Y-59383390D01*
X99328571Y-59383390D02*
X99280952Y-59431009D01*
X99280952Y-59431009D02*
X99233333Y-59526247D01*
X99233333Y-59526247D02*
X99233333Y-59764342D01*
X99233333Y-59764342D02*
X99280952Y-59859580D01*
X99280952Y-59859580D02*
X99328571Y-59907200D01*
X99328571Y-59907200D02*
X99423809Y-59954819D01*
X99423809Y-59954819D02*
X99709523Y-59954819D01*
X99709523Y-59954819D02*
X99804761Y-59907200D01*
X99804761Y-59907200D02*
X99852380Y-59859580D01*
X123542857Y-59854819D02*
X123876190Y-59378628D01*
X124114285Y-59854819D02*
X124114285Y-58854819D01*
X124114285Y-58854819D02*
X123733333Y-58854819D01*
X123733333Y-58854819D02*
X123638095Y-58902438D01*
X123638095Y-58902438D02*
X123590476Y-58950057D01*
X123590476Y-58950057D02*
X123542857Y-59045295D01*
X123542857Y-59045295D02*
X123542857Y-59188152D01*
X123542857Y-59188152D02*
X123590476Y-59283390D01*
X123590476Y-59283390D02*
X123638095Y-59331009D01*
X123638095Y-59331009D02*
X123733333Y-59378628D01*
X123733333Y-59378628D02*
X124114285Y-59378628D01*
X122590476Y-59854819D02*
X123161904Y-59854819D01*
X122876190Y-59854819D02*
X122876190Y-58854819D01*
X122876190Y-58854819D02*
X122971428Y-58997676D01*
X122971428Y-58997676D02*
X123066666Y-59092914D01*
X123066666Y-59092914D02*
X123161904Y-59140533D01*
X122209523Y-58950057D02*
X122161904Y-58902438D01*
X122161904Y-58902438D02*
X122066666Y-58854819D01*
X122066666Y-58854819D02*
X121828571Y-58854819D01*
X121828571Y-58854819D02*
X121733333Y-58902438D01*
X121733333Y-58902438D02*
X121685714Y-58950057D01*
X121685714Y-58950057D02*
X121638095Y-59045295D01*
X121638095Y-59045295D02*
X121638095Y-59140533D01*
X121638095Y-59140533D02*
X121685714Y-59283390D01*
X121685714Y-59283390D02*
X122257142Y-59854819D01*
X122257142Y-59854819D02*
X121638095Y-59854819D01*
X95666666Y-77959580D02*
X95714285Y-78007200D01*
X95714285Y-78007200D02*
X95857142Y-78054819D01*
X95857142Y-78054819D02*
X95952380Y-78054819D01*
X95952380Y-78054819D02*
X96095237Y-78007200D01*
X96095237Y-78007200D02*
X96190475Y-77911961D01*
X96190475Y-77911961D02*
X96238094Y-77816723D01*
X96238094Y-77816723D02*
X96285713Y-77626247D01*
X96285713Y-77626247D02*
X96285713Y-77483390D01*
X96285713Y-77483390D02*
X96238094Y-77292914D01*
X96238094Y-77292914D02*
X96190475Y-77197676D01*
X96190475Y-77197676D02*
X96095237Y-77102438D01*
X96095237Y-77102438D02*
X95952380Y-77054819D01*
X95952380Y-77054819D02*
X95857142Y-77054819D01*
X95857142Y-77054819D02*
X95714285Y-77102438D01*
X95714285Y-77102438D02*
X95666666Y-77150057D01*
X95285713Y-77150057D02*
X95238094Y-77102438D01*
X95238094Y-77102438D02*
X95142856Y-77054819D01*
X95142856Y-77054819D02*
X94904761Y-77054819D01*
X94904761Y-77054819D02*
X94809523Y-77102438D01*
X94809523Y-77102438D02*
X94761904Y-77150057D01*
X94761904Y-77150057D02*
X94714285Y-77245295D01*
X94714285Y-77245295D02*
X94714285Y-77340533D01*
X94714285Y-77340533D02*
X94761904Y-77483390D01*
X94761904Y-77483390D02*
X95333332Y-78054819D01*
X95333332Y-78054819D02*
X94714285Y-78054819D01*
X123442857Y-61754819D02*
X123776190Y-61278628D01*
X124014285Y-61754819D02*
X124014285Y-60754819D01*
X124014285Y-60754819D02*
X123633333Y-60754819D01*
X123633333Y-60754819D02*
X123538095Y-60802438D01*
X123538095Y-60802438D02*
X123490476Y-60850057D01*
X123490476Y-60850057D02*
X123442857Y-60945295D01*
X123442857Y-60945295D02*
X123442857Y-61088152D01*
X123442857Y-61088152D02*
X123490476Y-61183390D01*
X123490476Y-61183390D02*
X123538095Y-61231009D01*
X123538095Y-61231009D02*
X123633333Y-61278628D01*
X123633333Y-61278628D02*
X124014285Y-61278628D01*
X122490476Y-61754819D02*
X123061904Y-61754819D01*
X122776190Y-61754819D02*
X122776190Y-60754819D01*
X122776190Y-60754819D02*
X122871428Y-60897676D01*
X122871428Y-60897676D02*
X122966666Y-60992914D01*
X122966666Y-60992914D02*
X123061904Y-61040533D01*
X121538095Y-61754819D02*
X122109523Y-61754819D01*
X121823809Y-61754819D02*
X121823809Y-60754819D01*
X121823809Y-60754819D02*
X121919047Y-60897676D01*
X121919047Y-60897676D02*
X122014285Y-60992914D01*
X122014285Y-60992914D02*
X122109523Y-61040533D01*
X114138094Y-61754819D02*
X114138094Y-60754819D01*
X114138094Y-60754819D02*
X113899999Y-60754819D01*
X113899999Y-60754819D02*
X113757142Y-60802438D01*
X113757142Y-60802438D02*
X113661904Y-60897676D01*
X113661904Y-60897676D02*
X113614285Y-60992914D01*
X113614285Y-60992914D02*
X113566666Y-61183390D01*
X113566666Y-61183390D02*
X113566666Y-61326247D01*
X113566666Y-61326247D02*
X113614285Y-61516723D01*
X113614285Y-61516723D02*
X113661904Y-61611961D01*
X113661904Y-61611961D02*
X113757142Y-61707200D01*
X113757142Y-61707200D02*
X113899999Y-61754819D01*
X113899999Y-61754819D02*
X114138094Y-61754819D01*
X112614285Y-61754819D02*
X113185713Y-61754819D01*
X112899999Y-61754819D02*
X112899999Y-60754819D01*
X112899999Y-60754819D02*
X112995237Y-60897676D01*
X112995237Y-60897676D02*
X113090475Y-60992914D01*
X113090475Y-60992914D02*
X113185713Y-61040533D01*
X87866666Y-65554819D02*
X88199999Y-65078628D01*
X88438094Y-65554819D02*
X88438094Y-64554819D01*
X88438094Y-64554819D02*
X88057142Y-64554819D01*
X88057142Y-64554819D02*
X87961904Y-64602438D01*
X87961904Y-64602438D02*
X87914285Y-64650057D01*
X87914285Y-64650057D02*
X87866666Y-64745295D01*
X87866666Y-64745295D02*
X87866666Y-64888152D01*
X87866666Y-64888152D02*
X87914285Y-64983390D01*
X87914285Y-64983390D02*
X87961904Y-65031009D01*
X87961904Y-65031009D02*
X88057142Y-65078628D01*
X88057142Y-65078628D02*
X88438094Y-65078628D01*
X87390475Y-65554819D02*
X87199999Y-65554819D01*
X87199999Y-65554819D02*
X87104761Y-65507200D01*
X87104761Y-65507200D02*
X87057142Y-65459580D01*
X87057142Y-65459580D02*
X86961904Y-65316723D01*
X86961904Y-65316723D02*
X86914285Y-65126247D01*
X86914285Y-65126247D02*
X86914285Y-64745295D01*
X86914285Y-64745295D02*
X86961904Y-64650057D01*
X86961904Y-64650057D02*
X87009523Y-64602438D01*
X87009523Y-64602438D02*
X87104761Y-64554819D01*
X87104761Y-64554819D02*
X87295237Y-64554819D01*
X87295237Y-64554819D02*
X87390475Y-64602438D01*
X87390475Y-64602438D02*
X87438094Y-64650057D01*
X87438094Y-64650057D02*
X87485713Y-64745295D01*
X87485713Y-64745295D02*
X87485713Y-64983390D01*
X87485713Y-64983390D02*
X87438094Y-65078628D01*
X87438094Y-65078628D02*
X87390475Y-65126247D01*
X87390475Y-65126247D02*
X87295237Y-65173866D01*
X87295237Y-65173866D02*
X87104761Y-65173866D01*
X87104761Y-65173866D02*
X87009523Y-65126247D01*
X87009523Y-65126247D02*
X86961904Y-65078628D01*
X86961904Y-65078628D02*
X86914285Y-64983390D01*
X78442857Y-69959580D02*
X78490476Y-70007200D01*
X78490476Y-70007200D02*
X78633333Y-70054819D01*
X78633333Y-70054819D02*
X78728571Y-70054819D01*
X78728571Y-70054819D02*
X78871428Y-70007200D01*
X78871428Y-70007200D02*
X78966666Y-69911961D01*
X78966666Y-69911961D02*
X79014285Y-69816723D01*
X79014285Y-69816723D02*
X79061904Y-69626247D01*
X79061904Y-69626247D02*
X79061904Y-69483390D01*
X79061904Y-69483390D02*
X79014285Y-69292914D01*
X79014285Y-69292914D02*
X78966666Y-69197676D01*
X78966666Y-69197676D02*
X78871428Y-69102438D01*
X78871428Y-69102438D02*
X78728571Y-69054819D01*
X78728571Y-69054819D02*
X78633333Y-69054819D01*
X78633333Y-69054819D02*
X78490476Y-69102438D01*
X78490476Y-69102438D02*
X78442857Y-69150057D01*
X77490476Y-70054819D02*
X78061904Y-70054819D01*
X77776190Y-70054819D02*
X77776190Y-69054819D01*
X77776190Y-69054819D02*
X77871428Y-69197676D01*
X77871428Y-69197676D02*
X77966666Y-69292914D01*
X77966666Y-69292914D02*
X78061904Y-69340533D01*
X77109523Y-69150057D02*
X77061904Y-69102438D01*
X77061904Y-69102438D02*
X76966666Y-69054819D01*
X76966666Y-69054819D02*
X76728571Y-69054819D01*
X76728571Y-69054819D02*
X76633333Y-69102438D01*
X76633333Y-69102438D02*
X76585714Y-69150057D01*
X76585714Y-69150057D02*
X76538095Y-69245295D01*
X76538095Y-69245295D02*
X76538095Y-69340533D01*
X76538095Y-69340533D02*
X76585714Y-69483390D01*
X76585714Y-69483390D02*
X77157142Y-70054819D01*
X77157142Y-70054819D02*
X76538095Y-70054819D01*
X106461904Y-87454819D02*
X106461904Y-88264342D01*
X106461904Y-88264342D02*
X106414285Y-88359580D01*
X106414285Y-88359580D02*
X106366666Y-88407200D01*
X106366666Y-88407200D02*
X106271428Y-88454819D01*
X106271428Y-88454819D02*
X106080952Y-88454819D01*
X106080952Y-88454819D02*
X105985714Y-88407200D01*
X105985714Y-88407200D02*
X105938095Y-88359580D01*
X105938095Y-88359580D02*
X105890476Y-88264342D01*
X105890476Y-88264342D02*
X105890476Y-87454819D01*
X104890476Y-88454819D02*
X105461904Y-88454819D01*
X105176190Y-88454819D02*
X105176190Y-87454819D01*
X105176190Y-87454819D02*
X105271428Y-87597676D01*
X105271428Y-87597676D02*
X105366666Y-87692914D01*
X105366666Y-87692914D02*
X105461904Y-87740533D01*
X120961904Y-62654819D02*
X120961904Y-63464342D01*
X120961904Y-63464342D02*
X120914285Y-63559580D01*
X120914285Y-63559580D02*
X120866666Y-63607200D01*
X120866666Y-63607200D02*
X120771428Y-63654819D01*
X120771428Y-63654819D02*
X120580952Y-63654819D01*
X120580952Y-63654819D02*
X120485714Y-63607200D01*
X120485714Y-63607200D02*
X120438095Y-63559580D01*
X120438095Y-63559580D02*
X120390476Y-63464342D01*
X120390476Y-63464342D02*
X120390476Y-62654819D01*
X120009523Y-62654819D02*
X119390476Y-62654819D01*
X119390476Y-62654819D02*
X119723809Y-63035771D01*
X119723809Y-63035771D02*
X119580952Y-63035771D01*
X119580952Y-63035771D02*
X119485714Y-63083390D01*
X119485714Y-63083390D02*
X119438095Y-63131009D01*
X119438095Y-63131009D02*
X119390476Y-63226247D01*
X119390476Y-63226247D02*
X119390476Y-63464342D01*
X119390476Y-63464342D02*
X119438095Y-63559580D01*
X119438095Y-63559580D02*
X119485714Y-63607200D01*
X119485714Y-63607200D02*
X119580952Y-63654819D01*
X119580952Y-63654819D02*
X119866666Y-63654819D01*
X119866666Y-63654819D02*
X119961904Y-63607200D01*
X119961904Y-63607200D02*
X120009523Y-63559580D01*
X100633333Y-45254819D02*
X100633333Y-45969104D01*
X100633333Y-45969104D02*
X100680952Y-46111961D01*
X100680952Y-46111961D02*
X100776190Y-46207200D01*
X100776190Y-46207200D02*
X100919047Y-46254819D01*
X100919047Y-46254819D02*
X101014285Y-46254819D01*
X99633333Y-46254819D02*
X100204761Y-46254819D01*
X99919047Y-46254819D02*
X99919047Y-45254819D01*
X99919047Y-45254819D02*
X100014285Y-45397676D01*
X100014285Y-45397676D02*
X100109523Y-45492914D01*
X100109523Y-45492914D02*
X100204761Y-45540533D01*
X111839456Y-69603753D02*
X111738441Y-69031334D01*
X112243517Y-69199692D02*
X111536410Y-68492586D01*
X111536410Y-68492586D02*
X111267036Y-68761960D01*
X111267036Y-68761960D02*
X111233364Y-68862975D01*
X111233364Y-68862975D02*
X111233364Y-68930318D01*
X111233364Y-68930318D02*
X111267036Y-69031334D01*
X111267036Y-69031334D02*
X111368051Y-69132349D01*
X111368051Y-69132349D02*
X111469067Y-69166021D01*
X111469067Y-69166021D02*
X111536410Y-69166021D01*
X111536410Y-69166021D02*
X111637425Y-69132349D01*
X111637425Y-69132349D02*
X111906799Y-68862975D01*
X110492586Y-69536410D02*
X110829303Y-69199692D01*
X110829303Y-69199692D02*
X111199693Y-69502738D01*
X111199693Y-69502738D02*
X111132349Y-69502738D01*
X111132349Y-69502738D02*
X111031334Y-69536410D01*
X111031334Y-69536410D02*
X110862975Y-69704769D01*
X110862975Y-69704769D02*
X110829303Y-69805784D01*
X110829303Y-69805784D02*
X110829303Y-69873127D01*
X110829303Y-69873127D02*
X110862975Y-69974143D01*
X110862975Y-69974143D02*
X111031334Y-70142501D01*
X111031334Y-70142501D02*
X111132349Y-70176173D01*
X111132349Y-70176173D02*
X111199693Y-70176173D01*
X111199693Y-70176173D02*
X111300708Y-70142501D01*
X111300708Y-70142501D02*
X111469067Y-69974143D01*
X111469067Y-69974143D02*
X111502738Y-69873127D01*
X111502738Y-69873127D02*
X111502738Y-69805784D01*
D11*
%TO.C,R3*%
X108810654Y-73850420D02*
X108450420Y-74210654D01*
X109549580Y-74589346D02*
X109189346Y-74949580D01*
%TO.C,C7*%
X94865000Y-43938748D02*
X94865000Y-44461252D01*
X96335000Y-43938748D02*
X96335000Y-44461252D01*
%TO.C,C9*%
X109232922Y-70745829D02*
X109026069Y-70952682D01*
X109954171Y-71467078D02*
X109747318Y-71673931D01*
%TO.C,D2*%
X115000000Y-58665000D02*
X117285000Y-58665000D01*
X117285000Y-58665000D02*
X117285000Y-60135000D01*
X117285000Y-60135000D02*
X115000000Y-60135000D01*
%TO.C,C10*%
X99653734Y-75590000D02*
X99946268Y-75590000D01*
X99653734Y-76610000D02*
X99946268Y-76610000D01*
%TO.C,U2*%
X78627500Y-61290000D02*
X78627500Y-62550000D01*
X78627500Y-68110000D02*
X78627500Y-66850000D01*
X82387500Y-61290000D02*
X78627500Y-61290000D01*
X82387500Y-68110000D02*
X78627500Y-68110000D01*
X83690000Y-61580000D02*
X83450000Y-61250000D01*
X83930000Y-61250000D01*
X83690000Y-61580000D01*
G36*
X83690000Y-61580000D02*
G01*
X83450000Y-61250000D01*
X83930000Y-61250000D01*
X83690000Y-61580000D01*
G37*
%TO.C,R10*%
X88777500Y-68654724D02*
X88777500Y-68145276D01*
X89822500Y-68654724D02*
X89822500Y-68145276D01*
D12*
%TO.C,U6*%
X102344536Y-69114385D02*
X102500099Y-69269948D01*
X102344536Y-69114385D02*
X102853653Y-68605268D01*
X104395146Y-70882152D02*
X104762841Y-70514456D01*
X104607278Y-66851643D02*
X104098161Y-67360760D01*
X104762841Y-67007206D02*
X104607278Y-66851643D01*
X106007349Y-69269948D02*
X106516466Y-68760831D01*
X106516466Y-68760831D02*
X106360903Y-68605268D01*
X104508283Y-71278131D02*
X103999166Y-71278131D01*
X104253724Y-71023573D01*
X104508283Y-71278131D01*
G36*
X104508283Y-71278131D02*
G01*
X103999166Y-71278131D01*
X104253724Y-71023573D01*
X104508283Y-71278131D01*
G37*
D11*
%TO.C,C13*%
X118253733Y-67590000D02*
X118546267Y-67590000D01*
X118253733Y-68610000D02*
X118546267Y-68610000D01*
%TO.C,C3*%
X96353733Y-75590000D02*
X96646267Y-75590000D01*
X96353733Y-76610000D02*
X96646267Y-76610000D01*
%TO.C,C4*%
X101316236Y-77090001D02*
X101608770Y-77090001D01*
X101316236Y-78110001D02*
X101608770Y-78110001D01*
%TO.C,C6*%
X92435949Y-60142802D02*
X92642802Y-59935949D01*
X93157198Y-60864051D02*
X93364051Y-60657198D01*
%TO.C,C17*%
X102953733Y-75590000D02*
X103246267Y-75590000D01*
X102953733Y-76610000D02*
X103246267Y-76610000D01*
%TO.C,C8*%
X107945829Y-69832922D02*
X108152682Y-69626069D01*
X108667078Y-70554171D02*
X108873931Y-70347318D01*
%TO.C,R6*%
X105710655Y-72075215D02*
X105350421Y-72435449D01*
X106449581Y-72814141D02*
X106089347Y-73174375D01*
%TO.C,J3*%
X93857410Y-62462720D02*
X93620550Y-62225861D01*
X94674139Y-63279450D02*
X94437280Y-63042590D01*
X96360589Y-59485822D02*
X93620550Y-62225861D01*
X96402616Y-59527849D02*
X96360589Y-59485822D01*
X97414178Y-60539411D02*
X94674139Y-63279450D01*
X97414178Y-60539411D02*
X97372151Y-60497384D01*
X97933902Y-60019688D02*
X98453625Y-59499964D01*
X98453625Y-59499964D02*
X97926830Y-58973170D01*
%TO.C,R12*%
X119942224Y-58877500D02*
X119432776Y-58877500D01*
X119942224Y-59922500D02*
X119432776Y-59922500D01*
%TO.C,C2*%
X97953734Y-77090001D02*
X98246268Y-77090001D01*
X97953734Y-78110001D02*
X98246268Y-78110001D01*
%TO.C,R11*%
X119345276Y-60677500D02*
X119854724Y-60677500D01*
X119345276Y-61722500D02*
X119854724Y-61722500D01*
%TO.C,D1*%
X115000000Y-60465000D02*
X117285000Y-60465000D01*
X117285000Y-60465000D02*
X117285000Y-61935000D01*
X117285000Y-61935000D02*
X115000000Y-61935000D01*
%TO.C,R9*%
X87277500Y-66845276D02*
X87277500Y-67354724D01*
X88322500Y-66845276D02*
X88322500Y-67354724D01*
%TO.C,C12*%
X80856918Y-68989999D02*
X81149452Y-68989999D01*
X80856918Y-70009999D02*
X81149452Y-70009999D01*
%TO.C,U1*%
X97940000Y-79990000D02*
X97940000Y-80440000D01*
X97940000Y-86760000D02*
X97940000Y-87210000D01*
X97940000Y-87210000D02*
X98390000Y-87210000D01*
X98390000Y-79990000D02*
X97940000Y-79990000D01*
X104710000Y-87210000D02*
X105160000Y-87210000D01*
X105160000Y-79990000D02*
X104710000Y-79990000D01*
X105160000Y-80440000D02*
X105160000Y-79990000D01*
X105160000Y-87210000D02*
X105160000Y-86760000D01*
X105800000Y-80440000D02*
X105460000Y-79970000D01*
X106140000Y-79970000D01*
X105800000Y-80440000D01*
G36*
X105800000Y-80440000D02*
G01*
X105460000Y-79970000D01*
X106140000Y-79970000D01*
X105800000Y-80440000D01*
G37*
%TO.C,U3*%
X118350000Y-64000000D02*
X121650000Y-64000000D01*
X118350000Y-64300000D02*
X118350000Y-64000000D01*
X118350000Y-66500000D02*
X118350000Y-66800000D01*
X118350000Y-66800000D02*
X121650000Y-66800000D01*
X121650000Y-64000000D02*
X121650000Y-64300000D01*
X121650000Y-66800000D02*
X121650000Y-66500000D01*
%TO.C,J1*%
X97040000Y-37890000D02*
X103160000Y-37890000D01*
X97040000Y-44110000D02*
X97960000Y-44110000D01*
X97040000Y-45710000D02*
X97040000Y-37890000D01*
X97800000Y-40150000D02*
X98800000Y-40150000D01*
X97800000Y-41750000D02*
X97800000Y-40150000D01*
X97960000Y-44110000D02*
X97960000Y-45710000D01*
X97960000Y-45710000D02*
X97040000Y-45710000D01*
X98240000Y-44110000D02*
X97960000Y-44110000D01*
X98240000Y-44110000D02*
X98240000Y-45325000D01*
X98300000Y-40150000D02*
X98300000Y-37890000D01*
X98800000Y-40150000D02*
X98800000Y-37890000D01*
X98800000Y-40150000D02*
X98800000Y-41750000D01*
X98800000Y-41750000D02*
X97800000Y-41750000D01*
X99600000Y-37890000D02*
X99600000Y-42250000D01*
X99600000Y-42250000D02*
X100600000Y-42250000D01*
X100600000Y-42250000D02*
X100600000Y-37890000D01*
X101400000Y-40150000D02*
X101400000Y-41750000D01*
X101400000Y-41750000D02*
X102400000Y-41750000D01*
X102240000Y-44110000D02*
X101960000Y-44110000D01*
X102240000Y-45710000D02*
X102240000Y-44110000D01*
X102400000Y-40150000D02*
X101400000Y-40150000D01*
X102400000Y-41750000D02*
X102400000Y-40150000D01*
X103160000Y-37890000D02*
X103160000Y-45710000D01*
X103160000Y-44110000D02*
X102240000Y-44110000D01*
X103160000Y-45710000D02*
X102240000Y-45710000D01*
%TO.C,R5*%
X106409312Y-73494341D02*
X106769546Y-73134107D01*
X107148238Y-74233267D02*
X107508472Y-73873033D01*
%TD*%
M02*
