%TF.GenerationSoftware,KiCad,Pcbnew,9.0.6*%
%TF.CreationDate,2026-03-25T11:26:29-04:00*%
%TF.ProjectId,newschematic,6e657773-6368-4656-9d61-7469632e6b69,0*%
%TF.SameCoordinates,Original*%
%TF.FileFunction,Copper,L2,Inr*%
%TF.FilePolarity,Positive*%
%FSLAX46Y46*%
G04 Gerber Fmt 4.6, Leading zero omitted, Abs format (unit mm)*
G04 Created by KiCad (PCBNEW 9.0.6) date 2026-03-25 11:26:29*
%MOMM*%
%LPD*%
G01*
G04 APERTURE LIST*
G04 Aperture macros list*
%AMRoundRect*
0 Rectangle with rounded corners*
0 $1 Rounding radius*
0 $2 $3 $4 $5 $6 $7 $8 $9 X,Y pos of 4 corners*
0 Add a 4 corners polygon primitive as box body*
4,1,4,$2,$3,$4,$5,$6,$7,$8,$9,$2,$3,0*
0 Add four circle primitives for the rounded corners*
1,1,$1+$1,$2,$3*
1,1,$1+$1,$4,$5*
1,1,$1+$1,$6,$7*
1,1,$1+$1,$8,$9*
0 Add four rect primitives between the rounded corners*
20,1,$1+$1,$2,$3,$4,$5,0*
20,1,$1+$1,$4,$5,$6,$7,0*
20,1,$1+$1,$6,$7,$8,$9,0*
20,1,$1+$1,$8,$9,$2,$3,0*%
%AMRotRect*
0 Rectangle, with rotation*
0 The origin of the aperture is its center*
0 $1 length*
0 $2 width*
0 $3 Rotation angle, in degrees counterclockwise*
0 Add horizontal line*
21,1,$1,$2,0,0,$3*%
G04 Aperture macros list end*
%TA.AperFunction,ComponentPad*%
%ADD10RoundRect,0.250000X-0.675000X-0.675000X0.675000X-0.675000X0.675000X0.675000X-0.675000X0.675000X0*%
%TD*%
%TA.AperFunction,ComponentPad*%
%ADD11C,1.850000*%
%TD*%
%TA.AperFunction,ComponentPad*%
%ADD12RoundRect,0.250000X-0.675000X0.675000X-0.675000X-0.675000X0.675000X-0.675000X0.675000X0.675000X0*%
%TD*%
%TA.AperFunction,ComponentPad*%
%ADD13RotRect,0.850000X0.850000X135.000000*%
%TD*%
%TA.AperFunction,ComponentPad*%
%ADD14C,0.850000*%
%TD*%
%TA.AperFunction,ComponentPad*%
%ADD15RoundRect,0.250000X-0.350000X-0.625000X0.350000X-0.625000X0.350000X0.625000X-0.350000X0.625000X0*%
%TD*%
%TA.AperFunction,ComponentPad*%
%ADD16O,1.200000X1.750000*%
%TD*%
%TA.AperFunction,ViaPad*%
%ADD17C,0.600000*%
%TD*%
%TA.AperFunction,Conductor*%
%ADD18C,0.150000*%
%TD*%
G04 APERTURE END LIST*
D10*
%TO.N,+BATT*%
%TO.C,M2*%
X113300000Y-69800000D03*
D11*
%TO.N,Net-(M2--)*%
X116650000Y-69800000D03*
%TD*%
D10*
%TO.N,+BATT*%
%TO.C,M1*%
X113300000Y-63200000D03*
D11*
%TO.N,Net-(M1--)*%
X116650000Y-63200000D03*
%TD*%
D12*
%TO.N,Net-(M3-+)*%
%TO.C,M5*%
X95500000Y-48050000D03*
D11*
%TO.N,Net-(M3--)*%
X95500000Y-51400000D03*
%TD*%
D12*
%TO.N,Net-(M3-+)*%
%TO.C,M3*%
X98500000Y-48050000D03*
D11*
%TO.N,Net-(M3--)*%
X98500000Y-51400000D03*
%TD*%
D12*
%TO.N,Net-(M4-+)*%
%TO.C,M6*%
X101500000Y-48050000D03*
D11*
%TO.N,Net-(M4--)*%
X101500000Y-51400000D03*
%TD*%
D12*
%TO.N,Net-(M4-+)*%
%TO.C,M4*%
X104500000Y-48050000D03*
D11*
%TO.N,Net-(M4--)*%
X104500000Y-51400000D03*
%TD*%
D13*
%TO.N,Net-(J3-Pin_1)*%
%TO.C,J3*%
X97407107Y-59492893D03*
D14*
%TO.N,Net-(J3-Pin_2)*%
X96700000Y-60200000D03*
%TO.N,Net-(J3-Pin_3)*%
X95992893Y-60907107D03*
%TO.N,GND*%
X95285787Y-61614213D03*
%TO.N,+3.3V*%
X94578680Y-62321320D03*
%TD*%
D15*
%TO.N,+BATT*%
%TO.C,J1*%
X99100000Y-44250000D03*
D16*
%TO.N,GND*%
X101100000Y-44250000D03*
%TD*%
D17*
%TO.N,+BATT*%
X91400000Y-56400000D03*
X99100000Y-42700000D03*
X97200000Y-43200000D03*
X81800000Y-62200000D03*
X82100000Y-67240000D03*
X110600000Y-56600000D03*
%TO.N,GND*%
X94700000Y-88500000D03*
X98800000Y-81249000D03*
X76400000Y-62300000D03*
X103000000Y-67200000D03*
X76600000Y-67100000D03*
X102100000Y-85400000D03*
X103962501Y-76100000D03*
X102900000Y-70900000D03*
X120700002Y-63000000D03*
X81212500Y-59863462D03*
X120353768Y-67846232D03*
X98962502Y-77600001D03*
X102325004Y-77600001D03*
X122800000Y-65399000D03*
X124100000Y-64800000D03*
X97200000Y-45200000D03*
X82100000Y-64481000D03*
X121500000Y-60400000D03*
X79700000Y-62700000D03*
X123500000Y-69400000D03*
X88127000Y-69000000D03*
X120000000Y-69500000D03*
X100662502Y-76100000D03*
X78400000Y-69800000D03*
X104574363Y-82650437D03*
X100379894Y-80625000D03*
X101790292Y-86603996D03*
X94300000Y-60700000D03*
X110300000Y-69400000D03*
X101100000Y-42800000D03*
X88200000Y-59500000D03*
X97362501Y-76100000D03*
%TO.N,+3.3V*%
X102300000Y-67900000D03*
X98937500Y-76100000D03*
X104600000Y-83400000D03*
X89400000Y-70600000D03*
X110100000Y-72500000D03*
X93200000Y-61800000D03*
X86700465Y-63923123D03*
X81900000Y-63311000D03*
X100600002Y-77600001D03*
X97237500Y-77600001D03*
X102100000Y-80500000D03*
X95637499Y-76100000D03*
X114000000Y-58800000D03*
X79000000Y-71000000D03*
X105100000Y-74500000D03*
X108900000Y-70700000D03*
X97600000Y-80200000D03*
X102237499Y-76100000D03*
X106300000Y-70100000D03*
X81900000Y-68400000D03*
X87328000Y-60500000D03*
X103500000Y-85700000D03*
X103800000Y-66800000D03*
%TO.N,Net-(J2-VBUS)*%
X104525000Y-81380090D03*
X98900000Y-84200000D03*
%TO.N,Net-(Q1-G)*%
X104200000Y-78100000D03*
X120400000Y-63900000D03*
X114250000Y-65200000D03*
%TO.N,Net-(U1-PA13)*%
X83500000Y-71000000D03*
X94325000Y-80487181D03*
%TO.N,Net-(U1-PA22)*%
X107105281Y-73794719D03*
X105550000Y-79500000D03*
%TO.N,Net-(U1-PA25)*%
X99650003Y-82412500D03*
%TO.N,Net-(U1-PA24)*%
X98900000Y-82300000D03*
%TO.N,Net-(U1-PA11)*%
X86500000Y-62700000D03*
X93800000Y-79745790D03*
X94595277Y-78304723D03*
%TO.N,Net-(U1-PA12)*%
X102524339Y-86024339D03*
X87321501Y-64978500D03*
%TO.N,Net-(U1-PA15)*%
X97400000Y-87100000D03*
X87145276Y-70854724D03*
X86603738Y-66625952D03*
%TO.N,Net-(J3-Pin_3)*%
X102839798Y-80623300D03*
%TO.N,Net-(J3-Pin_2)*%
X103589643Y-80607963D03*
%TO.N,Net-(U1-PA16)*%
X86565929Y-67375000D03*
%TO.N,Net-(U1-PA10)*%
X103956374Y-86581124D03*
%TO.N,Net-(U1-PA14)*%
X84875000Y-69501001D03*
X82087500Y-66016640D03*
X93800000Y-78995787D03*
%TO.N,Net-(M3-+)*%
X79500000Y-60600000D03*
%TO.N,Net-(M4-+)*%
X79601000Y-65500075D03*
%TO.N,Net-(M3--)*%
X79800000Y-64100000D03*
%TO.N,Net-(M4--)*%
X79600000Y-67900000D03*
%TO.N,Net-(Q2-G)*%
X106200000Y-78900000D03*
%TO.N,Net-(D1-A)*%
X115550000Y-64675000D03*
X106200000Y-79900000D03*
%TD*%
D18*
%TO.N,Net-(U1-PA13)*%
X94325000Y-78776910D02*
X86548090Y-71000000D01*
X94325000Y-80487181D02*
X94325000Y-78776910D01*
X86548090Y-71000000D02*
X83500000Y-71000000D01*
%TD*%
%TA.AperFunction,Conductor*%
%TO.N,GND*%
G36*
X106442539Y-40520185D02*
G01*
X106488294Y-40572989D01*
X106499500Y-40624500D01*
X106499500Y-51799392D01*
X106533608Y-51926688D01*
X106566554Y-51983751D01*
X106599500Y-52040815D01*
X106599502Y-52040817D01*
X110439271Y-55880586D01*
X110472756Y-55941909D01*
X110467772Y-56011601D01*
X110425900Y-56067534D01*
X110394547Y-56082769D01*
X110395019Y-56083908D01*
X110387511Y-56087017D01*
X110261988Y-56159488D01*
X110261982Y-56159493D01*
X110159493Y-56261982D01*
X110159488Y-56261988D01*
X110087017Y-56387511D01*
X110087016Y-56387515D01*
X110049500Y-56527525D01*
X110049500Y-56672475D01*
X110085251Y-56805898D01*
X110087017Y-56812488D01*
X110159488Y-56938011D01*
X110159490Y-56938013D01*
X110159491Y-56938015D01*
X110261985Y-57040509D01*
X110261986Y-57040510D01*
X110261988Y-57040511D01*
X110387511Y-57112982D01*
X110387512Y-57112982D01*
X110387515Y-57112984D01*
X110527525Y-57150500D01*
X110527528Y-57150500D01*
X110672472Y-57150500D01*
X110672475Y-57150500D01*
X110812485Y-57112984D01*
X110938015Y-57040509D01*
X111040509Y-56938015D01*
X111112984Y-56812485D01*
X111112985Y-56812479D01*
X111116092Y-56804981D01*
X111118307Y-56805898D01*
X111148319Y-56756658D01*
X111211165Y-56726127D01*
X111280541Y-56734419D01*
X111319413Y-56760728D01*
X112959185Y-58400500D01*
X113073313Y-58466392D01*
X113200607Y-58500500D01*
X113332392Y-58500500D01*
X113348732Y-58500500D01*
X113415771Y-58520185D01*
X113461526Y-58572989D01*
X113471470Y-58642147D01*
X113468509Y-58656580D01*
X113449500Y-58727525D01*
X113449500Y-58872475D01*
X113487016Y-59012485D01*
X113487017Y-59012488D01*
X113559488Y-59138011D01*
X113559490Y-59138013D01*
X113559491Y-59138015D01*
X113661985Y-59240509D01*
X113661986Y-59240510D01*
X113661988Y-59240511D01*
X113787511Y-59312982D01*
X113787512Y-59312982D01*
X113787515Y-59312984D01*
X113927525Y-59350500D01*
X113927528Y-59350500D01*
X114072472Y-59350500D01*
X114072475Y-59350500D01*
X114212485Y-59312984D01*
X114338015Y-59240509D01*
X114440509Y-59138015D01*
X114512984Y-59012485D01*
X114550500Y-58872475D01*
X114550500Y-58727525D01*
X114531493Y-58656590D01*
X114533156Y-58586744D01*
X114572318Y-58528882D01*
X114636546Y-58501377D01*
X114651268Y-58500500D01*
X124375500Y-58500500D01*
X124442539Y-58520185D01*
X124488294Y-58572989D01*
X124499500Y-58624500D01*
X124499500Y-71375500D01*
X124479815Y-71442539D01*
X124427011Y-71488294D01*
X124375500Y-71499500D01*
X113200607Y-71499500D01*
X113073311Y-71533608D01*
X112959185Y-71599500D01*
X112959182Y-71599502D01*
X106599502Y-77959182D01*
X106599500Y-77959185D01*
X106533608Y-78073311D01*
X106499500Y-78200607D01*
X106499500Y-78248731D01*
X106479815Y-78315770D01*
X106427011Y-78361525D01*
X106357853Y-78371469D01*
X106343407Y-78368506D01*
X106301284Y-78357219D01*
X106272475Y-78349500D01*
X106127525Y-78349500D01*
X106024156Y-78377198D01*
X105987511Y-78387017D01*
X105861988Y-78459488D01*
X105861982Y-78459493D01*
X105759493Y-78561982D01*
X105759488Y-78561988D01*
X105687017Y-78687511D01*
X105649499Y-78827528D01*
X105648439Y-78835585D01*
X105646609Y-78835344D01*
X105629815Y-78892539D01*
X105577011Y-78938294D01*
X105525500Y-78949500D01*
X105477525Y-78949500D01*
X105348993Y-78983940D01*
X105337511Y-78987017D01*
X105211988Y-79059488D01*
X105211982Y-79059493D01*
X105109493Y-79161982D01*
X105109488Y-79161988D01*
X105037017Y-79287511D01*
X105037016Y-79287515D01*
X104999500Y-79427525D01*
X104999500Y-79572475D01*
X105020139Y-79649500D01*
X105037017Y-79712488D01*
X105109488Y-79838011D01*
X105109490Y-79838013D01*
X105109491Y-79838015D01*
X105211985Y-79940509D01*
X105211986Y-79940510D01*
X105211988Y-79940511D01*
X105337511Y-80012982D01*
X105337512Y-80012982D01*
X105337515Y-80012984D01*
X105477525Y-80050500D01*
X105477528Y-80050500D01*
X105579637Y-80050500D01*
X105646676Y-80070185D01*
X105687024Y-80112499D01*
X105759491Y-80238015D01*
X105861985Y-80340509D01*
X105861986Y-80340510D01*
X105861988Y-80340511D01*
X105987511Y-80412982D01*
X105987512Y-80412982D01*
X105987515Y-80412984D01*
X106127525Y-80450500D01*
X106127528Y-80450500D01*
X106272472Y-80450500D01*
X106272475Y-80450500D01*
X106343409Y-80431493D01*
X106413256Y-80433156D01*
X106471118Y-80472318D01*
X106498623Y-80536546D01*
X106499500Y-80551268D01*
X106499500Y-89375500D01*
X106479815Y-89442539D01*
X106427011Y-89488294D01*
X106375500Y-89499500D01*
X93624500Y-89499500D01*
X93557461Y-89479815D01*
X93511706Y-89427011D01*
X93500500Y-89375500D01*
X93500500Y-87027525D01*
X96849500Y-87027525D01*
X96849500Y-87172475D01*
X96887016Y-87312485D01*
X96887017Y-87312488D01*
X96959488Y-87438011D01*
X96959490Y-87438013D01*
X96959491Y-87438015D01*
X97061985Y-87540509D01*
X97061986Y-87540510D01*
X97061988Y-87540511D01*
X97187511Y-87612982D01*
X97187512Y-87612982D01*
X97187515Y-87612984D01*
X97327525Y-87650500D01*
X97327528Y-87650500D01*
X97472472Y-87650500D01*
X97472475Y-87650500D01*
X97612485Y-87612984D01*
X97738015Y-87540509D01*
X97840509Y-87438015D01*
X97912984Y-87312485D01*
X97950500Y-87172475D01*
X97950500Y-87027525D01*
X97912984Y-86887515D01*
X97840509Y-86761985D01*
X97738015Y-86659491D01*
X97738013Y-86659490D01*
X97738011Y-86659488D01*
X97612488Y-86587017D01*
X97612489Y-86587017D01*
X97567040Y-86574839D01*
X97472475Y-86549500D01*
X97327525Y-86549500D01*
X97232960Y-86574839D01*
X97187511Y-86587017D01*
X97061988Y-86659488D01*
X97061982Y-86659493D01*
X96959493Y-86761982D01*
X96959488Y-86761988D01*
X96887017Y-86887511D01*
X96887016Y-86887515D01*
X96849500Y-87027525D01*
X93500500Y-87027525D01*
X93500500Y-85951864D01*
X101973839Y-85951864D01*
X101973839Y-86096814D01*
X102011146Y-86236045D01*
X102011356Y-86236827D01*
X102083827Y-86362350D01*
X102083829Y-86362352D01*
X102083830Y-86362354D01*
X102186324Y-86464848D01*
X102186325Y-86464849D01*
X102186327Y-86464850D01*
X102311850Y-86537321D01*
X102311851Y-86537321D01*
X102311854Y-86537323D01*
X102451864Y-86574839D01*
X102451867Y-86574839D01*
X102596811Y-86574839D01*
X102596814Y-86574839D01*
X102736824Y-86537323D01*
X102862354Y-86464848D01*
X102964848Y-86362354D01*
X103037323Y-86236824D01*
X103037325Y-86236816D01*
X103039462Y-86231657D01*
X103045588Y-86224052D01*
X103048111Y-86214618D01*
X103067148Y-86197292D01*
X103083297Y-86177249D01*
X103092562Y-86174164D01*
X103099785Y-86167591D01*
X103125165Y-86163308D01*
X103149589Y-86155177D01*
X103160889Y-86157281D01*
X103168681Y-86155967D01*
X103187588Y-86162254D01*
X103202778Y-86165083D01*
X103209601Y-86168000D01*
X103287515Y-86212984D01*
X103360625Y-86232574D01*
X103368743Y-86236045D01*
X103389155Y-86252879D01*
X103411747Y-86266650D01*
X103415687Y-86274761D01*
X103422645Y-86280500D01*
X103430714Y-86305695D01*
X103442276Y-86329496D01*
X103441766Y-86340203D01*
X103443956Y-86347041D01*
X103440895Y-86358490D01*
X103439768Y-86382153D01*
X103417610Y-86464850D01*
X103405874Y-86508649D01*
X103405874Y-86653599D01*
X103434917Y-86761988D01*
X103443391Y-86793612D01*
X103515862Y-86919135D01*
X103515864Y-86919137D01*
X103515865Y-86919139D01*
X103618359Y-87021633D01*
X103618360Y-87021634D01*
X103618362Y-87021635D01*
X103743885Y-87094106D01*
X103743886Y-87094106D01*
X103743889Y-87094108D01*
X103883899Y-87131624D01*
X103883902Y-87131624D01*
X104028846Y-87131624D01*
X104028849Y-87131624D01*
X104168859Y-87094108D01*
X104294389Y-87021633D01*
X104396883Y-86919139D01*
X104469358Y-86793609D01*
X104506874Y-86653599D01*
X104506874Y-86508649D01*
X104469358Y-86368639D01*
X104465730Y-86362356D01*
X104396885Y-86243112D01*
X104396880Y-86243106D01*
X104294391Y-86140617D01*
X104294385Y-86140612D01*
X104168862Y-86068141D01*
X104168863Y-86068141D01*
X104160507Y-86065902D01*
X104104284Y-86050837D01*
X104044626Y-86014473D01*
X104014097Y-85951625D01*
X104016604Y-85898971D01*
X104050500Y-85772475D01*
X104050500Y-85627525D01*
X104012984Y-85487515D01*
X103940509Y-85361985D01*
X103838015Y-85259491D01*
X103838013Y-85259490D01*
X103838011Y-85259488D01*
X103712488Y-85187017D01*
X103712489Y-85187017D01*
X103701006Y-85183940D01*
X103572475Y-85149500D01*
X103427525Y-85149500D01*
X103298993Y-85183940D01*
X103287511Y-85187017D01*
X103161988Y-85259488D01*
X103161982Y-85259493D01*
X103059493Y-85361982D01*
X103059488Y-85361988D01*
X102987015Y-85487515D01*
X102984871Y-85492692D01*
X102941031Y-85547096D01*
X102874737Y-85569161D01*
X102808310Y-85552627D01*
X102736827Y-85511356D01*
X102736828Y-85511356D01*
X102725345Y-85508279D01*
X102596814Y-85473839D01*
X102451864Y-85473839D01*
X102323332Y-85508279D01*
X102311850Y-85511356D01*
X102186327Y-85583827D01*
X102186321Y-85583832D01*
X102083832Y-85686321D01*
X102083827Y-85686327D01*
X102011356Y-85811850D01*
X102011355Y-85811854D01*
X101973839Y-85951864D01*
X93500500Y-85951864D01*
X93500500Y-84127525D01*
X98349500Y-84127525D01*
X98349500Y-84272475D01*
X98387016Y-84412485D01*
X98387017Y-84412488D01*
X98459488Y-84538011D01*
X98459490Y-84538013D01*
X98459491Y-84538015D01*
X98561985Y-84640509D01*
X98561986Y-84640510D01*
X98561988Y-84640511D01*
X98687511Y-84712982D01*
X98687512Y-84712982D01*
X98687515Y-84712984D01*
X98827525Y-84750500D01*
X98827528Y-84750500D01*
X98972472Y-84750500D01*
X98972475Y-84750500D01*
X99112485Y-84712984D01*
X99238015Y-84640509D01*
X99340509Y-84538015D01*
X99412984Y-84412485D01*
X99450500Y-84272475D01*
X99450500Y-84127525D01*
X99412984Y-83987515D01*
X99391613Y-83950500D01*
X99340511Y-83861988D01*
X99340506Y-83861982D01*
X99238017Y-83759493D01*
X99238011Y-83759488D01*
X99112488Y-83687017D01*
X99112489Y-83687017D01*
X99101006Y-83683940D01*
X98972475Y-83649500D01*
X98827525Y-83649500D01*
X98698993Y-83683940D01*
X98687511Y-83687017D01*
X98561988Y-83759488D01*
X98561982Y-83759493D01*
X98459493Y-83861982D01*
X98459488Y-83861988D01*
X98387017Y-83987511D01*
X98387016Y-83987515D01*
X98349500Y-84127525D01*
X93500500Y-84127525D01*
X93500500Y-83327525D01*
X104049500Y-83327525D01*
X104049500Y-83472475D01*
X104087016Y-83612485D01*
X104087017Y-83612488D01*
X104159488Y-83738011D01*
X104159490Y-83738013D01*
X104159491Y-83738015D01*
X104261985Y-83840509D01*
X104261986Y-83840510D01*
X104261988Y-83840511D01*
X104387511Y-83912982D01*
X104387512Y-83912982D01*
X104387515Y-83912984D01*
X104527525Y-83950500D01*
X104527528Y-83950500D01*
X104672472Y-83950500D01*
X104672475Y-83950500D01*
X104812485Y-83912984D01*
X104938015Y-83840509D01*
X105040509Y-83738015D01*
X105112984Y-83612485D01*
X105150500Y-83472475D01*
X105150500Y-83327525D01*
X105112984Y-83187515D01*
X105040509Y-83061985D01*
X104938015Y-82959491D01*
X104938013Y-82959490D01*
X104938011Y-82959488D01*
X104812488Y-82887017D01*
X104812489Y-82887017D01*
X104801006Y-82883940D01*
X104672475Y-82849500D01*
X104527525Y-82849500D01*
X104398993Y-82883940D01*
X104387511Y-82887017D01*
X104261988Y-82959488D01*
X104261982Y-82959493D01*
X104159493Y-83061982D01*
X104159488Y-83061988D01*
X104087017Y-83187511D01*
X104087016Y-83187515D01*
X104049500Y-83327525D01*
X93500500Y-83327525D01*
X93500500Y-82227525D01*
X98349500Y-82227525D01*
X98349500Y-82372475D01*
X98379644Y-82484972D01*
X98387017Y-82512488D01*
X98459488Y-82638011D01*
X98459490Y-82638013D01*
X98459491Y-82638015D01*
X98561985Y-82740509D01*
X98561986Y-82740510D01*
X98561988Y-82740511D01*
X98687511Y-82812982D01*
X98687512Y-82812982D01*
X98687515Y-82812984D01*
X98827525Y-82850500D01*
X98827528Y-82850500D01*
X98972472Y-82850500D01*
X98972475Y-82850500D01*
X99112485Y-82812984D01*
X99131187Y-82802185D01*
X99199081Y-82785711D01*
X99265109Y-82808559D01*
X99280869Y-82821890D01*
X99311988Y-82853009D01*
X99311989Y-82853010D01*
X99311991Y-82853011D01*
X99437514Y-82925482D01*
X99437515Y-82925482D01*
X99437518Y-82925484D01*
X99577528Y-82963000D01*
X99577531Y-82963000D01*
X99722475Y-82963000D01*
X99722478Y-82963000D01*
X99862488Y-82925484D01*
X99988018Y-82853009D01*
X100090512Y-82750515D01*
X100162987Y-82624985D01*
X100200503Y-82484975D01*
X100200503Y-82340025D01*
X100162987Y-82200015D01*
X100090512Y-82074485D01*
X99988018Y-81971991D01*
X99988016Y-81971990D01*
X99988014Y-81971988D01*
X99862491Y-81899517D01*
X99862492Y-81899517D01*
X99829243Y-81890608D01*
X99722478Y-81862000D01*
X99577528Y-81862000D01*
X99479111Y-81888370D01*
X99437513Y-81899517D01*
X99437512Y-81899518D01*
X99418811Y-81910315D01*
X99350910Y-81926786D01*
X99284884Y-81903933D01*
X99269132Y-81890608D01*
X99238017Y-81859493D01*
X99238011Y-81859488D01*
X99112488Y-81787017D01*
X99112489Y-81787017D01*
X99101006Y-81783940D01*
X98972475Y-81749500D01*
X98827525Y-81749500D01*
X98698993Y-81783940D01*
X98687511Y-81787017D01*
X98561988Y-81859488D01*
X98561982Y-81859493D01*
X98459493Y-81961982D01*
X98459488Y-81961988D01*
X98387017Y-82087511D01*
X98387016Y-82087515D01*
X98349500Y-82227525D01*
X93500500Y-82227525D01*
X93500500Y-80397058D01*
X93520185Y-80330019D01*
X93572989Y-80284264D01*
X93642147Y-80274320D01*
X93656589Y-80277282D01*
X93682916Y-80284337D01*
X93742577Y-80320700D01*
X93773107Y-80383546D01*
X93773522Y-80406578D01*
X93774500Y-80406578D01*
X93774500Y-80414706D01*
X93774500Y-80559656D01*
X93806864Y-80680438D01*
X93812017Y-80699669D01*
X93884488Y-80825192D01*
X93884490Y-80825194D01*
X93884491Y-80825196D01*
X93986985Y-80927690D01*
X93986986Y-80927691D01*
X93986988Y-80927692D01*
X94112511Y-81000163D01*
X94112512Y-81000163D01*
X94112515Y-81000165D01*
X94252525Y-81037681D01*
X94252528Y-81037681D01*
X94397472Y-81037681D01*
X94397475Y-81037681D01*
X94537485Y-81000165D01*
X94663015Y-80927690D01*
X94765509Y-80825196D01*
X94837984Y-80699666D01*
X94875500Y-80559656D01*
X94875500Y-80414706D01*
X94837984Y-80274696D01*
X94765509Y-80149166D01*
X94743868Y-80127525D01*
X97049500Y-80127525D01*
X97049500Y-80272475D01*
X97087016Y-80412485D01*
X97087017Y-80412488D01*
X97159488Y-80538011D01*
X97159490Y-80538013D01*
X97159491Y-80538015D01*
X97261985Y-80640509D01*
X97261986Y-80640510D01*
X97261988Y-80640511D01*
X97387511Y-80712982D01*
X97387512Y-80712982D01*
X97387515Y-80712984D01*
X97527525Y-80750500D01*
X97527528Y-80750500D01*
X97672472Y-80750500D01*
X97672475Y-80750500D01*
X97812485Y-80712984D01*
X97938015Y-80640509D01*
X98040509Y-80538015D01*
X98104301Y-80427525D01*
X101549500Y-80427525D01*
X101549500Y-80572475D01*
X101583581Y-80699666D01*
X101587017Y-80712488D01*
X101659488Y-80838011D01*
X101659490Y-80838013D01*
X101659491Y-80838015D01*
X101761985Y-80940509D01*
X101761986Y-80940510D01*
X101761988Y-80940511D01*
X101887511Y-81012982D01*
X101887512Y-81012982D01*
X101887515Y-81012984D01*
X102027525Y-81050500D01*
X102027528Y-81050500D01*
X102172472Y-81050500D01*
X102172475Y-81050500D01*
X102312485Y-81012984D01*
X102317865Y-81009877D01*
X102385762Y-80993400D01*
X102451790Y-81016246D01*
X102467553Y-81029579D01*
X102501783Y-81063809D01*
X102501784Y-81063810D01*
X102501786Y-81063811D01*
X102627309Y-81136282D01*
X102627310Y-81136282D01*
X102627313Y-81136284D01*
X102767323Y-81173800D01*
X102767326Y-81173800D01*
X102912270Y-81173800D01*
X102912273Y-81173800D01*
X103052283Y-81136284D01*
X103052285Y-81136282D01*
X103052287Y-81136282D01*
X103052288Y-81136281D01*
X103078849Y-81120946D01*
X103166003Y-81070627D01*
X103233901Y-81054154D01*
X103289999Y-81070626D01*
X103377158Y-81120947D01*
X103517168Y-81158463D01*
X103517171Y-81158463D01*
X103662115Y-81158463D01*
X103662118Y-81158463D01*
X103802128Y-81120947D01*
X103805957Y-81118736D01*
X103809600Y-81117851D01*
X103809642Y-81117835D01*
X103809644Y-81117841D01*
X103873853Y-81102260D01*
X103939882Y-81125107D01*
X103983076Y-81180026D01*
X103989723Y-81249578D01*
X103987737Y-81258212D01*
X103974500Y-81307613D01*
X103974500Y-81307615D01*
X103974500Y-81452565D01*
X104012016Y-81592575D01*
X104012017Y-81592578D01*
X104084488Y-81718101D01*
X104084490Y-81718103D01*
X104084491Y-81718105D01*
X104186985Y-81820599D01*
X104186986Y-81820600D01*
X104186988Y-81820601D01*
X104312511Y-81893072D01*
X104312512Y-81893072D01*
X104312515Y-81893074D01*
X104452525Y-81930590D01*
X104452528Y-81930590D01*
X104597472Y-81930590D01*
X104597475Y-81930590D01*
X104737485Y-81893074D01*
X104863015Y-81820599D01*
X104965509Y-81718105D01*
X105037984Y-81592575D01*
X105075500Y-81452565D01*
X105075500Y-81307615D01*
X105037984Y-81167605D01*
X105011045Y-81120946D01*
X104965511Y-81042078D01*
X104965506Y-81042072D01*
X104863017Y-80939583D01*
X104863011Y-80939578D01*
X104737488Y-80867107D01*
X104737489Y-80867107D01*
X104721926Y-80862937D01*
X104597475Y-80829590D01*
X104452525Y-80829590D01*
X104354108Y-80855960D01*
X104312510Y-80867107D01*
X104312507Y-80867108D01*
X104308676Y-80869321D01*
X104305033Y-80870204D01*
X104305001Y-80870218D01*
X104304998Y-80870212D01*
X104240775Y-80885791D01*
X104174749Y-80862937D01*
X104131561Y-80808014D01*
X104124922Y-80738460D01*
X104126906Y-80729837D01*
X104131422Y-80712984D01*
X104140143Y-80680438D01*
X104140143Y-80535488D01*
X104102627Y-80395478D01*
X104040294Y-80287515D01*
X104030154Y-80269951D01*
X104030149Y-80269945D01*
X103927660Y-80167456D01*
X103927654Y-80167451D01*
X103802131Y-80094980D01*
X103802132Y-80094980D01*
X103790649Y-80091903D01*
X103662118Y-80057463D01*
X103517168Y-80057463D01*
X103388636Y-80091903D01*
X103377154Y-80094980D01*
X103263438Y-80160635D01*
X103195538Y-80177108D01*
X103139438Y-80160635D01*
X103052283Y-80110316D01*
X102912273Y-80072800D01*
X102767323Y-80072800D01*
X102684551Y-80094979D01*
X102627311Y-80110316D01*
X102627308Y-80110318D01*
X102621920Y-80113429D01*
X102554019Y-80129898D01*
X102487993Y-80107043D01*
X102472244Y-80093720D01*
X102438017Y-80059493D01*
X102438011Y-80059488D01*
X102312488Y-79987017D01*
X102312489Y-79987017D01*
X102296728Y-79982794D01*
X102172475Y-79949500D01*
X102027525Y-79949500D01*
X101903272Y-79982794D01*
X101887511Y-79987017D01*
X101761988Y-80059488D01*
X101761982Y-80059493D01*
X101659493Y-80161982D01*
X101659488Y-80161988D01*
X101587017Y-80287511D01*
X101587016Y-80287515D01*
X101549500Y-80427525D01*
X98104301Y-80427525D01*
X98112984Y-80412485D01*
X98150500Y-80272475D01*
X98150500Y-80127525D01*
X98112984Y-79987515D01*
X98112696Y-79987017D01*
X98040511Y-79861988D01*
X98040506Y-79861982D01*
X97938017Y-79759493D01*
X97938011Y-79759488D01*
X97812488Y-79687017D01*
X97812489Y-79687017D01*
X97801006Y-79683940D01*
X97672475Y-79649500D01*
X97527525Y-79649500D01*
X97398993Y-79683940D01*
X97387511Y-79687017D01*
X97261988Y-79759488D01*
X97261982Y-79759493D01*
X97159493Y-79861982D01*
X97159488Y-79861988D01*
X97087017Y-79987511D01*
X97087016Y-79987515D01*
X97049500Y-80127525D01*
X94743868Y-80127525D01*
X94683440Y-80067097D01*
X94680324Y-80063459D01*
X94667876Y-80035783D01*
X94653334Y-80009151D01*
X94652528Y-80001663D01*
X94651663Y-79999738D01*
X94652046Y-79997175D01*
X94650500Y-79982794D01*
X94650500Y-78954993D01*
X94670185Y-78887954D01*
X94722989Y-78842199D01*
X94742395Y-78835222D01*
X94807762Y-78817707D01*
X94933292Y-78745232D01*
X95035786Y-78642738D01*
X95108261Y-78517208D01*
X95145777Y-78377198D01*
X95145777Y-78232248D01*
X95108261Y-78092238D01*
X95097333Y-78073311D01*
X95035788Y-77966711D01*
X95035783Y-77966705D01*
X94933294Y-77864216D01*
X94933288Y-77864211D01*
X94807765Y-77791740D01*
X94807766Y-77791740D01*
X94796283Y-77788663D01*
X94667752Y-77754223D01*
X94522802Y-77754223D01*
X94394270Y-77788663D01*
X94382788Y-77791740D01*
X94257265Y-77864211D01*
X94152627Y-77968849D01*
X94091304Y-78002333D01*
X94021612Y-77997349D01*
X93977265Y-77968848D01*
X93535943Y-77527526D01*
X96687000Y-77527526D01*
X96687000Y-77672476D01*
X96710985Y-77761988D01*
X96724517Y-77812489D01*
X96796988Y-77938012D01*
X96796990Y-77938014D01*
X96796991Y-77938016D01*
X96899485Y-78040510D01*
X96899486Y-78040511D01*
X96899488Y-78040512D01*
X97025011Y-78112983D01*
X97025012Y-78112983D01*
X97025015Y-78112985D01*
X97165025Y-78150501D01*
X97165028Y-78150501D01*
X97309972Y-78150501D01*
X97309975Y-78150501D01*
X97449985Y-78112985D01*
X97575515Y-78040510D01*
X97678009Y-77938016D01*
X97750484Y-77812486D01*
X97788000Y-77672476D01*
X97788000Y-77527526D01*
X100049502Y-77527526D01*
X100049502Y-77672476D01*
X100073487Y-77761988D01*
X100087019Y-77812489D01*
X100159490Y-77938012D01*
X100159492Y-77938014D01*
X100159493Y-77938016D01*
X100261987Y-78040510D01*
X100261988Y-78040511D01*
X100261990Y-78040512D01*
X100387513Y-78112983D01*
X100387514Y-78112983D01*
X100387517Y-78112985D01*
X100527527Y-78150501D01*
X100527530Y-78150501D01*
X100672474Y-78150501D01*
X100672477Y-78150501D01*
X100812487Y-78112985D01*
X100938017Y-78040510D01*
X100951002Y-78027525D01*
X103649500Y-78027525D01*
X103649500Y-78172475D01*
X103665517Y-78232250D01*
X103687017Y-78312488D01*
X103759488Y-78438011D01*
X103759490Y-78438013D01*
X103759491Y-78438015D01*
X103861985Y-78540509D01*
X103861986Y-78540510D01*
X103861988Y-78540511D01*
X103987511Y-78612982D01*
X103987512Y-78612982D01*
X103987515Y-78612984D01*
X104127525Y-78650500D01*
X104127528Y-78650500D01*
X104272472Y-78650500D01*
X104272475Y-78650500D01*
X104412485Y-78612984D01*
X104538015Y-78540509D01*
X104640509Y-78438015D01*
X104712984Y-78312485D01*
X104750500Y-78172475D01*
X104750500Y-78027525D01*
X104712984Y-77887515D01*
X104699532Y-77864216D01*
X104640511Y-77761988D01*
X104640506Y-77761982D01*
X104538017Y-77659493D01*
X104538011Y-77659488D01*
X104412488Y-77587017D01*
X104412489Y-77587017D01*
X104401006Y-77583940D01*
X104272475Y-77549500D01*
X104127525Y-77549500D01*
X103998993Y-77583940D01*
X103987511Y-77587017D01*
X103861988Y-77659488D01*
X103861982Y-77659493D01*
X103759493Y-77761982D01*
X103759488Y-77761988D01*
X103687017Y-77887511D01*
X103687016Y-77887515D01*
X103649500Y-78027525D01*
X100951002Y-78027525D01*
X101040511Y-77938016D01*
X101112986Y-77812486D01*
X101150502Y-77672476D01*
X101150502Y-77527526D01*
X101112986Y-77387516D01*
X101040511Y-77261986D01*
X100938017Y-77159492D01*
X100938015Y-77159491D01*
X100938013Y-77159489D01*
X100812490Y-77087018D01*
X100812491Y-77087018D01*
X100801008Y-77083941D01*
X100672477Y-77049501D01*
X100527527Y-77049501D01*
X100398995Y-77083941D01*
X100387513Y-77087018D01*
X100261990Y-77159489D01*
X100261984Y-77159494D01*
X100159495Y-77261983D01*
X100159490Y-77261989D01*
X100087019Y-77387512D01*
X100087018Y-77387516D01*
X100049502Y-77527526D01*
X97788000Y-77527526D01*
X97750484Y-77387516D01*
X97678009Y-77261986D01*
X97575515Y-77159492D01*
X97575513Y-77159491D01*
X97575511Y-77159489D01*
X97449988Y-77087018D01*
X97449989Y-77087018D01*
X97438506Y-77083941D01*
X97309975Y-77049501D01*
X97165025Y-77049501D01*
X97036493Y-77083941D01*
X97025011Y-77087018D01*
X96899488Y-77159489D01*
X96899482Y-77159494D01*
X96796993Y-77261983D01*
X96796988Y-77261989D01*
X96724517Y-77387512D01*
X96724516Y-77387516D01*
X96687000Y-77527526D01*
X93535943Y-77527526D01*
X92035942Y-76027525D01*
X95086999Y-76027525D01*
X95086999Y-76172475D01*
X95124515Y-76312485D01*
X95124516Y-76312488D01*
X95196987Y-76438011D01*
X95196989Y-76438013D01*
X95196990Y-76438015D01*
X95299484Y-76540509D01*
X95299485Y-76540510D01*
X95299487Y-76540511D01*
X95425010Y-76612982D01*
X95425011Y-76612982D01*
X95425014Y-76612984D01*
X95565024Y-76650500D01*
X95565027Y-76650500D01*
X95709971Y-76650500D01*
X95709974Y-76650500D01*
X95849984Y-76612984D01*
X95975514Y-76540509D01*
X96078008Y-76438015D01*
X96150483Y-76312485D01*
X96187999Y-76172475D01*
X96187999Y-76027525D01*
X96150483Y-75887515D01*
X96078008Y-75761985D01*
X95975514Y-75659491D01*
X95975512Y-75659490D01*
X95975510Y-75659488D01*
X95849987Y-75587017D01*
X95849988Y-75587017D01*
X95838505Y-75583940D01*
X95709974Y-75549500D01*
X95565024Y-75549500D01*
X95436492Y-75583940D01*
X95425010Y-75587017D01*
X95299487Y-75659488D01*
X95299481Y-75659493D01*
X95196992Y-75761982D01*
X95196987Y-75761988D01*
X95124516Y-75887511D01*
X95124515Y-75887515D01*
X95086999Y-76027525D01*
X92035942Y-76027525D01*
X87481151Y-71472734D01*
X87447666Y-71411411D01*
X87452650Y-71341719D01*
X87481151Y-71297371D01*
X87483286Y-71295235D01*
X87483291Y-71295233D01*
X87585785Y-71192739D01*
X87658260Y-71067209D01*
X87695776Y-70927199D01*
X87695776Y-70782249D01*
X87658260Y-70642239D01*
X87641370Y-70612984D01*
X87623135Y-70581400D01*
X87623134Y-70581399D01*
X87610485Y-70559491D01*
X87592030Y-70527525D01*
X88849500Y-70527525D01*
X88849500Y-70672475D01*
X88885112Y-70805378D01*
X88887017Y-70812488D01*
X88959488Y-70938011D01*
X88959490Y-70938013D01*
X88959491Y-70938015D01*
X89061985Y-71040509D01*
X89061986Y-71040510D01*
X89061988Y-71040511D01*
X89187511Y-71112982D01*
X89187512Y-71112982D01*
X89187515Y-71112984D01*
X89327525Y-71150500D01*
X89327528Y-71150500D01*
X89472472Y-71150500D01*
X89472475Y-71150500D01*
X89612485Y-71112984D01*
X89738015Y-71040509D01*
X89840509Y-70938015D01*
X89912984Y-70812485D01*
X89950500Y-70672475D01*
X89950500Y-70527525D01*
X89912984Y-70387515D01*
X89898244Y-70361985D01*
X89840511Y-70261988D01*
X89840506Y-70261982D01*
X89738017Y-70159493D01*
X89738011Y-70159488D01*
X89612488Y-70087017D01*
X89612489Y-70087017D01*
X89601006Y-70083940D01*
X89472475Y-70049500D01*
X89327525Y-70049500D01*
X89198993Y-70083940D01*
X89187511Y-70087017D01*
X89061988Y-70159488D01*
X89061982Y-70159493D01*
X88959493Y-70261982D01*
X88959488Y-70261988D01*
X88887017Y-70387511D01*
X88887016Y-70387515D01*
X88849500Y-70527525D01*
X87592030Y-70527525D01*
X87585785Y-70516709D01*
X87483291Y-70414215D01*
X87483289Y-70414214D01*
X87483287Y-70414212D01*
X87357764Y-70341741D01*
X87357765Y-70341741D01*
X87346282Y-70338664D01*
X87217751Y-70304224D01*
X87072801Y-70304224D01*
X86944269Y-70338664D01*
X86932787Y-70341741D01*
X86807264Y-70414212D01*
X86807258Y-70414217D01*
X86704769Y-70516706D01*
X86704765Y-70516712D01*
X86649462Y-70612500D01*
X86598895Y-70660716D01*
X86542075Y-70674500D01*
X84004387Y-70674500D01*
X83937348Y-70654815D01*
X83916706Y-70638182D01*
X83891024Y-70612500D01*
X83838015Y-70559491D01*
X83838012Y-70559489D01*
X83838011Y-70559488D01*
X83712488Y-70487017D01*
X83712489Y-70487017D01*
X83701006Y-70483940D01*
X83572475Y-70449500D01*
X83427525Y-70449500D01*
X83298993Y-70483940D01*
X83287511Y-70487017D01*
X83161988Y-70559488D01*
X83161982Y-70559493D01*
X83059493Y-70661982D01*
X83059488Y-70661988D01*
X82987017Y-70787511D01*
X82987016Y-70787515D01*
X82949500Y-70927525D01*
X82949500Y-71072475D01*
X82970407Y-71150500D01*
X82987017Y-71212488D01*
X83045337Y-71313500D01*
X83061810Y-71381400D01*
X83038958Y-71447427D01*
X82984037Y-71490617D01*
X82937950Y-71499500D01*
X79562050Y-71499500D01*
X79495011Y-71479815D01*
X79449256Y-71427011D01*
X79439312Y-71357853D01*
X79454663Y-71313500D01*
X79512982Y-71212488D01*
X79512981Y-71212488D01*
X79512984Y-71212485D01*
X79550500Y-71072475D01*
X79550500Y-70927525D01*
X79512984Y-70787515D01*
X79472465Y-70717335D01*
X79440511Y-70661988D01*
X79440506Y-70661982D01*
X79338017Y-70559493D01*
X79338011Y-70559488D01*
X79212488Y-70487017D01*
X79212489Y-70487017D01*
X79201006Y-70483940D01*
X79072475Y-70449500D01*
X78927525Y-70449500D01*
X78798993Y-70483940D01*
X78787511Y-70487017D01*
X78661988Y-70559488D01*
X78661982Y-70559493D01*
X78559493Y-70661982D01*
X78559488Y-70661988D01*
X78487017Y-70787511D01*
X78487016Y-70787515D01*
X78449500Y-70927525D01*
X78449500Y-71072475D01*
X78470407Y-71150500D01*
X78487017Y-71212488D01*
X78545337Y-71313500D01*
X78561810Y-71381400D01*
X78538958Y-71447427D01*
X78484037Y-71490617D01*
X78437950Y-71499500D01*
X75624500Y-71499500D01*
X75557461Y-71479815D01*
X75511706Y-71427011D01*
X75500500Y-71375500D01*
X75500500Y-69428526D01*
X84324500Y-69428526D01*
X84324500Y-69573476D01*
X84362016Y-69713486D01*
X84362017Y-69713489D01*
X84434488Y-69839012D01*
X84434490Y-69839014D01*
X84434491Y-69839016D01*
X84536985Y-69941510D01*
X84536986Y-69941511D01*
X84536988Y-69941512D01*
X84662511Y-70013983D01*
X84662512Y-70013983D01*
X84662515Y-70013985D01*
X84802525Y-70051501D01*
X84802528Y-70051501D01*
X84947472Y-70051501D01*
X84947475Y-70051501D01*
X85087485Y-70013985D01*
X85213015Y-69941510D01*
X85315509Y-69839016D01*
X85387984Y-69713486D01*
X85425500Y-69573476D01*
X85425500Y-69428526D01*
X85387984Y-69288516D01*
X85352999Y-69227921D01*
X85315511Y-69162989D01*
X85315506Y-69162983D01*
X85213017Y-69060494D01*
X85213011Y-69060489D01*
X85087488Y-68988018D01*
X85087489Y-68988018D01*
X85076006Y-68984941D01*
X84947475Y-68950501D01*
X84802525Y-68950501D01*
X84673993Y-68984941D01*
X84662511Y-68988018D01*
X84536988Y-69060489D01*
X84536982Y-69060494D01*
X84434493Y-69162983D01*
X84434488Y-69162989D01*
X84362017Y-69288512D01*
X84362016Y-69288516D01*
X84324500Y-69428526D01*
X75500500Y-69428526D01*
X75500500Y-67827525D01*
X79049500Y-67827525D01*
X79049500Y-67972475D01*
X79085532Y-68106947D01*
X79087017Y-68112488D01*
X79159488Y-68238011D01*
X79159490Y-68238013D01*
X79159491Y-68238015D01*
X79261985Y-68340509D01*
X79261986Y-68340510D01*
X79261988Y-68340511D01*
X79387511Y-68412982D01*
X79387512Y-68412982D01*
X79387515Y-68412984D01*
X79527525Y-68450500D01*
X79527528Y-68450500D01*
X79672472Y-68450500D01*
X79672475Y-68450500D01*
X79812485Y-68412984D01*
X79938015Y-68340509D01*
X79950999Y-68327525D01*
X81349500Y-68327525D01*
X81349500Y-68472475D01*
X81387016Y-68612485D01*
X81387017Y-68612488D01*
X81459488Y-68738011D01*
X81459490Y-68738013D01*
X81459491Y-68738015D01*
X81561985Y-68840509D01*
X81561986Y-68840510D01*
X81561988Y-68840511D01*
X81687511Y-68912982D01*
X81687512Y-68912982D01*
X81687515Y-68912984D01*
X81827525Y-68950500D01*
X81827528Y-68950500D01*
X81972472Y-68950500D01*
X81972475Y-68950500D01*
X82112485Y-68912984D01*
X82238015Y-68840509D01*
X82340509Y-68738015D01*
X82412984Y-68612485D01*
X82450500Y-68472475D01*
X82450500Y-68327525D01*
X82412984Y-68187515D01*
X82369665Y-68112485D01*
X82340511Y-68061988D01*
X82340506Y-68061982D01*
X82242753Y-67964229D01*
X82209268Y-67902906D01*
X82214252Y-67833214D01*
X82256124Y-67777281D01*
X82298336Y-67756775D01*
X82312485Y-67752984D01*
X82438015Y-67680509D01*
X82540509Y-67578015D01*
X82612984Y-67452485D01*
X82650500Y-67312475D01*
X82650500Y-67302525D01*
X86015429Y-67302525D01*
X86015429Y-67447475D01*
X86050408Y-67578017D01*
X86052946Y-67587488D01*
X86125417Y-67713011D01*
X86125419Y-67713013D01*
X86125420Y-67713015D01*
X86227914Y-67815509D01*
X86227915Y-67815510D01*
X86227917Y-67815511D01*
X86353440Y-67887982D01*
X86353441Y-67887982D01*
X86353444Y-67887984D01*
X86493454Y-67925500D01*
X86493457Y-67925500D01*
X86638401Y-67925500D01*
X86638404Y-67925500D01*
X86778414Y-67887984D01*
X86903944Y-67815509D01*
X87006438Y-67713015D01*
X87078913Y-67587485D01*
X87116429Y-67447475D01*
X87116429Y-67302525D01*
X87078913Y-67162515D01*
X87040041Y-67095187D01*
X87023569Y-67027290D01*
X87042571Y-66972385D01*
X87040183Y-66971006D01*
X87080277Y-66901562D01*
X87116722Y-66838437D01*
X87154238Y-66698427D01*
X87154238Y-66553477D01*
X87116722Y-66413467D01*
X87082764Y-66354651D01*
X87044249Y-66287940D01*
X87044244Y-66287934D01*
X86941755Y-66185445D01*
X86941749Y-66185440D01*
X86816226Y-66112969D01*
X86816227Y-66112969D01*
X86804744Y-66109892D01*
X86676213Y-66075452D01*
X86531263Y-66075452D01*
X86402731Y-66109892D01*
X86391249Y-66112969D01*
X86265726Y-66185440D01*
X86265720Y-66185445D01*
X86163231Y-66287934D01*
X86163226Y-66287940D01*
X86090755Y-66413463D01*
X86090754Y-66413467D01*
X86053238Y-66553477D01*
X86053238Y-66698427D01*
X86090754Y-66838437D01*
X86129624Y-66905761D01*
X86146097Y-66973662D01*
X86127094Y-67028567D01*
X86129483Y-67029947D01*
X86052946Y-67162511D01*
X86052945Y-67162515D01*
X86015429Y-67302525D01*
X82650500Y-67302525D01*
X82650500Y-67167525D01*
X82612984Y-67027515D01*
X82608287Y-67019380D01*
X82540511Y-66901988D01*
X82540506Y-66901982D01*
X82438017Y-66799493D01*
X82438015Y-66799491D01*
X82333786Y-66739314D01*
X82321288Y-66732098D01*
X82273073Y-66681530D01*
X82259851Y-66612923D01*
X82285819Y-66548059D01*
X82321289Y-66517324D01*
X82425515Y-66457149D01*
X82528009Y-66354655D01*
X82600484Y-66229125D01*
X82638000Y-66089115D01*
X82638000Y-65944165D01*
X82600484Y-65804155D01*
X82560506Y-65734912D01*
X82528011Y-65678628D01*
X82528006Y-65678622D01*
X82425517Y-65576133D01*
X82425511Y-65576128D01*
X82299988Y-65503657D01*
X82299989Y-65503657D01*
X82288506Y-65500580D01*
X82159975Y-65466140D01*
X82015025Y-65466140D01*
X81886493Y-65500580D01*
X81875011Y-65503657D01*
X81749488Y-65576128D01*
X81749482Y-65576133D01*
X81646993Y-65678622D01*
X81646988Y-65678628D01*
X81574517Y-65804151D01*
X81574516Y-65804155D01*
X81537000Y-65944165D01*
X81537000Y-66089115D01*
X81562812Y-66185445D01*
X81574517Y-66229128D01*
X81646988Y-66354651D01*
X81646990Y-66354653D01*
X81646991Y-66354655D01*
X81749485Y-66457149D01*
X81812828Y-66493720D01*
X81866211Y-66524541D01*
X81914426Y-66575108D01*
X81927648Y-66643716D01*
X81901680Y-66708580D01*
X81866211Y-66739314D01*
X81761991Y-66799487D01*
X81761982Y-66799493D01*
X81659493Y-66901982D01*
X81659488Y-66901988D01*
X81587017Y-67027511D01*
X81587016Y-67027515D01*
X81549500Y-67167525D01*
X81549500Y-67312475D01*
X81585673Y-67447472D01*
X81587017Y-67452488D01*
X81659488Y-67578011D01*
X81659493Y-67578017D01*
X81757246Y-67675770D01*
X81790731Y-67737093D01*
X81785747Y-67806785D01*
X81743875Y-67862718D01*
X81701662Y-67883225D01*
X81687513Y-67887016D01*
X81687511Y-67887017D01*
X81561988Y-67959488D01*
X81561982Y-67959493D01*
X81459493Y-68061982D01*
X81459488Y-68061988D01*
X81387017Y-68187511D01*
X81387016Y-68187515D01*
X81349500Y-68327525D01*
X79950999Y-68327525D01*
X80040509Y-68238015D01*
X80112984Y-68112485D01*
X80150500Y-67972475D01*
X80150500Y-67827525D01*
X80112984Y-67687515D01*
X80108940Y-67680511D01*
X80040511Y-67561988D01*
X80040506Y-67561982D01*
X79938017Y-67459493D01*
X79938011Y-67459488D01*
X79812488Y-67387017D01*
X79812489Y-67387017D01*
X79801006Y-67383940D01*
X79672475Y-67349500D01*
X79527525Y-67349500D01*
X79398993Y-67383940D01*
X79387511Y-67387017D01*
X79261988Y-67459488D01*
X79261982Y-67459493D01*
X79159493Y-67561982D01*
X79159488Y-67561988D01*
X79087017Y-67687511D01*
X79087016Y-67687515D01*
X79049500Y-67827525D01*
X75500500Y-67827525D01*
X75500500Y-65427600D01*
X79050500Y-65427600D01*
X79050500Y-65572550D01*
X79078923Y-65678625D01*
X79088017Y-65712563D01*
X79160488Y-65838086D01*
X79160490Y-65838088D01*
X79160491Y-65838090D01*
X79262985Y-65940584D01*
X79262986Y-65940585D01*
X79262988Y-65940586D01*
X79388511Y-66013057D01*
X79388512Y-66013057D01*
X79388515Y-66013059D01*
X79528525Y-66050575D01*
X79528528Y-66050575D01*
X79673472Y-66050575D01*
X79673475Y-66050575D01*
X79813485Y-66013059D01*
X79939015Y-65940584D01*
X80041509Y-65838090D01*
X80113984Y-65712560D01*
X80151500Y-65572550D01*
X80151500Y-65427600D01*
X80113984Y-65287590D01*
X80105257Y-65272475D01*
X80041511Y-65162063D01*
X80041506Y-65162057D01*
X79939017Y-65059568D01*
X79939011Y-65059563D01*
X79813488Y-64987092D01*
X79813489Y-64987092D01*
X79802006Y-64984015D01*
X79673475Y-64949575D01*
X79528525Y-64949575D01*
X79399993Y-64984015D01*
X79388511Y-64987092D01*
X79262988Y-65059563D01*
X79262982Y-65059568D01*
X79160493Y-65162057D01*
X79160488Y-65162063D01*
X79088017Y-65287586D01*
X79088016Y-65287590D01*
X79050500Y-65427600D01*
X75500500Y-65427600D01*
X75500500Y-64027525D01*
X79249500Y-64027525D01*
X79249500Y-64172475D01*
X79274316Y-64265087D01*
X79287017Y-64312488D01*
X79359488Y-64438011D01*
X79359490Y-64438013D01*
X79359491Y-64438015D01*
X79461985Y-64540509D01*
X79461986Y-64540510D01*
X79461988Y-64540511D01*
X79587511Y-64612982D01*
X79587512Y-64612982D01*
X79587515Y-64612984D01*
X79727525Y-64650500D01*
X79727528Y-64650500D01*
X79872472Y-64650500D01*
X79872475Y-64650500D01*
X80012485Y-64612984D01*
X80138015Y-64540509D01*
X80240509Y-64438015D01*
X80312984Y-64312485D01*
X80350500Y-64172475D01*
X80350500Y-64027525D01*
X80312984Y-63887515D01*
X80280078Y-63830521D01*
X80240511Y-63761988D01*
X80240506Y-63761982D01*
X80138017Y-63659493D01*
X80138011Y-63659488D01*
X80012488Y-63587017D01*
X80012489Y-63587017D01*
X80001006Y-63583940D01*
X79872475Y-63549500D01*
X79727525Y-63549500D01*
X79598993Y-63583940D01*
X79587511Y-63587017D01*
X79461988Y-63659488D01*
X79461982Y-63659493D01*
X79359493Y-63761982D01*
X79359488Y-63761988D01*
X79287017Y-63887511D01*
X79284986Y-63895090D01*
X79249500Y-64027525D01*
X75500500Y-64027525D01*
X75500500Y-62127525D01*
X81249500Y-62127525D01*
X81249500Y-62272475D01*
X81280416Y-62387853D01*
X81287017Y-62412488D01*
X81359488Y-62538011D01*
X81359490Y-62538013D01*
X81359491Y-62538015D01*
X81461985Y-62640509D01*
X81524436Y-62676565D01*
X81531236Y-62680491D01*
X81579451Y-62731058D01*
X81592673Y-62799666D01*
X81566705Y-62864530D01*
X81556917Y-62875559D01*
X81459488Y-62972988D01*
X81387017Y-63098511D01*
X81387016Y-63098515D01*
X81349500Y-63238525D01*
X81349500Y-63383475D01*
X81376064Y-63482611D01*
X81387017Y-63523488D01*
X81459488Y-63649011D01*
X81459490Y-63649013D01*
X81459491Y-63649015D01*
X81561985Y-63751509D01*
X81561986Y-63751510D01*
X81561988Y-63751511D01*
X81687511Y-63823982D01*
X81687512Y-63823982D01*
X81687515Y-63823984D01*
X81827525Y-63861500D01*
X81827528Y-63861500D01*
X81972472Y-63861500D01*
X81972475Y-63861500D01*
X82112485Y-63823984D01*
X82238015Y-63751509D01*
X82340509Y-63649015D01*
X82412984Y-63523485D01*
X82450500Y-63383475D01*
X82450500Y-63238525D01*
X82412984Y-63098515D01*
X82378055Y-63038017D01*
X82340511Y-62972988D01*
X82340506Y-62972982D01*
X82238017Y-62870493D01*
X82238015Y-62870491D01*
X82168763Y-62830508D01*
X82151534Y-62812439D01*
X82131542Y-62797492D01*
X82127841Y-62787589D01*
X82120548Y-62779940D01*
X82115824Y-62755430D01*
X82107085Y-62732043D01*
X82109326Y-62721710D01*
X82107326Y-62711333D01*
X82116602Y-62688160D01*
X82121895Y-62663761D01*
X82131523Y-62650890D01*
X82133294Y-62646468D01*
X82143013Y-62635510D01*
X82150998Y-62627525D01*
X85949500Y-62627525D01*
X85949500Y-62772475D01*
X85977122Y-62875559D01*
X85987017Y-62912488D01*
X86059488Y-63038011D01*
X86059490Y-63038013D01*
X86059491Y-63038015D01*
X86161985Y-63140509D01*
X86161986Y-63140510D01*
X86161988Y-63140511D01*
X86287511Y-63212982D01*
X86287512Y-63212982D01*
X86287515Y-63212984D01*
X86368512Y-63234687D01*
X86428170Y-63271051D01*
X86458699Y-63333898D01*
X86450404Y-63403274D01*
X86405919Y-63457152D01*
X86398418Y-63461847D01*
X86362453Y-63482612D01*
X86362447Y-63482616D01*
X86259958Y-63585105D01*
X86259953Y-63585111D01*
X86187482Y-63710634D01*
X86187481Y-63710638D01*
X86149965Y-63850648D01*
X86149965Y-63995598D01*
X86180665Y-64110170D01*
X86187482Y-64135611D01*
X86259953Y-64261134D01*
X86259955Y-64261136D01*
X86259956Y-64261138D01*
X86362450Y-64363632D01*
X86362451Y-64363633D01*
X86362453Y-64363634D01*
X86487976Y-64436105D01*
X86487977Y-64436105D01*
X86487980Y-64436107D01*
X86627990Y-64473623D01*
X86627993Y-64473623D01*
X86762556Y-64473623D01*
X86829595Y-64493308D01*
X86875350Y-64546112D01*
X86885294Y-64615270D01*
X86869944Y-64659619D01*
X86808517Y-64766015D01*
X86771001Y-64906025D01*
X86771001Y-65050975D01*
X86807713Y-65187984D01*
X86808518Y-65190988D01*
X86880989Y-65316511D01*
X86880991Y-65316513D01*
X86880992Y-65316515D01*
X86983486Y-65419009D01*
X86983487Y-65419010D01*
X86983489Y-65419011D01*
X87109012Y-65491482D01*
X87109013Y-65491482D01*
X87109016Y-65491484D01*
X87249026Y-65529000D01*
X87249029Y-65529000D01*
X87393973Y-65529000D01*
X87393976Y-65529000D01*
X87533986Y-65491484D01*
X87659516Y-65419009D01*
X87762010Y-65316515D01*
X87834485Y-65190985D01*
X87872001Y-65050975D01*
X87872001Y-64906025D01*
X87860293Y-64862332D01*
X89399499Y-64862332D01*
X89399499Y-65137667D01*
X89399500Y-65137684D01*
X89435437Y-65410655D01*
X89435438Y-65410660D01*
X89435439Y-65410666D01*
X89460356Y-65503657D01*
X89506703Y-65676630D01*
X89612074Y-65931017D01*
X89612079Y-65931028D01*
X89682783Y-66053489D01*
X89749750Y-66169479D01*
X89749752Y-66169482D01*
X89749753Y-66169483D01*
X89917369Y-66387926D01*
X89917375Y-66387933D01*
X90112065Y-66582623D01*
X90112072Y-66582629D01*
X90118440Y-66587515D01*
X90330520Y-66750249D01*
X90483266Y-66838437D01*
X90568970Y-66887919D01*
X90568975Y-66887921D01*
X90568978Y-66887923D01*
X90823367Y-66993295D01*
X91089333Y-67064560D01*
X91362325Y-67100500D01*
X91362332Y-67100500D01*
X91447601Y-67100500D01*
X91514640Y-67120185D01*
X91560395Y-67172989D01*
X91570339Y-67242147D01*
X91541314Y-67305703D01*
X91535282Y-67312181D01*
X91433087Y-67414375D01*
X91188894Y-67705392D01*
X90971007Y-68016567D01*
X90970991Y-68016593D01*
X90781052Y-68345576D01*
X90781044Y-68345591D01*
X90620503Y-68689874D01*
X90620500Y-68689880D01*
X90620499Y-68689884D01*
X90592266Y-68767454D01*
X90495173Y-69034213D01*
X90490567Y-69046867D01*
X90482457Y-69077135D01*
X90392243Y-69413814D01*
X90392241Y-69413825D01*
X90326276Y-69787932D01*
X90326276Y-69787936D01*
X90293166Y-70166383D01*
X90293166Y-70546284D01*
X90326276Y-70924731D01*
X90326276Y-70924735D01*
X90377102Y-71212982D01*
X90392243Y-71298852D01*
X90490567Y-71665801D01*
X90620499Y-72022784D01*
X90620502Y-72022791D01*
X90620503Y-72022793D01*
X90781044Y-72367076D01*
X90781049Y-72367085D01*
X90970996Y-72696083D01*
X90971000Y-72696089D01*
X90971007Y-72696100D01*
X91188894Y-73007275D01*
X91365396Y-73217621D01*
X91433085Y-73298290D01*
X91701710Y-73566915D01*
X91719962Y-73582230D01*
X91992724Y-73811105D01*
X92303899Y-74028992D01*
X92303906Y-74028996D01*
X92303917Y-74029004D01*
X92534242Y-74161982D01*
X92632908Y-74218947D01*
X92632923Y-74218955D01*
X92667821Y-74235228D01*
X92977216Y-74379501D01*
X93334199Y-74509433D01*
X93701148Y-74607757D01*
X94075271Y-74673724D01*
X94453717Y-74706833D01*
X94453718Y-74706834D01*
X94453719Y-74706834D01*
X94833614Y-74706834D01*
X94833614Y-74706833D01*
X95212061Y-74673724D01*
X95586184Y-74607757D01*
X95953133Y-74509433D01*
X96310116Y-74379501D01*
X96654417Y-74218951D01*
X96983415Y-74029004D01*
X97294606Y-73811106D01*
X97585622Y-73566915D01*
X97687819Y-73464718D01*
X97749142Y-73431233D01*
X97818834Y-73436217D01*
X97874767Y-73478089D01*
X97899184Y-73543553D01*
X97899500Y-73552399D01*
X97899500Y-73637668D01*
X97899501Y-73637685D01*
X97935438Y-73910656D01*
X97935439Y-73910661D01*
X97935440Y-73910667D01*
X97955898Y-73987016D01*
X98006704Y-74176631D01*
X98112075Y-74431018D01*
X98112080Y-74431029D01*
X98191809Y-74569122D01*
X98249751Y-74669480D01*
X98249753Y-74669483D01*
X98249754Y-74669484D01*
X98417370Y-74887927D01*
X98417376Y-74887934D01*
X98612066Y-75082624D01*
X98612072Y-75082629D01*
X98830521Y-75250250D01*
X98948063Y-75318113D01*
X98996279Y-75368680D01*
X99009501Y-75437287D01*
X98983533Y-75502152D01*
X98926619Y-75542680D01*
X98886063Y-75549500D01*
X98865025Y-75549500D01*
X98736493Y-75583940D01*
X98725011Y-75587017D01*
X98599488Y-75659488D01*
X98599482Y-75659493D01*
X98496993Y-75761982D01*
X98496988Y-75761988D01*
X98424517Y-75887511D01*
X98424516Y-75887515D01*
X98387000Y-76027525D01*
X98387000Y-76172475D01*
X98424516Y-76312485D01*
X98424517Y-76312488D01*
X98496988Y-76438011D01*
X98496990Y-76438013D01*
X98496991Y-76438015D01*
X98599485Y-76540509D01*
X98599486Y-76540510D01*
X98599488Y-76540511D01*
X98725011Y-76612982D01*
X98725012Y-76612982D01*
X98725015Y-76612984D01*
X98865025Y-76650500D01*
X98865028Y-76650500D01*
X99009972Y-76650500D01*
X99009975Y-76650500D01*
X99149985Y-76612984D01*
X99275515Y-76540509D01*
X99378009Y-76438015D01*
X99450484Y-76312485D01*
X99488000Y-76172475D01*
X99488000Y-76027525D01*
X101686999Y-76027525D01*
X101686999Y-76172475D01*
X101724515Y-76312485D01*
X101724516Y-76312488D01*
X101796987Y-76438011D01*
X101796989Y-76438013D01*
X101796990Y-76438015D01*
X101899484Y-76540509D01*
X101899485Y-76540510D01*
X101899487Y-76540511D01*
X102025010Y-76612982D01*
X102025011Y-76612982D01*
X102025014Y-76612984D01*
X102165024Y-76650500D01*
X102165027Y-76650500D01*
X102309971Y-76650500D01*
X102309974Y-76650500D01*
X102449984Y-76612984D01*
X102575514Y-76540509D01*
X102678008Y-76438015D01*
X102750483Y-76312485D01*
X102787999Y-76172475D01*
X102787999Y-76027525D01*
X102750483Y-75887515D01*
X102678008Y-75761985D01*
X102575514Y-75659491D01*
X102575512Y-75659490D01*
X102575510Y-75659488D01*
X102449987Y-75587017D01*
X102449988Y-75587017D01*
X102438505Y-75583940D01*
X102309974Y-75549500D01*
X102165024Y-75549500D01*
X102036492Y-75583940D01*
X102025010Y-75587017D01*
X101899487Y-75659488D01*
X101899481Y-75659493D01*
X101796992Y-75761982D01*
X101796987Y-75761988D01*
X101724516Y-75887511D01*
X101724515Y-75887515D01*
X101686999Y-76027525D01*
X99488000Y-76027525D01*
X99450484Y-75887515D01*
X99378009Y-75761985D01*
X99358202Y-75742178D01*
X99324717Y-75680855D01*
X99329701Y-75611163D01*
X99371573Y-75555230D01*
X99437037Y-75530813D01*
X99477970Y-75534721D01*
X99589334Y-75564561D01*
X99862326Y-75600501D01*
X99862333Y-75600501D01*
X100137667Y-75600501D01*
X100137674Y-75600501D01*
X100410666Y-75564561D01*
X100676632Y-75493296D01*
X100931021Y-75387924D01*
X101169479Y-75250250D01*
X101387928Y-75082629D01*
X101582628Y-74887929D01*
X101750249Y-74669480D01*
X101887923Y-74431022D01*
X101889372Y-74427525D01*
X104549500Y-74427525D01*
X104549500Y-74572475D01*
X104575493Y-74669480D01*
X104587017Y-74712488D01*
X104659488Y-74838011D01*
X104659490Y-74838013D01*
X104659491Y-74838015D01*
X104761985Y-74940509D01*
X104761986Y-74940510D01*
X104761988Y-74940511D01*
X104887511Y-75012982D01*
X104887512Y-75012982D01*
X104887515Y-75012984D01*
X105027525Y-75050500D01*
X105027528Y-75050500D01*
X105172472Y-75050500D01*
X105172475Y-75050500D01*
X105312485Y-75012984D01*
X105438015Y-74940509D01*
X105540509Y-74838015D01*
X105612984Y-74712485D01*
X105650500Y-74572475D01*
X105650500Y-74427525D01*
X105612984Y-74287515D01*
X105582794Y-74235225D01*
X105540511Y-74161988D01*
X105540506Y-74161982D01*
X105438017Y-74059493D01*
X105438011Y-74059488D01*
X105312488Y-73987017D01*
X105312489Y-73987017D01*
X105301006Y-73983940D01*
X105172475Y-73949500D01*
X105027525Y-73949500D01*
X104898993Y-73983940D01*
X104887511Y-73987017D01*
X104761988Y-74059488D01*
X104761982Y-74059493D01*
X104659493Y-74161982D01*
X104659488Y-74161988D01*
X104587017Y-74287511D01*
X104587016Y-74287515D01*
X104549500Y-74427525D01*
X101889372Y-74427525D01*
X101993295Y-74176633D01*
X102064560Y-73910667D01*
X102089366Y-73722244D01*
X106554781Y-73722244D01*
X106554781Y-73867194D01*
X106586888Y-73987016D01*
X106592298Y-74007207D01*
X106664769Y-74132730D01*
X106664771Y-74132732D01*
X106664772Y-74132734D01*
X106767266Y-74235228D01*
X106767267Y-74235229D01*
X106767269Y-74235230D01*
X106892792Y-74307701D01*
X106892793Y-74307701D01*
X106892796Y-74307703D01*
X107032806Y-74345219D01*
X107032809Y-74345219D01*
X107177753Y-74345219D01*
X107177756Y-74345219D01*
X107317766Y-74307703D01*
X107443296Y-74235228D01*
X107545790Y-74132734D01*
X107618265Y-74007204D01*
X107655781Y-73867194D01*
X107655781Y-73722244D01*
X107618265Y-73582234D01*
X107595932Y-73543553D01*
X107545792Y-73456707D01*
X107545787Y-73456701D01*
X107443298Y-73354212D01*
X107443292Y-73354207D01*
X107317769Y-73281736D01*
X107317770Y-73281736D01*
X107306287Y-73278659D01*
X107177756Y-73244219D01*
X107032806Y-73244219D01*
X106904274Y-73278659D01*
X106892792Y-73281736D01*
X106767269Y-73354207D01*
X106767263Y-73354212D01*
X106664774Y-73456701D01*
X106664769Y-73456707D01*
X106592298Y-73582230D01*
X106592297Y-73582234D01*
X106554781Y-73722244D01*
X102089366Y-73722244D01*
X102100500Y-73637675D01*
X102100500Y-73362327D01*
X102064560Y-73089335D01*
X101993295Y-72823369D01*
X101887923Y-72568980D01*
X101887921Y-72568977D01*
X101887919Y-72568972D01*
X101837359Y-72481400D01*
X101837358Y-72481399D01*
X101828694Y-72466392D01*
X101806254Y-72427525D01*
X109549500Y-72427525D01*
X109549500Y-72572475D01*
X109574007Y-72663935D01*
X109587017Y-72712488D01*
X109659488Y-72838011D01*
X109659490Y-72838013D01*
X109659491Y-72838015D01*
X109761985Y-72940509D01*
X109761986Y-72940510D01*
X109761988Y-72940511D01*
X109887511Y-73012982D01*
X109887512Y-73012982D01*
X109887515Y-73012984D01*
X110027525Y-73050500D01*
X110027528Y-73050500D01*
X110172472Y-73050500D01*
X110172475Y-73050500D01*
X110312485Y-73012984D01*
X110438015Y-72940509D01*
X110540509Y-72838015D01*
X110612984Y-72712485D01*
X110650500Y-72572475D01*
X110650500Y-72427525D01*
X110612984Y-72287515D01*
X110540509Y-72161985D01*
X110438015Y-72059491D01*
X110438013Y-72059490D01*
X110438011Y-72059488D01*
X110312488Y-71987017D01*
X110312489Y-71987017D01*
X110301006Y-71983940D01*
X110172475Y-71949500D01*
X110027525Y-71949500D01*
X109898993Y-71983940D01*
X109887511Y-71987017D01*
X109761988Y-72059488D01*
X109761982Y-72059493D01*
X109659493Y-72161982D01*
X109659488Y-72161988D01*
X109587017Y-72287511D01*
X109587016Y-72287515D01*
X109549500Y-72427525D01*
X101806254Y-72427525D01*
X101750249Y-72330522D01*
X101620927Y-72161985D01*
X101582629Y-72112074D01*
X101582623Y-72112067D01*
X101387933Y-71917377D01*
X101387926Y-71917371D01*
X101169483Y-71749755D01*
X101169482Y-71749754D01*
X101169479Y-71749752D01*
X101074407Y-71694862D01*
X100931028Y-71612081D01*
X100931017Y-71612076D01*
X100676630Y-71506705D01*
X100543649Y-71471073D01*
X100410666Y-71435441D01*
X100410660Y-71435440D01*
X100410655Y-71435439D01*
X100137684Y-71399502D01*
X100137679Y-71399501D01*
X100137674Y-71399501D01*
X99862326Y-71399501D01*
X99862320Y-71399501D01*
X99862315Y-71399502D01*
X99589344Y-71435439D01*
X99589337Y-71435440D01*
X99589334Y-71435441D01*
X99533125Y-71450501D01*
X99323369Y-71506705D01*
X99068982Y-71612076D01*
X99068968Y-71612082D01*
X99023229Y-71638490D01*
X98955329Y-71654961D01*
X98889302Y-71632108D01*
X98846113Y-71577186D01*
X98839472Y-71507633D01*
X98841448Y-71499039D01*
X98895089Y-71298852D01*
X98960563Y-70927525D01*
X98961055Y-70924735D01*
X98961055Y-70924734D01*
X98961056Y-70924729D01*
X98994166Y-70546281D01*
X98994166Y-70166387D01*
X98982017Y-70027527D01*
X98982017Y-70027525D01*
X105749500Y-70027525D01*
X105749500Y-70172475D01*
X105787016Y-70312485D01*
X105787017Y-70312488D01*
X105859488Y-70438011D01*
X105859490Y-70438013D01*
X105859491Y-70438015D01*
X105961985Y-70540509D01*
X105961986Y-70540510D01*
X105961988Y-70540511D01*
X106087511Y-70612982D01*
X106087512Y-70612982D01*
X106087515Y-70612984D01*
X106227525Y-70650500D01*
X106227528Y-70650500D01*
X106372472Y-70650500D01*
X106372475Y-70650500D01*
X106458218Y-70627525D01*
X108349500Y-70627525D01*
X108349500Y-70772475D01*
X108369686Y-70847808D01*
X108387017Y-70912488D01*
X108459488Y-71038011D01*
X108459490Y-71038013D01*
X108459491Y-71038015D01*
X108561985Y-71140509D01*
X108561986Y-71140510D01*
X108561988Y-71140511D01*
X108687511Y-71212982D01*
X108687512Y-71212982D01*
X108687515Y-71212984D01*
X108827525Y-71250500D01*
X108827528Y-71250500D01*
X108972472Y-71250500D01*
X108972475Y-71250500D01*
X109112485Y-71212984D01*
X109238015Y-71140509D01*
X109340509Y-71038015D01*
X109412984Y-70912485D01*
X109450500Y-70772475D01*
X109450500Y-70627525D01*
X109412984Y-70487515D01*
X109412696Y-70487017D01*
X109340511Y-70361988D01*
X109340506Y-70361982D01*
X109238017Y-70259493D01*
X109238011Y-70259488D01*
X109112488Y-70187017D01*
X109112489Y-70187017D01*
X109101006Y-70183940D01*
X108972475Y-70149500D01*
X108827525Y-70149500D01*
X108698993Y-70183940D01*
X108687511Y-70187017D01*
X108561988Y-70259488D01*
X108561982Y-70259493D01*
X108459493Y-70361982D01*
X108459488Y-70361988D01*
X108387017Y-70487511D01*
X108387016Y-70487515D01*
X108349500Y-70627525D01*
X106458218Y-70627525D01*
X106512485Y-70612984D01*
X106638015Y-70540509D01*
X106740509Y-70438015D01*
X106812984Y-70312485D01*
X106850500Y-70172475D01*
X106850500Y-70027525D01*
X106812984Y-69887515D01*
X106740509Y-69761985D01*
X106638015Y-69659491D01*
X106638013Y-69659490D01*
X106638011Y-69659488D01*
X106512488Y-69587017D01*
X106512489Y-69587017D01*
X106501006Y-69583940D01*
X106372475Y-69549500D01*
X106227525Y-69549500D01*
X106098993Y-69583940D01*
X106087511Y-69587017D01*
X105961988Y-69659488D01*
X105961982Y-69659493D01*
X105859493Y-69761982D01*
X105859488Y-69761988D01*
X105787017Y-69887511D01*
X105782583Y-69904055D01*
X105749500Y-70027525D01*
X98982017Y-70027525D01*
X98969767Y-69887511D01*
X98961056Y-69787939D01*
X98895089Y-69413816D01*
X98804875Y-69077135D01*
X112124500Y-69077135D01*
X112124500Y-70522870D01*
X112124501Y-70522876D01*
X112130908Y-70582483D01*
X112181202Y-70717328D01*
X112181206Y-70717335D01*
X112267452Y-70832544D01*
X112267455Y-70832547D01*
X112382664Y-70918793D01*
X112382671Y-70918797D01*
X112517517Y-70969091D01*
X112517516Y-70969091D01*
X112524444Y-70969835D01*
X112577127Y-70975500D01*
X114022872Y-70975499D01*
X114082483Y-70969091D01*
X114217331Y-70918796D01*
X114332546Y-70832546D01*
X114418796Y-70717331D01*
X114469091Y-70582483D01*
X114475500Y-70522873D01*
X114475499Y-69707486D01*
X115474500Y-69707486D01*
X115474500Y-69892513D01*
X115503445Y-70075265D01*
X115560619Y-70251232D01*
X115560620Y-70251235D01*
X115630057Y-70387511D01*
X115644622Y-70416096D01*
X115753379Y-70565787D01*
X115884213Y-70696621D01*
X116033904Y-70805378D01*
X116087224Y-70832546D01*
X116198764Y-70889379D01*
X116198767Y-70889380D01*
X116269888Y-70912488D01*
X116374736Y-70946555D01*
X116557486Y-70975500D01*
X116557487Y-70975500D01*
X116742513Y-70975500D01*
X116742514Y-70975500D01*
X116925264Y-70946555D01*
X117101235Y-70889379D01*
X117266096Y-70805378D01*
X117415787Y-70696621D01*
X117546621Y-70565787D01*
X117655378Y-70416096D01*
X117739379Y-70251235D01*
X117796555Y-70075264D01*
X117825500Y-69892514D01*
X117825500Y-69707486D01*
X117796555Y-69524736D01*
X117739379Y-69348765D01*
X117739379Y-69348764D01*
X117655377Y-69183903D01*
X117640178Y-69162983D01*
X117546621Y-69034213D01*
X117415787Y-68903379D01*
X117266096Y-68794622D01*
X117212778Y-68767455D01*
X117101235Y-68710620D01*
X117101232Y-68710619D01*
X116925265Y-68653445D01*
X116782972Y-68630908D01*
X116742514Y-68624500D01*
X116557486Y-68624500D01*
X116517028Y-68630908D01*
X116374734Y-68653445D01*
X116198767Y-68710619D01*
X116198764Y-68710620D01*
X116033903Y-68794622D01*
X115970750Y-68840506D01*
X115884213Y-68903379D01*
X115884211Y-68903381D01*
X115884210Y-68903381D01*
X115753381Y-69034210D01*
X115753381Y-69034211D01*
X115753379Y-69034213D01*
X115722199Y-69077129D01*
X115644622Y-69183903D01*
X115560620Y-69348764D01*
X115560619Y-69348767D01*
X115503445Y-69524734D01*
X115474500Y-69707486D01*
X114475499Y-69707486D01*
X114475499Y-69077128D01*
X114469091Y-69017517D01*
X114458088Y-68988017D01*
X114418797Y-68882671D01*
X114418793Y-68882664D01*
X114332547Y-68767455D01*
X114332544Y-68767452D01*
X114217335Y-68681206D01*
X114217328Y-68681202D01*
X114082482Y-68630908D01*
X114082483Y-68630908D01*
X114022883Y-68624501D01*
X114022881Y-68624500D01*
X114022873Y-68624500D01*
X114022864Y-68624500D01*
X112577129Y-68624500D01*
X112577123Y-68624501D01*
X112517516Y-68630908D01*
X112382671Y-68681202D01*
X112382664Y-68681206D01*
X112267455Y-68767452D01*
X112267452Y-68767455D01*
X112181206Y-68882664D01*
X112181202Y-68882671D01*
X112130908Y-69017517D01*
X112126288Y-69060494D01*
X112124501Y-69077123D01*
X112124500Y-69077135D01*
X98804875Y-69077135D01*
X98796765Y-69046867D01*
X98666833Y-68689884D01*
X98506283Y-68345583D01*
X98316336Y-68016585D01*
X98276360Y-67959493D01*
X98228068Y-67890524D01*
X98228066Y-67890522D01*
X98183955Y-67827525D01*
X101749500Y-67827525D01*
X101749500Y-67972475D01*
X101785532Y-68106947D01*
X101787017Y-68112488D01*
X101859488Y-68238011D01*
X101859490Y-68238013D01*
X101859491Y-68238015D01*
X101961985Y-68340509D01*
X101961986Y-68340510D01*
X101961988Y-68340511D01*
X102087511Y-68412982D01*
X102087512Y-68412982D01*
X102087515Y-68412984D01*
X102227525Y-68450500D01*
X102227528Y-68450500D01*
X102372472Y-68450500D01*
X102372475Y-68450500D01*
X102512485Y-68412984D01*
X102638015Y-68340509D01*
X102740509Y-68238015D01*
X102812984Y-68112485D01*
X102850500Y-67972475D01*
X102850500Y-67827525D01*
X102812984Y-67687515D01*
X102808940Y-67680511D01*
X102740511Y-67561988D01*
X102740506Y-67561982D01*
X102638017Y-67459493D01*
X102638011Y-67459488D01*
X102512488Y-67387017D01*
X102512489Y-67387017D01*
X102501006Y-67383940D01*
X102372475Y-67349500D01*
X102227525Y-67349500D01*
X102098993Y-67383940D01*
X102087511Y-67387017D01*
X101961988Y-67459488D01*
X101961982Y-67459493D01*
X101859493Y-67561982D01*
X101859488Y-67561988D01*
X101787017Y-67687511D01*
X101787016Y-67687515D01*
X101749500Y-67827525D01*
X98183955Y-67827525D01*
X98098433Y-67705387D01*
X97892101Y-67459491D01*
X97854247Y-67414378D01*
X97585622Y-67145753D01*
X97444711Y-67027515D01*
X97294607Y-66901562D01*
X96983432Y-66683675D01*
X96983421Y-66683668D01*
X96983415Y-66683664D01*
X96808417Y-66582629D01*
X96654423Y-66493720D01*
X96654408Y-66493712D01*
X96310125Y-66333171D01*
X96310123Y-66333170D01*
X96310116Y-66333167D01*
X95953133Y-66203235D01*
X95720498Y-66140900D01*
X95586185Y-66104911D01*
X95586174Y-66104909D01*
X95212065Y-66038944D01*
X94833616Y-66005834D01*
X94833613Y-66005834D01*
X94453719Y-66005834D01*
X94453715Y-66005834D01*
X94075268Y-66038944D01*
X94075264Y-66038944D01*
X93701157Y-66104909D01*
X93701140Y-66104913D01*
X93500990Y-66158543D01*
X93431140Y-66156880D01*
X93373278Y-66117717D01*
X93345774Y-66053489D01*
X93357361Y-65984587D01*
X93361510Y-65976767D01*
X93387922Y-65931021D01*
X93493294Y-65676632D01*
X93564559Y-65410666D01*
X93600499Y-65137674D01*
X93600499Y-64862326D01*
X93599027Y-64851146D01*
X97349499Y-64851146D01*
X97349499Y-65148853D01*
X97382829Y-65444662D01*
X97382831Y-65444674D01*
X97449075Y-65734912D01*
X97449078Y-65734920D01*
X97547399Y-66015904D01*
X97676563Y-66284114D01*
X97720884Y-66354651D01*
X97834949Y-66536185D01*
X98020561Y-66768935D01*
X98231065Y-66979439D01*
X98463815Y-67165051D01*
X98715883Y-67323435D01*
X98715885Y-67323436D01*
X98770007Y-67349500D01*
X98984099Y-67452602D01*
X99195135Y-67526446D01*
X99265079Y-67550921D01*
X99265087Y-67550924D01*
X99265090Y-67550924D01*
X99265091Y-67550925D01*
X99555325Y-67617169D01*
X99851147Y-67650500D01*
X99851148Y-67650501D01*
X99851151Y-67650501D01*
X100148852Y-67650501D01*
X100148852Y-67650500D01*
X100444675Y-67617169D01*
X100734909Y-67550925D01*
X101015901Y-67452602D01*
X101284117Y-67323435D01*
X101536185Y-67165051D01*
X101768935Y-66979439D01*
X101979439Y-66768935D01*
X102012462Y-66727525D01*
X103249500Y-66727525D01*
X103249500Y-66872475D01*
X103278733Y-66981571D01*
X103287017Y-67012488D01*
X103359488Y-67138011D01*
X103359490Y-67138013D01*
X103359491Y-67138015D01*
X103461985Y-67240509D01*
X103461986Y-67240510D01*
X103461988Y-67240511D01*
X103587511Y-67312982D01*
X103587512Y-67312982D01*
X103587515Y-67312984D01*
X103727525Y-67350500D01*
X103727528Y-67350500D01*
X103872472Y-67350500D01*
X103872475Y-67350500D01*
X104012485Y-67312984D01*
X104138015Y-67240509D01*
X104240509Y-67138015D01*
X104312984Y-67012485D01*
X104350500Y-66872475D01*
X104350500Y-66727525D01*
X104312984Y-66587515D01*
X104310162Y-66582628D01*
X104240511Y-66461988D01*
X104240506Y-66461982D01*
X104138017Y-66359493D01*
X104138011Y-66359488D01*
X104012488Y-66287017D01*
X104012489Y-66287017D01*
X104001006Y-66283940D01*
X103872475Y-66249500D01*
X103727525Y-66249500D01*
X103598993Y-66283940D01*
X103587511Y-66287017D01*
X103461988Y-66359488D01*
X103461982Y-66359493D01*
X103359493Y-66461982D01*
X103359488Y-66461988D01*
X103287017Y-66587511D01*
X103287016Y-66587515D01*
X103249500Y-66727525D01*
X102012462Y-66727525D01*
X102140365Y-66567140D01*
X102165048Y-66536189D01*
X102165049Y-66536187D01*
X102165051Y-66536185D01*
X102323435Y-66284117D01*
X102452602Y-66015901D01*
X102550925Y-65734909D01*
X102617169Y-65444675D01*
X102650501Y-65148849D01*
X102650501Y-64851151D01*
X102617169Y-64555325D01*
X102550925Y-64265091D01*
X102549542Y-64261140D01*
X102499222Y-64117331D01*
X102452602Y-63984099D01*
X102323435Y-63715883D01*
X102165051Y-63463815D01*
X101979439Y-63231065D01*
X101768935Y-63020561D01*
X101536185Y-62834949D01*
X101339450Y-62711333D01*
X101284114Y-62676563D01*
X101015904Y-62547399D01*
X100734920Y-62449078D01*
X100734912Y-62449075D01*
X100517233Y-62399392D01*
X100444675Y-62382831D01*
X100444671Y-62382830D01*
X100444662Y-62382829D01*
X100148853Y-62349499D01*
X100148849Y-62349499D01*
X99851151Y-62349499D01*
X99851146Y-62349499D01*
X99555337Y-62382829D01*
X99555325Y-62382831D01*
X99265087Y-62449075D01*
X99265079Y-62449078D01*
X98984095Y-62547399D01*
X98715885Y-62676563D01*
X98463816Y-62834948D01*
X98231065Y-63020560D01*
X98020560Y-63231065D01*
X97834948Y-63463816D01*
X97676563Y-63715885D01*
X97547399Y-63984095D01*
X97449078Y-64265079D01*
X97449075Y-64265087D01*
X97382831Y-64555325D01*
X97382829Y-64555337D01*
X97349499Y-64851146D01*
X93599027Y-64851146D01*
X93564559Y-64589334D01*
X93493294Y-64323368D01*
X93387922Y-64068979D01*
X93387920Y-64068976D01*
X93387918Y-64068971D01*
X93332205Y-63972475D01*
X93250248Y-63830521D01*
X93140513Y-63687511D01*
X93082628Y-63612073D01*
X93082622Y-63612066D01*
X92887932Y-63417376D01*
X92887925Y-63417370D01*
X92669482Y-63249754D01*
X92669481Y-63249753D01*
X92669478Y-63249751D01*
X92574406Y-63194861D01*
X92431027Y-63112080D01*
X92431016Y-63112075D01*
X92176629Y-63006704D01*
X92042847Y-62970858D01*
X91910665Y-62935440D01*
X91910659Y-62935439D01*
X91910654Y-62935438D01*
X91637683Y-62899501D01*
X91637678Y-62899500D01*
X91637673Y-62899500D01*
X91362325Y-62899500D01*
X91362319Y-62899500D01*
X91362314Y-62899501D01*
X91089343Y-62935438D01*
X91089336Y-62935439D01*
X91089333Y-62935440D01*
X91033124Y-62950500D01*
X90823368Y-63006704D01*
X90568981Y-63112075D01*
X90568970Y-63112080D01*
X90330515Y-63249754D01*
X90112072Y-63417370D01*
X90112065Y-63417376D01*
X89917375Y-63612066D01*
X89917369Y-63612073D01*
X89749753Y-63830516D01*
X89612079Y-64068971D01*
X89612074Y-64068982D01*
X89506703Y-64323369D01*
X89435440Y-64589331D01*
X89435437Y-64589344D01*
X89399500Y-64862315D01*
X89399499Y-64862332D01*
X87860293Y-64862332D01*
X87834485Y-64766015D01*
X87830718Y-64759491D01*
X87762012Y-64640488D01*
X87762007Y-64640482D01*
X87659518Y-64537993D01*
X87659512Y-64537988D01*
X87533989Y-64465517D01*
X87533990Y-64465517D01*
X87504708Y-64457671D01*
X87393976Y-64428000D01*
X87259410Y-64428000D01*
X87192371Y-64408315D01*
X87146616Y-64355511D01*
X87136672Y-64286353D01*
X87152021Y-64242003D01*
X87213449Y-64135608D01*
X87250965Y-63995598D01*
X87250965Y-63850648D01*
X87213449Y-63710638D01*
X87188155Y-63666828D01*
X87140976Y-63585111D01*
X87140971Y-63585105D01*
X87038482Y-63482616D01*
X87038476Y-63482611D01*
X86912954Y-63410140D01*
X86887330Y-63403274D01*
X86831952Y-63388435D01*
X86772293Y-63352070D01*
X86741765Y-63289223D01*
X86750060Y-63219847D01*
X86794546Y-63165970D01*
X86802027Y-63161286D01*
X86838015Y-63140509D01*
X86940509Y-63038015D01*
X87012984Y-62912485D01*
X87050500Y-62772475D01*
X87050500Y-62627525D01*
X87012984Y-62487515D01*
X87006986Y-62477127D01*
X86955444Y-62387853D01*
X93903179Y-62387853D01*
X93929138Y-62518350D01*
X93929141Y-62518360D01*
X93980056Y-62641281D01*
X93980066Y-62641299D01*
X94053981Y-62751921D01*
X94053987Y-62751929D01*
X94148070Y-62846012D01*
X94148078Y-62846018D01*
X94258700Y-62919933D01*
X94258703Y-62919934D01*
X94258711Y-62919940D01*
X94258717Y-62919942D01*
X94258718Y-62919943D01*
X94381639Y-62970858D01*
X94381644Y-62970860D01*
X94381648Y-62970860D01*
X94381649Y-62970861D01*
X94512146Y-62996820D01*
X94512149Y-62996820D01*
X94645213Y-62996820D01*
X94733005Y-62979355D01*
X94775716Y-62970860D01*
X94898649Y-62919940D01*
X95009286Y-62846015D01*
X95103375Y-62751926D01*
X95177300Y-62641289D01*
X95228220Y-62518356D01*
X95230358Y-62507606D01*
X95535787Y-62507606D01*
X95555592Y-62503667D01*
X95555604Y-62503664D01*
X95723932Y-62433941D01*
X95723945Y-62433934D01*
X95875439Y-62332708D01*
X95875443Y-62332705D01*
X96004279Y-62203869D01*
X96004282Y-62203865D01*
X96105508Y-62052371D01*
X96105515Y-62052358D01*
X96175238Y-61884030D01*
X96175241Y-61884018D01*
X96179181Y-61864213D01*
X95535787Y-61864213D01*
X95535787Y-62507606D01*
X95230358Y-62507606D01*
X95248279Y-62417516D01*
X95254180Y-62387853D01*
X95254180Y-62254786D01*
X95228221Y-62124289D01*
X95228220Y-62124288D01*
X95228220Y-62124284D01*
X95177300Y-62001351D01*
X95177293Y-62001340D01*
X95103375Y-61890713D01*
X95009289Y-61796627D01*
X95009281Y-61796621D01*
X94898659Y-61722706D01*
X94898652Y-61722702D01*
X94898649Y-61722700D01*
X94898645Y-61722698D01*
X94898641Y-61722696D01*
X94775720Y-61671781D01*
X94775710Y-61671778D01*
X94645213Y-61645820D01*
X94645211Y-61645820D01*
X94512149Y-61645820D01*
X94512147Y-61645820D01*
X94381649Y-61671778D01*
X94381639Y-61671781D01*
X94258718Y-61722696D01*
X94258700Y-61722706D01*
X94148078Y-61796621D01*
X94148070Y-61796627D01*
X94053987Y-61890710D01*
X94053981Y-61890718D01*
X93980066Y-62001340D01*
X93980058Y-62001355D01*
X93956512Y-62058198D01*
X93956479Y-62058279D01*
X93929140Y-62124284D01*
X93927962Y-62130203D01*
X93927958Y-62130215D01*
X93903180Y-62254784D01*
X93903180Y-62254789D01*
X93903180Y-62387851D01*
X93903180Y-62387853D01*
X93903179Y-62387853D01*
X86955444Y-62387853D01*
X86940511Y-62361988D01*
X86940506Y-62361982D01*
X86838017Y-62259493D01*
X86838011Y-62259488D01*
X86712488Y-62187017D01*
X86712489Y-62187017D01*
X86701006Y-62183940D01*
X86572475Y-62149500D01*
X86427525Y-62149500D01*
X86298993Y-62183940D01*
X86287511Y-62187017D01*
X86161988Y-62259488D01*
X86161982Y-62259493D01*
X86059493Y-62361982D01*
X86059488Y-62361988D01*
X85987017Y-62487511D01*
X85987016Y-62487515D01*
X85949500Y-62627525D01*
X82150998Y-62627525D01*
X82240509Y-62538015D01*
X82312984Y-62412485D01*
X82350500Y-62272475D01*
X82350500Y-62127525D01*
X82312984Y-61987515D01*
X82257093Y-61890710D01*
X82240511Y-61861988D01*
X82240506Y-61861982D01*
X82138017Y-61759493D01*
X82138011Y-61759488D01*
X82082650Y-61727525D01*
X92649500Y-61727525D01*
X92649500Y-61872475D01*
X92687016Y-62012485D01*
X92687017Y-62012488D01*
X92759488Y-62138011D01*
X92759490Y-62138013D01*
X92759491Y-62138015D01*
X92861985Y-62240509D01*
X92861986Y-62240510D01*
X92861988Y-62240511D01*
X92987511Y-62312982D01*
X92987512Y-62312982D01*
X92987515Y-62312984D01*
X93127525Y-62350500D01*
X93127528Y-62350500D01*
X93272472Y-62350500D01*
X93272475Y-62350500D01*
X93412485Y-62312984D01*
X93538015Y-62240509D01*
X93640509Y-62138015D01*
X93712984Y-62012485D01*
X93750500Y-61872475D01*
X93750500Y-61727525D01*
X93712984Y-61587515D01*
X93699688Y-61564485D01*
X95035787Y-61564485D01*
X95035787Y-61663941D01*
X95073847Y-61755827D01*
X95144173Y-61826153D01*
X95236059Y-61864213D01*
X95335515Y-61864213D01*
X95427401Y-61826153D01*
X95497727Y-61755827D01*
X95535787Y-61663941D01*
X95535787Y-61564485D01*
X95497727Y-61472599D01*
X95427401Y-61402273D01*
X95335515Y-61364213D01*
X95236059Y-61364213D01*
X95144173Y-61402273D01*
X95073847Y-61472599D01*
X95035787Y-61564485D01*
X93699688Y-61564485D01*
X93640509Y-61461985D01*
X93542737Y-61364213D01*
X94392393Y-61364213D01*
X95035787Y-61364213D01*
X95035787Y-60973640D01*
X95317392Y-60973640D01*
X95343351Y-61104137D01*
X95343354Y-61104147D01*
X95394269Y-61227068D01*
X95394279Y-61227086D01*
X95468194Y-61337708D01*
X95468200Y-61337716D01*
X95562283Y-61431799D01*
X95562291Y-61431805D01*
X95672913Y-61505720D01*
X95672916Y-61505721D01*
X95672924Y-61505727D01*
X95795857Y-61556647D01*
X95795861Y-61556647D01*
X95795862Y-61556648D01*
X95926359Y-61582607D01*
X95926362Y-61582607D01*
X96059426Y-61582607D01*
X96150526Y-61564485D01*
X96189929Y-61556647D01*
X96312862Y-61505727D01*
X96423499Y-61431802D01*
X96517588Y-61337713D01*
X96591513Y-61227076D01*
X96642433Y-61104143D01*
X96668393Y-60973638D01*
X96668393Y-60973637D01*
X96668511Y-60973044D01*
X96700896Y-60911133D01*
X96761612Y-60876558D01*
X96765937Y-60875618D01*
X96766530Y-60875500D01*
X96766531Y-60875500D01*
X96897036Y-60849540D01*
X97019969Y-60798620D01*
X97130606Y-60724695D01*
X97224695Y-60630606D01*
X97298620Y-60519969D01*
X97340537Y-60418769D01*
X97384374Y-60364370D01*
X97430901Y-60344608D01*
X97504848Y-60329900D01*
X97566790Y-60288511D01*
X97566794Y-60288506D01*
X97566797Y-60288505D01*
X98202719Y-59652583D01*
X98202720Y-59652580D01*
X98202725Y-59652576D01*
X98244114Y-59590634D01*
X98244115Y-59590632D01*
X98263556Y-59492895D01*
X98263556Y-59492890D01*
X98244115Y-59395153D01*
X98244114Y-59395151D01*
X98227535Y-59370340D01*
X98202725Y-59333210D01*
X98202721Y-59333206D01*
X98202719Y-59333203D01*
X97566797Y-58697281D01*
X97566793Y-58697278D01*
X97566790Y-58697275D01*
X97541978Y-58680696D01*
X97504848Y-58655885D01*
X97504846Y-58655884D01*
X97407109Y-58636444D01*
X97407105Y-58636444D01*
X97309367Y-58655884D01*
X97309365Y-58655885D01*
X97247424Y-58697275D01*
X97247417Y-58697281D01*
X96611495Y-59333203D01*
X96611489Y-59333210D01*
X96570099Y-59395151D01*
X96570099Y-59395153D01*
X96555391Y-59469094D01*
X96523006Y-59531005D01*
X96481227Y-59559463D01*
X96380035Y-59601378D01*
X96380020Y-59601386D01*
X96269398Y-59675301D01*
X96269390Y-59675307D01*
X96175307Y-59769390D01*
X96175301Y-59769398D01*
X96101386Y-59880020D01*
X96101376Y-59880038D01*
X96050461Y-60002959D01*
X96050458Y-60002969D01*
X96024381Y-60134063D01*
X95991995Y-60195974D01*
X95931279Y-60230548D01*
X95926956Y-60231488D01*
X95795862Y-60257565D01*
X95795852Y-60257568D01*
X95672931Y-60308483D01*
X95672913Y-60308493D01*
X95562291Y-60382408D01*
X95562283Y-60382414D01*
X95468200Y-60476497D01*
X95468194Y-60476505D01*
X95394279Y-60587127D01*
X95394269Y-60587145D01*
X95343354Y-60710066D01*
X95343351Y-60710076D01*
X95317393Y-60840573D01*
X95317393Y-60840576D01*
X95317393Y-60973638D01*
X95317393Y-60973640D01*
X95317392Y-60973640D01*
X95035787Y-60973640D01*
X95035787Y-60720818D01*
X95035786Y-60720817D01*
X95015974Y-60724759D01*
X94847637Y-60794486D01*
X94847628Y-60794491D01*
X94696134Y-60895717D01*
X94696130Y-60895720D01*
X94567294Y-61024556D01*
X94567291Y-61024560D01*
X94466065Y-61176054D01*
X94466058Y-61176067D01*
X94396335Y-61344395D01*
X94396332Y-61344407D01*
X94392393Y-61364213D01*
X93542737Y-61364213D01*
X93538015Y-61359491D01*
X93538013Y-61359490D01*
X93538011Y-61359488D01*
X93412488Y-61287017D01*
X93412489Y-61287017D01*
X93401006Y-61283940D01*
X93272475Y-61249500D01*
X93127525Y-61249500D01*
X92998993Y-61283940D01*
X92987511Y-61287017D01*
X92861988Y-61359488D01*
X92861982Y-61359493D01*
X92759493Y-61461982D01*
X92759488Y-61461988D01*
X92687017Y-61587511D01*
X92687016Y-61587515D01*
X92649500Y-61727525D01*
X82082650Y-61727525D01*
X82012488Y-61687017D01*
X82012489Y-61687017D01*
X82001006Y-61683940D01*
X81872475Y-61649500D01*
X81727525Y-61649500D01*
X81598993Y-61683940D01*
X81587511Y-61687017D01*
X81461988Y-61759488D01*
X81461982Y-61759493D01*
X81359493Y-61861982D01*
X81359488Y-61861988D01*
X81287017Y-61987511D01*
X81287016Y-61987515D01*
X81249500Y-62127525D01*
X75500500Y-62127525D01*
X75500500Y-60527525D01*
X78949500Y-60527525D01*
X78949500Y-60672475D01*
X78983299Y-60798613D01*
X78987017Y-60812488D01*
X79059488Y-60938011D01*
X79059490Y-60938013D01*
X79059491Y-60938015D01*
X79161985Y-61040509D01*
X79161986Y-61040510D01*
X79161988Y-61040511D01*
X79287511Y-61112982D01*
X79287512Y-61112982D01*
X79287515Y-61112984D01*
X79427525Y-61150500D01*
X79427528Y-61150500D01*
X79572472Y-61150500D01*
X79572475Y-61150500D01*
X79712485Y-61112984D01*
X79838015Y-61040509D01*
X79940509Y-60938015D01*
X80012984Y-60812485D01*
X80050500Y-60672475D01*
X80050500Y-60527525D01*
X80023705Y-60427525D01*
X86777500Y-60427525D01*
X86777500Y-60572475D01*
X86814368Y-60710066D01*
X86815017Y-60712488D01*
X86887488Y-60838011D01*
X86887490Y-60838013D01*
X86887491Y-60838015D01*
X86989985Y-60940509D01*
X86989986Y-60940510D01*
X86989988Y-60940511D01*
X87115511Y-61012982D01*
X87115512Y-61012982D01*
X87115515Y-61012984D01*
X87255525Y-61050500D01*
X87255528Y-61050500D01*
X87400472Y-61050500D01*
X87400475Y-61050500D01*
X87540485Y-61012984D01*
X87666015Y-60940509D01*
X87768509Y-60838015D01*
X87840984Y-60712485D01*
X87878500Y-60572475D01*
X87878500Y-60427525D01*
X87840984Y-60287515D01*
X87826244Y-60261985D01*
X87768511Y-60161988D01*
X87768506Y-60161982D01*
X87666017Y-60059493D01*
X87666011Y-60059488D01*
X87540488Y-59987017D01*
X87540489Y-59987017D01*
X87529006Y-59983940D01*
X87400475Y-59949500D01*
X87255525Y-59949500D01*
X87126993Y-59983940D01*
X87115511Y-59987017D01*
X86989988Y-60059488D01*
X86989982Y-60059493D01*
X86887493Y-60161982D01*
X86887488Y-60161988D01*
X86815017Y-60287511D01*
X86815016Y-60287515D01*
X86777500Y-60427525D01*
X80023705Y-60427525D01*
X80012984Y-60387515D01*
X80010035Y-60382408D01*
X79940511Y-60261988D01*
X79940506Y-60261982D01*
X79838017Y-60159493D01*
X79838011Y-60159488D01*
X79712488Y-60087017D01*
X79712489Y-60087017D01*
X79701006Y-60083940D01*
X79572475Y-60049500D01*
X79427525Y-60049500D01*
X79298993Y-60083940D01*
X79287511Y-60087017D01*
X79161988Y-60159488D01*
X79161982Y-60159493D01*
X79059493Y-60261982D01*
X79059488Y-60261988D01*
X78987017Y-60387511D01*
X78987016Y-60387515D01*
X78949500Y-60527525D01*
X75500500Y-60527525D01*
X75500500Y-58624500D01*
X75520185Y-58557461D01*
X75572989Y-58511706D01*
X75624500Y-58500500D01*
X86799391Y-58500500D01*
X86799393Y-58500500D01*
X86926687Y-58466392D01*
X87040815Y-58400500D01*
X89113790Y-56327525D01*
X90849500Y-56327525D01*
X90849500Y-56472475D01*
X90887016Y-56612485D01*
X90887017Y-56612488D01*
X90959488Y-56738011D01*
X90959490Y-56738013D01*
X90959491Y-56738015D01*
X91061985Y-56840509D01*
X91061986Y-56840510D01*
X91061988Y-56840511D01*
X91187511Y-56912982D01*
X91187512Y-56912982D01*
X91187515Y-56912984D01*
X91327525Y-56950500D01*
X91327528Y-56950500D01*
X91472472Y-56950500D01*
X91472475Y-56950500D01*
X91612485Y-56912984D01*
X91738015Y-56840509D01*
X91840509Y-56738015D01*
X91912984Y-56612485D01*
X91950500Y-56472475D01*
X91950500Y-56362331D01*
X97899500Y-56362331D01*
X97899500Y-56637666D01*
X97899501Y-56637683D01*
X97935438Y-56910654D01*
X97935439Y-56910659D01*
X97935440Y-56910665D01*
X97942769Y-56938017D01*
X98006704Y-57176629D01*
X98112075Y-57431016D01*
X98112080Y-57431027D01*
X98171306Y-57533608D01*
X98249751Y-57669478D01*
X98249753Y-57669481D01*
X98249754Y-57669482D01*
X98417370Y-57887925D01*
X98417376Y-57887932D01*
X98612066Y-58082622D01*
X98612072Y-58082627D01*
X98830521Y-58250248D01*
X98975921Y-58334195D01*
X99068971Y-58387918D01*
X99068976Y-58387920D01*
X99068979Y-58387922D01*
X99323368Y-58493294D01*
X99589334Y-58564559D01*
X99862326Y-58600499D01*
X99862333Y-58600499D01*
X100137667Y-58600499D01*
X100137674Y-58600499D01*
X100410666Y-58564559D01*
X100676632Y-58493294D01*
X100931021Y-58387922D01*
X100976768Y-58361509D01*
X101044667Y-58345037D01*
X101110694Y-58367889D01*
X101153885Y-58422810D01*
X101160527Y-58492363D01*
X101158543Y-58500990D01*
X101104913Y-58701140D01*
X101104912Y-58701145D01*
X101038944Y-59075264D01*
X101038944Y-59075268D01*
X101005834Y-59453715D01*
X101005834Y-59833616D01*
X101038944Y-60212063D01*
X101038944Y-60212067D01*
X101104909Y-60586174D01*
X101104911Y-60586185D01*
X101116814Y-60630606D01*
X101203235Y-60953133D01*
X101333167Y-61310116D01*
X101333170Y-61310123D01*
X101333171Y-61310125D01*
X101493712Y-61654408D01*
X101493720Y-61654423D01*
X101575818Y-61796621D01*
X101683664Y-61983415D01*
X101683668Y-61983421D01*
X101683675Y-61983432D01*
X101901562Y-62294607D01*
X102031179Y-62449078D01*
X102145753Y-62585622D01*
X102414378Y-62854247D01*
X102535380Y-62955779D01*
X102705392Y-63098437D01*
X103016567Y-63316324D01*
X103016574Y-63316328D01*
X103016585Y-63316336D01*
X103291858Y-63475265D01*
X103345576Y-63506279D01*
X103345591Y-63506287D01*
X103382479Y-63523488D01*
X103689884Y-63666833D01*
X104046867Y-63796765D01*
X104413816Y-63895089D01*
X104787939Y-63961056D01*
X105166385Y-63994165D01*
X105166386Y-63994166D01*
X105166387Y-63994166D01*
X105546282Y-63994166D01*
X105546282Y-63994165D01*
X105924729Y-63961056D01*
X106298852Y-63895089D01*
X106499012Y-63841456D01*
X106568858Y-63843119D01*
X106626721Y-63882281D01*
X106654225Y-63946509D01*
X106642639Y-64015412D01*
X106638490Y-64023229D01*
X106612082Y-64068968D01*
X106612076Y-64068982D01*
X106506705Y-64323369D01*
X106435442Y-64589331D01*
X106435439Y-64589344D01*
X106399502Y-64862315D01*
X106399501Y-64862332D01*
X106399501Y-65137667D01*
X106399502Y-65137684D01*
X106435439Y-65410655D01*
X106435440Y-65410660D01*
X106435441Y-65410666D01*
X106460358Y-65503657D01*
X106506705Y-65676630D01*
X106612076Y-65931017D01*
X106612081Y-65931028D01*
X106682785Y-66053489D01*
X106749752Y-66169479D01*
X106749754Y-66169482D01*
X106749755Y-66169483D01*
X106917371Y-66387926D01*
X106917377Y-66387933D01*
X107112067Y-66582623D01*
X107112074Y-66582629D01*
X107118442Y-66587515D01*
X107330522Y-66750249D01*
X107483268Y-66838437D01*
X107568972Y-66887919D01*
X107568977Y-66887921D01*
X107568980Y-66887923D01*
X107823369Y-66993295D01*
X108089335Y-67064560D01*
X108362327Y-67100500D01*
X108362334Y-67100500D01*
X108637668Y-67100500D01*
X108637675Y-67100500D01*
X108910667Y-67064560D01*
X109176633Y-66993295D01*
X109431022Y-66887923D01*
X109669480Y-66750249D01*
X109887929Y-66582628D01*
X110082629Y-66387928D01*
X110250250Y-66169479D01*
X110387924Y-65931021D01*
X110493296Y-65676632D01*
X110564561Y-65410666D01*
X110600501Y-65137674D01*
X110600501Y-65127525D01*
X113699500Y-65127525D01*
X113699500Y-65272475D01*
X113729670Y-65385068D01*
X113737017Y-65412488D01*
X113809488Y-65538011D01*
X113809490Y-65538013D01*
X113809491Y-65538015D01*
X113911985Y-65640509D01*
X113911986Y-65640510D01*
X113911988Y-65640511D01*
X114037511Y-65712982D01*
X114037512Y-65712982D01*
X114037515Y-65712984D01*
X114177525Y-65750500D01*
X114177528Y-65750500D01*
X114322472Y-65750500D01*
X114322475Y-65750500D01*
X114462485Y-65712984D01*
X114588015Y-65640509D01*
X114690509Y-65538015D01*
X114762984Y-65412485D01*
X114800500Y-65272475D01*
X114800500Y-65127525D01*
X114762984Y-64987515D01*
X114762739Y-64987091D01*
X114690511Y-64861988D01*
X114690506Y-64861982D01*
X114588017Y-64759493D01*
X114588015Y-64759491D01*
X114462485Y-64687016D01*
X114322475Y-64649500D01*
X114177525Y-64649500D01*
X114048993Y-64683940D01*
X114037511Y-64687017D01*
X113911988Y-64759488D01*
X113911982Y-64759493D01*
X113809493Y-64861982D01*
X113809488Y-64861988D01*
X113737017Y-64987511D01*
X113737016Y-64987515D01*
X113699500Y-65127525D01*
X110600501Y-65127525D01*
X110600501Y-64862326D01*
X110566298Y-64602525D01*
X114999500Y-64602525D01*
X114999500Y-64747475D01*
X115032487Y-64870582D01*
X115037017Y-64887488D01*
X115109488Y-65013011D01*
X115109490Y-65013013D01*
X115109491Y-65013015D01*
X115211985Y-65115509D01*
X115211986Y-65115510D01*
X115211988Y-65115511D01*
X115337511Y-65187982D01*
X115337512Y-65187982D01*
X115337515Y-65187984D01*
X115477525Y-65225500D01*
X115477528Y-65225500D01*
X115622472Y-65225500D01*
X115622475Y-65225500D01*
X115762485Y-65187984D01*
X115888015Y-65115509D01*
X115990509Y-65013015D01*
X116062984Y-64887485D01*
X116100500Y-64747475D01*
X116100500Y-64602525D01*
X116062984Y-64462515D01*
X116062981Y-64462510D01*
X116061934Y-64459981D01*
X116061685Y-64457671D01*
X116060880Y-64454665D01*
X116061348Y-64454539D01*
X116054462Y-64390512D01*
X116085735Y-64328031D01*
X116145823Y-64292377D01*
X116214811Y-64294593D01*
X116289293Y-64318793D01*
X116374736Y-64346555D01*
X116557486Y-64375500D01*
X116557487Y-64375500D01*
X116742513Y-64375500D01*
X116742514Y-64375500D01*
X116925264Y-64346555D01*
X117101235Y-64289379D01*
X117266096Y-64205378D01*
X117415787Y-64096621D01*
X117546621Y-63965787D01*
X117647074Y-63827525D01*
X119849500Y-63827525D01*
X119849500Y-63972475D01*
X119882765Y-64096621D01*
X119887017Y-64112488D01*
X119959488Y-64238011D01*
X119959490Y-64238013D01*
X119959491Y-64238015D01*
X120061985Y-64340509D01*
X120061986Y-64340510D01*
X120061988Y-64340511D01*
X120187511Y-64412982D01*
X120187512Y-64412982D01*
X120187515Y-64412984D01*
X120327525Y-64450500D01*
X120327528Y-64450500D01*
X120472472Y-64450500D01*
X120472475Y-64450500D01*
X120612485Y-64412984D01*
X120738015Y-64340509D01*
X120840509Y-64238015D01*
X120912984Y-64112485D01*
X120950500Y-63972475D01*
X120950500Y-63827525D01*
X120912984Y-63687515D01*
X120901043Y-63666833D01*
X120840511Y-63561988D01*
X120840506Y-63561982D01*
X120738017Y-63459493D01*
X120738011Y-63459488D01*
X120612488Y-63387017D01*
X120612489Y-63387017D01*
X120599259Y-63383472D01*
X120472475Y-63349500D01*
X120327525Y-63349500D01*
X120200741Y-63383472D01*
X120187511Y-63387017D01*
X120061988Y-63459488D01*
X120061982Y-63459493D01*
X119959493Y-63561982D01*
X119959488Y-63561988D01*
X119887017Y-63687511D01*
X119887016Y-63687515D01*
X119849500Y-63827525D01*
X117647074Y-63827525D01*
X117655378Y-63816096D01*
X117739379Y-63651235D01*
X117796555Y-63475264D01*
X117825500Y-63292514D01*
X117825500Y-63107486D01*
X117796555Y-62924736D01*
X117765939Y-62830508D01*
X117739380Y-62748767D01*
X117739379Y-62748764D01*
X117655377Y-62583903D01*
X117546621Y-62434213D01*
X117415787Y-62303379D01*
X117266096Y-62194622D01*
X117101235Y-62110620D01*
X117101232Y-62110619D01*
X116925265Y-62053445D01*
X116782972Y-62030908D01*
X116742514Y-62024500D01*
X116557486Y-62024500D01*
X116517028Y-62030908D01*
X116374734Y-62053445D01*
X116198767Y-62110619D01*
X116198764Y-62110620D01*
X116033903Y-62194622D01*
X115970750Y-62240506D01*
X115884213Y-62303379D01*
X115884211Y-62303381D01*
X115884210Y-62303381D01*
X115753381Y-62434210D01*
X115753381Y-62434211D01*
X115753379Y-62434213D01*
X115722199Y-62477129D01*
X115644622Y-62583903D01*
X115560620Y-62748764D01*
X115560619Y-62748767D01*
X115503445Y-62924734D01*
X115474500Y-63107486D01*
X115474500Y-63292513D01*
X115503445Y-63475265D01*
X115560619Y-63651232D01*
X115560620Y-63651235D01*
X115634771Y-63796763D01*
X115644622Y-63816096D01*
X115722207Y-63922883D01*
X115725645Y-63927614D01*
X115749125Y-63993421D01*
X115733300Y-64061475D01*
X115683194Y-64110170D01*
X115625327Y-64124500D01*
X115622475Y-64124500D01*
X115477525Y-64124500D01*
X115348993Y-64158940D01*
X115337511Y-64162017D01*
X115211988Y-64234488D01*
X115211982Y-64234493D01*
X115109493Y-64336982D01*
X115109488Y-64336988D01*
X115037017Y-64462511D01*
X115037016Y-64462515D01*
X114999500Y-64602525D01*
X110566298Y-64602525D01*
X110564561Y-64589334D01*
X110493296Y-64323368D01*
X110387924Y-64068979D01*
X110387922Y-64068976D01*
X110387920Y-64068971D01*
X110332207Y-63972475D01*
X110250250Y-63830521D01*
X110140515Y-63687511D01*
X110082630Y-63612073D01*
X110082624Y-63612066D01*
X109887934Y-63417376D01*
X109887927Y-63417370D01*
X109669484Y-63249754D01*
X109669483Y-63249753D01*
X109669480Y-63249751D01*
X109574408Y-63194861D01*
X109431029Y-63112080D01*
X109431018Y-63112075D01*
X109176631Y-63006704D01*
X109042849Y-62970858D01*
X108910667Y-62935440D01*
X108910661Y-62935439D01*
X108910656Y-62935438D01*
X108637685Y-62899501D01*
X108637680Y-62899500D01*
X108637675Y-62899500D01*
X108552399Y-62899500D01*
X108485360Y-62879815D01*
X108439605Y-62827011D01*
X108429661Y-62757853D01*
X108458686Y-62694297D01*
X108464718Y-62687819D01*
X108512031Y-62640506D01*
X108566915Y-62585622D01*
X108657946Y-62477135D01*
X112124500Y-62477135D01*
X112124500Y-63922870D01*
X112124501Y-63922876D01*
X112130908Y-63982483D01*
X112181202Y-64117328D01*
X112181206Y-64117335D01*
X112267452Y-64232544D01*
X112267455Y-64232547D01*
X112382664Y-64318793D01*
X112382671Y-64318797D01*
X112517517Y-64369091D01*
X112517516Y-64369091D01*
X112524444Y-64369835D01*
X112577127Y-64375500D01*
X114022872Y-64375499D01*
X114082483Y-64369091D01*
X114217331Y-64318796D01*
X114332546Y-64232546D01*
X114418796Y-64117331D01*
X114469091Y-63982483D01*
X114475500Y-63922873D01*
X114475499Y-62477128D01*
X114469091Y-62417517D01*
X114467215Y-62412488D01*
X114418797Y-62282671D01*
X114418793Y-62282664D01*
X114332547Y-62167455D01*
X114332544Y-62167452D01*
X114217335Y-62081206D01*
X114217328Y-62081202D01*
X114082482Y-62030908D01*
X114082483Y-62030908D01*
X114022883Y-62024501D01*
X114022881Y-62024500D01*
X114022873Y-62024500D01*
X114022864Y-62024500D01*
X112577129Y-62024500D01*
X112577123Y-62024501D01*
X112517516Y-62030908D01*
X112382671Y-62081202D01*
X112382664Y-62081206D01*
X112267455Y-62167452D01*
X112267452Y-62167455D01*
X112181206Y-62282664D01*
X112181202Y-62282671D01*
X112130908Y-62417517D01*
X112124501Y-62477116D01*
X112124501Y-62477123D01*
X112124500Y-62477135D01*
X108657946Y-62477135D01*
X108707972Y-62417516D01*
X108727621Y-62394100D01*
X108803743Y-62303381D01*
X108811106Y-62294606D01*
X109029004Y-61983415D01*
X109218951Y-61654417D01*
X109379501Y-61310116D01*
X109509433Y-60953133D01*
X109607757Y-60586184D01*
X109673724Y-60212061D01*
X109706834Y-59833613D01*
X109706834Y-59453719D01*
X109673724Y-59075271D01*
X109607757Y-58701148D01*
X109509433Y-58334199D01*
X109379501Y-57977216D01*
X109246823Y-57692686D01*
X109218955Y-57632923D01*
X109218947Y-57632908D01*
X109161616Y-57533608D01*
X109029004Y-57303917D01*
X109028996Y-57303906D01*
X109028992Y-57303899D01*
X108811105Y-56992724D01*
X108654339Y-56805898D01*
X108566915Y-56701710D01*
X108298290Y-56433085D01*
X108172488Y-56327525D01*
X108007275Y-56188894D01*
X107696100Y-55971007D01*
X107696089Y-55971000D01*
X107696083Y-55970996D01*
X107440384Y-55823368D01*
X107367091Y-55781052D01*
X107367076Y-55781044D01*
X107022793Y-55620503D01*
X107022791Y-55620502D01*
X107022784Y-55620499D01*
X106665801Y-55490567D01*
X106342312Y-55403888D01*
X106298853Y-55392243D01*
X106298842Y-55392241D01*
X105924733Y-55326276D01*
X105546284Y-55293166D01*
X105546281Y-55293166D01*
X105166387Y-55293166D01*
X105166383Y-55293166D01*
X104787936Y-55326276D01*
X104787932Y-55326276D01*
X104413825Y-55392241D01*
X104413814Y-55392243D01*
X104217166Y-55444935D01*
X104046867Y-55490567D01*
X104046864Y-55490568D01*
X104046863Y-55490568D01*
X103849176Y-55562521D01*
X103689884Y-55620499D01*
X103689880Y-55620500D01*
X103689874Y-55620503D01*
X103345591Y-55781044D01*
X103345576Y-55781052D01*
X103016593Y-55970991D01*
X103016567Y-55971007D01*
X102705392Y-56188894D01*
X102414375Y-56433087D01*
X102312181Y-56535282D01*
X102250858Y-56568767D01*
X102181166Y-56563783D01*
X102125233Y-56521911D01*
X102100816Y-56456447D01*
X102100500Y-56447601D01*
X102100500Y-56362331D01*
X102100500Y-56362325D01*
X102064560Y-56089333D01*
X101993295Y-55823367D01*
X101887923Y-55568978D01*
X101887921Y-55568975D01*
X101887919Y-55568970D01*
X101838732Y-55483777D01*
X101750249Y-55330520D01*
X101582628Y-55112071D01*
X101582623Y-55112065D01*
X101387933Y-54917375D01*
X101387926Y-54917369D01*
X101169483Y-54749753D01*
X101169482Y-54749752D01*
X101169479Y-54749750D01*
X101074407Y-54694860D01*
X100931028Y-54612079D01*
X100931017Y-54612074D01*
X100676630Y-54506703D01*
X100543649Y-54471071D01*
X100410666Y-54435439D01*
X100410660Y-54435438D01*
X100410655Y-54435437D01*
X100137684Y-54399500D01*
X100137679Y-54399499D01*
X100137674Y-54399499D01*
X99862326Y-54399499D01*
X99862320Y-54399499D01*
X99862315Y-54399500D01*
X99589344Y-54435437D01*
X99589337Y-54435438D01*
X99589334Y-54435439D01*
X99533125Y-54450499D01*
X99323369Y-54506703D01*
X99068982Y-54612074D01*
X99068971Y-54612079D01*
X98830516Y-54749753D01*
X98612073Y-54917369D01*
X98612066Y-54917375D01*
X98417376Y-55112065D01*
X98417370Y-55112072D01*
X98249754Y-55330515D01*
X98112080Y-55568970D01*
X98112075Y-55568981D01*
X98006704Y-55823368D01*
X97935441Y-56089330D01*
X97935438Y-56089343D01*
X97899501Y-56362314D01*
X97899500Y-56362331D01*
X91950500Y-56362331D01*
X91950500Y-56327525D01*
X91912984Y-56187515D01*
X91896805Y-56159493D01*
X91840511Y-56061988D01*
X91840506Y-56061982D01*
X91738017Y-55959493D01*
X91738011Y-55959488D01*
X91612488Y-55887017D01*
X91612489Y-55887017D01*
X91588488Y-55880586D01*
X91472475Y-55849500D01*
X91327525Y-55849500D01*
X91211512Y-55880586D01*
X91187511Y-55887017D01*
X91061988Y-55959488D01*
X91061982Y-55959493D01*
X90959493Y-56061982D01*
X90959488Y-56061988D01*
X90887017Y-56187511D01*
X90887016Y-56187515D01*
X90849500Y-56327525D01*
X89113790Y-56327525D01*
X93400500Y-52040815D01*
X93466392Y-51926687D01*
X93500500Y-51799393D01*
X93500500Y-51667608D01*
X93500500Y-51307486D01*
X94324500Y-51307486D01*
X94324500Y-51492513D01*
X94353445Y-51675265D01*
X94410619Y-51851232D01*
X94410620Y-51851235D01*
X94449066Y-51926688D01*
X94494622Y-52016096D01*
X94603379Y-52165787D01*
X94734213Y-52296621D01*
X94883904Y-52405378D01*
X94964763Y-52446577D01*
X95048764Y-52489379D01*
X95048767Y-52489380D01*
X95136750Y-52517967D01*
X95224736Y-52546555D01*
X95407486Y-52575500D01*
X95407487Y-52575500D01*
X95592513Y-52575500D01*
X95592514Y-52575500D01*
X95775264Y-52546555D01*
X95951235Y-52489379D01*
X96116096Y-52405378D01*
X96265787Y-52296621D01*
X96396621Y-52165787D01*
X96505378Y-52016096D01*
X96589379Y-51851235D01*
X96646555Y-51675264D01*
X96675500Y-51492514D01*
X96675500Y-51307486D01*
X97324500Y-51307486D01*
X97324500Y-51492513D01*
X97353445Y-51675265D01*
X97410619Y-51851232D01*
X97410620Y-51851235D01*
X97449066Y-51926688D01*
X97494622Y-52016096D01*
X97603379Y-52165787D01*
X97734213Y-52296621D01*
X97883904Y-52405378D01*
X97964763Y-52446577D01*
X98048764Y-52489379D01*
X98048767Y-52489380D01*
X98136750Y-52517967D01*
X98224736Y-52546555D01*
X98407486Y-52575500D01*
X98407487Y-52575500D01*
X98592513Y-52575500D01*
X98592514Y-52575500D01*
X98775264Y-52546555D01*
X98951235Y-52489379D01*
X99116096Y-52405378D01*
X99265787Y-52296621D01*
X99396621Y-52165787D01*
X99505378Y-52016096D01*
X99589379Y-51851235D01*
X99646555Y-51675264D01*
X99675500Y-51492514D01*
X99675500Y-51307486D01*
X100324500Y-51307486D01*
X100324500Y-51492513D01*
X100353445Y-51675265D01*
X100410619Y-51851232D01*
X100410620Y-51851235D01*
X100449066Y-51926688D01*
X100494622Y-52016096D01*
X100603379Y-52165787D01*
X100734213Y-52296621D01*
X100883904Y-52405378D01*
X100964763Y-52446577D01*
X101048764Y-52489379D01*
X101048767Y-52489380D01*
X101136750Y-52517967D01*
X101224736Y-52546555D01*
X101407486Y-52575500D01*
X101407487Y-52575500D01*
X101592513Y-52575500D01*
X101592514Y-52575500D01*
X101775264Y-52546555D01*
X101951235Y-52489379D01*
X102116096Y-52405378D01*
X102265787Y-52296621D01*
X102396621Y-52165787D01*
X102505378Y-52016096D01*
X102589379Y-51851235D01*
X102646555Y-51675264D01*
X102675500Y-51492514D01*
X102675500Y-51307486D01*
X103324500Y-51307486D01*
X103324500Y-51492513D01*
X103353445Y-51675265D01*
X103410619Y-51851232D01*
X103410620Y-51851235D01*
X103449066Y-51926688D01*
X103494622Y-52016096D01*
X103603379Y-52165787D01*
X103734213Y-52296621D01*
X103883904Y-52405378D01*
X103964763Y-52446577D01*
X104048764Y-52489379D01*
X104048767Y-52489380D01*
X104136750Y-52517967D01*
X104224736Y-52546555D01*
X104407486Y-52575500D01*
X104407487Y-52575500D01*
X104592513Y-52575500D01*
X104592514Y-52575500D01*
X104775264Y-52546555D01*
X104951235Y-52489379D01*
X105116096Y-52405378D01*
X105265787Y-52296621D01*
X105396621Y-52165787D01*
X105505378Y-52016096D01*
X105589379Y-51851235D01*
X105646555Y-51675264D01*
X105675500Y-51492514D01*
X105675500Y-51307486D01*
X105646555Y-51124736D01*
X105589379Y-50948765D01*
X105589379Y-50948764D01*
X105505377Y-50783903D01*
X105396621Y-50634213D01*
X105265787Y-50503379D01*
X105116096Y-50394622D01*
X104951235Y-50310620D01*
X104951232Y-50310619D01*
X104775265Y-50253445D01*
X104683889Y-50238972D01*
X104592514Y-50224500D01*
X104407486Y-50224500D01*
X104346569Y-50234148D01*
X104224734Y-50253445D01*
X104048767Y-50310619D01*
X104048764Y-50310620D01*
X103883903Y-50394622D01*
X103798499Y-50456672D01*
X103734213Y-50503379D01*
X103734211Y-50503381D01*
X103734210Y-50503381D01*
X103603381Y-50634210D01*
X103603381Y-50634211D01*
X103603379Y-50634213D01*
X103556672Y-50698499D01*
X103494622Y-50783903D01*
X103410620Y-50948764D01*
X103410619Y-50948767D01*
X103353445Y-51124734D01*
X103324500Y-51307486D01*
X102675500Y-51307486D01*
X102646555Y-51124736D01*
X102589379Y-50948765D01*
X102589379Y-50948764D01*
X102505377Y-50783903D01*
X102396621Y-50634213D01*
X102265787Y-50503379D01*
X102116096Y-50394622D01*
X101951235Y-50310620D01*
X101951232Y-50310619D01*
X101775265Y-50253445D01*
X101683889Y-50238972D01*
X101592514Y-50224500D01*
X101407486Y-50224500D01*
X101346569Y-50234148D01*
X101224734Y-50253445D01*
X101048767Y-50310619D01*
X101048764Y-50310620D01*
X100883903Y-50394622D01*
X100798499Y-50456672D01*
X100734213Y-50503379D01*
X100734211Y-50503381D01*
X100734210Y-50503381D01*
X100603381Y-50634210D01*
X100603381Y-50634211D01*
X100603379Y-50634213D01*
X100556672Y-50698499D01*
X100494622Y-50783903D01*
X100410620Y-50948764D01*
X100410619Y-50948767D01*
X100353445Y-51124734D01*
X100324500Y-51307486D01*
X99675500Y-51307486D01*
X99646555Y-51124736D01*
X99589379Y-50948765D01*
X99589379Y-50948764D01*
X99505377Y-50783903D01*
X99396621Y-50634213D01*
X99265787Y-50503379D01*
X99116096Y-50394622D01*
X98951235Y-50310620D01*
X98951232Y-50310619D01*
X98775265Y-50253445D01*
X98683889Y-50238972D01*
X98592514Y-50224500D01*
X98407486Y-50224500D01*
X98346569Y-50234148D01*
X98224734Y-50253445D01*
X98048767Y-50310619D01*
X98048764Y-50310620D01*
X97883903Y-50394622D01*
X97798499Y-50456672D01*
X97734213Y-50503379D01*
X97734211Y-50503381D01*
X97734210Y-50503381D01*
X97603381Y-50634210D01*
X97603381Y-50634211D01*
X97603379Y-50634213D01*
X97556672Y-50698499D01*
X97494622Y-50783903D01*
X97410620Y-50948764D01*
X97410619Y-50948767D01*
X97353445Y-51124734D01*
X97324500Y-51307486D01*
X96675500Y-51307486D01*
X96646555Y-51124736D01*
X96589379Y-50948765D01*
X96589379Y-50948764D01*
X96505377Y-50783903D01*
X96396621Y-50634213D01*
X96265787Y-50503379D01*
X96116096Y-50394622D01*
X95951235Y-50310620D01*
X95951232Y-50310619D01*
X95775265Y-50253445D01*
X95683889Y-50238972D01*
X95592514Y-50224500D01*
X95407486Y-50224500D01*
X95346569Y-50234148D01*
X95224734Y-50253445D01*
X95048767Y-50310619D01*
X95048764Y-50310620D01*
X94883903Y-50394622D01*
X94798499Y-50456672D01*
X94734213Y-50503379D01*
X94734211Y-50503381D01*
X94734210Y-50503381D01*
X94603381Y-50634210D01*
X94603381Y-50634211D01*
X94603379Y-50634213D01*
X94556672Y-50698499D01*
X94494622Y-50783903D01*
X94410620Y-50948764D01*
X94410619Y-50948767D01*
X94353445Y-51124734D01*
X94324500Y-51307486D01*
X93500500Y-51307486D01*
X93500500Y-47327135D01*
X94324500Y-47327135D01*
X94324500Y-48772870D01*
X94324501Y-48772876D01*
X94330908Y-48832483D01*
X94381202Y-48967328D01*
X94381206Y-48967335D01*
X94467452Y-49082544D01*
X94467455Y-49082547D01*
X94582664Y-49168793D01*
X94582671Y-49168797D01*
X94717517Y-49219091D01*
X94717516Y-49219091D01*
X94724444Y-49219835D01*
X94777127Y-49225500D01*
X96222872Y-49225499D01*
X96282483Y-49219091D01*
X96417331Y-49168796D01*
X96532546Y-49082546D01*
X96618796Y-48967331D01*
X96669091Y-48832483D01*
X96675500Y-48772873D01*
X96675499Y-47327135D01*
X97324500Y-47327135D01*
X97324500Y-48772870D01*
X97324501Y-48772876D01*
X97330908Y-48832483D01*
X97381202Y-48967328D01*
X97381206Y-48967335D01*
X97467452Y-49082544D01*
X97467455Y-49082547D01*
X97582664Y-49168793D01*
X97582671Y-49168797D01*
X97717517Y-49219091D01*
X97717516Y-49219091D01*
X97724444Y-49219835D01*
X97777127Y-49225500D01*
X99222872Y-49225499D01*
X99282483Y-49219091D01*
X99417331Y-49168796D01*
X99532546Y-49082546D01*
X99618796Y-48967331D01*
X99669091Y-48832483D01*
X99675500Y-48772873D01*
X99675499Y-47327135D01*
X100324500Y-47327135D01*
X100324500Y-48772870D01*
X100324501Y-48772876D01*
X100330908Y-48832483D01*
X100381202Y-48967328D01*
X100381206Y-48967335D01*
X100467452Y-49082544D01*
X100467455Y-49082547D01*
X100582664Y-49168793D01*
X100582671Y-49168797D01*
X100717517Y-49219091D01*
X100717516Y-49219091D01*
X100724444Y-49219835D01*
X100777127Y-49225500D01*
X102222872Y-49225499D01*
X102282483Y-49219091D01*
X102417331Y-49168796D01*
X102532546Y-49082546D01*
X102618796Y-48967331D01*
X102669091Y-48832483D01*
X102675500Y-48772873D01*
X102675499Y-47327135D01*
X103324500Y-47327135D01*
X103324500Y-48772870D01*
X103324501Y-48772876D01*
X103330908Y-48832483D01*
X103381202Y-48967328D01*
X103381206Y-48967335D01*
X103467452Y-49082544D01*
X103467455Y-49082547D01*
X103582664Y-49168793D01*
X103582671Y-49168797D01*
X103717517Y-49219091D01*
X103717516Y-49219091D01*
X103724444Y-49219835D01*
X103777127Y-49225500D01*
X105222872Y-49225499D01*
X105282483Y-49219091D01*
X105417331Y-49168796D01*
X105532546Y-49082546D01*
X105618796Y-48967331D01*
X105669091Y-48832483D01*
X105675500Y-48772873D01*
X105675499Y-47327128D01*
X105669091Y-47267517D01*
X105618796Y-47132669D01*
X105618795Y-47132668D01*
X105618793Y-47132664D01*
X105532547Y-47017455D01*
X105532544Y-47017452D01*
X105417335Y-46931206D01*
X105417328Y-46931202D01*
X105282482Y-46880908D01*
X105282483Y-46880908D01*
X105222883Y-46874501D01*
X105222881Y-46874500D01*
X105222873Y-46874500D01*
X105222864Y-46874500D01*
X103777129Y-46874500D01*
X103777123Y-46874501D01*
X103717516Y-46880908D01*
X103582671Y-46931202D01*
X103582664Y-46931206D01*
X103467455Y-47017452D01*
X103467452Y-47017455D01*
X103381206Y-47132664D01*
X103381202Y-47132671D01*
X103330908Y-47267517D01*
X103324501Y-47327116D01*
X103324501Y-47327123D01*
X103324500Y-47327135D01*
X102675499Y-47327135D01*
X102675499Y-47327128D01*
X102669091Y-47267517D01*
X102618796Y-47132669D01*
X102618795Y-47132668D01*
X102618793Y-47132664D01*
X102532547Y-47017455D01*
X102532544Y-47017452D01*
X102417335Y-46931206D01*
X102417328Y-46931202D01*
X102282482Y-46880908D01*
X102282483Y-46880908D01*
X102222883Y-46874501D01*
X102222881Y-46874500D01*
X102222873Y-46874500D01*
X102222864Y-46874500D01*
X100777129Y-46874500D01*
X100777123Y-46874501D01*
X100717516Y-46880908D01*
X100582671Y-46931202D01*
X100582664Y-46931206D01*
X100467455Y-47017452D01*
X100467452Y-47017455D01*
X100381206Y-47132664D01*
X100381202Y-47132671D01*
X100330908Y-47267517D01*
X100324501Y-47327116D01*
X100324501Y-47327123D01*
X100324500Y-47327135D01*
X99675499Y-47327135D01*
X99675499Y-47327128D01*
X99669091Y-47267517D01*
X99618796Y-47132669D01*
X99618795Y-47132668D01*
X99618793Y-47132664D01*
X99532547Y-47017455D01*
X99532544Y-47017452D01*
X99417335Y-46931206D01*
X99417328Y-46931202D01*
X99282482Y-46880908D01*
X99282483Y-46880908D01*
X99222883Y-46874501D01*
X99222881Y-46874500D01*
X99222873Y-46874500D01*
X99222864Y-46874500D01*
X97777129Y-46874500D01*
X97777123Y-46874501D01*
X97717516Y-46880908D01*
X97582671Y-46931202D01*
X97582664Y-46931206D01*
X97467455Y-47017452D01*
X97467452Y-47017455D01*
X97381206Y-47132664D01*
X97381202Y-47132671D01*
X97330908Y-47267517D01*
X97324501Y-47327116D01*
X97324501Y-47327123D01*
X97324500Y-47327135D01*
X96675499Y-47327135D01*
X96675499Y-47327128D01*
X96669091Y-47267517D01*
X96618796Y-47132669D01*
X96618795Y-47132668D01*
X96618793Y-47132664D01*
X96532547Y-47017455D01*
X96532544Y-47017452D01*
X96417335Y-46931206D01*
X96417328Y-46931202D01*
X96282482Y-46880908D01*
X96282483Y-46880908D01*
X96222883Y-46874501D01*
X96222881Y-46874500D01*
X96222873Y-46874500D01*
X96222864Y-46874500D01*
X94777129Y-46874500D01*
X94777123Y-46874501D01*
X94717516Y-46880908D01*
X94582671Y-46931202D01*
X94582664Y-46931206D01*
X94467455Y-47017452D01*
X94467452Y-47017455D01*
X94381206Y-47132664D01*
X94381202Y-47132671D01*
X94330908Y-47267517D01*
X94324501Y-47327116D01*
X94324501Y-47327123D01*
X94324500Y-47327135D01*
X93500500Y-47327135D01*
X93500500Y-43127525D01*
X96649500Y-43127525D01*
X96649500Y-43272475D01*
X96679028Y-43382673D01*
X96687017Y-43412488D01*
X96759488Y-43538011D01*
X96759490Y-43538013D01*
X96759491Y-43538015D01*
X96861985Y-43640509D01*
X96861986Y-43640510D01*
X96861988Y-43640511D01*
X96987511Y-43712982D01*
X96987512Y-43712982D01*
X96987515Y-43712984D01*
X97127525Y-43750500D01*
X97127528Y-43750500D01*
X97272472Y-43750500D01*
X97272475Y-43750500D01*
X97412485Y-43712984D01*
X97538015Y-43640509D01*
X97601389Y-43577135D01*
X98249500Y-43577135D01*
X98249500Y-44922870D01*
X98249501Y-44922876D01*
X98255908Y-44982483D01*
X98306202Y-45117328D01*
X98306206Y-45117335D01*
X98392452Y-45232544D01*
X98392455Y-45232547D01*
X98507664Y-45318793D01*
X98507671Y-45318797D01*
X98642517Y-45369091D01*
X98642516Y-45369091D01*
X98649444Y-45369835D01*
X98702127Y-45375500D01*
X99497872Y-45375499D01*
X99557483Y-45369091D01*
X99692331Y-45318796D01*
X99807546Y-45232546D01*
X99893796Y-45117331D01*
X99910778Y-45071800D01*
X99952648Y-45015866D01*
X100018112Y-44991448D01*
X100086385Y-45006299D01*
X100135791Y-45055703D01*
X100137444Y-45058836D01*
X100159194Y-45101521D01*
X100260967Y-45241602D01*
X100383397Y-45364032D01*
X100523475Y-45465804D01*
X100677744Y-45544408D01*
X100842415Y-45597914D01*
X100842414Y-45597914D01*
X100849999Y-45599115D01*
X100850000Y-45599114D01*
X100850000Y-44530330D01*
X100869745Y-44550075D01*
X100955255Y-44599444D01*
X101050630Y-44625000D01*
X101149370Y-44625000D01*
X101244745Y-44599444D01*
X101330255Y-44550075D01*
X101350000Y-44530330D01*
X101350000Y-45599115D01*
X101357584Y-45597914D01*
X101522255Y-45544408D01*
X101676524Y-45465804D01*
X101816602Y-45364032D01*
X101939032Y-45241602D01*
X102040804Y-45101524D01*
X102119408Y-44947257D01*
X102172914Y-44782584D01*
X102200000Y-44611571D01*
X102200000Y-44500000D01*
X101380330Y-44500000D01*
X101400075Y-44480255D01*
X101449444Y-44394745D01*
X101475000Y-44299370D01*
X101475000Y-44200630D01*
X101449444Y-44105255D01*
X101400075Y-44019745D01*
X101380330Y-44000000D01*
X102200000Y-44000000D01*
X102200000Y-43888428D01*
X102172914Y-43717415D01*
X102119408Y-43552742D01*
X102040804Y-43398475D01*
X101939032Y-43258397D01*
X101816602Y-43135967D01*
X101676524Y-43034195D01*
X101522257Y-42955591D01*
X101357589Y-42902087D01*
X101357581Y-42902085D01*
X101350000Y-42900884D01*
X101350000Y-43969670D01*
X101330255Y-43949925D01*
X101244745Y-43900556D01*
X101149370Y-43875000D01*
X101050630Y-43875000D01*
X100955255Y-43900556D01*
X100869745Y-43949925D01*
X100850000Y-43969670D01*
X100850000Y-42900884D01*
X100849999Y-42900884D01*
X100842418Y-42902085D01*
X100842410Y-42902087D01*
X100677742Y-42955591D01*
X100523475Y-43034195D01*
X100383397Y-43135967D01*
X100260967Y-43258397D01*
X100159195Y-43398475D01*
X100137444Y-43441164D01*
X100089469Y-43491959D01*
X100021647Y-43508753D01*
X99955513Y-43486214D01*
X99912062Y-43431499D01*
X99910778Y-43428199D01*
X99893798Y-43382673D01*
X99893793Y-43382664D01*
X99807547Y-43267455D01*
X99807544Y-43267452D01*
X99692335Y-43181206D01*
X99692329Y-43181203D01*
X99636737Y-43160468D01*
X99580803Y-43118596D01*
X99556387Y-43053131D01*
X99571239Y-42984859D01*
X99572654Y-42982336D01*
X99612984Y-42912485D01*
X99650500Y-42772475D01*
X99650500Y-42627525D01*
X99612984Y-42487515D01*
X99540509Y-42361985D01*
X99438015Y-42259491D01*
X99438013Y-42259490D01*
X99438011Y-42259488D01*
X99312488Y-42187017D01*
X99312489Y-42187017D01*
X99301006Y-42183940D01*
X99172475Y-42149500D01*
X99027525Y-42149500D01*
X98898993Y-42183940D01*
X98887511Y-42187017D01*
X98761988Y-42259488D01*
X98761982Y-42259493D01*
X98659493Y-42361982D01*
X98659488Y-42361988D01*
X98587017Y-42487511D01*
X98587016Y-42487515D01*
X98549500Y-42627525D01*
X98549500Y-42772475D01*
X98584230Y-42902087D01*
X98587017Y-42912488D01*
X98627315Y-42982286D01*
X98643788Y-43050186D01*
X98620935Y-43116213D01*
X98566014Y-43159404D01*
X98563263Y-43160467D01*
X98507674Y-43181201D01*
X98507664Y-43181206D01*
X98392455Y-43267452D01*
X98392452Y-43267455D01*
X98306206Y-43382664D01*
X98306202Y-43382671D01*
X98255908Y-43517517D01*
X98249501Y-43577116D01*
X98249500Y-43577135D01*
X97601389Y-43577135D01*
X97640509Y-43538015D01*
X97712984Y-43412485D01*
X97750500Y-43272475D01*
X97750500Y-43127525D01*
X97712984Y-42987515D01*
X97709964Y-42982285D01*
X97640511Y-42861988D01*
X97640506Y-42861982D01*
X97538017Y-42759493D01*
X97538011Y-42759488D01*
X97412488Y-42687017D01*
X97412489Y-42687017D01*
X97401006Y-42683940D01*
X97272475Y-42649500D01*
X97127525Y-42649500D01*
X96998993Y-42683940D01*
X96987511Y-42687017D01*
X96861988Y-42759488D01*
X96861982Y-42759493D01*
X96759493Y-42861982D01*
X96759488Y-42861988D01*
X96687017Y-42987511D01*
X96687016Y-42987515D01*
X96649500Y-43127525D01*
X93500500Y-43127525D01*
X93500500Y-40624500D01*
X93520185Y-40557461D01*
X93572989Y-40511706D01*
X93624500Y-40500500D01*
X106375500Y-40500500D01*
X106442539Y-40520185D01*
G37*
%TD.AperFunction*%
%TD*%
M02*
