%TF.GenerationSoftware,KiCad,Pcbnew,9.0.6*%
%TF.CreationDate,2026-03-25T12:33:22-04:00*%
%TF.ProjectId,newschematic,6e657773-6368-4656-9d61-7469632e6b69,0*%
%TF.SameCoordinates,Original*%
%TF.FileFunction,Drillmap*%
%TF.FilePolarity,Positive*%
%FSLAX45Y45*%
G04 Gerber Fmt 4.5, Leading zero omitted, Abs format (unit mm)*
G04 Created by KiCad (PCBNEW 9.0.6) date 2026-03-25 12:33:22*
%MOMM*%
%LPD*%
G01*
G04 APERTURE LIST*
%ADD10C,0.200000*%
%ADD11C,0.100000*%
G04 APERTURE END LIST*
D10*
X11326650Y-5800000D02*
X12500000Y-5800000D01*
X10700000Y-4000000D02*
X10700000Y-5173350D01*
X10160000Y-7350000D02*
G75*
G02*
X9840000Y-7350000I-160000J0D01*
G01*
X9840000Y-7350000D02*
G75*
G02*
X10160000Y-7350000I160000J0D01*
G01*
X8673350Y-7200000D02*
X7500000Y-7200000D01*
X9300000Y-9000000D02*
X9300000Y-7826650D01*
X10160000Y-5650000D02*
G75*
G02*
X9840000Y-5650000I-160000J0D01*
G01*
X9840000Y-5650000D02*
G75*
G02*
X10160000Y-5650000I160000J0D01*
G01*
X11326650Y-7200000D02*
X10700000Y-7826650D01*
X9300000Y-7826650D02*
X8673350Y-7200000D01*
X9310000Y-6500000D02*
G75*
G02*
X8990000Y-6500000I-160000J0D01*
G01*
X8990000Y-6500000D02*
G75*
G02*
X9310000Y-6500000I160000J0D01*
G01*
X9300000Y-4000000D02*
X10700000Y-4000000D01*
X11010000Y-6500000D02*
G75*
G02*
X10690000Y-6500000I-160000J0D01*
G01*
X10690000Y-6500000D02*
G75*
G02*
X11010000Y-6500000I160000J0D01*
G01*
X7500000Y-5800000D02*
X8673350Y-5800000D01*
X12500000Y-5800000D02*
X12500000Y-7200000D01*
X9300000Y-5173350D02*
X9300000Y-4000000D01*
X9849367Y-7035633D02*
G75*
G02*
X9079367Y-7035633I-385000J0D01*
G01*
X9079367Y-7035633D02*
G75*
G02*
X9849367Y-7035633I385000J0D01*
G01*
X8673350Y-5800000D02*
X9300000Y-5173350D01*
X10920633Y-5964367D02*
G75*
G02*
X10150633Y-5964367I-385000J0D01*
G01*
X10150633Y-5964367D02*
G75*
G02*
X10920633Y-5964367I385000J0D01*
G01*
X10700000Y-9000000D02*
X9300000Y-9000000D01*
X10700000Y-7826650D02*
X10700000Y-9000000D01*
X10700000Y-5173350D02*
X11326650Y-5800000D01*
X7500000Y-7200000D02*
X7500000Y-5800000D01*
X12500000Y-7200000D02*
X11326650Y-7200000D01*
X10215000Y-6500000D02*
G75*
G02*
X9785000Y-6500000I-215000J0D01*
G01*
X9785000Y-6500000D02*
G75*
G02*
X10215000Y-6500000I215000J0D01*
G01*
D11*
X7625000Y-6215000D02*
X7655000Y-6245000D01*
X7655000Y-6215000D02*
X7625000Y-6245000D01*
X7645000Y-6695000D02*
X7675000Y-6725000D01*
X7675000Y-6695000D02*
X7645000Y-6725000D01*
X7825000Y-6965000D02*
X7855000Y-6995000D01*
X7855000Y-6965000D02*
X7825000Y-6995000D01*
X7885000Y-7085000D02*
X7915000Y-7115000D01*
X7915000Y-7085000D02*
X7885000Y-7115000D01*
X7935000Y-6045000D02*
X7965000Y-6075000D01*
X7965000Y-6045000D02*
X7935000Y-6075000D01*
X7945000Y-6775000D02*
X7975000Y-6805000D01*
X7975000Y-6775000D02*
X7945000Y-6805000D01*
X7945100Y-6535007D02*
X7975100Y-6565007D01*
X7975100Y-6535007D02*
X7945100Y-6565007D01*
X7955000Y-6255000D02*
X7985000Y-6285000D01*
X7985000Y-6255000D02*
X7955000Y-6285000D01*
X7965000Y-6395000D02*
X7995000Y-6425000D01*
X7995000Y-6395000D02*
X7965000Y-6425000D01*
X8106250Y-5971346D02*
X8136250Y-6001346D01*
X8136250Y-5971346D02*
X8106250Y-6001346D01*
X8165000Y-6205000D02*
X8195000Y-6235000D01*
X8195000Y-6205000D02*
X8165000Y-6235000D01*
X8175000Y-6316100D02*
X8205000Y-6346100D01*
X8205000Y-6316100D02*
X8175000Y-6346100D01*
X8175000Y-6825000D02*
X8205000Y-6855000D01*
X8205000Y-6825000D02*
X8175000Y-6855000D01*
X8193750Y-6586664D02*
X8223750Y-6616664D01*
X8223750Y-6586664D02*
X8193750Y-6616664D01*
X8195000Y-6433100D02*
X8225000Y-6463100D01*
X8225000Y-6433100D02*
X8195000Y-6463100D01*
X8195000Y-6709000D02*
X8225000Y-6739000D01*
X8225000Y-6709000D02*
X8195000Y-6739000D01*
X8335000Y-7085000D02*
X8365000Y-7115000D01*
X8365000Y-7085000D02*
X8335000Y-7115000D01*
X8472500Y-6935100D02*
X8502500Y-6965100D01*
X8502500Y-6935100D02*
X8472500Y-6965100D01*
X8635000Y-6255000D02*
X8665000Y-6285000D01*
X8665000Y-6255000D02*
X8635000Y-6285000D01*
X8641593Y-6722500D02*
X8671593Y-6752500D01*
X8671593Y-6722500D02*
X8641593Y-6752500D01*
X8645374Y-6647595D02*
X8675374Y-6677595D01*
X8675374Y-6647595D02*
X8645374Y-6677595D01*
X8655047Y-6377312D02*
X8685047Y-6407312D01*
X8685047Y-6377312D02*
X8655047Y-6407312D01*
X8699528Y-7070472D02*
X8729528Y-7100472D01*
X8729528Y-7070472D02*
X8699528Y-7100472D01*
X8717150Y-6482850D02*
X8747150Y-6512850D01*
X8747150Y-6482850D02*
X8717150Y-6512850D01*
X8717800Y-6035000D02*
X8747800Y-6065000D01*
X8747800Y-6035000D02*
X8717800Y-6065000D01*
X8797700Y-6885000D02*
X8827700Y-6915000D01*
X8827700Y-6885000D02*
X8797700Y-6915000D01*
X8805000Y-5935000D02*
X8835000Y-5965000D01*
X8835000Y-5935000D02*
X8805000Y-5965000D01*
X8925000Y-7045000D02*
X8955000Y-7075000D01*
X8955000Y-7045000D02*
X8925000Y-7075000D01*
X9125000Y-5625000D02*
X9155000Y-5655000D01*
X9155000Y-5625000D02*
X9125000Y-5655000D01*
X9305000Y-6165000D02*
X9335000Y-6195000D01*
X9335000Y-6165000D02*
X9305000Y-6195000D01*
X9365000Y-7884579D02*
X9395000Y-7914579D01*
X9395000Y-7884579D02*
X9365000Y-7914579D01*
X9365000Y-7959579D02*
X9395000Y-7989579D01*
X9395000Y-7959579D02*
X9365000Y-7989579D01*
X9415000Y-6055000D02*
X9445000Y-6085000D01*
X9445000Y-6055000D02*
X9415000Y-6085000D01*
X9417500Y-8033718D02*
X9447500Y-8063718D01*
X9447500Y-8033718D02*
X9417500Y-8063718D01*
X9444528Y-7815472D02*
X9474528Y-7845472D01*
X9474528Y-7815472D02*
X9444528Y-7845472D01*
X9455000Y-8835000D02*
X9485000Y-8865000D01*
X9485000Y-8835000D02*
X9455000Y-8865000D01*
X9548750Y-7595000D02*
X9578750Y-7625000D01*
X9578750Y-7595000D02*
X9548750Y-7625000D01*
X9705000Y-4305000D02*
X9735000Y-4335000D01*
X9735000Y-4305000D02*
X9705000Y-4335000D01*
X9705000Y-4505000D02*
X9735000Y-4535000D01*
X9735000Y-4505000D02*
X9705000Y-4535000D01*
X9708750Y-7745000D02*
X9738750Y-7775000D01*
X9738750Y-7745000D02*
X9708750Y-7775000D01*
X9721250Y-7595000D02*
X9751250Y-7625000D01*
X9751250Y-7595000D02*
X9721250Y-7625000D01*
X9725000Y-8695000D02*
X9755000Y-8725000D01*
X9755000Y-8695000D02*
X9725000Y-8725000D01*
X9745000Y-8005000D02*
X9775000Y-8035000D01*
X9775000Y-8005000D02*
X9745000Y-8035000D01*
X9865000Y-8109900D02*
X9895000Y-8139900D01*
X9895000Y-8109900D02*
X9865000Y-8139900D01*
X9875000Y-8215000D02*
X9905000Y-8245000D01*
X9905000Y-8215000D02*
X9875000Y-8245000D01*
X9875000Y-8405000D02*
X9905000Y-8435000D01*
X9905000Y-8405000D02*
X9875000Y-8435000D01*
X9878750Y-7595000D02*
X9908750Y-7625000D01*
X9908750Y-7595000D02*
X9878750Y-7625000D01*
X9881250Y-7745000D02*
X9911250Y-7775000D01*
X9911250Y-7745000D02*
X9881250Y-7775000D01*
X9895000Y-4255000D02*
X9925000Y-4285000D01*
X9925000Y-4255000D02*
X9895000Y-4285000D01*
X9950000Y-8226250D02*
X9980000Y-8256250D01*
X9980000Y-8226250D02*
X9950000Y-8256250D01*
X10022989Y-8047500D02*
X10052989Y-8077500D01*
X10052989Y-8047500D02*
X10022989Y-8077500D01*
X10045000Y-7745000D02*
X10075000Y-7775000D01*
X10075000Y-7745000D02*
X10045000Y-7775000D01*
X10051250Y-7595000D02*
X10081250Y-7625000D01*
X10081250Y-7595000D02*
X10051250Y-7625000D01*
X10095000Y-4265000D02*
X10125000Y-4295000D01*
X10125000Y-4265000D02*
X10095000Y-4295000D01*
X10164029Y-8645400D02*
X10194029Y-8675400D01*
X10194029Y-8645400D02*
X10164029Y-8675400D01*
X10195000Y-8035000D02*
X10225000Y-8065000D01*
X10225000Y-8035000D02*
X10195000Y-8065000D01*
X10195000Y-8525000D02*
X10225000Y-8555000D01*
X10225000Y-8525000D02*
X10195000Y-8555000D01*
X10208750Y-7595000D02*
X10238750Y-7625000D01*
X10238750Y-7595000D02*
X10208750Y-7625000D01*
X10215000Y-6775000D02*
X10245000Y-6805000D01*
X10245000Y-6775000D02*
X10215000Y-6805000D01*
X10217500Y-7745000D02*
X10247500Y-7775000D01*
X10247500Y-7745000D02*
X10217500Y-7775000D01*
X10237434Y-8587434D02*
X10267434Y-8617434D01*
X10267434Y-8587434D02*
X10237434Y-8617434D01*
X10268980Y-8047330D02*
X10298980Y-8077330D01*
X10298980Y-8047330D02*
X10268980Y-8077330D01*
X10275000Y-7075000D02*
X10305000Y-7105000D01*
X10305000Y-7075000D02*
X10275000Y-7105000D01*
X10285000Y-6705000D02*
X10315000Y-6735000D01*
X10315000Y-6705000D02*
X10285000Y-6735000D01*
X10335000Y-8555000D02*
X10365000Y-8585000D01*
X10365000Y-8555000D02*
X10335000Y-8585000D01*
X10343964Y-8045796D02*
X10373964Y-8075796D01*
X10373964Y-8045796D02*
X10343964Y-8075796D01*
X10365000Y-6665000D02*
X10395000Y-6695000D01*
X10395000Y-6665000D02*
X10365000Y-6695000D01*
X10380637Y-8643112D02*
X10410637Y-8673112D01*
X10410637Y-8643112D02*
X10380637Y-8673112D01*
X10381250Y-7595000D02*
X10411250Y-7625000D01*
X10411250Y-7595000D02*
X10381250Y-7625000D01*
X10405000Y-7795000D02*
X10435000Y-7825000D01*
X10435000Y-7795000D02*
X10405000Y-7825000D01*
X10437500Y-8123009D02*
X10467500Y-8153009D01*
X10467500Y-8123009D02*
X10437500Y-8153009D01*
X10442436Y-8250044D02*
X10472436Y-8280044D01*
X10472436Y-8250044D02*
X10442436Y-8280044D01*
X10445000Y-8325000D02*
X10475000Y-8355000D01*
X10475000Y-8325000D02*
X10445000Y-8355000D01*
X10495000Y-7435000D02*
X10525000Y-7465000D01*
X10525000Y-7435000D02*
X10495000Y-7465000D01*
X10540000Y-7935000D02*
X10570000Y-7965000D01*
X10570000Y-7935000D02*
X10540000Y-7965000D01*
X10605000Y-7875000D02*
X10635000Y-7905000D01*
X10635000Y-7875000D02*
X10605000Y-7905000D01*
X10605000Y-7975000D02*
X10635000Y-8005000D01*
X10635000Y-7975000D02*
X10605000Y-8005000D01*
X10615000Y-6995000D02*
X10645000Y-7025000D01*
X10645000Y-6995000D02*
X10615000Y-7025000D01*
X10695528Y-7364472D02*
X10725528Y-7394472D01*
X10725528Y-7364472D02*
X10695528Y-7394472D01*
X10875000Y-7055000D02*
X10905000Y-7085000D01*
X10905000Y-7055000D02*
X10875000Y-7085000D01*
X10995000Y-7235000D02*
X11025000Y-7265000D01*
X11025000Y-7235000D02*
X10995000Y-7265000D01*
X11015000Y-6925000D02*
X11045000Y-6955000D01*
X11045000Y-6925000D02*
X11015000Y-6955000D01*
X11045000Y-5645000D02*
X11075000Y-5675000D01*
X11075000Y-5645000D02*
X11045000Y-5675000D01*
X11385000Y-5865000D02*
X11415000Y-5895000D01*
X11415000Y-5865000D02*
X11385000Y-5895000D01*
X11410000Y-6505000D02*
X11440000Y-6535000D01*
X11440000Y-6505000D02*
X11410000Y-6535000D01*
X11540000Y-6452500D02*
X11570000Y-6482500D01*
X11570000Y-6452500D02*
X11540000Y-6482500D01*
X11985000Y-6935000D02*
X12015000Y-6965000D01*
X12015000Y-6935000D02*
X11985000Y-6965000D01*
X12020377Y-6769623D02*
X12050377Y-6799623D01*
X12050377Y-6769623D02*
X12020377Y-6799623D01*
X12025000Y-6375000D02*
X12055000Y-6405000D01*
X12055000Y-6375000D02*
X12025000Y-6405000D01*
X12055000Y-6285000D02*
X12085000Y-6315000D01*
X12085000Y-6285000D02*
X12055000Y-6315000D01*
X12135000Y-6025000D02*
X12165000Y-6055000D01*
X12165000Y-6025000D02*
X12135000Y-6055000D01*
X12265000Y-6524900D02*
X12295000Y-6554900D01*
X12295000Y-6524900D02*
X12265000Y-6554900D01*
X12335000Y-6925000D02*
X12365000Y-6955000D01*
X12365000Y-6925000D02*
X12335000Y-6955000D01*
X12395000Y-6465000D02*
X12425000Y-6495000D01*
X12425000Y-6465000D02*
X12395000Y-6495000D01*
X9482868Y-6232132D02*
G75*
G02*
X9432868Y-6232132I-25000J0D01*
G01*
X9432868Y-6232132D02*
G75*
G02*
X9482868Y-6232132I25000J0D01*
G01*
X9553579Y-6161421D02*
G75*
G02*
X9503579Y-6161421I-25000J0D01*
G01*
X9503579Y-6161421D02*
G75*
G02*
X9553579Y-6161421I25000J0D01*
G01*
X9624289Y-6090711D02*
G75*
G02*
X9574289Y-6090711I-25000J0D01*
G01*
X9574289Y-6090711D02*
G75*
G02*
X9624289Y-6090711I25000J0D01*
G01*
X9695000Y-6020000D02*
G75*
G02*
X9645000Y-6020000I-25000J0D01*
G01*
X9645000Y-6020000D02*
G75*
G02*
X9695000Y-6020000I25000J0D01*
G01*
X9765711Y-5949289D02*
G75*
G02*
X9715711Y-5949289I-25000J0D01*
G01*
X9715711Y-5949289D02*
G75*
G02*
X9765711Y-5949289I25000J0D01*
G01*
X9910000Y-4387500D02*
X9910000Y-4462500D01*
X9872500Y-4425000D02*
X9947500Y-4425000D01*
X10110000Y-4387500D02*
X10110000Y-4462500D01*
X10072500Y-4425000D02*
X10147500Y-4425000D01*
X9580052Y-4835052D02*
X9580052Y-4774948D01*
X9519948Y-4774948D01*
X9519948Y-4835052D01*
X9580052Y-4835052D01*
X9580052Y-5170052D02*
X9580052Y-5109948D01*
X9519948Y-5109948D01*
X9519948Y-5170052D01*
X9580052Y-5170052D01*
X9880052Y-4835052D02*
X9880052Y-4774948D01*
X9819948Y-4774948D01*
X9819948Y-4835052D01*
X9880052Y-4835052D01*
X9880052Y-5170052D02*
X9880052Y-5109948D01*
X9819948Y-5109948D01*
X9819948Y-5170052D01*
X9880052Y-5170052D01*
X10180052Y-4835052D02*
X10180052Y-4774948D01*
X10119948Y-4774948D01*
X10119948Y-4835052D01*
X10180052Y-4835052D01*
X10180052Y-5170052D02*
X10180052Y-5109948D01*
X10119948Y-5109948D01*
X10119948Y-5170052D01*
X10180052Y-5170052D01*
X10480052Y-4835052D02*
X10480052Y-4774948D01*
X10419948Y-4774948D01*
X10419948Y-4835052D01*
X10480052Y-4835052D01*
X10480052Y-5170052D02*
X10480052Y-5109948D01*
X10419948Y-5109948D01*
X10419948Y-5170052D01*
X10480052Y-5170052D01*
X11360052Y-6350052D02*
X11360052Y-6289948D01*
X11299948Y-6289948D01*
X11299948Y-6350052D01*
X11360052Y-6350052D01*
X11360052Y-7010052D02*
X11360052Y-6949948D01*
X11299948Y-6949948D01*
X11299948Y-7010052D01*
X11360052Y-7010052D01*
X11695052Y-6350052D02*
X11695052Y-6289948D01*
X11634948Y-6289948D01*
X11634948Y-6350052D01*
X11695052Y-6350052D01*
X11695052Y-7010052D02*
X11695052Y-6949948D01*
X11634948Y-6949948D01*
X11634948Y-7010052D01*
X11695052Y-7010052D01*
D10*
X7750777Y-9321484D02*
X7750777Y-9121484D01*
X7750777Y-9121484D02*
X7798396Y-9121484D01*
X7798396Y-9121484D02*
X7826967Y-9131008D01*
X7826967Y-9131008D02*
X7846015Y-9150055D01*
X7846015Y-9150055D02*
X7855539Y-9169103D01*
X7855539Y-9169103D02*
X7865062Y-9207198D01*
X7865062Y-9207198D02*
X7865062Y-9235770D01*
X7865062Y-9235770D02*
X7855539Y-9273865D01*
X7855539Y-9273865D02*
X7846015Y-9292912D01*
X7846015Y-9292912D02*
X7826967Y-9311960D01*
X7826967Y-9311960D02*
X7798396Y-9321484D01*
X7798396Y-9321484D02*
X7750777Y-9321484D01*
X7950777Y-9321484D02*
X7950777Y-9188150D01*
X7950777Y-9226246D02*
X7960301Y-9207198D01*
X7960301Y-9207198D02*
X7969824Y-9197674D01*
X7969824Y-9197674D02*
X7988872Y-9188150D01*
X7988872Y-9188150D02*
X8007920Y-9188150D01*
X8074586Y-9321484D02*
X8074586Y-9188150D01*
X8074586Y-9121484D02*
X8065062Y-9131008D01*
X8065062Y-9131008D02*
X8074586Y-9140531D01*
X8074586Y-9140531D02*
X8084110Y-9131008D01*
X8084110Y-9131008D02*
X8074586Y-9121484D01*
X8074586Y-9121484D02*
X8074586Y-9140531D01*
X8198396Y-9321484D02*
X8179348Y-9311960D01*
X8179348Y-9311960D02*
X8169824Y-9292912D01*
X8169824Y-9292912D02*
X8169824Y-9121484D01*
X8303158Y-9321484D02*
X8284110Y-9311960D01*
X8284110Y-9311960D02*
X8274586Y-9292912D01*
X8274586Y-9292912D02*
X8274586Y-9121484D01*
X8531729Y-9321484D02*
X8531729Y-9121484D01*
X8531729Y-9121484D02*
X8598396Y-9264341D01*
X8598396Y-9264341D02*
X8665063Y-9121484D01*
X8665063Y-9121484D02*
X8665063Y-9321484D01*
X8846015Y-9321484D02*
X8846015Y-9216722D01*
X8846015Y-9216722D02*
X8836491Y-9197674D01*
X8836491Y-9197674D02*
X8817444Y-9188150D01*
X8817444Y-9188150D02*
X8779348Y-9188150D01*
X8779348Y-9188150D02*
X8760301Y-9197674D01*
X8846015Y-9311960D02*
X8826967Y-9321484D01*
X8826967Y-9321484D02*
X8779348Y-9321484D01*
X8779348Y-9321484D02*
X8760301Y-9311960D01*
X8760301Y-9311960D02*
X8750777Y-9292912D01*
X8750777Y-9292912D02*
X8750777Y-9273865D01*
X8750777Y-9273865D02*
X8760301Y-9254817D01*
X8760301Y-9254817D02*
X8779348Y-9245293D01*
X8779348Y-9245293D02*
X8826967Y-9245293D01*
X8826967Y-9245293D02*
X8846015Y-9235770D01*
X8941253Y-9188150D02*
X8941253Y-9388150D01*
X8941253Y-9197674D02*
X8960301Y-9188150D01*
X8960301Y-9188150D02*
X8998396Y-9188150D01*
X8998396Y-9188150D02*
X9017444Y-9197674D01*
X9017444Y-9197674D02*
X9026967Y-9207198D01*
X9026967Y-9207198D02*
X9036491Y-9226246D01*
X9036491Y-9226246D02*
X9036491Y-9283389D01*
X9036491Y-9283389D02*
X9026967Y-9302436D01*
X9026967Y-9302436D02*
X9017444Y-9311960D01*
X9017444Y-9311960D02*
X8998396Y-9321484D01*
X8998396Y-9321484D02*
X8960301Y-9321484D01*
X8960301Y-9321484D02*
X8941253Y-9311960D01*
X9122205Y-9302436D02*
X9131729Y-9311960D01*
X9131729Y-9311960D02*
X9122205Y-9321484D01*
X9122205Y-9321484D02*
X9112682Y-9311960D01*
X9112682Y-9311960D02*
X9122205Y-9302436D01*
X9122205Y-9302436D02*
X9122205Y-9321484D01*
X9122205Y-9197674D02*
X9131729Y-9207198D01*
X9131729Y-9207198D02*
X9122205Y-9216722D01*
X9122205Y-9216722D02*
X9112682Y-9207198D01*
X9112682Y-9207198D02*
X9122205Y-9197674D01*
X9122205Y-9197674D02*
X9122205Y-9216722D01*
D11*
X7460000Y-9635000D02*
X7490000Y-9665000D01*
X7490000Y-9635000D02*
X7460000Y-9665000D01*
D10*
X7788872Y-9541484D02*
X7807920Y-9541484D01*
X7807920Y-9541484D02*
X7826967Y-9551008D01*
X7826967Y-9551008D02*
X7836491Y-9560531D01*
X7836491Y-9560531D02*
X7846015Y-9579579D01*
X7846015Y-9579579D02*
X7855539Y-9617674D01*
X7855539Y-9617674D02*
X7855539Y-9665293D01*
X7855539Y-9665293D02*
X7846015Y-9703389D01*
X7846015Y-9703389D02*
X7836491Y-9722436D01*
X7836491Y-9722436D02*
X7826967Y-9731960D01*
X7826967Y-9731960D02*
X7807920Y-9741484D01*
X7807920Y-9741484D02*
X7788872Y-9741484D01*
X7788872Y-9741484D02*
X7769824Y-9731960D01*
X7769824Y-9731960D02*
X7760301Y-9722436D01*
X7760301Y-9722436D02*
X7750777Y-9703389D01*
X7750777Y-9703389D02*
X7741253Y-9665293D01*
X7741253Y-9665293D02*
X7741253Y-9617674D01*
X7741253Y-9617674D02*
X7750777Y-9579579D01*
X7750777Y-9579579D02*
X7760301Y-9560531D01*
X7760301Y-9560531D02*
X7769824Y-9551008D01*
X7769824Y-9551008D02*
X7788872Y-9541484D01*
X7941253Y-9722436D02*
X7950777Y-9731960D01*
X7950777Y-9731960D02*
X7941253Y-9741484D01*
X7941253Y-9741484D02*
X7931729Y-9731960D01*
X7931729Y-9731960D02*
X7941253Y-9722436D01*
X7941253Y-9722436D02*
X7941253Y-9741484D01*
X8017443Y-9541484D02*
X8141253Y-9541484D01*
X8141253Y-9541484D02*
X8074586Y-9617674D01*
X8074586Y-9617674D02*
X8103158Y-9617674D01*
X8103158Y-9617674D02*
X8122205Y-9627198D01*
X8122205Y-9627198D02*
X8131729Y-9636722D01*
X8131729Y-9636722D02*
X8141253Y-9655770D01*
X8141253Y-9655770D02*
X8141253Y-9703389D01*
X8141253Y-9703389D02*
X8131729Y-9722436D01*
X8131729Y-9722436D02*
X8122205Y-9731960D01*
X8122205Y-9731960D02*
X8103158Y-9741484D01*
X8103158Y-9741484D02*
X8046015Y-9741484D01*
X8046015Y-9741484D02*
X8026967Y-9731960D01*
X8026967Y-9731960D02*
X8017443Y-9722436D01*
X8265062Y-9541484D02*
X8284110Y-9541484D01*
X8284110Y-9541484D02*
X8303158Y-9551008D01*
X8303158Y-9551008D02*
X8312682Y-9560531D01*
X8312682Y-9560531D02*
X8322205Y-9579579D01*
X8322205Y-9579579D02*
X8331729Y-9617674D01*
X8331729Y-9617674D02*
X8331729Y-9665293D01*
X8331729Y-9665293D02*
X8322205Y-9703389D01*
X8322205Y-9703389D02*
X8312682Y-9722436D01*
X8312682Y-9722436D02*
X8303158Y-9731960D01*
X8303158Y-9731960D02*
X8284110Y-9741484D01*
X8284110Y-9741484D02*
X8265062Y-9741484D01*
X8265062Y-9741484D02*
X8246015Y-9731960D01*
X8246015Y-9731960D02*
X8236491Y-9722436D01*
X8236491Y-9722436D02*
X8226967Y-9703389D01*
X8226967Y-9703389D02*
X8217443Y-9665293D01*
X8217443Y-9665293D02*
X8217443Y-9617674D01*
X8217443Y-9617674D02*
X8226967Y-9579579D01*
X8226967Y-9579579D02*
X8236491Y-9560531D01*
X8236491Y-9560531D02*
X8246015Y-9551008D01*
X8246015Y-9551008D02*
X8265062Y-9541484D01*
X8455539Y-9541484D02*
X8474586Y-9541484D01*
X8474586Y-9541484D02*
X8493634Y-9551008D01*
X8493634Y-9551008D02*
X8503158Y-9560531D01*
X8503158Y-9560531D02*
X8512682Y-9579579D01*
X8512682Y-9579579D02*
X8522205Y-9617674D01*
X8522205Y-9617674D02*
X8522205Y-9665293D01*
X8522205Y-9665293D02*
X8512682Y-9703389D01*
X8512682Y-9703389D02*
X8503158Y-9722436D01*
X8503158Y-9722436D02*
X8493634Y-9731960D01*
X8493634Y-9731960D02*
X8474586Y-9741484D01*
X8474586Y-9741484D02*
X8455539Y-9741484D01*
X8455539Y-9741484D02*
X8436491Y-9731960D01*
X8436491Y-9731960D02*
X8426967Y-9722436D01*
X8426967Y-9722436D02*
X8417444Y-9703389D01*
X8417444Y-9703389D02*
X8407920Y-9665293D01*
X8407920Y-9665293D02*
X8407920Y-9617674D01*
X8407920Y-9617674D02*
X8417444Y-9579579D01*
X8417444Y-9579579D02*
X8426967Y-9560531D01*
X8426967Y-9560531D02*
X8436491Y-9551008D01*
X8436491Y-9551008D02*
X8455539Y-9541484D01*
X8607920Y-9741484D02*
X8607920Y-9608150D01*
X8607920Y-9627198D02*
X8617444Y-9617674D01*
X8617444Y-9617674D02*
X8636491Y-9608150D01*
X8636491Y-9608150D02*
X8665063Y-9608150D01*
X8665063Y-9608150D02*
X8684110Y-9617674D01*
X8684110Y-9617674D02*
X8693634Y-9636722D01*
X8693634Y-9636722D02*
X8693634Y-9741484D01*
X8693634Y-9636722D02*
X8703158Y-9617674D01*
X8703158Y-9617674D02*
X8722205Y-9608150D01*
X8722205Y-9608150D02*
X8750777Y-9608150D01*
X8750777Y-9608150D02*
X8769825Y-9617674D01*
X8769825Y-9617674D02*
X8779348Y-9636722D01*
X8779348Y-9636722D02*
X8779348Y-9741484D01*
X8874586Y-9741484D02*
X8874586Y-9608150D01*
X8874586Y-9627198D02*
X8884110Y-9617674D01*
X8884110Y-9617674D02*
X8903158Y-9608150D01*
X8903158Y-9608150D02*
X8931729Y-9608150D01*
X8931729Y-9608150D02*
X8950777Y-9617674D01*
X8950777Y-9617674D02*
X8960301Y-9636722D01*
X8960301Y-9636722D02*
X8960301Y-9741484D01*
X8960301Y-9636722D02*
X8969825Y-9617674D01*
X8969825Y-9617674D02*
X8988872Y-9608150D01*
X8988872Y-9608150D02*
X9017444Y-9608150D01*
X9017444Y-9608150D02*
X9036491Y-9617674D01*
X9036491Y-9617674D02*
X9046015Y-9636722D01*
X9046015Y-9636722D02*
X9046015Y-9741484D01*
X9436491Y-9531960D02*
X9265063Y-9789103D01*
X9693634Y-9541484D02*
X9712682Y-9541484D01*
X9712682Y-9541484D02*
X9731729Y-9551008D01*
X9731729Y-9551008D02*
X9741253Y-9560531D01*
X9741253Y-9560531D02*
X9750777Y-9579579D01*
X9750777Y-9579579D02*
X9760301Y-9617674D01*
X9760301Y-9617674D02*
X9760301Y-9665293D01*
X9760301Y-9665293D02*
X9750777Y-9703389D01*
X9750777Y-9703389D02*
X9741253Y-9722436D01*
X9741253Y-9722436D02*
X9731729Y-9731960D01*
X9731729Y-9731960D02*
X9712682Y-9741484D01*
X9712682Y-9741484D02*
X9693634Y-9741484D01*
X9693634Y-9741484D02*
X9674587Y-9731960D01*
X9674587Y-9731960D02*
X9665063Y-9722436D01*
X9665063Y-9722436D02*
X9655539Y-9703389D01*
X9655539Y-9703389D02*
X9646015Y-9665293D01*
X9646015Y-9665293D02*
X9646015Y-9617674D01*
X9646015Y-9617674D02*
X9655539Y-9579579D01*
X9655539Y-9579579D02*
X9665063Y-9560531D01*
X9665063Y-9560531D02*
X9674587Y-9551008D01*
X9674587Y-9551008D02*
X9693634Y-9541484D01*
X9846015Y-9722436D02*
X9855539Y-9731960D01*
X9855539Y-9731960D02*
X9846015Y-9741484D01*
X9846015Y-9741484D02*
X9836491Y-9731960D01*
X9836491Y-9731960D02*
X9846015Y-9722436D01*
X9846015Y-9722436D02*
X9846015Y-9741484D01*
X9979348Y-9541484D02*
X9998396Y-9541484D01*
X9998396Y-9541484D02*
X10017444Y-9551008D01*
X10017444Y-9551008D02*
X10026968Y-9560531D01*
X10026968Y-9560531D02*
X10036491Y-9579579D01*
X10036491Y-9579579D02*
X10046015Y-9617674D01*
X10046015Y-9617674D02*
X10046015Y-9665293D01*
X10046015Y-9665293D02*
X10036491Y-9703389D01*
X10036491Y-9703389D02*
X10026968Y-9722436D01*
X10026968Y-9722436D02*
X10017444Y-9731960D01*
X10017444Y-9731960D02*
X9998396Y-9741484D01*
X9998396Y-9741484D02*
X9979348Y-9741484D01*
X9979348Y-9741484D02*
X9960301Y-9731960D01*
X9960301Y-9731960D02*
X9950777Y-9722436D01*
X9950777Y-9722436D02*
X9941253Y-9703389D01*
X9941253Y-9703389D02*
X9931729Y-9665293D01*
X9931729Y-9665293D02*
X9931729Y-9617674D01*
X9931729Y-9617674D02*
X9941253Y-9579579D01*
X9941253Y-9579579D02*
X9950777Y-9560531D01*
X9950777Y-9560531D02*
X9960301Y-9551008D01*
X9960301Y-9551008D02*
X9979348Y-9541484D01*
X10236491Y-9741484D02*
X10122206Y-9741484D01*
X10179348Y-9741484D02*
X10179348Y-9541484D01*
X10179348Y-9541484D02*
X10160301Y-9570055D01*
X10160301Y-9570055D02*
X10141253Y-9589103D01*
X10141253Y-9589103D02*
X10122206Y-9598627D01*
X10426968Y-9741484D02*
X10312682Y-9741484D01*
X10369825Y-9741484D02*
X10369825Y-9541484D01*
X10369825Y-9541484D02*
X10350777Y-9570055D01*
X10350777Y-9570055D02*
X10331729Y-9589103D01*
X10331729Y-9589103D02*
X10312682Y-9598627D01*
X10541253Y-9627198D02*
X10522206Y-9617674D01*
X10522206Y-9617674D02*
X10512682Y-9608150D01*
X10512682Y-9608150D02*
X10503158Y-9589103D01*
X10503158Y-9589103D02*
X10503158Y-9579579D01*
X10503158Y-9579579D02*
X10512682Y-9560531D01*
X10512682Y-9560531D02*
X10522206Y-9551008D01*
X10522206Y-9551008D02*
X10541253Y-9541484D01*
X10541253Y-9541484D02*
X10579349Y-9541484D01*
X10579349Y-9541484D02*
X10598396Y-9551008D01*
X10598396Y-9551008D02*
X10607920Y-9560531D01*
X10607920Y-9560531D02*
X10617444Y-9579579D01*
X10617444Y-9579579D02*
X10617444Y-9589103D01*
X10617444Y-9589103D02*
X10607920Y-9608150D01*
X10607920Y-9608150D02*
X10598396Y-9617674D01*
X10598396Y-9617674D02*
X10579349Y-9627198D01*
X10579349Y-9627198D02*
X10541253Y-9627198D01*
X10541253Y-9627198D02*
X10522206Y-9636722D01*
X10522206Y-9636722D02*
X10512682Y-9646246D01*
X10512682Y-9646246D02*
X10503158Y-9665293D01*
X10503158Y-9665293D02*
X10503158Y-9703389D01*
X10503158Y-9703389D02*
X10512682Y-9722436D01*
X10512682Y-9722436D02*
X10522206Y-9731960D01*
X10522206Y-9731960D02*
X10541253Y-9741484D01*
X10541253Y-9741484D02*
X10579349Y-9741484D01*
X10579349Y-9741484D02*
X10598396Y-9731960D01*
X10598396Y-9731960D02*
X10607920Y-9722436D01*
X10607920Y-9722436D02*
X10617444Y-9703389D01*
X10617444Y-9703389D02*
X10617444Y-9665293D01*
X10617444Y-9665293D02*
X10607920Y-9646246D01*
X10607920Y-9646246D02*
X10598396Y-9636722D01*
X10598396Y-9636722D02*
X10579349Y-9627198D01*
X10693634Y-9541484D02*
X10693634Y-9579579D01*
X10769825Y-9541484D02*
X10769825Y-9579579D01*
X11065063Y-9817674D02*
X11055539Y-9808150D01*
X11055539Y-9808150D02*
X11036491Y-9779579D01*
X11036491Y-9779579D02*
X11026968Y-9760531D01*
X11026968Y-9760531D02*
X11017444Y-9731960D01*
X11017444Y-9731960D02*
X11007920Y-9684341D01*
X11007920Y-9684341D02*
X11007920Y-9646246D01*
X11007920Y-9646246D02*
X11017444Y-9598627D01*
X11017444Y-9598627D02*
X11026968Y-9570055D01*
X11026968Y-9570055D02*
X11036491Y-9551008D01*
X11036491Y-9551008D02*
X11055539Y-9522436D01*
X11055539Y-9522436D02*
X11065063Y-9512912D01*
X11150777Y-9741484D02*
X11188872Y-9741484D01*
X11188872Y-9741484D02*
X11207920Y-9731960D01*
X11207920Y-9731960D02*
X11217444Y-9722436D01*
X11217444Y-9722436D02*
X11236491Y-9693865D01*
X11236491Y-9693865D02*
X11246015Y-9655770D01*
X11246015Y-9655770D02*
X11246015Y-9579579D01*
X11246015Y-9579579D02*
X11236491Y-9560531D01*
X11236491Y-9560531D02*
X11226968Y-9551008D01*
X11226968Y-9551008D02*
X11207920Y-9541484D01*
X11207920Y-9541484D02*
X11169825Y-9541484D01*
X11169825Y-9541484D02*
X11150777Y-9551008D01*
X11150777Y-9551008D02*
X11141253Y-9560531D01*
X11141253Y-9560531D02*
X11131730Y-9579579D01*
X11131730Y-9579579D02*
X11131730Y-9627198D01*
X11131730Y-9627198D02*
X11141253Y-9646246D01*
X11141253Y-9646246D02*
X11150777Y-9655770D01*
X11150777Y-9655770D02*
X11169825Y-9665293D01*
X11169825Y-9665293D02*
X11207920Y-9665293D01*
X11207920Y-9665293D02*
X11226968Y-9655770D01*
X11226968Y-9655770D02*
X11236491Y-9646246D01*
X11236491Y-9646246D02*
X11246015Y-9627198D01*
X11417444Y-9608150D02*
X11417444Y-9741484D01*
X11369825Y-9531960D02*
X11322206Y-9674817D01*
X11322206Y-9674817D02*
X11446015Y-9674817D01*
X11674587Y-9741484D02*
X11674587Y-9541484D01*
X11760301Y-9741484D02*
X11760301Y-9636722D01*
X11760301Y-9636722D02*
X11750777Y-9617674D01*
X11750777Y-9617674D02*
X11731730Y-9608150D01*
X11731730Y-9608150D02*
X11703158Y-9608150D01*
X11703158Y-9608150D02*
X11684110Y-9617674D01*
X11684110Y-9617674D02*
X11674587Y-9627198D01*
X11884110Y-9741484D02*
X11865063Y-9731960D01*
X11865063Y-9731960D02*
X11855539Y-9722436D01*
X11855539Y-9722436D02*
X11846015Y-9703389D01*
X11846015Y-9703389D02*
X11846015Y-9646246D01*
X11846015Y-9646246D02*
X11855539Y-9627198D01*
X11855539Y-9627198D02*
X11865063Y-9617674D01*
X11865063Y-9617674D02*
X11884110Y-9608150D01*
X11884110Y-9608150D02*
X11912682Y-9608150D01*
X11912682Y-9608150D02*
X11931730Y-9617674D01*
X11931730Y-9617674D02*
X11941253Y-9627198D01*
X11941253Y-9627198D02*
X11950777Y-9646246D01*
X11950777Y-9646246D02*
X11950777Y-9703389D01*
X11950777Y-9703389D02*
X11941253Y-9722436D01*
X11941253Y-9722436D02*
X11931730Y-9731960D01*
X11931730Y-9731960D02*
X11912682Y-9741484D01*
X11912682Y-9741484D02*
X11884110Y-9741484D01*
X12065063Y-9741484D02*
X12046015Y-9731960D01*
X12046015Y-9731960D02*
X12036491Y-9712912D01*
X12036491Y-9712912D02*
X12036491Y-9541484D01*
X12217444Y-9731960D02*
X12198396Y-9741484D01*
X12198396Y-9741484D02*
X12160301Y-9741484D01*
X12160301Y-9741484D02*
X12141253Y-9731960D01*
X12141253Y-9731960D02*
X12131730Y-9712912D01*
X12131730Y-9712912D02*
X12131730Y-9636722D01*
X12131730Y-9636722D02*
X12141253Y-9617674D01*
X12141253Y-9617674D02*
X12160301Y-9608150D01*
X12160301Y-9608150D02*
X12198396Y-9608150D01*
X12198396Y-9608150D02*
X12217444Y-9617674D01*
X12217444Y-9617674D02*
X12226968Y-9636722D01*
X12226968Y-9636722D02*
X12226968Y-9655770D01*
X12226968Y-9655770D02*
X12131730Y-9674817D01*
X12303158Y-9731960D02*
X12322206Y-9741484D01*
X12322206Y-9741484D02*
X12360301Y-9741484D01*
X12360301Y-9741484D02*
X12379349Y-9731960D01*
X12379349Y-9731960D02*
X12388872Y-9712912D01*
X12388872Y-9712912D02*
X12388872Y-9703389D01*
X12388872Y-9703389D02*
X12379349Y-9684341D01*
X12379349Y-9684341D02*
X12360301Y-9674817D01*
X12360301Y-9674817D02*
X12331730Y-9674817D01*
X12331730Y-9674817D02*
X12312682Y-9665293D01*
X12312682Y-9665293D02*
X12303158Y-9646246D01*
X12303158Y-9646246D02*
X12303158Y-9636722D01*
X12303158Y-9636722D02*
X12312682Y-9617674D01*
X12312682Y-9617674D02*
X12331730Y-9608150D01*
X12331730Y-9608150D02*
X12360301Y-9608150D01*
X12360301Y-9608150D02*
X12379349Y-9617674D01*
X12455539Y-9817674D02*
X12465063Y-9808150D01*
X12465063Y-9808150D02*
X12484111Y-9779579D01*
X12484111Y-9779579D02*
X12493634Y-9760531D01*
X12493634Y-9760531D02*
X12503158Y-9731960D01*
X12503158Y-9731960D02*
X12512682Y-9684341D01*
X12512682Y-9684341D02*
X12512682Y-9646246D01*
X12512682Y-9646246D02*
X12503158Y-9598627D01*
X12503158Y-9598627D02*
X12493634Y-9570055D01*
X12493634Y-9570055D02*
X12484111Y-9551008D01*
X12484111Y-9551008D02*
X12465063Y-9522436D01*
X12465063Y-9522436D02*
X12455539Y-9512912D01*
D11*
X7490000Y-9914000D02*
G75*
G02*
X7440000Y-9914000I-25000J0D01*
G01*
X7440000Y-9914000D02*
G75*
G02*
X7490000Y-9914000I25000J0D01*
G01*
D10*
X7788872Y-9805484D02*
X7807920Y-9805484D01*
X7807920Y-9805484D02*
X7826967Y-9815008D01*
X7826967Y-9815008D02*
X7836491Y-9824531D01*
X7836491Y-9824531D02*
X7846015Y-9843579D01*
X7846015Y-9843579D02*
X7855539Y-9881674D01*
X7855539Y-9881674D02*
X7855539Y-9929293D01*
X7855539Y-9929293D02*
X7846015Y-9967389D01*
X7846015Y-9967389D02*
X7836491Y-9986436D01*
X7836491Y-9986436D02*
X7826967Y-9995960D01*
X7826967Y-9995960D02*
X7807920Y-10005484D01*
X7807920Y-10005484D02*
X7788872Y-10005484D01*
X7788872Y-10005484D02*
X7769824Y-9995960D01*
X7769824Y-9995960D02*
X7760301Y-9986436D01*
X7760301Y-9986436D02*
X7750777Y-9967389D01*
X7750777Y-9967389D02*
X7741253Y-9929293D01*
X7741253Y-9929293D02*
X7741253Y-9881674D01*
X7741253Y-9881674D02*
X7750777Y-9843579D01*
X7750777Y-9843579D02*
X7760301Y-9824531D01*
X7760301Y-9824531D02*
X7769824Y-9815008D01*
X7769824Y-9815008D02*
X7788872Y-9805484D01*
X7941253Y-9986436D02*
X7950777Y-9995960D01*
X7950777Y-9995960D02*
X7941253Y-10005484D01*
X7941253Y-10005484D02*
X7931729Y-9995960D01*
X7931729Y-9995960D02*
X7941253Y-9986436D01*
X7941253Y-9986436D02*
X7941253Y-10005484D01*
X8131729Y-9805484D02*
X8036491Y-9805484D01*
X8036491Y-9805484D02*
X8026967Y-9900722D01*
X8026967Y-9900722D02*
X8036491Y-9891198D01*
X8036491Y-9891198D02*
X8055539Y-9881674D01*
X8055539Y-9881674D02*
X8103158Y-9881674D01*
X8103158Y-9881674D02*
X8122205Y-9891198D01*
X8122205Y-9891198D02*
X8131729Y-9900722D01*
X8131729Y-9900722D02*
X8141253Y-9919770D01*
X8141253Y-9919770D02*
X8141253Y-9967389D01*
X8141253Y-9967389D02*
X8131729Y-9986436D01*
X8131729Y-9986436D02*
X8122205Y-9995960D01*
X8122205Y-9995960D02*
X8103158Y-10005484D01*
X8103158Y-10005484D02*
X8055539Y-10005484D01*
X8055539Y-10005484D02*
X8036491Y-9995960D01*
X8036491Y-9995960D02*
X8026967Y-9986436D01*
X8265062Y-9805484D02*
X8284110Y-9805484D01*
X8284110Y-9805484D02*
X8303158Y-9815008D01*
X8303158Y-9815008D02*
X8312682Y-9824531D01*
X8312682Y-9824531D02*
X8322205Y-9843579D01*
X8322205Y-9843579D02*
X8331729Y-9881674D01*
X8331729Y-9881674D02*
X8331729Y-9929293D01*
X8331729Y-9929293D02*
X8322205Y-9967389D01*
X8322205Y-9967389D02*
X8312682Y-9986436D01*
X8312682Y-9986436D02*
X8303158Y-9995960D01*
X8303158Y-9995960D02*
X8284110Y-10005484D01*
X8284110Y-10005484D02*
X8265062Y-10005484D01*
X8265062Y-10005484D02*
X8246015Y-9995960D01*
X8246015Y-9995960D02*
X8236491Y-9986436D01*
X8236491Y-9986436D02*
X8226967Y-9967389D01*
X8226967Y-9967389D02*
X8217443Y-9929293D01*
X8217443Y-9929293D02*
X8217443Y-9881674D01*
X8217443Y-9881674D02*
X8226967Y-9843579D01*
X8226967Y-9843579D02*
X8236491Y-9824531D01*
X8236491Y-9824531D02*
X8246015Y-9815008D01*
X8246015Y-9815008D02*
X8265062Y-9805484D01*
X8455539Y-9805484D02*
X8474586Y-9805484D01*
X8474586Y-9805484D02*
X8493634Y-9815008D01*
X8493634Y-9815008D02*
X8503158Y-9824531D01*
X8503158Y-9824531D02*
X8512682Y-9843579D01*
X8512682Y-9843579D02*
X8522205Y-9881674D01*
X8522205Y-9881674D02*
X8522205Y-9929293D01*
X8522205Y-9929293D02*
X8512682Y-9967389D01*
X8512682Y-9967389D02*
X8503158Y-9986436D01*
X8503158Y-9986436D02*
X8493634Y-9995960D01*
X8493634Y-9995960D02*
X8474586Y-10005484D01*
X8474586Y-10005484D02*
X8455539Y-10005484D01*
X8455539Y-10005484D02*
X8436491Y-9995960D01*
X8436491Y-9995960D02*
X8426967Y-9986436D01*
X8426967Y-9986436D02*
X8417444Y-9967389D01*
X8417444Y-9967389D02*
X8407920Y-9929293D01*
X8407920Y-9929293D02*
X8407920Y-9881674D01*
X8407920Y-9881674D02*
X8417444Y-9843579D01*
X8417444Y-9843579D02*
X8426967Y-9824531D01*
X8426967Y-9824531D02*
X8436491Y-9815008D01*
X8436491Y-9815008D02*
X8455539Y-9805484D01*
X8607920Y-10005484D02*
X8607920Y-9872150D01*
X8607920Y-9891198D02*
X8617444Y-9881674D01*
X8617444Y-9881674D02*
X8636491Y-9872150D01*
X8636491Y-9872150D02*
X8665063Y-9872150D01*
X8665063Y-9872150D02*
X8684110Y-9881674D01*
X8684110Y-9881674D02*
X8693634Y-9900722D01*
X8693634Y-9900722D02*
X8693634Y-10005484D01*
X8693634Y-9900722D02*
X8703158Y-9881674D01*
X8703158Y-9881674D02*
X8722205Y-9872150D01*
X8722205Y-9872150D02*
X8750777Y-9872150D01*
X8750777Y-9872150D02*
X8769825Y-9881674D01*
X8769825Y-9881674D02*
X8779348Y-9900722D01*
X8779348Y-9900722D02*
X8779348Y-10005484D01*
X8874586Y-10005484D02*
X8874586Y-9872150D01*
X8874586Y-9891198D02*
X8884110Y-9881674D01*
X8884110Y-9881674D02*
X8903158Y-9872150D01*
X8903158Y-9872150D02*
X8931729Y-9872150D01*
X8931729Y-9872150D02*
X8950777Y-9881674D01*
X8950777Y-9881674D02*
X8960301Y-9900722D01*
X8960301Y-9900722D02*
X8960301Y-10005484D01*
X8960301Y-9900722D02*
X8969825Y-9881674D01*
X8969825Y-9881674D02*
X8988872Y-9872150D01*
X8988872Y-9872150D02*
X9017444Y-9872150D01*
X9017444Y-9872150D02*
X9036491Y-9881674D01*
X9036491Y-9881674D02*
X9046015Y-9900722D01*
X9046015Y-9900722D02*
X9046015Y-10005484D01*
X9436491Y-9795960D02*
X9265063Y-10053103D01*
X9693634Y-9805484D02*
X9712682Y-9805484D01*
X9712682Y-9805484D02*
X9731729Y-9815008D01*
X9731729Y-9815008D02*
X9741253Y-9824531D01*
X9741253Y-9824531D02*
X9750777Y-9843579D01*
X9750777Y-9843579D02*
X9760301Y-9881674D01*
X9760301Y-9881674D02*
X9760301Y-9929293D01*
X9760301Y-9929293D02*
X9750777Y-9967389D01*
X9750777Y-9967389D02*
X9741253Y-9986436D01*
X9741253Y-9986436D02*
X9731729Y-9995960D01*
X9731729Y-9995960D02*
X9712682Y-10005484D01*
X9712682Y-10005484D02*
X9693634Y-10005484D01*
X9693634Y-10005484D02*
X9674587Y-9995960D01*
X9674587Y-9995960D02*
X9665063Y-9986436D01*
X9665063Y-9986436D02*
X9655539Y-9967389D01*
X9655539Y-9967389D02*
X9646015Y-9929293D01*
X9646015Y-9929293D02*
X9646015Y-9881674D01*
X9646015Y-9881674D02*
X9655539Y-9843579D01*
X9655539Y-9843579D02*
X9665063Y-9824531D01*
X9665063Y-9824531D02*
X9674587Y-9815008D01*
X9674587Y-9815008D02*
X9693634Y-9805484D01*
X9846015Y-9986436D02*
X9855539Y-9995960D01*
X9855539Y-9995960D02*
X9846015Y-10005484D01*
X9846015Y-10005484D02*
X9836491Y-9995960D01*
X9836491Y-9995960D02*
X9846015Y-9986436D01*
X9846015Y-9986436D02*
X9846015Y-10005484D01*
X9979348Y-9805484D02*
X9998396Y-9805484D01*
X9998396Y-9805484D02*
X10017444Y-9815008D01*
X10017444Y-9815008D02*
X10026968Y-9824531D01*
X10026968Y-9824531D02*
X10036491Y-9843579D01*
X10036491Y-9843579D02*
X10046015Y-9881674D01*
X10046015Y-9881674D02*
X10046015Y-9929293D01*
X10046015Y-9929293D02*
X10036491Y-9967389D01*
X10036491Y-9967389D02*
X10026968Y-9986436D01*
X10026968Y-9986436D02*
X10017444Y-9995960D01*
X10017444Y-9995960D02*
X9998396Y-10005484D01*
X9998396Y-10005484D02*
X9979348Y-10005484D01*
X9979348Y-10005484D02*
X9960301Y-9995960D01*
X9960301Y-9995960D02*
X9950777Y-9986436D01*
X9950777Y-9986436D02*
X9941253Y-9967389D01*
X9941253Y-9967389D02*
X9931729Y-9929293D01*
X9931729Y-9929293D02*
X9931729Y-9881674D01*
X9931729Y-9881674D02*
X9941253Y-9843579D01*
X9941253Y-9843579D02*
X9950777Y-9824531D01*
X9950777Y-9824531D02*
X9960301Y-9815008D01*
X9960301Y-9815008D02*
X9979348Y-9805484D01*
X10236491Y-10005484D02*
X10122206Y-10005484D01*
X10179348Y-10005484D02*
X10179348Y-9805484D01*
X10179348Y-9805484D02*
X10160301Y-9834055D01*
X10160301Y-9834055D02*
X10141253Y-9853103D01*
X10141253Y-9853103D02*
X10122206Y-9862627D01*
X10331729Y-10005484D02*
X10369825Y-10005484D01*
X10369825Y-10005484D02*
X10388872Y-9995960D01*
X10388872Y-9995960D02*
X10398396Y-9986436D01*
X10398396Y-9986436D02*
X10417444Y-9957865D01*
X10417444Y-9957865D02*
X10426968Y-9919770D01*
X10426968Y-9919770D02*
X10426968Y-9843579D01*
X10426968Y-9843579D02*
X10417444Y-9824531D01*
X10417444Y-9824531D02*
X10407920Y-9815008D01*
X10407920Y-9815008D02*
X10388872Y-9805484D01*
X10388872Y-9805484D02*
X10350777Y-9805484D01*
X10350777Y-9805484D02*
X10331729Y-9815008D01*
X10331729Y-9815008D02*
X10322206Y-9824531D01*
X10322206Y-9824531D02*
X10312682Y-9843579D01*
X10312682Y-9843579D02*
X10312682Y-9891198D01*
X10312682Y-9891198D02*
X10322206Y-9910246D01*
X10322206Y-9910246D02*
X10331729Y-9919770D01*
X10331729Y-9919770D02*
X10350777Y-9929293D01*
X10350777Y-9929293D02*
X10388872Y-9929293D01*
X10388872Y-9929293D02*
X10407920Y-9919770D01*
X10407920Y-9919770D02*
X10417444Y-9910246D01*
X10417444Y-9910246D02*
X10426968Y-9891198D01*
X10493634Y-9805484D02*
X10626968Y-9805484D01*
X10626968Y-9805484D02*
X10541253Y-10005484D01*
X10693634Y-9805484D02*
X10693634Y-9843579D01*
X10769825Y-9805484D02*
X10769825Y-9843579D01*
X11065063Y-10081674D02*
X11055539Y-10072150D01*
X11055539Y-10072150D02*
X11036491Y-10043579D01*
X11036491Y-10043579D02*
X11026968Y-10024531D01*
X11026968Y-10024531D02*
X11017444Y-9995960D01*
X11017444Y-9995960D02*
X11007920Y-9948341D01*
X11007920Y-9948341D02*
X11007920Y-9910246D01*
X11007920Y-9910246D02*
X11017444Y-9862627D01*
X11017444Y-9862627D02*
X11026968Y-9834055D01*
X11026968Y-9834055D02*
X11036491Y-9815008D01*
X11036491Y-9815008D02*
X11055539Y-9786436D01*
X11055539Y-9786436D02*
X11065063Y-9776912D01*
X11236491Y-9805484D02*
X11141253Y-9805484D01*
X11141253Y-9805484D02*
X11131730Y-9900722D01*
X11131730Y-9900722D02*
X11141253Y-9891198D01*
X11141253Y-9891198D02*
X11160301Y-9881674D01*
X11160301Y-9881674D02*
X11207920Y-9881674D01*
X11207920Y-9881674D02*
X11226968Y-9891198D01*
X11226968Y-9891198D02*
X11236491Y-9900722D01*
X11236491Y-9900722D02*
X11246015Y-9919770D01*
X11246015Y-9919770D02*
X11246015Y-9967389D01*
X11246015Y-9967389D02*
X11236491Y-9986436D01*
X11236491Y-9986436D02*
X11226968Y-9995960D01*
X11226968Y-9995960D02*
X11207920Y-10005484D01*
X11207920Y-10005484D02*
X11160301Y-10005484D01*
X11160301Y-10005484D02*
X11141253Y-9995960D01*
X11141253Y-9995960D02*
X11131730Y-9986436D01*
X11484110Y-10005484D02*
X11484110Y-9805484D01*
X11569825Y-10005484D02*
X11569825Y-9900722D01*
X11569825Y-9900722D02*
X11560301Y-9881674D01*
X11560301Y-9881674D02*
X11541253Y-9872150D01*
X11541253Y-9872150D02*
X11512682Y-9872150D01*
X11512682Y-9872150D02*
X11493634Y-9881674D01*
X11493634Y-9881674D02*
X11484110Y-9891198D01*
X11693634Y-10005484D02*
X11674587Y-9995960D01*
X11674587Y-9995960D02*
X11665063Y-9986436D01*
X11665063Y-9986436D02*
X11655539Y-9967389D01*
X11655539Y-9967389D02*
X11655539Y-9910246D01*
X11655539Y-9910246D02*
X11665063Y-9891198D01*
X11665063Y-9891198D02*
X11674587Y-9881674D01*
X11674587Y-9881674D02*
X11693634Y-9872150D01*
X11693634Y-9872150D02*
X11722206Y-9872150D01*
X11722206Y-9872150D02*
X11741253Y-9881674D01*
X11741253Y-9881674D02*
X11750777Y-9891198D01*
X11750777Y-9891198D02*
X11760301Y-9910246D01*
X11760301Y-9910246D02*
X11760301Y-9967389D01*
X11760301Y-9967389D02*
X11750777Y-9986436D01*
X11750777Y-9986436D02*
X11741253Y-9995960D01*
X11741253Y-9995960D02*
X11722206Y-10005484D01*
X11722206Y-10005484D02*
X11693634Y-10005484D01*
X11874587Y-10005484D02*
X11855539Y-9995960D01*
X11855539Y-9995960D02*
X11846015Y-9976912D01*
X11846015Y-9976912D02*
X11846015Y-9805484D01*
X12026968Y-9995960D02*
X12007920Y-10005484D01*
X12007920Y-10005484D02*
X11969825Y-10005484D01*
X11969825Y-10005484D02*
X11950777Y-9995960D01*
X11950777Y-9995960D02*
X11941253Y-9976912D01*
X11941253Y-9976912D02*
X11941253Y-9900722D01*
X11941253Y-9900722D02*
X11950777Y-9881674D01*
X11950777Y-9881674D02*
X11969825Y-9872150D01*
X11969825Y-9872150D02*
X12007920Y-9872150D01*
X12007920Y-9872150D02*
X12026968Y-9881674D01*
X12026968Y-9881674D02*
X12036491Y-9900722D01*
X12036491Y-9900722D02*
X12036491Y-9919770D01*
X12036491Y-9919770D02*
X11941253Y-9938817D01*
X12112682Y-9995960D02*
X12131730Y-10005484D01*
X12131730Y-10005484D02*
X12169825Y-10005484D01*
X12169825Y-10005484D02*
X12188872Y-9995960D01*
X12188872Y-9995960D02*
X12198396Y-9976912D01*
X12198396Y-9976912D02*
X12198396Y-9967389D01*
X12198396Y-9967389D02*
X12188872Y-9948341D01*
X12188872Y-9948341D02*
X12169825Y-9938817D01*
X12169825Y-9938817D02*
X12141253Y-9938817D01*
X12141253Y-9938817D02*
X12122206Y-9929293D01*
X12122206Y-9929293D02*
X12112682Y-9910246D01*
X12112682Y-9910246D02*
X12112682Y-9900722D01*
X12112682Y-9900722D02*
X12122206Y-9881674D01*
X12122206Y-9881674D02*
X12141253Y-9872150D01*
X12141253Y-9872150D02*
X12169825Y-9872150D01*
X12169825Y-9872150D02*
X12188872Y-9881674D01*
X12265063Y-10081674D02*
X12274587Y-10072150D01*
X12274587Y-10072150D02*
X12293634Y-10043579D01*
X12293634Y-10043579D02*
X12303158Y-10024531D01*
X12303158Y-10024531D02*
X12312682Y-9995960D01*
X12312682Y-9995960D02*
X12322206Y-9948341D01*
X12322206Y-9948341D02*
X12322206Y-9910246D01*
X12322206Y-9910246D02*
X12312682Y-9862627D01*
X12312682Y-9862627D02*
X12303158Y-9834055D01*
X12303158Y-9834055D02*
X12293634Y-9815008D01*
X12293634Y-9815008D02*
X12274587Y-9786436D01*
X12274587Y-9786436D02*
X12265063Y-9776912D01*
D11*
X7452500Y-10140500D02*
X7452500Y-10215500D01*
X7415000Y-10178000D02*
X7490000Y-10178000D01*
D10*
X7788872Y-10069484D02*
X7807920Y-10069484D01*
X7807920Y-10069484D02*
X7826967Y-10079008D01*
X7826967Y-10079008D02*
X7836491Y-10088531D01*
X7836491Y-10088531D02*
X7846015Y-10107579D01*
X7846015Y-10107579D02*
X7855539Y-10145674D01*
X7855539Y-10145674D02*
X7855539Y-10193293D01*
X7855539Y-10193293D02*
X7846015Y-10231389D01*
X7846015Y-10231389D02*
X7836491Y-10250436D01*
X7836491Y-10250436D02*
X7826967Y-10259960D01*
X7826967Y-10259960D02*
X7807920Y-10269484D01*
X7807920Y-10269484D02*
X7788872Y-10269484D01*
X7788872Y-10269484D02*
X7769824Y-10259960D01*
X7769824Y-10259960D02*
X7760301Y-10250436D01*
X7760301Y-10250436D02*
X7750777Y-10231389D01*
X7750777Y-10231389D02*
X7741253Y-10193293D01*
X7741253Y-10193293D02*
X7741253Y-10145674D01*
X7741253Y-10145674D02*
X7750777Y-10107579D01*
X7750777Y-10107579D02*
X7760301Y-10088531D01*
X7760301Y-10088531D02*
X7769824Y-10079008D01*
X7769824Y-10079008D02*
X7788872Y-10069484D01*
X7941253Y-10250436D02*
X7950777Y-10259960D01*
X7950777Y-10259960D02*
X7941253Y-10269484D01*
X7941253Y-10269484D02*
X7931729Y-10259960D01*
X7931729Y-10259960D02*
X7941253Y-10250436D01*
X7941253Y-10250436D02*
X7941253Y-10269484D01*
X8017443Y-10069484D02*
X8150777Y-10069484D01*
X8150777Y-10069484D02*
X8065062Y-10269484D01*
X8322205Y-10069484D02*
X8226967Y-10069484D01*
X8226967Y-10069484D02*
X8217443Y-10164722D01*
X8217443Y-10164722D02*
X8226967Y-10155198D01*
X8226967Y-10155198D02*
X8246015Y-10145674D01*
X8246015Y-10145674D02*
X8293634Y-10145674D01*
X8293634Y-10145674D02*
X8312682Y-10155198D01*
X8312682Y-10155198D02*
X8322205Y-10164722D01*
X8322205Y-10164722D02*
X8331729Y-10183770D01*
X8331729Y-10183770D02*
X8331729Y-10231389D01*
X8331729Y-10231389D02*
X8322205Y-10250436D01*
X8322205Y-10250436D02*
X8312682Y-10259960D01*
X8312682Y-10259960D02*
X8293634Y-10269484D01*
X8293634Y-10269484D02*
X8246015Y-10269484D01*
X8246015Y-10269484D02*
X8226967Y-10259960D01*
X8226967Y-10259960D02*
X8217443Y-10250436D01*
X8455539Y-10069484D02*
X8474586Y-10069484D01*
X8474586Y-10069484D02*
X8493634Y-10079008D01*
X8493634Y-10079008D02*
X8503158Y-10088531D01*
X8503158Y-10088531D02*
X8512682Y-10107579D01*
X8512682Y-10107579D02*
X8522205Y-10145674D01*
X8522205Y-10145674D02*
X8522205Y-10193293D01*
X8522205Y-10193293D02*
X8512682Y-10231389D01*
X8512682Y-10231389D02*
X8503158Y-10250436D01*
X8503158Y-10250436D02*
X8493634Y-10259960D01*
X8493634Y-10259960D02*
X8474586Y-10269484D01*
X8474586Y-10269484D02*
X8455539Y-10269484D01*
X8455539Y-10269484D02*
X8436491Y-10259960D01*
X8436491Y-10259960D02*
X8426967Y-10250436D01*
X8426967Y-10250436D02*
X8417444Y-10231389D01*
X8417444Y-10231389D02*
X8407920Y-10193293D01*
X8407920Y-10193293D02*
X8407920Y-10145674D01*
X8407920Y-10145674D02*
X8417444Y-10107579D01*
X8417444Y-10107579D02*
X8426967Y-10088531D01*
X8426967Y-10088531D02*
X8436491Y-10079008D01*
X8436491Y-10079008D02*
X8455539Y-10069484D01*
X8607920Y-10269484D02*
X8607920Y-10136150D01*
X8607920Y-10155198D02*
X8617444Y-10145674D01*
X8617444Y-10145674D02*
X8636491Y-10136150D01*
X8636491Y-10136150D02*
X8665063Y-10136150D01*
X8665063Y-10136150D02*
X8684110Y-10145674D01*
X8684110Y-10145674D02*
X8693634Y-10164722D01*
X8693634Y-10164722D02*
X8693634Y-10269484D01*
X8693634Y-10164722D02*
X8703158Y-10145674D01*
X8703158Y-10145674D02*
X8722205Y-10136150D01*
X8722205Y-10136150D02*
X8750777Y-10136150D01*
X8750777Y-10136150D02*
X8769825Y-10145674D01*
X8769825Y-10145674D02*
X8779348Y-10164722D01*
X8779348Y-10164722D02*
X8779348Y-10269484D01*
X8874586Y-10269484D02*
X8874586Y-10136150D01*
X8874586Y-10155198D02*
X8884110Y-10145674D01*
X8884110Y-10145674D02*
X8903158Y-10136150D01*
X8903158Y-10136150D02*
X8931729Y-10136150D01*
X8931729Y-10136150D02*
X8950777Y-10145674D01*
X8950777Y-10145674D02*
X8960301Y-10164722D01*
X8960301Y-10164722D02*
X8960301Y-10269484D01*
X8960301Y-10164722D02*
X8969825Y-10145674D01*
X8969825Y-10145674D02*
X8988872Y-10136150D01*
X8988872Y-10136150D02*
X9017444Y-10136150D01*
X9017444Y-10136150D02*
X9036491Y-10145674D01*
X9036491Y-10145674D02*
X9046015Y-10164722D01*
X9046015Y-10164722D02*
X9046015Y-10269484D01*
X9436491Y-10059960D02*
X9265063Y-10317103D01*
X9693634Y-10069484D02*
X9712682Y-10069484D01*
X9712682Y-10069484D02*
X9731729Y-10079008D01*
X9731729Y-10079008D02*
X9741253Y-10088531D01*
X9741253Y-10088531D02*
X9750777Y-10107579D01*
X9750777Y-10107579D02*
X9760301Y-10145674D01*
X9760301Y-10145674D02*
X9760301Y-10193293D01*
X9760301Y-10193293D02*
X9750777Y-10231389D01*
X9750777Y-10231389D02*
X9741253Y-10250436D01*
X9741253Y-10250436D02*
X9731729Y-10259960D01*
X9731729Y-10259960D02*
X9712682Y-10269484D01*
X9712682Y-10269484D02*
X9693634Y-10269484D01*
X9693634Y-10269484D02*
X9674587Y-10259960D01*
X9674587Y-10259960D02*
X9665063Y-10250436D01*
X9665063Y-10250436D02*
X9655539Y-10231389D01*
X9655539Y-10231389D02*
X9646015Y-10193293D01*
X9646015Y-10193293D02*
X9646015Y-10145674D01*
X9646015Y-10145674D02*
X9655539Y-10107579D01*
X9655539Y-10107579D02*
X9665063Y-10088531D01*
X9665063Y-10088531D02*
X9674587Y-10079008D01*
X9674587Y-10079008D02*
X9693634Y-10069484D01*
X9846015Y-10250436D02*
X9855539Y-10259960D01*
X9855539Y-10259960D02*
X9846015Y-10269484D01*
X9846015Y-10269484D02*
X9836491Y-10259960D01*
X9836491Y-10259960D02*
X9846015Y-10250436D01*
X9846015Y-10250436D02*
X9846015Y-10269484D01*
X9979348Y-10069484D02*
X9998396Y-10069484D01*
X9998396Y-10069484D02*
X10017444Y-10079008D01*
X10017444Y-10079008D02*
X10026968Y-10088531D01*
X10026968Y-10088531D02*
X10036491Y-10107579D01*
X10036491Y-10107579D02*
X10046015Y-10145674D01*
X10046015Y-10145674D02*
X10046015Y-10193293D01*
X10046015Y-10193293D02*
X10036491Y-10231389D01*
X10036491Y-10231389D02*
X10026968Y-10250436D01*
X10026968Y-10250436D02*
X10017444Y-10259960D01*
X10017444Y-10259960D02*
X9998396Y-10269484D01*
X9998396Y-10269484D02*
X9979348Y-10269484D01*
X9979348Y-10269484D02*
X9960301Y-10259960D01*
X9960301Y-10259960D02*
X9950777Y-10250436D01*
X9950777Y-10250436D02*
X9941253Y-10231389D01*
X9941253Y-10231389D02*
X9931729Y-10193293D01*
X9931729Y-10193293D02*
X9931729Y-10145674D01*
X9931729Y-10145674D02*
X9941253Y-10107579D01*
X9941253Y-10107579D02*
X9950777Y-10088531D01*
X9950777Y-10088531D02*
X9960301Y-10079008D01*
X9960301Y-10079008D02*
X9979348Y-10069484D01*
X10122206Y-10088531D02*
X10131729Y-10079008D01*
X10131729Y-10079008D02*
X10150777Y-10069484D01*
X10150777Y-10069484D02*
X10198396Y-10069484D01*
X10198396Y-10069484D02*
X10217444Y-10079008D01*
X10217444Y-10079008D02*
X10226968Y-10088531D01*
X10226968Y-10088531D02*
X10236491Y-10107579D01*
X10236491Y-10107579D02*
X10236491Y-10126627D01*
X10236491Y-10126627D02*
X10226968Y-10155198D01*
X10226968Y-10155198D02*
X10112682Y-10269484D01*
X10112682Y-10269484D02*
X10236491Y-10269484D01*
X10331729Y-10269484D02*
X10369825Y-10269484D01*
X10369825Y-10269484D02*
X10388872Y-10259960D01*
X10388872Y-10259960D02*
X10398396Y-10250436D01*
X10398396Y-10250436D02*
X10417444Y-10221865D01*
X10417444Y-10221865D02*
X10426968Y-10183770D01*
X10426968Y-10183770D02*
X10426968Y-10107579D01*
X10426968Y-10107579D02*
X10417444Y-10088531D01*
X10417444Y-10088531D02*
X10407920Y-10079008D01*
X10407920Y-10079008D02*
X10388872Y-10069484D01*
X10388872Y-10069484D02*
X10350777Y-10069484D01*
X10350777Y-10069484D02*
X10331729Y-10079008D01*
X10331729Y-10079008D02*
X10322206Y-10088531D01*
X10322206Y-10088531D02*
X10312682Y-10107579D01*
X10312682Y-10107579D02*
X10312682Y-10155198D01*
X10312682Y-10155198D02*
X10322206Y-10174246D01*
X10322206Y-10174246D02*
X10331729Y-10183770D01*
X10331729Y-10183770D02*
X10350777Y-10193293D01*
X10350777Y-10193293D02*
X10388872Y-10193293D01*
X10388872Y-10193293D02*
X10407920Y-10183770D01*
X10407920Y-10183770D02*
X10417444Y-10174246D01*
X10417444Y-10174246D02*
X10426968Y-10155198D01*
X10607920Y-10069484D02*
X10512682Y-10069484D01*
X10512682Y-10069484D02*
X10503158Y-10164722D01*
X10503158Y-10164722D02*
X10512682Y-10155198D01*
X10512682Y-10155198D02*
X10531729Y-10145674D01*
X10531729Y-10145674D02*
X10579349Y-10145674D01*
X10579349Y-10145674D02*
X10598396Y-10155198D01*
X10598396Y-10155198D02*
X10607920Y-10164722D01*
X10607920Y-10164722D02*
X10617444Y-10183770D01*
X10617444Y-10183770D02*
X10617444Y-10231389D01*
X10617444Y-10231389D02*
X10607920Y-10250436D01*
X10607920Y-10250436D02*
X10598396Y-10259960D01*
X10598396Y-10259960D02*
X10579349Y-10269484D01*
X10579349Y-10269484D02*
X10531729Y-10269484D01*
X10531729Y-10269484D02*
X10512682Y-10259960D01*
X10512682Y-10259960D02*
X10503158Y-10250436D01*
X10693634Y-10069484D02*
X10693634Y-10107579D01*
X10769825Y-10069484D02*
X10769825Y-10107579D01*
X11065063Y-10345674D02*
X11055539Y-10336150D01*
X11055539Y-10336150D02*
X11036491Y-10307579D01*
X11036491Y-10307579D02*
X11026968Y-10288531D01*
X11026968Y-10288531D02*
X11017444Y-10259960D01*
X11017444Y-10259960D02*
X11007920Y-10212341D01*
X11007920Y-10212341D02*
X11007920Y-10174246D01*
X11007920Y-10174246D02*
X11017444Y-10126627D01*
X11017444Y-10126627D02*
X11026968Y-10098055D01*
X11026968Y-10098055D02*
X11036491Y-10079008D01*
X11036491Y-10079008D02*
X11055539Y-10050436D01*
X11055539Y-10050436D02*
X11065063Y-10040912D01*
X11131730Y-10088531D02*
X11141253Y-10079008D01*
X11141253Y-10079008D02*
X11160301Y-10069484D01*
X11160301Y-10069484D02*
X11207920Y-10069484D01*
X11207920Y-10069484D02*
X11226968Y-10079008D01*
X11226968Y-10079008D02*
X11236491Y-10088531D01*
X11236491Y-10088531D02*
X11246015Y-10107579D01*
X11246015Y-10107579D02*
X11246015Y-10126627D01*
X11246015Y-10126627D02*
X11236491Y-10155198D01*
X11236491Y-10155198D02*
X11122206Y-10269484D01*
X11122206Y-10269484D02*
X11246015Y-10269484D01*
X11484110Y-10269484D02*
X11484110Y-10069484D01*
X11569825Y-10269484D02*
X11569825Y-10164722D01*
X11569825Y-10164722D02*
X11560301Y-10145674D01*
X11560301Y-10145674D02*
X11541253Y-10136150D01*
X11541253Y-10136150D02*
X11512682Y-10136150D01*
X11512682Y-10136150D02*
X11493634Y-10145674D01*
X11493634Y-10145674D02*
X11484110Y-10155198D01*
X11693634Y-10269484D02*
X11674587Y-10259960D01*
X11674587Y-10259960D02*
X11665063Y-10250436D01*
X11665063Y-10250436D02*
X11655539Y-10231389D01*
X11655539Y-10231389D02*
X11655539Y-10174246D01*
X11655539Y-10174246D02*
X11665063Y-10155198D01*
X11665063Y-10155198D02*
X11674587Y-10145674D01*
X11674587Y-10145674D02*
X11693634Y-10136150D01*
X11693634Y-10136150D02*
X11722206Y-10136150D01*
X11722206Y-10136150D02*
X11741253Y-10145674D01*
X11741253Y-10145674D02*
X11750777Y-10155198D01*
X11750777Y-10155198D02*
X11760301Y-10174246D01*
X11760301Y-10174246D02*
X11760301Y-10231389D01*
X11760301Y-10231389D02*
X11750777Y-10250436D01*
X11750777Y-10250436D02*
X11741253Y-10259960D01*
X11741253Y-10259960D02*
X11722206Y-10269484D01*
X11722206Y-10269484D02*
X11693634Y-10269484D01*
X11874587Y-10269484D02*
X11855539Y-10259960D01*
X11855539Y-10259960D02*
X11846015Y-10240912D01*
X11846015Y-10240912D02*
X11846015Y-10069484D01*
X12026968Y-10259960D02*
X12007920Y-10269484D01*
X12007920Y-10269484D02*
X11969825Y-10269484D01*
X11969825Y-10269484D02*
X11950777Y-10259960D01*
X11950777Y-10259960D02*
X11941253Y-10240912D01*
X11941253Y-10240912D02*
X11941253Y-10164722D01*
X11941253Y-10164722D02*
X11950777Y-10145674D01*
X11950777Y-10145674D02*
X11969825Y-10136150D01*
X11969825Y-10136150D02*
X12007920Y-10136150D01*
X12007920Y-10136150D02*
X12026968Y-10145674D01*
X12026968Y-10145674D02*
X12036491Y-10164722D01*
X12036491Y-10164722D02*
X12036491Y-10183770D01*
X12036491Y-10183770D02*
X11941253Y-10202817D01*
X12112682Y-10259960D02*
X12131730Y-10269484D01*
X12131730Y-10269484D02*
X12169825Y-10269484D01*
X12169825Y-10269484D02*
X12188872Y-10259960D01*
X12188872Y-10259960D02*
X12198396Y-10240912D01*
X12198396Y-10240912D02*
X12198396Y-10231389D01*
X12198396Y-10231389D02*
X12188872Y-10212341D01*
X12188872Y-10212341D02*
X12169825Y-10202817D01*
X12169825Y-10202817D02*
X12141253Y-10202817D01*
X12141253Y-10202817D02*
X12122206Y-10193293D01*
X12122206Y-10193293D02*
X12112682Y-10174246D01*
X12112682Y-10174246D02*
X12112682Y-10164722D01*
X12112682Y-10164722D02*
X12122206Y-10145674D01*
X12122206Y-10145674D02*
X12141253Y-10136150D01*
X12141253Y-10136150D02*
X12169825Y-10136150D01*
X12169825Y-10136150D02*
X12188872Y-10145674D01*
X12265063Y-10345674D02*
X12274587Y-10336150D01*
X12274587Y-10336150D02*
X12293634Y-10307579D01*
X12293634Y-10307579D02*
X12303158Y-10288531D01*
X12303158Y-10288531D02*
X12312682Y-10259960D01*
X12312682Y-10259960D02*
X12322206Y-10212341D01*
X12322206Y-10212341D02*
X12322206Y-10174246D01*
X12322206Y-10174246D02*
X12312682Y-10126627D01*
X12312682Y-10126627D02*
X12303158Y-10098055D01*
X12303158Y-10098055D02*
X12293634Y-10079008D01*
X12293634Y-10079008D02*
X12274587Y-10050436D01*
X12274587Y-10050436D02*
X12265063Y-10040912D01*
D11*
X7477552Y-10472052D02*
X7477552Y-10411948D01*
X7417448Y-10411948D01*
X7417448Y-10472052D01*
X7477552Y-10472052D01*
D10*
X7788872Y-10333484D02*
X7807920Y-10333484D01*
X7807920Y-10333484D02*
X7826967Y-10343008D01*
X7826967Y-10343008D02*
X7836491Y-10352531D01*
X7836491Y-10352531D02*
X7846015Y-10371579D01*
X7846015Y-10371579D02*
X7855539Y-10409674D01*
X7855539Y-10409674D02*
X7855539Y-10457293D01*
X7855539Y-10457293D02*
X7846015Y-10495389D01*
X7846015Y-10495389D02*
X7836491Y-10514436D01*
X7836491Y-10514436D02*
X7826967Y-10523960D01*
X7826967Y-10523960D02*
X7807920Y-10533484D01*
X7807920Y-10533484D02*
X7788872Y-10533484D01*
X7788872Y-10533484D02*
X7769824Y-10523960D01*
X7769824Y-10523960D02*
X7760301Y-10514436D01*
X7760301Y-10514436D02*
X7750777Y-10495389D01*
X7750777Y-10495389D02*
X7741253Y-10457293D01*
X7741253Y-10457293D02*
X7741253Y-10409674D01*
X7741253Y-10409674D02*
X7750777Y-10371579D01*
X7750777Y-10371579D02*
X7760301Y-10352531D01*
X7760301Y-10352531D02*
X7769824Y-10343008D01*
X7769824Y-10343008D02*
X7788872Y-10333484D01*
X7941253Y-10514436D02*
X7950777Y-10523960D01*
X7950777Y-10523960D02*
X7941253Y-10533484D01*
X7941253Y-10533484D02*
X7931729Y-10523960D01*
X7931729Y-10523960D02*
X7941253Y-10514436D01*
X7941253Y-10514436D02*
X7941253Y-10533484D01*
X8065062Y-10419198D02*
X8046015Y-10409674D01*
X8046015Y-10409674D02*
X8036491Y-10400150D01*
X8036491Y-10400150D02*
X8026967Y-10381103D01*
X8026967Y-10381103D02*
X8026967Y-10371579D01*
X8026967Y-10371579D02*
X8036491Y-10352531D01*
X8036491Y-10352531D02*
X8046015Y-10343008D01*
X8046015Y-10343008D02*
X8065062Y-10333484D01*
X8065062Y-10333484D02*
X8103158Y-10333484D01*
X8103158Y-10333484D02*
X8122205Y-10343008D01*
X8122205Y-10343008D02*
X8131729Y-10352531D01*
X8131729Y-10352531D02*
X8141253Y-10371579D01*
X8141253Y-10371579D02*
X8141253Y-10381103D01*
X8141253Y-10381103D02*
X8131729Y-10400150D01*
X8131729Y-10400150D02*
X8122205Y-10409674D01*
X8122205Y-10409674D02*
X8103158Y-10419198D01*
X8103158Y-10419198D02*
X8065062Y-10419198D01*
X8065062Y-10419198D02*
X8046015Y-10428722D01*
X8046015Y-10428722D02*
X8036491Y-10438246D01*
X8036491Y-10438246D02*
X8026967Y-10457293D01*
X8026967Y-10457293D02*
X8026967Y-10495389D01*
X8026967Y-10495389D02*
X8036491Y-10514436D01*
X8036491Y-10514436D02*
X8046015Y-10523960D01*
X8046015Y-10523960D02*
X8065062Y-10533484D01*
X8065062Y-10533484D02*
X8103158Y-10533484D01*
X8103158Y-10533484D02*
X8122205Y-10523960D01*
X8122205Y-10523960D02*
X8131729Y-10514436D01*
X8131729Y-10514436D02*
X8141253Y-10495389D01*
X8141253Y-10495389D02*
X8141253Y-10457293D01*
X8141253Y-10457293D02*
X8131729Y-10438246D01*
X8131729Y-10438246D02*
X8122205Y-10428722D01*
X8122205Y-10428722D02*
X8103158Y-10419198D01*
X8322205Y-10333484D02*
X8226967Y-10333484D01*
X8226967Y-10333484D02*
X8217443Y-10428722D01*
X8217443Y-10428722D02*
X8226967Y-10419198D01*
X8226967Y-10419198D02*
X8246015Y-10409674D01*
X8246015Y-10409674D02*
X8293634Y-10409674D01*
X8293634Y-10409674D02*
X8312682Y-10419198D01*
X8312682Y-10419198D02*
X8322205Y-10428722D01*
X8322205Y-10428722D02*
X8331729Y-10447770D01*
X8331729Y-10447770D02*
X8331729Y-10495389D01*
X8331729Y-10495389D02*
X8322205Y-10514436D01*
X8322205Y-10514436D02*
X8312682Y-10523960D01*
X8312682Y-10523960D02*
X8293634Y-10533484D01*
X8293634Y-10533484D02*
X8246015Y-10533484D01*
X8246015Y-10533484D02*
X8226967Y-10523960D01*
X8226967Y-10523960D02*
X8217443Y-10514436D01*
X8455539Y-10333484D02*
X8474586Y-10333484D01*
X8474586Y-10333484D02*
X8493634Y-10343008D01*
X8493634Y-10343008D02*
X8503158Y-10352531D01*
X8503158Y-10352531D02*
X8512682Y-10371579D01*
X8512682Y-10371579D02*
X8522205Y-10409674D01*
X8522205Y-10409674D02*
X8522205Y-10457293D01*
X8522205Y-10457293D02*
X8512682Y-10495389D01*
X8512682Y-10495389D02*
X8503158Y-10514436D01*
X8503158Y-10514436D02*
X8493634Y-10523960D01*
X8493634Y-10523960D02*
X8474586Y-10533484D01*
X8474586Y-10533484D02*
X8455539Y-10533484D01*
X8455539Y-10533484D02*
X8436491Y-10523960D01*
X8436491Y-10523960D02*
X8426967Y-10514436D01*
X8426967Y-10514436D02*
X8417444Y-10495389D01*
X8417444Y-10495389D02*
X8407920Y-10457293D01*
X8407920Y-10457293D02*
X8407920Y-10409674D01*
X8407920Y-10409674D02*
X8417444Y-10371579D01*
X8417444Y-10371579D02*
X8426967Y-10352531D01*
X8426967Y-10352531D02*
X8436491Y-10343008D01*
X8436491Y-10343008D02*
X8455539Y-10333484D01*
X8607920Y-10533484D02*
X8607920Y-10400150D01*
X8607920Y-10419198D02*
X8617444Y-10409674D01*
X8617444Y-10409674D02*
X8636491Y-10400150D01*
X8636491Y-10400150D02*
X8665063Y-10400150D01*
X8665063Y-10400150D02*
X8684110Y-10409674D01*
X8684110Y-10409674D02*
X8693634Y-10428722D01*
X8693634Y-10428722D02*
X8693634Y-10533484D01*
X8693634Y-10428722D02*
X8703158Y-10409674D01*
X8703158Y-10409674D02*
X8722205Y-10400150D01*
X8722205Y-10400150D02*
X8750777Y-10400150D01*
X8750777Y-10400150D02*
X8769825Y-10409674D01*
X8769825Y-10409674D02*
X8779348Y-10428722D01*
X8779348Y-10428722D02*
X8779348Y-10533484D01*
X8874586Y-10533484D02*
X8874586Y-10400150D01*
X8874586Y-10419198D02*
X8884110Y-10409674D01*
X8884110Y-10409674D02*
X8903158Y-10400150D01*
X8903158Y-10400150D02*
X8931729Y-10400150D01*
X8931729Y-10400150D02*
X8950777Y-10409674D01*
X8950777Y-10409674D02*
X8960301Y-10428722D01*
X8960301Y-10428722D02*
X8960301Y-10533484D01*
X8960301Y-10428722D02*
X8969825Y-10409674D01*
X8969825Y-10409674D02*
X8988872Y-10400150D01*
X8988872Y-10400150D02*
X9017444Y-10400150D01*
X9017444Y-10400150D02*
X9036491Y-10409674D01*
X9036491Y-10409674D02*
X9046015Y-10428722D01*
X9046015Y-10428722D02*
X9046015Y-10533484D01*
X9436491Y-10323960D02*
X9265063Y-10581103D01*
X9693634Y-10333484D02*
X9712682Y-10333484D01*
X9712682Y-10333484D02*
X9731729Y-10343008D01*
X9731729Y-10343008D02*
X9741253Y-10352531D01*
X9741253Y-10352531D02*
X9750777Y-10371579D01*
X9750777Y-10371579D02*
X9760301Y-10409674D01*
X9760301Y-10409674D02*
X9760301Y-10457293D01*
X9760301Y-10457293D02*
X9750777Y-10495389D01*
X9750777Y-10495389D02*
X9741253Y-10514436D01*
X9741253Y-10514436D02*
X9731729Y-10523960D01*
X9731729Y-10523960D02*
X9712682Y-10533484D01*
X9712682Y-10533484D02*
X9693634Y-10533484D01*
X9693634Y-10533484D02*
X9674587Y-10523960D01*
X9674587Y-10523960D02*
X9665063Y-10514436D01*
X9665063Y-10514436D02*
X9655539Y-10495389D01*
X9655539Y-10495389D02*
X9646015Y-10457293D01*
X9646015Y-10457293D02*
X9646015Y-10409674D01*
X9646015Y-10409674D02*
X9655539Y-10371579D01*
X9655539Y-10371579D02*
X9665063Y-10352531D01*
X9665063Y-10352531D02*
X9674587Y-10343008D01*
X9674587Y-10343008D02*
X9693634Y-10333484D01*
X9846015Y-10514436D02*
X9855539Y-10523960D01*
X9855539Y-10523960D02*
X9846015Y-10533484D01*
X9846015Y-10533484D02*
X9836491Y-10523960D01*
X9836491Y-10523960D02*
X9846015Y-10514436D01*
X9846015Y-10514436D02*
X9846015Y-10533484D01*
X9979348Y-10333484D02*
X9998396Y-10333484D01*
X9998396Y-10333484D02*
X10017444Y-10343008D01*
X10017444Y-10343008D02*
X10026968Y-10352531D01*
X10026968Y-10352531D02*
X10036491Y-10371579D01*
X10036491Y-10371579D02*
X10046015Y-10409674D01*
X10046015Y-10409674D02*
X10046015Y-10457293D01*
X10046015Y-10457293D02*
X10036491Y-10495389D01*
X10036491Y-10495389D02*
X10026968Y-10514436D01*
X10026968Y-10514436D02*
X10017444Y-10523960D01*
X10017444Y-10523960D02*
X9998396Y-10533484D01*
X9998396Y-10533484D02*
X9979348Y-10533484D01*
X9979348Y-10533484D02*
X9960301Y-10523960D01*
X9960301Y-10523960D02*
X9950777Y-10514436D01*
X9950777Y-10514436D02*
X9941253Y-10495389D01*
X9941253Y-10495389D02*
X9931729Y-10457293D01*
X9931729Y-10457293D02*
X9931729Y-10409674D01*
X9931729Y-10409674D02*
X9941253Y-10371579D01*
X9941253Y-10371579D02*
X9950777Y-10352531D01*
X9950777Y-10352531D02*
X9960301Y-10343008D01*
X9960301Y-10343008D02*
X9979348Y-10333484D01*
X10112682Y-10333484D02*
X10236491Y-10333484D01*
X10236491Y-10333484D02*
X10169825Y-10409674D01*
X10169825Y-10409674D02*
X10198396Y-10409674D01*
X10198396Y-10409674D02*
X10217444Y-10419198D01*
X10217444Y-10419198D02*
X10226968Y-10428722D01*
X10226968Y-10428722D02*
X10236491Y-10447770D01*
X10236491Y-10447770D02*
X10236491Y-10495389D01*
X10236491Y-10495389D02*
X10226968Y-10514436D01*
X10226968Y-10514436D02*
X10217444Y-10523960D01*
X10217444Y-10523960D02*
X10198396Y-10533484D01*
X10198396Y-10533484D02*
X10141253Y-10533484D01*
X10141253Y-10533484D02*
X10122206Y-10523960D01*
X10122206Y-10523960D02*
X10112682Y-10514436D01*
X10303158Y-10333484D02*
X10426968Y-10333484D01*
X10426968Y-10333484D02*
X10360301Y-10409674D01*
X10360301Y-10409674D02*
X10388872Y-10409674D01*
X10388872Y-10409674D02*
X10407920Y-10419198D01*
X10407920Y-10419198D02*
X10417444Y-10428722D01*
X10417444Y-10428722D02*
X10426968Y-10447770D01*
X10426968Y-10447770D02*
X10426968Y-10495389D01*
X10426968Y-10495389D02*
X10417444Y-10514436D01*
X10417444Y-10514436D02*
X10407920Y-10523960D01*
X10407920Y-10523960D02*
X10388872Y-10533484D01*
X10388872Y-10533484D02*
X10331729Y-10533484D01*
X10331729Y-10533484D02*
X10312682Y-10523960D01*
X10312682Y-10523960D02*
X10303158Y-10514436D01*
X10607920Y-10333484D02*
X10512682Y-10333484D01*
X10512682Y-10333484D02*
X10503158Y-10428722D01*
X10503158Y-10428722D02*
X10512682Y-10419198D01*
X10512682Y-10419198D02*
X10531729Y-10409674D01*
X10531729Y-10409674D02*
X10579349Y-10409674D01*
X10579349Y-10409674D02*
X10598396Y-10419198D01*
X10598396Y-10419198D02*
X10607920Y-10428722D01*
X10607920Y-10428722D02*
X10617444Y-10447770D01*
X10617444Y-10447770D02*
X10617444Y-10495389D01*
X10617444Y-10495389D02*
X10607920Y-10514436D01*
X10607920Y-10514436D02*
X10598396Y-10523960D01*
X10598396Y-10523960D02*
X10579349Y-10533484D01*
X10579349Y-10533484D02*
X10531729Y-10533484D01*
X10531729Y-10533484D02*
X10512682Y-10523960D01*
X10512682Y-10523960D02*
X10503158Y-10514436D01*
X10693634Y-10333484D02*
X10693634Y-10371579D01*
X10769825Y-10333484D02*
X10769825Y-10371579D01*
X11065063Y-10609674D02*
X11055539Y-10600150D01*
X11055539Y-10600150D02*
X11036491Y-10571579D01*
X11036491Y-10571579D02*
X11026968Y-10552531D01*
X11026968Y-10552531D02*
X11017444Y-10523960D01*
X11017444Y-10523960D02*
X11007920Y-10476341D01*
X11007920Y-10476341D02*
X11007920Y-10438246D01*
X11007920Y-10438246D02*
X11017444Y-10390627D01*
X11017444Y-10390627D02*
X11026968Y-10362055D01*
X11026968Y-10362055D02*
X11036491Y-10343008D01*
X11036491Y-10343008D02*
X11055539Y-10314436D01*
X11055539Y-10314436D02*
X11065063Y-10304912D01*
X11246015Y-10533484D02*
X11131730Y-10533484D01*
X11188872Y-10533484D02*
X11188872Y-10333484D01*
X11188872Y-10333484D02*
X11169825Y-10362055D01*
X11169825Y-10362055D02*
X11150777Y-10381103D01*
X11150777Y-10381103D02*
X11131730Y-10390627D01*
X11322206Y-10352531D02*
X11331729Y-10343008D01*
X11331729Y-10343008D02*
X11350777Y-10333484D01*
X11350777Y-10333484D02*
X11398396Y-10333484D01*
X11398396Y-10333484D02*
X11417444Y-10343008D01*
X11417444Y-10343008D02*
X11426968Y-10352531D01*
X11426968Y-10352531D02*
X11436491Y-10371579D01*
X11436491Y-10371579D02*
X11436491Y-10390627D01*
X11436491Y-10390627D02*
X11426968Y-10419198D01*
X11426968Y-10419198D02*
X11312682Y-10533484D01*
X11312682Y-10533484D02*
X11436491Y-10533484D01*
X11674587Y-10533484D02*
X11674587Y-10333484D01*
X11760301Y-10533484D02*
X11760301Y-10428722D01*
X11760301Y-10428722D02*
X11750777Y-10409674D01*
X11750777Y-10409674D02*
X11731730Y-10400150D01*
X11731730Y-10400150D02*
X11703158Y-10400150D01*
X11703158Y-10400150D02*
X11684110Y-10409674D01*
X11684110Y-10409674D02*
X11674587Y-10419198D01*
X11884110Y-10533484D02*
X11865063Y-10523960D01*
X11865063Y-10523960D02*
X11855539Y-10514436D01*
X11855539Y-10514436D02*
X11846015Y-10495389D01*
X11846015Y-10495389D02*
X11846015Y-10438246D01*
X11846015Y-10438246D02*
X11855539Y-10419198D01*
X11855539Y-10419198D02*
X11865063Y-10409674D01*
X11865063Y-10409674D02*
X11884110Y-10400150D01*
X11884110Y-10400150D02*
X11912682Y-10400150D01*
X11912682Y-10400150D02*
X11931730Y-10409674D01*
X11931730Y-10409674D02*
X11941253Y-10419198D01*
X11941253Y-10419198D02*
X11950777Y-10438246D01*
X11950777Y-10438246D02*
X11950777Y-10495389D01*
X11950777Y-10495389D02*
X11941253Y-10514436D01*
X11941253Y-10514436D02*
X11931730Y-10523960D01*
X11931730Y-10523960D02*
X11912682Y-10533484D01*
X11912682Y-10533484D02*
X11884110Y-10533484D01*
X12065063Y-10533484D02*
X12046015Y-10523960D01*
X12046015Y-10523960D02*
X12036491Y-10504912D01*
X12036491Y-10504912D02*
X12036491Y-10333484D01*
X12217444Y-10523960D02*
X12198396Y-10533484D01*
X12198396Y-10533484D02*
X12160301Y-10533484D01*
X12160301Y-10533484D02*
X12141253Y-10523960D01*
X12141253Y-10523960D02*
X12131730Y-10504912D01*
X12131730Y-10504912D02*
X12131730Y-10428722D01*
X12131730Y-10428722D02*
X12141253Y-10409674D01*
X12141253Y-10409674D02*
X12160301Y-10400150D01*
X12160301Y-10400150D02*
X12198396Y-10400150D01*
X12198396Y-10400150D02*
X12217444Y-10409674D01*
X12217444Y-10409674D02*
X12226968Y-10428722D01*
X12226968Y-10428722D02*
X12226968Y-10447770D01*
X12226968Y-10447770D02*
X12131730Y-10466817D01*
X12303158Y-10523960D02*
X12322206Y-10533484D01*
X12322206Y-10533484D02*
X12360301Y-10533484D01*
X12360301Y-10533484D02*
X12379349Y-10523960D01*
X12379349Y-10523960D02*
X12388872Y-10504912D01*
X12388872Y-10504912D02*
X12388872Y-10495389D01*
X12388872Y-10495389D02*
X12379349Y-10476341D01*
X12379349Y-10476341D02*
X12360301Y-10466817D01*
X12360301Y-10466817D02*
X12331730Y-10466817D01*
X12331730Y-10466817D02*
X12312682Y-10457293D01*
X12312682Y-10457293D02*
X12303158Y-10438246D01*
X12303158Y-10438246D02*
X12303158Y-10428722D01*
X12303158Y-10428722D02*
X12312682Y-10409674D01*
X12312682Y-10409674D02*
X12331730Y-10400150D01*
X12331730Y-10400150D02*
X12360301Y-10400150D01*
X12360301Y-10400150D02*
X12379349Y-10409674D01*
X12455539Y-10609674D02*
X12465063Y-10600150D01*
X12465063Y-10600150D02*
X12484111Y-10571579D01*
X12484111Y-10571579D02*
X12493634Y-10552531D01*
X12493634Y-10552531D02*
X12503158Y-10523960D01*
X12503158Y-10523960D02*
X12512682Y-10476341D01*
X12512682Y-10476341D02*
X12512682Y-10438246D01*
X12512682Y-10438246D02*
X12503158Y-10390627D01*
X12503158Y-10390627D02*
X12493634Y-10362055D01*
X12493634Y-10362055D02*
X12484111Y-10343008D01*
X12484111Y-10343008D02*
X12465063Y-10314436D01*
X12465063Y-10314436D02*
X12455539Y-10304912D01*
M02*
