%TF.GenerationSoftware,KiCad,Pcbnew,9.0.6*%
%TF.CreationDate,2026-03-25T11:26:29-04:00*%
%TF.ProjectId,newschematic,6e657773-6368-4656-9d61-7469632e6b69,0*%
%TF.SameCoordinates,Original*%
%TF.FileFunction,Profile,NP*%
%FSLAX46Y46*%
G04 Gerber Fmt 4.6, Leading zero omitted, Abs format (unit mm)*
G04 Created by KiCad (PCBNEW 9.0.6) date 2026-03-25 11:26:29*
%MOMM*%
%LPD*%
G01*
G04 APERTURE LIST*
%TA.AperFunction,Profile*%
%ADD10C,0.200000*%
%TD*%
G04 APERTURE END LIST*
D10*
X113266499Y-58000000D02*
X125000000Y-58000000D01*
X107000000Y-40000000D02*
X107000000Y-51733501D01*
X101600000Y-73500001D02*
G75*
G02*
X98400000Y-73500001I-1600000J0D01*
G01*
X98400000Y-73500001D02*
G75*
G02*
X101600000Y-73500001I1600000J0D01*
G01*
X86733501Y-72000000D02*
X75000000Y-72000000D01*
X93000000Y-90000000D02*
X93000000Y-78266499D01*
X101600000Y-56499999D02*
G75*
G02*
X98400000Y-56499999I-1600000J0D01*
G01*
X98400000Y-56499999D02*
G75*
G02*
X101600000Y-56499999I1600000J0D01*
G01*
X113266499Y-72000000D02*
X107000000Y-78266499D01*
X93000000Y-78266499D02*
X86733501Y-72000000D01*
X93099999Y-65000000D02*
G75*
G02*
X89899999Y-65000000I-1600000J0D01*
G01*
X89899999Y-65000000D02*
G75*
G02*
X93099999Y-65000000I1600000J0D01*
G01*
X93000000Y-40000000D02*
X107000000Y-40000000D01*
X110100001Y-65000000D02*
G75*
G02*
X106900001Y-65000000I-1600000J0D01*
G01*
X106900001Y-65000000D02*
G75*
G02*
X110100001Y-65000000I1600000J0D01*
G01*
X75000000Y-58000000D02*
X86733501Y-58000000D01*
X125000000Y-58000000D02*
X125000000Y-72000000D01*
X93000000Y-51733501D02*
X93000000Y-40000000D01*
X98493666Y-70356334D02*
G75*
G02*
X90793666Y-70356334I-3850000J0D01*
G01*
X90793666Y-70356334D02*
G75*
G02*
X98493666Y-70356334I3850000J0D01*
G01*
X86733501Y-58000000D02*
X93000000Y-51733501D01*
X109206334Y-59643666D02*
G75*
G02*
X101506334Y-59643666I-3850000J0D01*
G01*
X101506334Y-59643666D02*
G75*
G02*
X109206334Y-59643666I3850000J0D01*
G01*
X107000000Y-90000000D02*
X93000000Y-90000000D01*
X107000000Y-78266499D02*
X107000000Y-90000000D01*
X107000000Y-51733501D02*
X113266499Y-58000000D01*
X75000000Y-72000000D02*
X75000000Y-58000000D01*
X125000000Y-72000000D02*
X113266499Y-72000000D01*
X102150001Y-65000000D02*
G75*
G02*
X97849999Y-65000000I-2150001J0D01*
G01*
X97849999Y-65000000D02*
G75*
G02*
X102150001Y-65000000I2150001J0D01*
G01*
M02*
