%TF.GenerationSoftware,KiCad,Pcbnew,9.0.6*%
%TF.CreationDate,2026-03-25T11:26:29-04:00*%
%TF.ProjectId,newschematic,6e657773-6368-4656-9d61-7469632e6b69,0*%
%TF.SameCoordinates,Original*%
%TF.FileFunction,Paste,Bot*%
%TF.FilePolarity,Positive*%
%FSLAX46Y46*%
G04 Gerber Fmt 4.6, Leading zero omitted, Abs format (unit mm)*
G04 Created by KiCad (PCBNEW 9.0.6) date 2026-03-25 11:26:29*
%MOMM*%
%LPD*%
G01*
G04 APERTURE LIST*
G04 Aperture macros list*
%AMRoundRect*
0 Rectangle with rounded corners*
0 $1 Rounding radius*
0 $2 $3 $4 $5 $6 $7 $8 $9 X,Y pos of 4 corners*
0 Add a 4 corners polygon primitive as box body*
4,1,4,$2,$3,$4,$5,$6,$7,$8,$9,$2,$3,0*
0 Add four circle primitives for the rounded corners*
1,1,$1+$1,$2,$3*
1,1,$1+$1,$4,$5*
1,1,$1+$1,$6,$7*
1,1,$1+$1,$8,$9*
0 Add four rect primitives between the rounded corners*
20,1,$1+$1,$2,$3,$4,$5,0*
20,1,$1+$1,$4,$5,$6,$7,0*
20,1,$1+$1,$6,$7,$8,$9,0*
20,1,$1+$1,$8,$9,$2,$3,0*%
%AMRotRect*
0 Rectangle, with rotation*
0 The origin of the aperture is its center*
0 $1 length*
0 $2 width*
0 $3 Rotation angle, in degrees counterclockwise*
0 Add horizontal line*
21,1,$1,$2,0,0,$3*%
G04 Aperture macros list end*
%ADD10RoundRect,0.237500X0.008839X0.344715X-0.344715X-0.008839X-0.008839X-0.344715X0.344715X0.008839X0*%
%ADD11RoundRect,0.250000X-0.475000X0.337500X-0.475000X-0.337500X0.475000X-0.337500X0.475000X0.337500X0*%
%ADD12RoundRect,0.237500X0.044194X0.380070X-0.380070X-0.044194X-0.044194X-0.380070X0.380070X0.044194X0*%
%ADD13RoundRect,0.218750X0.218750X0.256250X-0.218750X0.256250X-0.218750X-0.256250X0.218750X-0.256250X0*%
%ADD14RoundRect,0.237500X-0.300000X-0.237500X0.300000X-0.237500X0.300000X0.237500X-0.300000X0.237500X0*%
%ADD15RoundRect,0.150000X0.950000X0.150000X-0.950000X0.150000X-0.950000X-0.150000X0.950000X-0.150000X0*%
%ADD16RoundRect,0.537500X0.537500X1.187500X-0.537500X1.187500X-0.537500X-1.187500X0.537500X-1.187500X0*%
%ADD17RoundRect,0.237500X0.237500X-0.250000X0.237500X0.250000X-0.237500X0.250000X-0.237500X-0.250000X0*%
%ADD18RotRect,0.675000X0.250000X45.000000*%
%ADD19RotRect,0.250000X0.675000X45.000000*%
%ADD20RoundRect,0.237500X-0.044194X-0.380070X0.380070X0.044194X0.044194X0.380070X-0.380070X-0.044194X0*%
%ADD21RoundRect,0.237500X0.250000X0.237500X-0.250000X0.237500X-0.250000X-0.237500X0.250000X-0.237500X0*%
%ADD22RoundRect,0.237500X-0.250000X-0.237500X0.250000X-0.237500X0.250000X0.237500X-0.250000X0.237500X0*%
%ADD23RoundRect,0.237500X-0.237500X0.250000X-0.237500X-0.250000X0.237500X-0.250000X0.237500X0.250000X0*%
%ADD24RoundRect,0.075000X0.662500X0.075000X-0.662500X0.075000X-0.662500X-0.075000X0.662500X-0.075000X0*%
%ADD25RoundRect,0.075000X0.075000X0.662500X-0.075000X0.662500X-0.075000X-0.662500X0.075000X-0.662500X0*%
%ADD26R,0.900000X1.700000*%
%ADD27RoundRect,0.237500X-0.008839X-0.344715X0.344715X0.008839X0.008839X0.344715X-0.344715X-0.008839X0*%
G04 APERTURE END LIST*
D10*
%TO.C,R3*%
X109645235Y-73754765D03*
X108354765Y-75045235D03*
%TD*%
D11*
%TO.C,C7*%
X95600000Y-43162500D03*
X95600000Y-45237500D03*
%TD*%
D12*
%TO.C,C9*%
X110100000Y-70600000D03*
X108880240Y-71819760D03*
%TD*%
D13*
%TO.C,D2*%
X116587500Y-59400000D03*
X115012500Y-59400000D03*
%TD*%
D14*
%TO.C,C10*%
X98937500Y-76100000D03*
X100662502Y-76100000D03*
%TD*%
D15*
%TO.C,U2*%
X83637500Y-62160000D03*
X83637500Y-63430000D03*
X83637500Y-64700000D03*
D16*
X77337500Y-64700000D03*
D15*
X83637500Y-65970000D03*
X83637500Y-67240000D03*
%TD*%
D17*
%TO.C,R10*%
X89300000Y-69312500D03*
X89300000Y-67487500D03*
%TD*%
D18*
%TO.C,U6*%
X104068109Y-70360660D03*
X103714555Y-70007107D03*
X103361002Y-69653554D03*
X103007449Y-69300000D03*
D19*
X103361002Y-68575216D03*
X103714555Y-68221662D03*
X104068109Y-67868109D03*
D18*
X104792893Y-67514556D03*
X105146447Y-67868109D03*
X105500000Y-68221662D03*
X105853553Y-68575216D03*
D19*
X105500000Y-69300000D03*
X105146447Y-69653554D03*
X104792893Y-70007107D03*
%TD*%
D14*
%TO.C,C13*%
X117537500Y-68100000D03*
X119262500Y-68100000D03*
%TD*%
%TO.C,C3*%
X95637499Y-76100000D03*
X97362501Y-76100000D03*
%TD*%
%TO.C,C4*%
X100600002Y-77600001D03*
X102325004Y-77600001D03*
%TD*%
D20*
%TO.C,C6*%
X92290120Y-61009880D03*
X93509880Y-59790120D03*
%TD*%
D14*
%TO.C,C17*%
X102237499Y-76100000D03*
X103962501Y-76100000D03*
%TD*%
D20*
%TO.C,C8*%
X107800000Y-70700000D03*
X109019760Y-69480240D03*
%TD*%
D10*
%TO.C,R6*%
X106545236Y-71979560D03*
X105254766Y-73270030D03*
%TD*%
D21*
%TO.C,R12*%
X120600000Y-59400000D03*
X118775000Y-59400000D03*
%TD*%
D14*
%TO.C,C2*%
X97237500Y-77600001D03*
X98962502Y-77600001D03*
%TD*%
D22*
%TO.C,R11*%
X118687500Y-61200000D03*
X120512500Y-61200000D03*
%TD*%
D13*
%TO.C,D1*%
X116587500Y-61200000D03*
X115012500Y-61200000D03*
%TD*%
D23*
%TO.C,R9*%
X87800000Y-66187500D03*
X87800000Y-68012500D03*
%TD*%
D14*
%TO.C,C12*%
X80140685Y-69499999D03*
X81865685Y-69499999D03*
%TD*%
D24*
%TO.C,U1*%
X105712500Y-80850000D03*
X105712500Y-81350000D03*
X105712500Y-81850000D03*
X105712500Y-82350000D03*
X105712500Y-82850000D03*
X105712500Y-83350000D03*
X105712500Y-83850000D03*
X105712500Y-84350000D03*
X105712500Y-84850000D03*
X105712500Y-85350000D03*
X105712500Y-85850000D03*
X105712500Y-86350000D03*
D25*
X104300000Y-87762500D03*
X103800000Y-87762500D03*
X103300000Y-87762500D03*
X102800000Y-87762500D03*
X102300000Y-87762500D03*
X101800000Y-87762500D03*
X101300000Y-87762500D03*
X100800000Y-87762500D03*
X100300000Y-87762500D03*
X99800000Y-87762500D03*
X99300000Y-87762500D03*
X98800000Y-87762500D03*
D24*
X97387500Y-86350000D03*
X97387500Y-85850000D03*
X97387500Y-85350000D03*
X97387500Y-84850000D03*
X97387500Y-84350000D03*
X97387500Y-83850000D03*
X97387500Y-83350000D03*
X97387500Y-82850000D03*
X97387500Y-82350000D03*
X97387500Y-81850000D03*
X97387500Y-81350000D03*
X97387500Y-80850000D03*
D25*
X98800000Y-79437500D03*
X99300000Y-79437500D03*
X99800000Y-79437500D03*
X100300000Y-79437500D03*
X100800000Y-79437500D03*
X101300000Y-79437500D03*
X101800000Y-79437500D03*
X102300000Y-79437500D03*
X102800000Y-79437500D03*
X103300000Y-79437500D03*
X103800000Y-79437500D03*
X104300000Y-79437500D03*
%TD*%
D26*
%TO.C,U3*%
X118300000Y-65400000D03*
X121700000Y-65400000D03*
%TD*%
D27*
%TO.C,R5*%
X106313657Y-74328922D03*
X107604127Y-73038452D03*
%TD*%
M02*
